<?xml version="1.0" standalone="no"?>
<!DOCTYPE svg PUBLIC "-//W3C//DTD SVG 1.1//EN" "http://www.w3.org/Graphics/SVG/1.1/DTD/svg11.dtd" >
<svg>
<metadata>
Created by FontForge 20090622 at Mon Feb 10 10:34:42 2020
 By deploy user
Copyright &#194;&#169; 2007 Linotype GmbH, www.linotype.com. All rights reserved. This font software may not be reproduced, modified, disclosed or transferred without the express written approval of Linotype GmbH. Eurostile is a trademark of Linotype GmbH and may be registered in certain jurisdictions. This typeface is original artwork of Linotype Design Studio. The design may be protected in certain jurisdictions.
</metadata>
<defs>
<font id="EurostileNextLTPro-Regular" horiz-adv-x="382" >
  <font-face 
    font-family="Eurostile Next LT Pro"
    font-weight="400"
    font-stretch="normal"
    units-per-em="1000"
    panose-1="2 11 5 4 2 2 2 5 2 4"
    ascent="700"
    descent="-300"
    x-height="480"
    cap-height="680"
    bbox="-96 -223 991 884"
    underline-thickness="50"
    underline-position="-50"
    unicode-range="U+000D-U+FB02"
  />
<missing-glyph horiz-adv-x="485" 
d="M263 111h-53v63h53v-63zM257 222h-46v16q0 50 11 75.5t46 55.5q28 28 37 44.5t9 35.5q0 33 -21 56.5t-51 23.5q-67 0 -77 -90l-48 8q7 66 41 98t87 32q52 0 85 -34t33 -90q0 -32 -12.5 -56.5t-47.5 -56.5q-33 -30 -39.5 -45.5t-6.5 -55.5v-17zM47 47h391v585h-391v-585z
M0 680h485v-680h-485v680z" />
    <glyph glyph-name="IJ" unicode="IJ" horiz-adv-x="762" 
d="M152 680v-680h-83v680h83zM479 -6h-19q-125 0 -161 38t-36 171v27h76v-21q0 -97 21 -121.5t103 -24.5h15q92 0 114.5 26.5t22.5 135.5v455h83v-450q0 -79 -7.5 -122t-33 -70.5t-65.5 -35.5t-113 -8z" />
    <glyph glyph-name="ij" unicode="ij" horiz-adv-x="413" 
d="M142 480v-480h-77v480h77zM142 680v-88h-77v88h77zM349 480v-525q0 -73 -23.5 -100.5t-78.5 -27.5q-23 0 -36 3v61q10 -1 21 -1q24 0 32 13t8 61v516h77zM349 680v-88h-77v88h77z" />
    <glyph glyph-name="napostrophe" unicode="&#x22;n" horiz-adv-x="550" 
d="M488 302v-302h-77v282q0 91 -21 116.5t-96 25.5h-10q-71 0 -101 -29.5t-30 -112.5v-282h-77v480h76v-77h1q17 43 51.5 63t105.5 20h9q101 0 135 -37t34 -147zM68 670v-73q0 -57 -15.5 -80t-55.5 -27v35q16 4 21 15.5t5 47.5v7h-22v75h67z" />
    <glyph glyph-name="fi.sc" unicode="&#xe00a;&#xe00d;" horiz-adv-x="669" 
d="M406 287v-57h-262v-230h-77v528h354v-59h-277v-182h262zM602 528v-528h-77v528h77z" />
    <glyph glyph-name="fl.sc" unicode="&#xe00a;&#xe010;" horiz-adv-x="873" 
d="M406 287v-57h-262v-230h-77v528h354v-59h-277v-182h262zM861 61v-61h-336v528h77v-467h259z" />
    <glyph glyph-name="ij.sc" unicode="&#xe00d;&#xe00e;" horiz-adv-x="670" 
d="M144 528v-528h-77v528h77zM426 -5h-16q-102 0 -132 29.5t-30 131.5v28h71v-20q0 -70 16 -88.5t77 -18.5h13q72 0 89 19t17 100v352h77v-348q0 -117 -33.5 -151t-148.5 -34z" />
    <glyph glyph-name="fi" unicode="fi" horiz-adv-x="471" 
d="M158 423v-423h-77v423h-61v57h61v44q0 93 31 127t111 34q39 0 68 -4v-57q-24 3 -50 3q-51 0 -67 -20t-16 -87v-40h112v-57h-112zM406 480v-480h-77v480h77zM406 680v-88h-77v88h77z" />
    <glyph glyph-name="fl" unicode="fl" horiz-adv-x="471" 
d="M158 423v-423h-77v423h-61v57h61v44q0 93 31 127t111 34q39 0 68 -4v-57q-24 3 -50 3q-51 0 -67 -20t-16 -87v-40h112v-57h-112zM406 680v-680h-77v680h77z" />
    <glyph glyph-name=".notdef" horiz-adv-x="485" 
d="M263 111h-53v63h53v-63zM257 222h-46v16q0 50 11 75.5t46 55.5q28 28 37 44.5t9 35.5q0 33 -21 56.5t-51 23.5q-67 0 -77 -90l-48 8q7 66 41 98t87 32q52 0 85 -34t33 -90q0 -32 -12.5 -56.5t-47.5 -56.5q-33 -30 -39.5 -45.5t-6.5 -55.5v-17zM47 47h391v585h-391v-585z
M0 680h485v-680h-485v680z" />
    <glyph glyph-name=".null" horiz-adv-x="500" 
 />
    <glyph glyph-name="nonmarkingreturn" horiz-adv-x="333" 
 />
    <glyph glyph-name="CR" unicode="&#xd;" horiz-adv-x="0" 
 />
    <glyph glyph-name="space" unicode=" " horiz-adv-x="247" 
 />
    <glyph glyph-name="exclam" unicode="!" horiz-adv-x="238" 
d="M159 680l-5 -495h-70l-5 495h80zM160 106v-106h-82v106h82z" />
    <glyph glyph-name="quotedbl" unicode="&#x22;" horiz-adv-x="337" 
d="M124 708v-245h-58v245h58zM270 708v-245h-58v245h58z" />
    <glyph glyph-name="numbersign" unicode="#" horiz-adv-x="613" 
d="M416 208l-35 -208h-60l36 208h-147l-35 -208h-60l35 208h-100v55h110l32 188h-110v54h119l30 175h60l-30 -175h147l30 175h59l-30 -175h110v-54h-119l-32 -188h119v-55h-129zM219 263h147l32 188h-146z" />
    <glyph glyph-name="dollar" unicode="$" horiz-adv-x="627" 
d="M338 -6v-75h-40v75q-80 0 -124 7t-70.5 29.5t-33.5 55.5t-7 96v31h77v-24q0 -84 27 -106t131 -23v256q-140 12 -183.5 46t-43.5 129v16q0 105 47.5 142t179.5 37v64h40v-64q71 -1 112 -9.5t66 -31t33 -55.5t8 -91v-22h-76v19q0 77 -27 101t-116 25v-240
q146 -13 190.5 -48t44.5 -133v-16q0 -116 -46 -153t-189 -38zM338 310v-250q100 1 129 22.5t29 98.5v17q0 62 -28 83t-130 29zM148 506v-15q0 -39 10 -57.5t41.5 -30t98.5 -16.5v235q-93 -1 -121.5 -23t-28.5 -93z" />
    <glyph glyph-name="percent" unicode="%" horiz-adv-x="718" 
d="M186 376h-10q-70 0 -93 27.5t-23 114.5v21q0 87 23 114.5t93 27.5h10q70 0 93 -27t23 -115v-21q0 -88 -23 -115t-93 -27zM177 417h9q40 0 51 17t11 82v25q0 65 -11 82.5t-51 17.5h-9q-40 0 -51.5 -17.5t-11.5 -82.5v-25q0 -65 11.5 -82t51.5 -17zM512 680l-260 -680h-51
l260 680h51zM541 -1h-10q-70 0 -93 27.5t-23 114.5v21q0 87 23 114.5t93 27.5h10q70 0 93 -27t23 -115v-21q0 -88 -23 -115t-93 -27zM532 40h9q40 0 51 17t11 82v25q0 65 -11 82.5t-51 17.5h-9q-40 0 -51.5 -17.5t-11.5 -82.5v-25q0 -65 11.5 -82t51.5 -17z" />
    <glyph glyph-name="ampersand" unicode="&#x26;" horiz-adv-x="709" 
d="M588 344v-77q0 -95 -5 -136l100 -82l-41 -51l-79 65q-21 -38 -68 -53.5t-165 -15.5h-17q-112 0 -164 17t-70 58t-18 130v16q0 91 22 131t83 47q-30 27 -42.5 55t-12.5 76v17q0 87 43 116t167 29h17q69 0 107.5 -6.5t61.5 -27t29.5 -50.5t6.5 -86v-25h-73v27
q0 70 -22 88.5t-109 18.5h-16q-86 0 -109 -16.5t-23 -75.5v-12q0 -42 12.5 -65t55.5 -58l261 -215v161h68zM317 58h13q91 0 126.5 10.5t50.5 40.5l-296 243q-46 -4 -59.5 -31.5t-13.5 -100.5v-13q0 -98 30.5 -123.5t148.5 -25.5z" />
    <glyph glyph-name="quotesingle" unicode="'" horiz-adv-x="190" 
d="M124 708v-245h-58v245h58z" />
    <glyph glyph-name="parenleft" unicode="(" horiz-adv-x="299" 
d="M246 54v-62h-14q-40 0 -62.5 3t-45 15t-33.5 33t-20 60t-12 92.5t-3 134.5v20q0 81 3 134.5t12 92.5t20 60t33.5 33t45 15t62.5 3h14v-62h-12q-47 0 -66 -15.5t-28 -72.5t-9 -192v-12q0 -135 9 -192t28 -72.5t66 -15.5h12z" />
    <glyph glyph-name="parenright" unicode=")" horiz-adv-x="299" 
d="M65 -8h-13v62h12q47 0 66 15.5t28 72.5t9 192v13q0 82 -3 130.5t-8 81t-19 45.5t-29 17.5t-44 4.5h-12v62h13q40 0 63 -3t45.5 -15t33.5 -32.5t20 -59.5t12 -92.5t3 -134.5v-21q0 -81 -3 -134.5t-12 -92.5t-20 -60t-33.5 -33t-45.5 -15t-63 -3z" />
    <glyph glyph-name="asterisk" unicode="*" horiz-adv-x="424" 
d="M184 691h56l-7 -126h-42zM349 623l25 -44l-106 -53l-18 31zM374 452l-25 -44l-99 66l18 31zM240 340h-56l7 126h42zM75 408l-25 44l106 53l18 -31zM50 579l25 44l99 -66l-18 -31z" />
    <glyph glyph-name="plus" unicode="+" horiz-adv-x="527" 
d="M295 275v-184h-64v184h-172v60h172v180h64v-180h173v-60h-173z" />
    <glyph glyph-name="comma" unicode="," horiz-adv-x="202" 
d="M142 106v-127q0 -59 -21.5 -80.5t-77.5 -21.5v44q26 0 35.5 11t9.5 41v27h-28v106h82z" />
    <glyph glyph-name="hyphen" unicode="-" horiz-adv-x="374" 
d="M314 285v-69h-254v69h254z" />
    <glyph glyph-name="period" unicode="." horiz-adv-x="202" 
d="M142 106v-106h-82v106h82z" />
    <glyph glyph-name="slash" unicode="/" horiz-adv-x="415" 
d="M371 688l-264 -696h-62l264 696h62z" />
    <glyph glyph-name="zero" unicode="0" horiz-adv-x="625" 
d="M305 62h15q40 0 63.5 2.5t45 12t31.5 24t18 44t10 66.5t2 96v66q0 59 -2 96t-10 66.5t-18 44t-31.5 24t-45 12t-63.5 2.5h-15q-60 0 -89.5 -6t-50 -33.5t-25.5 -72.5t-5 -133v-66q0 -88 5 -133t25.5 -72.5t50 -33.5t89.5 -6zM322 -6h-19q-55 0 -90.5 4t-65 17.5t-45.5 34
t-27.5 58t-15 85t-3.5 118.5v59q0 71 3.5 118t15 84.5t27.5 58t45.5 34t65 17.5t90.5 4h19q55 0 90.5 -4t65 -17.5t45.5 -34t27.5 -58t15 -84.5t3.5 -118v-59q0 -71 -3.5 -118.5t-15 -85t-27.5 -58t-45.5 -34t-65 -17.5t-90.5 -4z" />
    <glyph glyph-name="one" unicode="1" horiz-adv-x="410" 
d="M295 680v-680h-81v603h-2l-152 -156l-46 50l182 183h99z" />
    <glyph glyph-name="two" unicode="2" horiz-adv-x="607" 
d="M555 65v-65h-495q-1 13 -1 91q0 72 7 110t34.5 66.5t70.5 41t126 24.5q113 17 144 43t31 106v18q0 76 -29 99t-128 23h-14q-103 0 -129.5 -25t-26.5 -118v-20h-76v18q0 68 8 105.5t34 62.5t69 33t119 8h13q101 0 151.5 -16t70 -54t19.5 -114v-19q0 -112 -44 -152
t-180 -60q-49 -7 -76 -12.5t-51.5 -15t-34.5 -18.5t-17.5 -27.5t-9 -38.5t-1.5 -55v-39h416z" />
    <glyph glyph-name="three" unicode="3" horiz-adv-x="615" 
d="M563 196v-21q0 -75 -21 -112.5t-74.5 -53t-160.5 -15.5h-20q-62 0 -100 5t-65.5 17t-40.5 37t-18 57.5t-5 86.5v23h76v-24q0 -90 26 -113t129 -23h17q114 0 145 21.5t31 99.5v20q0 69 -23 91.5t-92 22.5h-131v63h125q66 0 87.5 21t21.5 85v20q0 73 -29.5 95t-133.5 22
h-13q-99 0 -126 -23t-27 -113v-24h-75v24q0 65 8 101.5t33.5 60.5t67.5 31.5t117 7.5h16q149 0 195.5 -34.5t46.5 -142.5v-18q0 -71 -18 -100.5t-65 -41.5v-2q51 -11 73.5 -41.5t22.5 -109.5z" />
    <glyph glyph-name="four" unicode="4" horiz-adv-x="624" 
d="M496 157v-157h-77v157h-373v85l338 438h112v-459h82v-64h-82zM117 221h302v395h-3l-299 -392v-3z" />
    <glyph glyph-name="five" unicode="5" horiz-adv-x="615" 
d="M315 -6h-22q-78 0 -121 7t-69.5 30t-34 58t-7.5 99v16h75v-14q0 -86 28.5 -108t134.5 -22h17q58 0 89.5 5t50 23t23.5 43.5t5 75.5v21q0 100 -27 126.5t-134 26.5h-20q-84 0 -114.5 -11t-42.5 -49h-75v359h476v-64h-401v-225h1q16 31 53.5 43.5t124.5 12.5h22
q135 0 176.5 -40t41.5 -166v-35q0 -89 -19.5 -132t-71.5 -61.5t-159 -18.5z" />
    <glyph glyph-name="six" unicode="6" horiz-adv-x="615" 
d="M318 -6h-19q-82 0 -126.5 8.5t-72 38t-35 74.5t-7.5 129v127q0 73 3.5 121t15 85t27.5 57t46.5 32.5t65.5 16t92 3.5h18q140 0 181.5 -35t41.5 -153v-19h-75v17q0 80 -26.5 102t-123.5 22h-14q-41 0 -65 -2t-46 -10.5t-32 -22t-17.5 -40.5t-9.5 -61t-2 -89v-57h1
q16 35 55 50.5t119 15.5h17q144 0 188 -36t44 -156v-25q0 -81 -19.5 -120.5t-70.5 -56t-154 -16.5zM303 60h13q110 0 139 23t29 107v17q0 85 -29.5 109t-138.5 24h-13q-97 0 -131.5 -21.5t-34.5 -88.5v-15q0 -102 29 -128.5t137 -26.5z" />
    <glyph glyph-name="seven" unicode="7" horiz-adv-x="577" 
d="M539 617l-321 -617h-90l321 610v3h-411v67h501v-63z" />
    <glyph glyph-name="eight" unicode="8" horiz-adv-x="616" 
d="M300 384h15q107 0 133 19t26 93v17q0 69 -28.5 89.5t-129.5 20.5h-16q-102 0 -130.5 -20.5t-28.5 -89.5v-17q0 -39 4.5 -58.5t22.5 -33t47 -17t85 -3.5zM300 59h15q77 0 110.5 9.5t45 32.5t11.5 78v19q0 79 -30 100.5t-137 21.5h-15q-106 0 -136 -21.5t-30 -100.5v-19
q0 -55 11.5 -78t45 -32.5t109.5 -9.5zM318 -6h-19q-79 0 -124.5 7t-73.5 27.5t-37 52t-9 86.5v15q0 91 25 126t84 43v2q-57 8 -78.5 39.5t-21.5 113.5v16q0 98 46 131t188 33h20q143 0 188.5 -33t45.5 -131v-16q0 -82 -21.5 -113t-80.5 -40v-2q60 -8 85.5 -43t25.5 -126v-15
q0 -55 -9 -86.5t-37 -52t-73.5 -27.5t-123.5 -7z" />
    <glyph glyph-name="nine" unicode="9" horiz-adv-x="615" 
d="M305 -6h-17q-140 0 -184 36.5t-44 151.5v19h75v-17q0 -78 29 -101t126 -23h13q42 0 66 2t46 10.5t32 22t18 40.5t10 61t2 89v57h-1q-16 -35 -55 -50.5t-119 -15.5h-17q-143 0 -187.5 36t-44.5 156v25q0 81 19.5 120.5t70.5 56t154 16.5h19q82 0 126.5 -8.5t72 -38.5
t35 -74.5t7.5 -128.5v-127q0 -73 -3.5 -121t-15 -85t-27.5 -57t-47 -32.5t-66.5 -16t-92.5 -3.5zM300 340h12q97 0 131.5 22t34.5 90v15q0 101 -28.5 127.5t-137.5 26.5h-12q-77 0 -111 -10.5t-46 -36t-12 -83.5v-16q0 -87 29.5 -111t139.5 -24z" />
    <glyph glyph-name="colon" unicode=":" horiz-adv-x="212" 
d="M147 480v-106h-82v106h82zM147 106v-106h-82v106h82z" />
    <glyph glyph-name="semicolon" unicode=";" horiz-adv-x="212" 
d="M147 480v-106h-82v106h82zM147 106v-127q0 -59 -21.5 -80.5t-77.5 -21.5v44q26 0 35.5 11t9.5 41v27h-28v106h82z" />
    <glyph glyph-name="less" unicode="&#x3c;" horiz-adv-x="527" 
d="M468 159v-65l-409 178v62l409 178v-65l-336 -144v-1z" />
    <glyph glyph-name="equal" unicode="=" horiz-adv-x="527" 
d="M468 422v-60h-409v60h409zM468 241v-61h-409v61h409z" />
    <glyph glyph-name="greater" unicode="&#x3e;" horiz-adv-x="527" 
d="M468 334v-62l-409 -178v65l336 143v1l-336 144v65z" />
    <glyph glyph-name="question" unicode="?" horiz-adv-x="536" 
d="M279 224v-17h-72v22q0 58 19.5 83t78.5 40q75 19 94.5 42t19.5 95v13q0 76 -25 99t-112 23h-14q-95 0 -120.5 -24t-25.5 -115v-24h-71v29q0 122 42 159t175 37h15q127 0 168 -36.5t41 -141.5v-17q0 -94 -28 -133.5t-110 -57.5q-47 -10 -61 -25t-14 -51zM284 106v-106h-82
v106h82z" />
    <glyph glyph-name="at" unicode="@" horiz-adv-x="818" 
d="M403 122h15q64 0 83.5 26.5t19.5 117.5v16q0 85 -21.5 114.5t-82.5 29.5h-14q-66 0 -84.5 -25t-18.5 -119v-16q0 -93 20 -118.5t83 -25.5zM730 17v-10q0 -46 -24 -70t-87.5 -34.5t-188.5 -10.5h-36q-77 0 -123 3.5t-87.5 16t-61.5 33t-35.5 59.5t-20 89.5t-4.5 129.5v74
q0 78 4.5 128.5t19.5 89.5t35.5 60t60.5 34.5t86 17t120 3.5h34q79 0 126 -3t88.5 -16t61 -33t34 -60t18.5 -89t4 -129v-50q0 -115 -24.5 -148t-99.5 -33q-51 0 -73 14t-31 52h-3q-11 -39 -37.5 -55.5t-84.5 -16.5h-16q-89 0 -119 38t-30 160v23q0 122 30 159.5t119 37.5h15
q59 0 84 -15t39 -59h2v66h55v-281q0 -46 11 -60t44 -14q31 0 43.5 8t17.5 33.5t5 88.5v48q0 55 -1 90.5t-7 69t-13 52t-23.5 35t-34 23.5t-50 12.5t-64.5 6.5t-85 1h-35q-66 0 -104.5 -2.5t-73 -14.5t-50 -29.5t-27.5 -54t-15 -81t-3 -118.5v-52q0 -54 1.5 -91t7.5 -70
t13.5 -53t24.5 -36.5t35 -24t49.5 -13t64 -7t83.5 -1.5h35q107 0 159.5 7.5t67.5 21t15 41.5v9h59z" />
    <glyph glyph-name="A" unicode="A" horiz-adv-x="632" 
d="M378 680l242 -680h-87l-53 154h-328l-54 -154h-86l247 680h119zM171 218h288l-138 401h-6z" />
    <glyph glyph-name="B" unicode="B" horiz-adv-x="633" 
d="M385 0h-316v680h297q119 0 161.5 -34t42.5 -137q0 -76 -21 -110t-71 -43v-3q60 -9 85.5 -46t25.5 -123q0 -109 -43.5 -146.5t-160.5 -37.5zM150 65h221q85 0 111 24.5t26 102.5q0 76 -25.5 102.5t-86.5 26.5h-246v-256zM150 382h241q57 0 78.5 23t21.5 95q0 73 -26 95
t-104 22h-211v-235z" />
    <glyph glyph-name="C" unicode="C" horiz-adv-x="651" 
d="M343 -6h-19q-88 0 -138.5 12t-82 49.5t-41.5 95.5t-10 161v57q0 101 11 159.5t42.5 95.5t81.5 49.5t136 12.5h18q148 0 200 -40.5t52 -153.5v-21h-79v16q0 80 -33.5 106t-139.5 26h-16q-64 0 -97.5 -7.5t-56.5 -36t-29.5 -74.5t-6.5 -132v-56q0 -58 2.5 -95.5t11.5 -67
t21 -45.5t35.5 -26t51 -13t70.5 -3h15q109 0 142.5 25.5t33.5 108.5v15h80v-22q0 -115 -53.5 -155.5t-201.5 -40.5z" />
    <glyph glyph-name="D" unicode="D" horiz-adv-x="687" 
d="M631 372v-63q0 -70 -4 -115.5t-17 -82t-31.5 -56.5t-53 -33.5t-76.5 -17.5t-107 -4h-273v680h273q64 0 105 -4t76 -16.5t53.5 -32.5t32 -56t18 -82.5t4.5 -116.5zM152 67h187q49 0 79 2.5t55.5 13t38.5 25.5t22 44.5t11.5 66.5t2.5 95v55q0 86 -7 131.5t-32 73t-61.5 34
t-108.5 6.5h-187v-547z" />
    <glyph glyph-name="E" unicode="E" horiz-adv-x="545" 
d="M512 67v-67h-443v680h440v-66h-357v-230h337v-64h-337v-253h360z" />
    <glyph glyph-name="F" unicode="F" horiz-adv-x="522" 
d="M152 299v-299h-83v680h431v-68h-348v-248h329v-65h-329z" />
    <glyph glyph-name="G" unicode="G" horiz-adv-x="653" 
d="M343 -6h-18q-86 0 -136 12.5t-81.5 49.5t-42.5 96t-11 160v58q0 82 8.5 135.5t25.5 90.5t50.5 56t76.5 26.5t111 7.5h18q148 0 200 -40.5t52 -149.5v-16h-80v14q0 76 -33 100.5t-140 24.5h-15q-43 0 -70 -3t-50.5 -13t-35.5 -26t-21 -45.5t-11.5 -67t-2.5 -95.5v-57
q0 -84 7 -130.5t30 -74.5t57 -36t97 -8h15q111 0 145 28t34 123v61h-212v62h292v-114q0 -135 -52.5 -182t-206.5 -47z" />
    <glyph glyph-name="H" unicode="H" horiz-adv-x="676" 
d="M607 680v-680h-83v317h-372v-317h-83v680h83v-290h372v290h83z" />
    <glyph glyph-name="I" unicode="I" horiz-adv-x="221" 
d="M152 680v-680h-83v680h83z" />
    <glyph glyph-name="J" unicode="J" horiz-adv-x="523" 
d="M240 -6h-19q-125 0 -161 38t-36 171v27h76v-21q0 -97 21 -121.5t103 -24.5h15q92 0 114.5 26.5t22.5 135.5v455h83v-450q0 -79 -7.5 -122t-33 -70.5t-65.5 -35.5t-113 -8z" />
    <glyph glyph-name="K" unicode="K" horiz-adv-x="622" 
d="M293 349l320 -349h-108l-281 315h-73v-315h-82v680h82v-301h76l267 301h100z" />
    <glyph glyph-name="L" unicode="L" horiz-adv-x="490" 
d="M478 68v-68h-409v680h83v-612h326z" />
    <glyph glyph-name="M" unicode="M" horiz-adv-x="870" 
d="M801 680v-680h-79l2 612h-3l-243 -612h-84l-245 612h-3l2 -612h-79v680h131l236 -597h3l234 597h128z" />
    <glyph glyph-name="N" unicode="N" horiz-adv-x="706" 
d="M637 680v-680h-126l-361 609h-4l1 -609h-78v680h128l360 -607h3l-2 607h79z" />
    <glyph glyph-name="O" unicode="O" horiz-adv-x="679" 
d="M53 311v58q0 101 11 160t44 95.5t83.5 49t138.5 12.5h19q88 0 138.5 -12.5t83.5 -49t44 -95.5t11 -160v-58q0 -101 -11 -160t-44 -95.5t-83.5 -49t-138.5 -12.5h-19q-88 0 -138.5 12.5t-83.5 49t-44 95.5t-11 160zM136 369v-57q0 -85 6.5 -131.5t30 -74.5t58 -35.5
t100.5 -7.5h18q86 0 124.5 17.5t54 68t15.5 163.5v57q0 57 -3 94.5t-11.5 67t-21 45.5t-36 26.5t-51.5 13.5t-71 3h-18q-66 0 -100.5 -8t-58 -36t-30 -74.5t-6.5 -131.5z" />
    <glyph glyph-name="P" unicode="P" horiz-adv-x="614" 
d="M151 321h177q76 0 110 11t45.5 36.5t11.5 84.5v29q0 45 -5 68.5t-24 39.5t-50 20t-89 4h-176v-293zM151 254v-254h-82v680h267q78 0 121.5 -7t72 -30t37.5 -60t9 -103v-25q0 -124 -47 -162.5t-190 -38.5h-188z" />
    <glyph glyph-name="Q" unicode="Q" horiz-adv-x="683" 
d="M53 311v58q0 101 11 160t44 95.5t83.5 49t138.5 12.5h19q88 0 138.5 -12.5t83.5 -49t44 -95.5t11 -160v-58q0 -150 -29 -216l63 -53l-43 -52l-61 51q-55 -47 -207 -47h-19q-88 0 -138.5 12.5t-83.5 49t-44 95.5t-11 160zM136 369v-57q0 -85 6.5 -131.5t30 -74.5t58 -35.5
t100.5 -7.5h18q108 0 146 29l-157 133l44 52l148 -126q14 47 14 161v57q0 85 -6.5 131.5t-30 74.5t-58 36t-100.5 8h-18q-66 0 -100.5 -8t-58 -36t-30 -74.5t-6.5 -131.5z" />
    <glyph glyph-name="R" unicode="R" horiz-adv-x="636" 
d="M151 332h223q68 0 93 26.5t25 98.5v25q0 83 -27.5 107.5t-122.5 24.5h-191v-282zM575 122v-122h-83v92q0 63 -3.5 94t-20.5 51.5t-42.5 25t-78.5 4.5h-196v-267h-82v680h290q132 0 174 -38t42 -150v-23q0 -81 -22 -117t-73 -46v-2q57 -11 76 -47t19 -135z" />
    <glyph glyph-name="S" unicode="S" horiz-adv-x="619" 
d="M567 202v-16q0 -114 -47 -153t-185 -39h-23q-86 0 -134 7t-77 30t-37.5 57t-8.5 97v28h78v-24q0 -56 13 -81.5t48.5 -36.5t112.5 -11h19q100 0 129.5 23t29.5 100v14q0 45 -11.5 65.5t-50 32.5t-124.5 19q-144 11 -190.5 47.5t-46.5 131.5v16q0 101 47 139t179 38h20
q79 0 125 -8t73 -31t36 -56.5t9 -91.5v-22h-79v18q0 77 -29.5 101.5t-130.5 24.5h-17q-95 0 -123.5 -21.5t-28.5 -91.5v-14q0 -41 12.5 -60.5t50.5 -31t120 -18.5q102 -8 153 -27t69.5 -53.5t18.5 -101.5z" />
    <glyph glyph-name="T" unicode="T" horiz-adv-x="539" 
d="M311 613v-613h-83v613h-216v67h515v-67h-216z" />
    <glyph glyph-name="U" unicode="U" horiz-adv-x="667" 
d="M340 -6h-15q-85 0 -132 8t-78 33.5t-41 68t-10 117.5v459h83v-452q0 -57 6 -88t28 -49t52.5 -23t89.5 -5h19q39 0 64 2t47 8.5t33.5 17t19.5 29.5t11 44.5t3 63.5v452h83v-459q0 -75 -10 -117.5t-42 -68t-79 -33.5t-132 -8z" />
    <glyph glyph-name="V" unicode="V" horiz-adv-x="615" 
d="M603 680l-239 -680h-112l-240 680h87l209 -612h3l207 612h85z" />
    <glyph glyph-name="W" unicode="W" horiz-adv-x="936" 
d="M914 680l-180 -680h-107l-157 604h-2l-159 -604h-106l-181 680h83l153 -612h3l160 612h97l160 -612h3l151 612h82z" />
    <glyph glyph-name="X" unicode="X" horiz-adv-x="627" 
d="M377 355l233 -355h-97l-200 315l-202 -315h-94l233 355l-211 325h95l181 -286l182 286h92z" />
    <glyph glyph-name="Y" unicode="Y" horiz-adv-x="604" 
d="M343 239v-239h-83v239l-250 441h90l202 -366h2l199 366h91z" />
    <glyph glyph-name="Z" unicode="Z" horiz-adv-x="585" 
d="M547 65v-65h-508v67l409 548v1h-394v64h489v-68l-407 -545v-2h411z" />
    <glyph glyph-name="bracketleft" unicode="[" horiz-adv-x="302" 
d="M248 55v-63h-177v696h177v-63h-103v-570h103z" />
    <glyph glyph-name="backslash" unicode="\" horiz-adv-x="444" 
d="M107 688l264 -696h-62l-264 696h62z" />
    <glyph glyph-name="bracketright" unicode="]" horiz-adv-x="302" 
d="M230 688v-696h-177v63h103v570h-103v63h177z" />
    <glyph glyph-name="asciicircum" unicode="^" horiz-adv-x="546" 
d="M303 680l195 -378h-70l-154 311h-2l-155 -311h-69l194 378h61z" />
    <glyph glyph-name="underscore" unicode="_" horiz-adv-x="393" 
d="M393 -85v-43h-393v43h393z" />
    <glyph glyph-name="grave" unicode="`" 
d="M271 577l-23 -29l-158 111l38 49z" />
    <glyph glyph-name="a" unicode="a" horiz-adv-x="503" 
d="M444 268v-268h-73v54h-2q-17 -33 -49 -46.5t-94 -13.5h-11q-99 0 -133 29.5t-34 114.5v14q0 81 36 111t128 30h10q67 0 99 -10t47 -36h2v31q0 101 -19 125.5t-99 24.5h-11q-66 0 -87 -15.5t-21 -62.5v-10h-71v10q0 82 38 109t144 27h14q64 0 98 -6.5t55.5 -32t27 -65
t5.5 -114.5zM240 52h9q71 0 96.5 17.5t25.5 70.5v10q0 56 -24.5 72t-103.5 16h-9q-70 0 -91.5 -17t-21.5 -71v-9q0 -55 22.5 -72t96.5 -17z" />
    <glyph glyph-name="b" unicode="b" horiz-adv-x="535" 
d="M306 -6h-10q-69 0 -103.5 16.5t-50.5 58.5h-2v-69h-75v680h77v-265h2q15 39 49.5 55t100.5 16h13q104 0 142 -47t38 -185v-25q0 -139 -38 -187t-143 -48zM270 56h14q77 0 101.5 32t24.5 139v28q0 106 -24.5 138.5t-101.5 32.5h-14q-78 0 -104 -30t-26 -127v-56
q0 -94 26 -125.5t104 -31.5z" />
    <glyph glyph-name="c" unicode="c" horiz-adv-x="505" 
d="M267 -6h-16q-120 0 -161.5 46t-41.5 184v33q0 138 42.5 183.5t161.5 45.5h17q109 0 148 -34t39 -126v-14h-72v10q0 62 -23 83t-93 21h-14q-80 0 -104.5 -31t-24.5 -138v-33q0 -105 25 -136.5t105 -31.5h15q70 0 93 21.5t23 84.5v11h73v-13q0 -95 -41 -130.5t-151 -35.5z
" />
    <glyph glyph-name="d" unicode="d" horiz-adv-x="534" 
d="M469 680v-680h-74v69h-2q-17 -42 -51.5 -58.5t-101.5 -16.5h-11q-106 0 -143.5 48.5t-37.5 186.5v25q0 138 38 185t141 47h14q65 0 99.5 -16t50.5 -55h1v265h77zM251 56h13q79 0 105 30t26 127v56q0 94 -26.5 125.5t-104.5 31.5h-13q-76 0 -101 -32.5t-25 -138.5v-28
q0 -105 25 -138t101 -33z" />
    <glyph glyph-name="e" unicode="e" horiz-adv-x="506" 
d="M267 -6h-18q-122 0 -161.5 45t-39.5 185v31q0 141 40 186t158 45h16q115 0 154 -40t39 -159v-57h-332v-17q0 -100 24 -129t106 -29h13q73 0 96.5 19.5t23.5 78.5v9h72v-11q0 -90 -42.5 -123.5t-148.5 -33.5zM122 282h260v17q0 80 -22 104.5t-99 24.5h-11
q-80 0 -103.5 -26t-24.5 -120z" />
    <glyph glyph-name="f" unicode="f" horiz-adv-x="264" 
d="M153 423v-423h-77v423h-61v57h61v44q0 93 31 127t111 34q39 0 68 -4v-57q-24 3 -50 3q-51 0 -67 -20t-16 -87v-40h112v-57h-112z" />
    <glyph glyph-name="g" unicode="g" horiz-adv-x="531" 
d="M259 -176h-17q-110 0 -147.5 28t-37.5 114v12h72v-9q0 -52 21 -68t92 -16h17q48 0 71.5 3.5t38.5 20t18.5 41.5t3.5 78v68h-2q-16 -39 -50.5 -55.5t-103.5 -16.5h-11q-100 0 -138 44.5t-38 171.5v22q0 131 38 177.5t138 46.5h12q67 0 102 -16t53 -56h1v66h75v-447
q0 -70 -8 -109t-33 -62.5t-62.5 -30.5t-104.5 -7zM247 84h13q81 0 106.5 30t25.5 126v23q0 100 -25.5 131.5t-105.5 31.5h-14q-74 0 -98.5 -31.5t-24.5 -131.5v-23q0 -94 25 -125t98 -31z" />
    <glyph glyph-name="h" unicode="h" horiz-adv-x="539" 
d="M477 302v-302h-77v283q0 90 -21 115.5t-96 25.5h-10q-72 0 -101.5 -29t-29.5 -112v-283h-77v680h77v-277h1q17 43 51.5 63t104.5 20h9q101 0 135 -36.5t34 -147.5z" />
    <glyph glyph-name="i" unicode="i" horiz-adv-x="207" 
d="M142 480v-480h-77v480h77zM142 680v-88h-77v88h77z" />
    <glyph glyph-name="j" unicode="j" horiz-adv-x="206" 
d="M142 480v-525q0 -73 -23.5 -100.5t-78.5 -27.5q-23 0 -36 3v61q10 -1 21 -1q24 0 32 13t8 61v516h77zM142 680v-88h-77v88h77z" />
    <glyph glyph-name="k" unicode="k" horiz-adv-x="469" 
d="M232 257l228 -257h-92l-200 232h-26v-232h-77v680h77v-399h30l175 199h91z" />
    <glyph glyph-name="l" unicode="l" horiz-adv-x="207" 
d="M142 680v-680h-77v680h77z" />
    <glyph glyph-name="m" unicode="m" horiz-adv-x="826" 
d="M765 304v-304h-77v283q0 90 -19.5 115.5t-87.5 25.5h-9q-63 0 -90.5 -29t-27.5 -112v-283h-77v283q0 90 -20 115.5t-85 25.5h-10q-65 0 -92.5 -29.5t-27.5 -111.5v-283h-77v480h76v-77h1q29 83 145 83h10q72 0 104.5 -21.5t42.5 -69.5h1q30 91 152 91h10q94 0 126 -37
t32 -145z" />
    <glyph glyph-name="n" unicode="n" horiz-adv-x="539" 
d="M477 302v-302h-77v282q0 91 -21 116.5t-96 25.5h-10q-71 0 -101 -29.5t-30 -112.5v-282h-77v480h76v-77h1q17 43 51.5 63t105.5 20h9q101 0 135 -37t34 -147z" />
    <glyph glyph-name="o" unicode="o" horiz-adv-x="525" 
d="M271 -6h-17q-121 0 -163.5 47t-42.5 183v33q0 135 43 182t163 47h17q120 0 163 -47t43 -182v-33q0 -136 -42.5 -183t-163.5 -47zM256 55h13q82 0 107 32t25 137v33q0 105 -25 137t-107 32h-13q-82 0 -107 -32t-25 -137v-33q0 -105 25 -137t107 -32z" />
    <glyph glyph-name="p" unicode="p" horiz-adv-x="535" 
d="M306 -6h-10q-68 0 -102 16.5t-50 58.5h-2v-239h-77v650h75v-65h2q15 39 50 55t102 16h13q104 0 142 -47t38 -185v-25q0 -139 -38 -187t-143 -48zM270 56h14q77 0 101.5 32t24.5 139v28q0 106 -24.5 138.5t-101.5 32.5h-14q-78 0 -104 -30t-26 -127v-56q0 -94 26 -125.5
t104 -31.5z" />
    <glyph glyph-name="q" unicode="q" horiz-adv-x="534" 
d="M469 480v-650h-77v237h-2q-16 -41 -50.5 -57t-98.5 -16h-12q-106 0 -143.5 48.5t-37.5 186.5v25q0 138 38 185t141 47h13q67 0 101.5 -16t52.5 -56h1v66h74zM251 56h14q79 0 104.5 30t25.5 127v56q0 95 -25.5 126t-104.5 31h-14q-76 0 -101 -32.5t-25 -138.5v-28
q0 -105 25 -138t101 -33z" />
    <glyph glyph-name="r" unicode="r" horiz-adv-x="439" 
d="M142 272v-272h-77v480h75v-84h2q15 47 46.5 68.5t91.5 21.5h7q79 0 104.5 -30t25.5 -114v-42h-68v25q0 60 -17 78.5t-74 18.5h-8q-56 0 -82 -31.5t-26 -118.5z" />
    <glyph glyph-name="s" unicode="s" horiz-adv-x="494" 
d="M266 -6h-25q-118 0 -155 27t-37 110v15h72v-8q0 -54 21.5 -69.5t98.5 -15.5h23q70 0 90.5 15t20.5 63v8q0 29 -9 43t-39 22.5t-94 13.5q-105 7 -140 34t-35 94v12q0 72 37 100t135 28h20q112 0 148 -26.5t36 -108.5v-11h-70v8q0 50 -20.5 65t-89.5 15h-17
q-67 0 -86.5 -14t-19.5 -56v-11q0 -34 23 -47t102 -19q114 -8 153.5 -36.5t39.5 -98.5v-13q0 -81 -39 -110t-144 -29z" />
    <glyph glyph-name="t" unicode="t" horiz-adv-x="405" 
d="M233 -6h-16q-85 0 -111.5 34t-26.5 154v241h-67v57h67v125h76v-125h219v-57h-219v-236q0 -63 6 -89t19.5 -34t47.5 -8h11q49 0 61.5 20.5t12.5 101.5v38h64v-51q0 -105 -28.5 -138t-115.5 -33z" />
    <glyph glyph-name="u" unicode="u" horiz-adv-x="535" 
d="M470 480v-480h-76v78h-1q-17 -43 -52 -63.5t-105 -20.5h-9q-99 0 -134 38.5t-35 148.5v299h77v-280q0 -92 21.5 -118.5t95.5 -26.5h9q72 0 102 29.5t30 113.5v282h77z" />
    <glyph glyph-name="v" unicode="v" horiz-adv-x="466" 
d="M457 480l-173 -480h-104l-171 480h81l142 -422h2l143 422h80z" />
    <glyph glyph-name="w" unicode="w" horiz-adv-x="735" 
d="M719 480l-140 -480h-104l-106 407h-2l-107 -407h-104l-140 480h81l112 -423h3l113 423h88l114 -423h3l111 423h78z" />
    <glyph glyph-name="x" unicode="x" horiz-adv-x="493" 
d="M301 247l168 -247h-87l-137 211l-136 -211h-85l167 247l-155 233h86l125 -198l127 198h83z" />
    <glyph glyph-name="y" unicode="y" horiz-adv-x="457" 
d="M64 -171v59q22 -2 37 -2q46 0 67 22t48 102h-38l-169 470h80l145 -415h3l132 415h79l-142 -426q-48 -143 -83.5 -185t-108.5 -42q-20 0 -50 2z" />
    <glyph glyph-name="z" unicode="z" horiz-adv-x="415" 
d="M389 59v-59h-361v60l269 361v1h-257v58h346v-60l-267 -360v-1h270z" />
    <glyph glyph-name="braceleft" unicode="{" horiz-adv-x="309" 
d="M255 44v-52h-52q-59 0 -82 24.5t-23 94.5v118q0 46 -12.5 69t-48.5 23v44q36 0 48.5 23t12.5 69v112q0 70 23 94.5t82 24.5h52v-52h-24q-37 0 -49 -15.5t-12 -63.5v-97q0 -58 -13 -84t-57 -32v-2q44 -6 57 -32t13 -84v-103q0 -48 12 -63.5t49 -15.5h24z" />
    <glyph glyph-name="bar" unicode="|" horiz-adv-x="286" 
d="M172 750v-820h-58v820h58z" />
    <glyph glyph-name="braceright" unicode="}" horiz-adv-x="309" 
d="M105 -8h-51v52h23q38 0 50 15.5t12 63.5v103q0 59 12.5 84.5t56.5 31.5v2q-44 6 -56.5 31.5t-12.5 84.5v97q0 48 -12 63.5t-50 15.5h-23v52h51q59 0 82.5 -24.5t23.5 -94.5v-112q0 -46 12.5 -69t48.5 -23v-44q-36 0 -48.5 -23t-12.5 -69v-118q0 -70 -23.5 -94.5
t-82.5 -24.5z" />
    <glyph glyph-name="asciitilde" unicode="~" horiz-adv-x="527" 
d="M422 361l43 -23q-22 -49 -48.5 -72.5t-64.5 -23.5t-92 32q-52 32 -82 32q-25 0 -41.5 -15t-31.5 -47l-43 23q41 96 113 96q37 0 91 -32t83 -32q26 0 41.5 14.5t31.5 47.5z" />
    <glyph glyph-name="uni00A0" unicode="&#xa0;" horiz-adv-x="247" 
 />
    <glyph glyph-name="exclamdown" unicode="&#xa1;" horiz-adv-x="238" 
d="M160 480v-106h-82v106h82zM154 295l5 -495h-80l5 495h70z" />
    <glyph glyph-name="cent" unicode="&#xa2;" horiz-adv-x="553" 
d="M301 82v-120h-40v120q-112 1 -155 48.5t-43 179.5v37q0 133 42.5 179.5t155.5 47.5v106h40v-106q106 0 147 -34.5t41 -122.5v-16h-69v12q0 55 -25.5 78t-93.5 23v-370q72 0 96.5 22.5t24.5 82.5v12h69v-17q0 -89 -42 -125.5t-148 -36.5zM137 348v-39q0 -98 26.5 -131
t97.5 -34v370q-72 -1 -98 -34t-26 -132z" />
    <glyph glyph-name="sterling" unicode="&#xa3;" horiz-adv-x="627" 
d="M573 65v-65h-512v67q31 9 46 28.5t22 63.5t8 132h-82v59h82v29q0 84 5.5 135t17.5 88t37.5 53.5t59 23.5t89.5 7h18q118 0 156.5 -34t38.5 -145v-15h-75v14q0 73 -22.5 95t-98.5 22h-14q-39 0 -60.5 -4.5t-38.5 -16t-24 -40.5t-10 -68t-3 -108v-36h225v-59h-226
q-1 -83 -10 -128.5t-23 -63.5t-42 -31v-3h436z" />
    <glyph glyph-name="currency" unicode="&#xa4;" horiz-adv-x="585" 
d="M522 126l-36 -36l-79 78q-47 -36 -113 -36q-65 0 -115 38l-80 -80l-36 36l79 79q-35 46 -35 115q0 65 33 111l-77 78l36 37l78 -79q48 39 117 39t115 -37l77 77l36 -37l-75 -75q35 -48 35 -114q0 -69 -37 -117zM294 189q57 0 92 37.5t35 93.5t-35 93t-92 37t-91.5 -37
t-34.5 -93q0 -57 34.5 -94t91.5 -37z" />
    <glyph glyph-name="yen" unicode="&#xa5;" horiz-adv-x="624" 
d="M353 211v-211h-83v211h-196v44h196v8l-57 104h-139v44h115l-150 269h88l186 -364h1l186 364h85l-151 -269h116v-44h-140l-57 -104v-8h197v-44h-197z" />
    <glyph glyph-name="brokenbar" unicode="&#xa6;" horiz-adv-x="286" 
d="M172 750v-323h-58v323h58zM172 259v-329h-58v329h58z" />
    <glyph glyph-name="section" unicode="&#xa7;" horiz-adv-x="627" 
d="M561 -27v-13q0 -93 -46 -124.5t-187 -31.5h-23q-82 0 -127 6.5t-72 26.5t-34.5 50t-7.5 86v19h78v-14q0 -49 11.5 -70.5t45 -30.5t108.5 -9h14q104 0 132.5 18.5t28.5 81.5v12q0 58 -29 78t-127 20h-30q-133 0 -178.5 33t-45.5 122v14q0 65 22.5 94.5t80.5 39.5v1
q-60 8 -81.5 38.5t-21.5 93.5v13q0 95 45 127t185 32h22q65 0 104.5 -5t67.5 -15t41 -32t18 -50t5 -75v-18h-76v14q0 77 -28.5 98t-131.5 21h-15q-101 0 -129.5 -19t-28.5 -82v-12q0 -37 9.5 -55t43.5 -28.5t102 -10.5h24q140 0 185.5 -32t45.5 -123v-13q0 -68 -22 -99
t-81 -38v-1q60 -10 81.5 -40t21.5 -98zM303 137h19q104 0 132 19t28 85v12q0 65 -28 85.5t-130 20.5h-13q-102 0 -131 -20.5t-29 -83.5v-13q0 -63 27.5 -84t124.5 -21z" />
    <glyph glyph-name="dieresis" unicode="&#xa8;" 
d="M144 680v-88h-69v88h69zM307 680v-88h-69v88h69z" />
    <glyph glyph-name="copyright" unicode="&#xa9;" horiz-adv-x="811" 
d="M421 139h-12q-103 0 -136 36.5t-33 151.5v31q0 113 33 149.5t134 36.5h11q88 0 120 -28t32 -102v-15h-60v12q0 50 -17.5 64.5t-75.5 14.5h-10q-65 0 -83.5 -23.5t-18.5 -108.5v-31q0 -88 18 -110.5t85 -22.5h11q56 0 74 16.5t18 67.5v11h61v-16q0 -73 -33.5 -103.5
t-117.5 -30.5zM391 29h28q68 0 109.5 3t77 15.5t53 31t30 55.5t15.5 82t3 118v12q0 55 -1.5 92t-8 71t-14.5 54.5t-25 37.5t-36 26t-51 15t-66.5 7.5t-85.5 1.5h-28q-68 0 -109.5 -3t-77 -15.5t-52.5 -30.5t-29.5 -55.5t-15.5 -82.5t-3 -118v-12q0 -73 3 -118t15.5 -82.5
t29.5 -55.5t52.5 -30.5t77 -15.5t109.5 -3zM419 -6h-28q-74 0 -120.5 4t-86 17.5t-60.5 34.5t-35.5 61t-19 90.5t-4.5 128.5v20q0 78 4.5 128.5t19 90.5t35.5 61t60.5 34.5t86 17.5t120.5 4h28q74 0 120.5 -4t86.5 -17.5t60.5 -34.5t35.5 -61t19.5 -90.5t4.5 -128.5v-20
q0 -78 -4.5 -128.5t-19.5 -90.5t-35.5 -61t-60.5 -34.5t-86.5 -17.5t-120.5 -4z" />
    <glyph glyph-name="ordfeminine" unicode="&#xaa;" horiz-adv-x="359" 
d="M168 414h10q46 0 62 10t16 43v4q0 33 -16 42t-64 9h-11q-41 0 -54 -10t-13 -41v-6q0 -31 13.5 -41t56.5 -10zM305 547v-168h-49v33h-1q-12 -19 -31.5 -27.5t-59.5 -8.5h-11q-62 0 -83 17t-21 69v11q0 51 23 68.5t80 17.5h11q71 0 90 -30h2v22q0 60 -12 75t-59 15h-10
q-41 0 -55 -9t-14 -37v-6h-47v7q0 49 25.5 66.5t93.5 17.5h12q73 0 94.5 -24.5t21.5 -108.5z" />
    <glyph glyph-name="guillemotleft" unicode="&#xab;" horiz-adv-x="407" 
d="M111 271l95 -178l-54 -22l-106 200l106 201l54 -22zM266 271l95 -178l-54 -22l-106 200l106 201l54 -22z" />
    <glyph glyph-name="logicalnot" unicode="&#xac;" horiz-adv-x="527" 
d="M468 416v-232h-64v173h-345v59h409z" />
    <glyph glyph-name="uni00AD" unicode="&#xad;" horiz-adv-x="374" 
d="M314 285v-69h-254v69h254z" />
    <glyph glyph-name="registered" unicode="&#xae;" horiz-adv-x="550" 
d="M224 474h69q23 0 33 9t10 31v8q0 28 -9 36.5t-38 8.5h-65v-93zM377 396v-45h-40v34q0 39 -10 49t-47 10h-56v-93h-40v246h118q42 0 58 -14t16 -57v-9q0 -44 -34 -55v-1q19 -5 27 -18.5t8 -46.5zM267 296h16q61 0 92 5t51.5 24.5t26 51t5.5 92.5v10q0 60 -5.5 91.5t-26 51
t-51.5 24.5t-92 5h-16q-61 0 -92.5 -5t-52 -24.5t-26 -51t-5.5 -91.5v-10q0 -114 30.5 -143.5t145.5 -29.5zM283 266h-16q-68 0 -105 6.5t-62.5 29t-34 61t-8.5 106.5v10q0 68 8.5 106.5t34 60.5t62.5 28.5t105 6.5h16q68 0 104.5 -6.5t62.5 -28.5t34 -60.5t8 -106.5v-10
q0 -68 -8 -106.5t-33.5 -61t-62.5 -29t-105 -6.5z" />
    <glyph glyph-name="macron" unicode="&#xaf;" 
d="M304 660v-52h-220v52h220z" />
    <glyph glyph-name="degree" unicode="&#xb0;" horiz-adv-x="346" 
d="M173 437q-56 0 -93.5 37t-37.5 93t37.5 93t93.5 37q57 0 94 -37t37 -93t-37 -93t-94 -37zM173 479q37 0 61.5 25t24.5 63t-24.5 63t-61.5 25t-61.5 -25t-24.5 -63t24.5 -63t61.5 -25z" />
    <glyph glyph-name="plusminus" unicode="&#xb1;" horiz-adv-x="527" 
d="M468 81v-60h-409v60h409zM468 379v-60h-173v-165h-64v165h-172v60h172v166h64v-166h173z" />
    <glyph glyph-name="twosuperior" unicode="&#xb2;" horiz-adv-x="379" 
d="M345 497v-44h-303v53q0 73 27 97.5t119 36.5q65 8 82.5 21.5t17.5 51.5v11q0 38 -17 49.5t-77 11.5h-7q-56 0 -72 -13t-16 -54v-16h-52v17q0 66 27 87.5t113 21.5h8q91 0 119.5 -20.5t28.5 -82.5v-10q0 -61 -27 -84.5t-115 -34.5q-71 -9 -88 -22.5t-17 -60.5v-16h249z
" />
    <glyph glyph-name="threesuperior" unicode="&#xb3;" horiz-adv-x="385" 
d="M198 450h-12q-93 0 -120 20.5t-27 91.5v14h52v-14q0 -46 16.5 -57.5t78.5 -11.5h9q65 0 82 11t17 50v10q0 35 -14 47.5t-53 12.5h-78v40h78q35 0 47 11.5t12 41.5v12q0 35 -16.5 45.5t-74.5 10.5h-8q-58 0 -74 -11t-16 -53v-18h-51v18q0 66 27 86.5t115 20.5h9
q88 0 116 -19.5t28 -75.5v-10q0 -37 -10.5 -53.5t-35.5 -24.5v-1q28 -6 41 -23.5t13 -58.5v-12q0 -60 -30 -80t-121 -20z" />
    <glyph glyph-name="acute" unicode="&#xb4;" 
d="M300 659l-159 -111l-23 29l143 131z" />
    <glyph glyph-name="mu" unicode="&#xb5;" horiz-adv-x="546" 
d="M481 480v-480h-76v80h-1q-15 -43 -47 -64t-94 -21h-9q-87 0 -111 51h-1v-225h-77v659h77v-283q0 -86 26.5 -114.5t96.5 -28.5h10q71 0 100 29.5t29 113.5v283h77z" />
    <glyph glyph-name="paragraph" unicode="&#xb6;" horiz-adv-x="553" 
d="M485 680v-844h-58v798h-66v-798h-57v417h-42q-122 0 -162 42t-40 160v25q0 65 8.5 101.5t36.5 60t72.5 31t124.5 7.5h183z" />
    <glyph glyph-name="periodcentered" unicode="&#xb7;" horiz-adv-x="202" 
d="M142 319v-106h-82v106h82z" />
    <glyph glyph-name="cedilla" unicode="&#xb8;" horiz-adv-x="338" 
d="M232 -51l-146 -121l-25 25l129 140z" />
    <glyph glyph-name="onesuperior" unicode="&#xb9;" horiz-adv-x="276" 
d="M198 825v-372h-56v315h-1l-89 -93l-31 35l111 115h66z" />
    <glyph glyph-name="ordmasculine" unicode="&#xba;" horiz-adv-x="363" 
d="M176 417h12q51 0 66 19t15 82v21q0 63 -15 81.5t-66 18.5h-12q-51 0 -66 -18.5t-15 -81.5v-21q0 -63 15 -81.5t66 -19.5zM189 376h-15q-78 0 -103.5 28t-25.5 114v21q0 86 25.5 113.5t103.5 27.5h15q78 0 104 -27.5t26 -113.5v-21q0 -85 -26 -113.5t-104 -28.5z" />
    <glyph glyph-name="guillemotright" unicode="&#xbb;" horiz-adv-x="407" 
d="M206 272l-106 -201l-54 22l95 179l-95 178l54 22zM361 272l-106 -201l-54 22l95 179l-95 178l54 22z" />
    <glyph glyph-name="onequarter" unicode="&#xbc;" horiz-adv-x="792" 
d="M525 680l-260 -680h-52l261 680h51zM234 680v-372h-56v315h-1l-89 -93l-31 35l111 115h66zM694 83v-83h-55v83h-228v53l205 236h78v-247h47v-42h-47zM463 125h176v204h-2l-174 -203v-1z" />
    <glyph glyph-name="onehalf" unicode="&#xbd;" horiz-adv-x="823" 
d="M525 680l-260 -680h-52l261 680h51zM234 680v-372h-56v315h-1l-89 -93l-31 35l111 115h66zM766 44v-44h-303v53q0 73 27 97.5t119 36.5q65 8 82.5 21.5t17.5 51.5v11q0 38 -17 49.5t-77 11.5h-7q-56 0 -72 -13t-16 -54v-16h-52v17q0 66 27 87.5t113 21.5h8
q91 0 119.5 -20.5t28.5 -82.5v-10q0 -61 -27 -84.5t-115 -34.5q-71 -9 -88 -22.5t-17 -60.5v-16h249z" />
    <glyph glyph-name="threequarters" unicode="&#xbe;" horiz-adv-x="902" 
d="M635 680l-260 -680h-51l261 680h50zM226 305h-12q-93 0 -120 20.5t-27 91.5v14h52v-14q0 -46 16.5 -57.5t78.5 -11.5h9q65 0 82 11t17 50v10q0 35 -14 47.5t-53 12.5h-78v40h78q35 0 47 11.5t12 41.5v12q0 35 -16.5 45.5t-74.5 10.5h-8q-58 0 -74 -11t-16 -53v-18h-51v18
q0 66 27 86.5t115 20.5h9q88 0 116 -19.5t28 -75.5v-10q0 -37 -10.5 -53.5t-35.5 -24.5v-1q28 -6 41 -23.5t13 -58.5v-12q0 -60 -30 -80t-121 -20zM805 83v-83h-55v83h-228v53l205 236h78v-247h47v-42h-47zM574 125h176v204h-2l-174 -203v-1z" />
    <glyph glyph-name="questiondown" unicode="&#xbf;" horiz-adv-x="535" 
d="M335 480v-106h-82v106h82zM269 -206h-15q-127 0 -168 36.5t-41 141.5v17q0 94 28 133.5t110 57.5q47 10 61 25t14 51v17h72v-22q0 -58 -19.5 -83t-78.5 -40q-75 -19 -94.5 -42t-19.5 -95v-13q0 -76 25 -99t112 -23h14q95 0 120.5 24t25.5 115v24h71v-29q0 -122 -42 -159
t-175 -37z" />
    <glyph glyph-name="Agrave" unicode="&#xc0;" horiz-adv-x="632" 
d="M378 680l242 -680h-87l-53 154h-328l-54 -154h-86l247 680h119zM171 218h288l-138 401h-6zM365 772l-18 -31l-177 79l30 54z" />
    <glyph glyph-name="Aacute" unicode="&#xc1;" horiz-adv-x="632" 
d="M378 680l242 -680h-87l-53 154h-328l-54 -154h-86l247 680h119zM171 218h288l-138 401h-6zM433 875l31 -54l-177 -79l-19 31z" />
    <glyph glyph-name="Acircumflex" unicode="&#xc2;" horiz-adv-x="632" 
d="M378 680l242 -680h-87l-53 154h-328l-54 -154h-86l247 680h119zM171 218h288l-138 401h-6zM451 776l-28 -30l-104 73l-103 -73l-28 30l131 106z" />
    <glyph glyph-name="Atilde" unicode="&#xc3;" horiz-adv-x="632" 
d="M378 680l242 -680h-87l-53 154h-328l-54 -154h-86l247 680h119zM171 218h288l-138 401h-6zM410 857l35 -7q-8 -91 -72 -91q-27 0 -61 25q-29 20 -47 20q-31 0 -39 -46l-34 8q6 89 71 89q27 0 59 -22q31 -22 50 -22q32 0 38 46z" />
    <glyph glyph-name="Adieresis" unicode="&#xc4;" horiz-adv-x="632" 
d="M378 680l242 -680h-87l-53 154h-328l-54 -154h-86l247 680h119zM171 218h288l-138 401h-6zM270 847v-88h-69v88h69zM435 847v-88h-69v88h69z" />
    <glyph glyph-name="Aring" unicode="&#xc5;" horiz-adv-x="632" 
d="M378 680l242 -680h-87l-53 154h-328l-54 -154h-86l247 680h119zM171 218h288l-138 401h-6zM321 726h-6q-55 0 -77 17t-22 58v6q0 41 22 58t77 17h6q55 0 77 -17t22 -58v-6q0 -41 -22 -58t-77 -17zM315 757h6q35 0 48 10t13 35v6q0 25 -13 34.5t-48 9.5h-6q-35 0 -48 -9.5
t-13 -34.5v-6q0 -26 13 -35.5t48 -9.5z" />
    <glyph glyph-name="AE" unicode="&#xc6;" horiz-adv-x="945" 
d="M912 67v-67h-441v154h-293l-80 -154h-89l356 680h544v-66h-357v-230h337v-64h-337v-253h360zM211 218h260v396h-55z" />
    <glyph glyph-name="Ccedilla" unicode="&#xc7;" horiz-adv-x="651" 
d="M343 -6h-19q-88 0 -138.5 12t-82 49.5t-41.5 95.5t-10 161v57q0 101 11 159.5t42.5 95.5t81.5 49.5t136 12.5h18q148 0 200 -40.5t52 -153.5v-21h-79v16q0 80 -33.5 106t-139.5 26h-16q-64 0 -97.5 -7.5t-56.5 -36t-29.5 -74.5t-6.5 -132v-56q0 -58 2.5 -95.5t11.5 -67
t21 -45.5t35.5 -26t51 -13t70.5 -3h15q109 0 142.5 25.5t33.5 108.5v15h80v-22q0 -115 -53.5 -155.5t-201.5 -40.5zM394 -51l-146 -121l-25 25l129 140z" />
    <glyph glyph-name="Egrave" unicode="&#xc8;" horiz-adv-x="545" 
d="M512 67v-67h-443v680h440v-66h-357v-230h337v-64h-337v-253h360zM378 772l-18 -31l-177 79l30 54z" />
    <glyph glyph-name="Eacute" unicode="&#xc9;" horiz-adv-x="545" 
d="M512 67v-67h-443v680h440v-66h-357v-230h337v-64h-337v-253h360zM362 875l31 -54l-177 -79l-19 31z" />
    <glyph glyph-name="Ecircumflex" unicode="&#xca;" horiz-adv-x="545" 
d="M512 67v-67h-443v680h440v-66h-357v-230h337v-64h-337v-253h360zM422 776l-28 -30l-104 73l-103 -73l-28 30l131 106z" />
    <glyph glyph-name="Edieresis" unicode="&#xcb;" horiz-adv-x="545" 
d="M512 67v-67h-443v680h440v-66h-357v-230h337v-64h-337v-253h360zM239 847v-88h-69v88h69zM404 847v-88h-69v88h69z" />
    <glyph glyph-name="Igrave" unicode="&#xcc;" horiz-adv-x="221" 
d="M152 680v-680h-83v680h83zM149 772l-18 -31l-177 79l30 54z" />
    <glyph glyph-name="Iacute" unicode="&#xcd;" horiz-adv-x="221" 
d="M152 680v-680h-83v680h83zM239 875l31 -54l-177 -79l-19 31z" />
    <glyph glyph-name="Icircumflex" unicode="&#xce;" horiz-adv-x="221" 
d="M152 680v-680h-83v680h83zM242 776l-28 -30l-104 73l-103 -73l-28 30l131 106z" />
    <glyph glyph-name="Idieresis" unicode="&#xcf;" horiz-adv-x="221" 
d="M152 680v-680h-83v680h83zM62 847v-88h-69v88h69zM227 847v-88h-69v88h69z" />
    <glyph glyph-name="Eth" unicode="&#xd0;" horiz-adv-x="687" 
d="M18 326v51h51v303h273q64 0 105 -4t76 -16.5t53.5 -32.5t32 -56t18 -82.5t4.5 -116.5v-63q0 -70 -4 -115.5t-17 -82t-31.5 -56.5t-53 -33.5t-76.5 -17.5t-107 -4h-273v326h-51zM152 67h187q49 0 79 2.5t55.5 13t38.5 25.5t22 44.5t11.5 66.5t2.5 95v55q0 86 -7 131.5
t-32 73t-61.5 34t-108.5 6.5h-187v-237h164v-51h-164v-259z" />
    <glyph glyph-name="Ntilde" unicode="&#xd1;" horiz-adv-x="706" 
d="M637 680v-680h-126l-361 609h-4l1 -609h-78v680h128l360 -607h3l-2 607h79zM452 857l35 -7q-8 -91 -72 -91q-27 0 -61 25q-29 20 -47 20q-31 0 -39 -46l-34 8q6 89 71 89q27 0 59 -22q31 -22 50 -22q32 0 38 46z" />
    <glyph glyph-name="Ograve" unicode="&#xd2;" horiz-adv-x="679" 
d="M53 311v58q0 101 11 160t44 95.5t83.5 49t138.5 12.5h19q88 0 138.5 -12.5t83.5 -49t44 -95.5t11 -160v-58q0 -101 -11 -160t-44 -95.5t-83.5 -49t-138.5 -12.5h-19q-88 0 -138.5 12.5t-83.5 49t-44 95.5t-11 160zM136 369v-57q0 -85 6.5 -131.5t30 -74.5t58 -35.5
t100.5 -7.5h18q86 0 124.5 17.5t54 68t15.5 163.5v57q0 57 -3 94.5t-11.5 67t-21 45.5t-36 26.5t-51.5 13.5t-71 3h-18q-66 0 -100.5 -8t-58 -36t-30 -74.5t-6.5 -131.5zM432 772l-18 -31l-177 79l30 54z" />
    <glyph glyph-name="Oacute" unicode="&#xd3;" horiz-adv-x="679" 
d="M53 311v58q0 101 11 160t44 95.5t83.5 49t138.5 12.5h19q88 0 138.5 -12.5t83.5 -49t44 -95.5t11 -160v-58q0 -101 -11 -160t-44 -95.5t-83.5 -49t-138.5 -12.5h-19q-88 0 -138.5 12.5t-83.5 49t-44 95.5t-11 160zM136 369v-57q0 -85 6.5 -131.5t30 -74.5t58 -35.5
t100.5 -7.5h18q86 0 124.5 17.5t54 68t15.5 163.5v57q0 57 -3 94.5t-11.5 67t-21 45.5t-36 26.5t-51.5 13.5t-71 3h-18q-66 0 -100.5 -8t-58 -36t-30 -74.5t-6.5 -131.5zM412 875l31 -54l-177 -79l-19 31z" />
    <glyph glyph-name="Ocircumflex" unicode="&#xd4;" horiz-adv-x="679" 
d="M53 311v58q0 101 11 160t44 95.5t83.5 49t138.5 12.5h19q88 0 138.5 -12.5t83.5 -49t44 -95.5t11 -160v-58q0 -101 -11 -160t-44 -95.5t-83.5 -49t-138.5 -12.5h-19q-88 0 -138.5 12.5t-83.5 49t-44 95.5t-11 160zM136 369v-57q0 -85 6.5 -131.5t30 -74.5t58 -35.5
t100.5 -7.5h18q86 0 124.5 17.5t54 68t15.5 163.5v57q0 57 -3 94.5t-11.5 67t-21 45.5t-36 26.5t-51.5 13.5t-71 3h-18q-66 0 -100.5 -8t-58 -36t-30 -74.5t-6.5 -131.5zM473 776l-28 -30l-104 73l-103 -73l-28 30l131 106z" />
    <glyph glyph-name="Otilde" unicode="&#xd5;" horiz-adv-x="679" 
d="M53 311v58q0 101 11 160t44 95.5t83.5 49t138.5 12.5h19q88 0 138.5 -12.5t83.5 -49t44 -95.5t11 -160v-58q0 -101 -11 -160t-44 -95.5t-83.5 -49t-138.5 -12.5h-19q-88 0 -138.5 12.5t-83.5 49t-44 95.5t-11 160zM136 369v-57q0 -85 6.5 -131.5t30 -74.5t58 -35.5
t100.5 -7.5h18q86 0 124.5 17.5t54 68t15.5 163.5v57q0 57 -3 94.5t-11.5 67t-21 45.5t-36 26.5t-51.5 13.5t-71 3h-18q-66 0 -100.5 -8t-58 -36t-30 -74.5t-6.5 -131.5zM432 857l35 -7q-8 -91 -72 -91q-27 0 -61 25q-29 20 -47 20q-31 0 -39 -46l-34 8q6 89 71 89
q27 0 59 -22q31 -22 50 -22q32 0 38 46z" />
    <glyph glyph-name="Odieresis" unicode="&#xd6;" horiz-adv-x="679" 
d="M53 311v58q0 101 11 160t44 95.5t83.5 49t138.5 12.5h19q88 0 138.5 -12.5t83.5 -49t44 -95.5t11 -160v-58q0 -101 -11 -160t-44 -95.5t-83.5 -49t-138.5 -12.5h-19q-88 0 -138.5 12.5t-83.5 49t-44 95.5t-11 160zM136 369v-57q0 -85 6.5 -131.5t30 -74.5t58 -35.5
t100.5 -7.5h18q86 0 124.5 17.5t54 68t15.5 163.5v57q0 57 -3 94.5t-11.5 67t-21 45.5t-36 26.5t-51.5 13.5t-71 3h-18q-66 0 -100.5 -8t-58 -36t-30 -74.5t-6.5 -131.5zM291 847v-88h-69v88h69zM456 847v-88h-69v88h69z" />
    <glyph glyph-name="multiply" unicode="&#xd7;" horiz-adv-x="527" 
d="M304 303l148 -155l-43 -42l-146 154l-146 -154l-43 41l148 156l-144 151l42 41l143 -150l143 150l42 -40z" />
    <glyph glyph-name="Oslash" unicode="&#xd8;" horiz-adv-x="679" 
d="M53 311v58q0 101 11 160t44 95.5t83.5 49t138.5 12.5h19q144 0 200 -41l39 49l36 -29l-41 -54q43 -64 43 -242v-58q0 -101 -11 -160t-44 -95.5t-83.5 -49t-138.5 -12.5h-19q-138 0 -195 37l-45 -59l-37 28l48 63q-48 63 -48 248zM135 369v-57q0 -131 21 -180l344 452
q-36 35 -151 35h-18q-53 0 -84 -5.5t-55.5 -19.5t-35.5 -43.5t-16 -71.5t-5 -110zM331 63h18q65 0 100 7.5t58 35.5t30 74.5t7 131.5v57q0 121 -17 171l-343 -447q36 -30 147 -30z" />
    <glyph glyph-name="Ugrave" unicode="&#xd9;" horiz-adv-x="667" 
d="M340 -6h-15q-85 0 -132 8t-78 33.5t-41 68t-10 117.5v459h83v-452q0 -57 6 -88t28 -49t52.5 -23t89.5 -5h19q39 0 64 2t47 8.5t33.5 17t19.5 29.5t11 44.5t3 63.5v452h83v-459q0 -75 -10 -117.5t-42 -68t-79 -33.5t-132 -8zM421 772l-18 -31l-177 79l30 54z" />
    <glyph glyph-name="Uacute" unicode="&#xda;" horiz-adv-x="667" 
d="M340 -6h-15q-85 0 -132 8t-78 33.5t-41 68t-10 117.5v459h83v-452q0 -57 6 -88t28 -49t52.5 -23t89.5 -5h19q39 0 64 2t47 8.5t33.5 17t19.5 29.5t11 44.5t3 63.5v452h83v-459q0 -75 -10 -117.5t-42 -68t-79 -33.5t-132 -8zM410 875l31 -54l-177 -79l-19 31z" />
    <glyph glyph-name="Ucircumflex" unicode="&#xdb;" horiz-adv-x="667" 
d="M340 -6h-15q-85 0 -132 8t-78 33.5t-41 68t-10 117.5v459h83v-452q0 -57 6 -88t28 -49t52.5 -23t89.5 -5h19q39 0 64 2t47 8.5t33.5 17t19.5 29.5t11 44.5t3 63.5v452h83v-459q0 -75 -10 -117.5t-42 -68t-79 -33.5t-132 -8zM465 776l-28 -30l-104 73l-103 -73l-28 30
l131 106z" />
    <glyph glyph-name="Udieresis" unicode="&#xdc;" horiz-adv-x="667" 
d="M340 -6h-15q-85 0 -132 8t-78 33.5t-41 68t-10 117.5v459h83v-452q0 -57 6 -88t28 -49t52.5 -23t89.5 -5h19q39 0 64 2t47 8.5t33.5 17t19.5 29.5t11 44.5t3 63.5v452h83v-459q0 -75 -10 -117.5t-42 -68t-79 -33.5t-132 -8zM285 847v-88h-69v88h69zM450 847v-88h-69v88
h69z" />
    <glyph glyph-name="Yacute" unicode="&#xdd;" horiz-adv-x="604" 
d="M343 239v-239h-83v239l-250 441h90l202 -366h2l199 366h91zM403 875l31 -54l-177 -79l-19 31z" />
    <glyph glyph-name="Thorn" unicode="&#xde;" horiz-adv-x="614" 
d="M69 0v680h82v-111h185q78 0 121.5 -7t72 -30t37.5 -60t9 -103v-25q0 -124 -47 -162.5t-190 -38.5h-188v-143h-82zM151 210h177q76 0 110 11t45.5 36.5t11.5 84.5v29q0 45 -5 68.5t-24 39.5t-50 20t-89 4h-176v-293z" />
    <glyph glyph-name="germandbls" unicode="&#xdf;" horiz-adv-x="558" 
d="M325 -6q-80 0 -118 19l8 60q33 -19 102 -19q49 0 71 10.5t33 47t11 114.5v29q0 105 -23 134t-101 29h-55v54h42q57 0 76 16.5t19 57.5v11q0 43 -22 58t-88 15h-19q-72 0 -95.5 -25.5t-23.5 -108.5v-496h-77v495q0 113 40.5 151.5t149.5 38.5h29q102 0 141 -26t39 -94v-13
q0 -47 -18.5 -69.5t-58.5 -29.5l1 -1q68 -6 94 -46.5t26 -156.5v-29q0 -72 -9 -115.5t-32.5 -68.5t-56 -33.5t-85.5 -8.5z" />
    <glyph glyph-name="agrave" unicode="&#xe0;" horiz-adv-x="503" 
d="M444 268v-268h-73v54h-2q-17 -33 -49 -46.5t-94 -13.5h-11q-99 0 -133 29.5t-34 114.5v14q0 81 36 111t128 30h10q67 0 99 -10t47 -36h2v31q0 101 -19 125.5t-99 24.5h-11q-66 0 -87 -15.5t-21 -62.5v-10h-71v10q0 82 38 109t144 27h14q64 0 98 -6.5t55.5 -32t27 -65
t5.5 -114.5zM240 52h9q71 0 96.5 17.5t25.5 70.5v10q0 56 -24.5 72t-103.5 16h-9q-70 0 -91.5 -17t-21.5 -71v-9q0 -55 22.5 -72t96.5 -17zM341 577l-23 -29l-158 111l38 49z" />
    <glyph glyph-name="aacute" unicode="&#xe1;" horiz-adv-x="503" 
d="M444 268v-268h-73v54h-2q-17 -33 -49 -46.5t-94 -13.5h-11q-99 0 -133 29.5t-34 114.5v14q0 81 36 111t128 30h10q67 0 99 -10t47 -36h2v31q0 101 -19 125.5t-99 24.5h-11q-66 0 -87 -15.5t-21 -62.5v-10h-71v10q0 82 38 109t144 27h14q64 0 98 -6.5t55.5 -32t27 -65
t5.5 -114.5zM240 52h9q71 0 96.5 17.5t25.5 70.5v10q0 56 -24.5 72t-103.5 16h-9q-70 0 -91.5 -17t-21.5 -71v-9q0 -55 22.5 -72t96.5 -17zM349 659l-159 -111l-23 29l143 131z" />
    <glyph glyph-name="acircumflex" unicode="&#xe2;" horiz-adv-x="503" 
d="M444 268v-268h-73v54h-2q-17 -33 -49 -46.5t-94 -13.5h-11q-99 0 -133 29.5t-34 114.5v14q0 81 36 111t128 30h10q67 0 99 -10t47 -36h2v31q0 101 -19 125.5t-99 24.5h-11q-66 0 -87 -15.5t-21 -62.5v-10h-71v10q0 82 38 109t144 27h14q64 0 98 -6.5t55.5 -32t27 -65
t5.5 -114.5zM240 52h9q71 0 96.5 17.5t25.5 70.5v10q0 56 -24.5 72t-103.5 16h-9q-70 0 -91.5 -17t-21.5 -71v-9q0 -55 22.5 -72t96.5 -17zM381 589l-29 -30l-100 84l-99 -84l-29 30l128 117z" />
    <glyph glyph-name="atilde" unicode="&#xe3;" horiz-adv-x="503" 
d="M444 268v-268h-73v54h-2q-17 -33 -49 -46.5t-94 -13.5h-11q-99 0 -133 29.5t-34 114.5v14q0 81 36 111t128 30h10q67 0 99 -10t47 -36h2v31q0 101 -19 125.5t-99 24.5h-11q-66 0 -87 -15.5t-21 -62.5v-10h-71v10q0 82 38 109t144 27h14q64 0 98 -6.5t55.5 -32t27 -65
t5.5 -114.5zM240 52h9q71 0 96.5 17.5t25.5 70.5v10q0 56 -24.5 72t-103.5 16h-9q-70 0 -91.5 -17t-21.5 -71v-9q0 -55 22.5 -72t96.5 -17zM341 681l35 -7q-8 -91 -72 -91q-27 0 -61 25q-29 20 -47 20q-31 0 -39 -46l-34 8q6 89 71 89q27 0 59 -22q31 -22 50 -22q32 0 38 46
z" />
    <glyph glyph-name="adieresis" unicode="&#xe4;" horiz-adv-x="503" 
d="M444 268v-268h-73v54h-2q-17 -33 -49 -46.5t-94 -13.5h-11q-99 0 -133 29.5t-34 114.5v14q0 81 36 111t128 30h10q67 0 99 -10t47 -36h2v31q0 101 -19 125.5t-99 24.5h-11q-66 0 -87 -15.5t-21 -62.5v-10h-71v10q0 82 38 109t144 27h14q64 0 98 -6.5t55.5 -32t27 -65
t5.5 -114.5zM240 52h9q71 0 96.5 17.5t25.5 70.5v10q0 56 -24.5 72t-103.5 16h-9q-70 0 -91.5 -17t-21.5 -71v-9q0 -55 22.5 -72t96.5 -17zM204 680v-88h-69v88h69zM367 680v-88h-69v88h69z" />
    <glyph glyph-name="aring" unicode="&#xe5;" horiz-adv-x="503" 
d="M444 268v-268h-73v54h-2q-17 -33 -49 -46.5t-94 -13.5h-11q-99 0 -133 29.5t-34 114.5v14q0 81 36 111t128 30h10q67 0 99 -10t47 -36h2v31q0 101 -19 125.5t-99 24.5h-11q-66 0 -87 -15.5t-21 -62.5v-10h-71v10q0 82 38 109t144 27h14q64 0 98 -6.5t55.5 -32t27 -65
t5.5 -114.5zM240 52h9q71 0 96.5 17.5t25.5 70.5v10q0 56 -24.5 72t-103.5 16h-9q-70 0 -91.5 -17t-21.5 -71v-9q0 -55 22.5 -72t96.5 -17zM256 552h-6q-55 0 -77 17t-22 58v6q0 41 22 58t77 17h6q55 0 77 -17t22 -58v-6q0 -41 -22 -58t-77 -17zM250 583h6q35 0 48 10t13 35
v6q0 25 -13 34.5t-48 9.5h-6q-35 0 -48 -9.5t-13 -34.5v-6q0 -26 13 -35.5t48 -9.5z" />
    <glyph glyph-name="ae" unicode="&#xe6;" horiz-adv-x="823" 
d="M775 162v-10q0 -91 -41.5 -124.5t-142.5 -33.5h-19q-87 0 -126.5 18t-53.5 72h-1q-15 -54 -53.5 -72t-109.5 -18h-12q-100 0 -134 29.5t-34 114.5v15q0 80 36 110t128 30h11q67 0 98.5 -10.5t46.5 -37.5h2v32q0 103 -18.5 127.5t-94.5 24.5h-11q-71 0 -92 -15t-21 -63
v-12h-71v11q0 83 38.5 109.5t146.5 26.5h13q75 0 108 -17.5t42 -59.5h1q12 42 48 59.5t108 17.5h16q110 0 149.5 -40t39.5 -157v-59h-328v-33q0 -91 26 -118t103 -27h13q72 0 96 20.5t24 80.5v9h69zM444 282h257v17q0 84 -24 107.5t-98 23.5h-10q-53 0 -77 -9.5t-35.5 -40.5
t-12.5 -98zM240 51h9q71 0 96.5 18t25.5 71v10q0 57 -24.5 73t-103.5 16h-9q-70 0 -91.5 -17.5t-21.5 -71.5v-9q0 -55 22.5 -72.5t96.5 -17.5z" />
    <glyph glyph-name="ccedilla" unicode="&#xe7;" horiz-adv-x="505" 
d="M267 -6h-16q-120 0 -161.5 46t-41.5 184v33q0 138 42.5 183.5t161.5 45.5h17q109 0 148 -34t39 -126v-14h-72v10q0 62 -23 83t-93 21h-14q-80 0 -104.5 -31t-24.5 -138v-33q0 -105 25 -136.5t105 -31.5h15q70 0 93 21.5t23 84.5v11h73v-13q0 -95 -41 -130.5t-151 -35.5z
M317 -51l-146 -121l-25 25l129 140z" />
    <glyph glyph-name="egrave" unicode="&#xe8;" horiz-adv-x="506" 
d="M267 -6h-18q-122 0 -161.5 45t-39.5 185v31q0 141 40 186t158 45h16q115 0 154 -40t39 -159v-57h-332v-17q0 -100 24 -129t106 -29h13q73 0 96.5 19.5t23.5 78.5v9h72v-11q0 -90 -42.5 -123.5t-148.5 -33.5zM122 282h260v17q0 80 -22 104.5t-99 24.5h-11
q-80 0 -103.5 -26t-24.5 -120zM344 577l-23 -29l-158 111l38 49z" />
    <glyph glyph-name="eacute" unicode="&#xe9;" horiz-adv-x="506" 
d="M267 -6h-18q-122 0 -161.5 45t-39.5 185v31q0 141 40 186t158 45h16q115 0 154 -40t39 -159v-57h-332v-17q0 -100 24 -129t106 -29h13q73 0 96.5 19.5t23.5 78.5v9h72v-11q0 -90 -42.5 -123.5t-148.5 -33.5zM122 282h260v17q0 80 -22 104.5t-99 24.5h-11
q-80 0 -103.5 -26t-24.5 -120zM351 659l-159 -111l-23 29l143 131z" />
    <glyph glyph-name="ecircumflex" unicode="&#xea;" horiz-adv-x="506" 
d="M267 -6h-18q-122 0 -161.5 45t-39.5 185v31q0 141 40 186t158 45h16q115 0 154 -40t39 -159v-57h-332v-17q0 -100 24 -129t106 -29h13q73 0 96.5 19.5t23.5 78.5v9h72v-11q0 -90 -42.5 -123.5t-148.5 -33.5zM122 282h260v17q0 80 -22 104.5t-99 24.5h-11
q-80 0 -103.5 -26t-24.5 -120zM385 589l-29 -30l-100 84l-99 -84l-29 30l128 117z" />
    <glyph glyph-name="edieresis" unicode="&#xeb;" horiz-adv-x="506" 
d="M267 -6h-18q-122 0 -161.5 45t-39.5 185v31q0 141 40 186t158 45h16q115 0 154 -40t39 -159v-57h-332v-17q0 -100 24 -129t106 -29h13q73 0 96.5 19.5t23.5 78.5v9h72v-11q0 -90 -42.5 -123.5t-148.5 -33.5zM122 282h260v17q0 80 -22 104.5t-99 24.5h-11
q-80 0 -103.5 -26t-24.5 -120zM208 680v-88h-69v88h69zM371 680v-88h-69v88h69z" />
    <glyph glyph-name="igrave" unicode="&#xec;" horiz-adv-x="207" 
d="M142 480v-480h-77v480h77zM142 577l-23 -29l-158 111l38 49z" />
    <glyph glyph-name="iacute" unicode="&#xed;" horiz-adv-x="207" 
d="M142 480v-480h-77v480h77zM251 659l-159 -111l-23 29l143 131z" />
    <glyph glyph-name="icircumflex" unicode="&#xee;" horiz-adv-x="207" 
d="M142 480v-480h-77v480h77zM232 589l-29 -30l-100 84l-99 -84l-29 30l128 117z" />
    <glyph glyph-name="idieresis" unicode="&#xef;" horiz-adv-x="207" 
d="M142 480v-480h-77v480h77zM61 680v-88h-68v88h68zM215 680v-88h-68v88h68z" />
    <glyph glyph-name="eth" unicode="&#xf0;" horiz-adv-x="525" 
d="M269 -6h-19q-119 0 -160.5 48t-41.5 181v22q0 127 40 176.5t134 49.5h16q71 0 108 -17.5t51 -60.5h1q-13 140 -107 190l-101 -50l-16 32l75 36q-56 24 -166 35l22 49q136 -10 210 -48l95 47l16 -32l-74 -35q72 -47 98 -133.5t26 -238.5v-17q0 -138 -43 -186t-164 -48z
M255 55h14q80 0 106 32.5t26 135.5v40q0 88 -30.5 118t-108.5 30h-12q-78 0 -102 -31.5t-24 -133.5v-23q0 -104 25 -136t106 -32z" />
    <glyph glyph-name="ntilde" unicode="&#xf1;" horiz-adv-x="539" 
d="M477 302v-302h-77v282q0 91 -21 116.5t-96 25.5h-10q-71 0 -101 -29.5t-30 -112.5v-282h-77v480h76v-77h1q17 43 51.5 63t105.5 20h9q101 0 135 -37t34 -147zM368 681l35 -7q-8 -91 -72 -91q-27 0 -61 25q-29 20 -47 20q-31 0 -39 -46l-34 8q6 89 71 89q27 0 59 -22
q31 -22 50 -22q32 0 38 46z" />
    <glyph glyph-name="ograve" unicode="&#xf2;" horiz-adv-x="525" 
d="M271 -6h-17q-121 0 -163.5 47t-42.5 183v33q0 135 43 182t163 47h17q120 0 163 -47t43 -182v-33q0 -136 -42.5 -183t-163.5 -47zM256 55h13q82 0 107 32t25 137v33q0 105 -25 137t-107 32h-13q-82 0 -107 -32t-25 -137v-33q0 -105 25 -137t107 -32zM360 577l-23 -29
l-158 111l38 49z" />
    <glyph glyph-name="oacute" unicode="&#xf3;" horiz-adv-x="525" 
d="M271 -6h-17q-121 0 -163.5 47t-42.5 183v33q0 135 43 182t163 47h17q120 0 163 -47t43 -182v-33q0 -136 -42.5 -183t-163.5 -47zM256 55h13q82 0 107 32t25 137v33q0 105 -25 137t-107 32h-13q-82 0 -107 -32t-25 -137v-33q0 -105 25 -137t107 -32zM359 659l-159 -111
l-23 29l143 131z" />
    <glyph glyph-name="ocircumflex" unicode="&#xf4;" horiz-adv-x="525" 
d="M271 -6h-17q-121 0 -163.5 47t-42.5 183v33q0 135 43 182t163 47h17q120 0 163 -47t43 -182v-33q0 -136 -42.5 -183t-163.5 -47zM256 55h13q82 0 107 32t25 137v33q0 105 -25 137t-107 32h-13q-82 0 -107 -32t-25 -137v-33q0 -105 25 -137t107 -32zM392 589l-29 -30
l-100 84l-99 -84l-29 30l128 117z" />
    <glyph glyph-name="otilde" unicode="&#xf5;" horiz-adv-x="525" 
d="M271 -6h-17q-121 0 -163.5 47t-42.5 183v33q0 135 43 182t163 47h17q120 0 163 -47t43 -182v-33q0 -136 -42.5 -183t-163.5 -47zM256 55h13q82 0 107 32t25 137v33q0 105 -25 137t-107 32h-13q-82 0 -107 -32t-25 -137v-33q0 -105 25 -137t107 -32zM355 681l35 -7
q-8 -91 -72 -91q-27 0 -61 25q-29 20 -47 20q-31 0 -39 -46l-34 8q6 89 71 89q27 0 59 -22q31 -22 50 -22q32 0 38 46z" />
    <glyph glyph-name="odieresis" unicode="&#xf6;" horiz-adv-x="525" 
d="M271 -6h-17q-121 0 -163.5 47t-42.5 183v33q0 135 43 182t163 47h17q120 0 163 -47t43 -182v-33q0 -136 -42.5 -183t-163.5 -47zM256 55h13q82 0 107 32t25 137v33q0 105 -25 137t-107 32h-13q-82 0 -107 -32t-25 -137v-33q0 -105 25 -137t107 -32zM215 680v-88h-69v88
h69zM378 680v-88h-69v88h69z" />
    <glyph glyph-name="divide" unicode="&#xf7;" horiz-adv-x="527" 
d="M312 456q0 -20 -14.5 -35t-34.5 -15t-34.5 15t-14.5 35t15 34.5t34 14.5q20 0 34.5 -14.5t14.5 -34.5zM312 153q0 -20 -14.5 -34.5t-34.5 -14.5t-34.5 14.5t-14.5 34.5t14.5 34.5t34.5 14.5t34.5 -14.5t14.5 -34.5zM468 335v-60h-409v60h409z" />
    <glyph glyph-name="oslash" unicode="&#xf8;" horiz-adv-x="525" 
d="M112 23l-41 -50l-31 26l43 52q-35 47 -35 173v33q0 135 43 182t163 47h17q97 0 143 -30l36 45l31 -27l-38 -46q34 -49 34 -171v-33q0 -136 -42.5 -183t-163.5 -47h-17q-98 0 -142 29zM269 426h-13q-82 0 -107 -32t-25 -137v-33q0 -76 11 -110l234 288q-27 24 -100 24z
M256 55h13q82 0 107 32t25 137v33q0 77 -10 108l-233 -288q26 -22 98 -22z" />
    <glyph glyph-name="ugrave" unicode="&#xf9;" horiz-adv-x="535" 
d="M470 480v-480h-76v78h-1q-17 -43 -52 -63.5t-105 -20.5h-9q-99 0 -134 38.5t-35 148.5v299h77v-280q0 -92 21.5 -118.5t95.5 -26.5h9q72 0 102 29.5t30 113.5v282h77zM363 577l-23 -29l-158 111l38 49z" />
    <glyph glyph-name="uacute" unicode="&#xfa;" horiz-adv-x="535" 
d="M470 480v-480h-76v78h-1q-17 -43 -52 -63.5t-105 -20.5h-9q-99 0 -134 38.5t-35 148.5v299h77v-280q0 -92 21.5 -118.5t95.5 -26.5h9q72 0 102 29.5t30 113.5v282h77zM367 659l-159 -111l-23 29l143 131z" />
    <glyph glyph-name="ucircumflex" unicode="&#xfb;" horiz-adv-x="535" 
d="M470 480v-480h-76v78h-1q-17 -43 -52 -63.5t-105 -20.5h-9q-99 0 -134 38.5t-35 148.5v299h77v-280q0 -92 21.5 -118.5t95.5 -26.5h9q72 0 102 29.5t30 113.5v282h77zM396 589l-29 -30l-100 84l-99 -84l-29 30l128 117z" />
    <glyph glyph-name="udieresis" unicode="&#xfc;" horiz-adv-x="535" 
d="M470 480v-480h-76v78h-1q-17 -43 -52 -63.5t-105 -20.5h-9q-99 0 -134 38.5t-35 148.5v299h77v-280q0 -92 21.5 -118.5t95.5 -26.5h9q72 0 102 29.5t30 113.5v282h77zM221 680v-88h-69v88h69zM384 680v-88h-69v88h69z" />
    <glyph glyph-name="yacute" unicode="&#xfd;" horiz-adv-x="457" 
d="M64 -171v59q22 -2 37 -2q46 0 67 22t48 102h-38l-169 470h80l145 -415h3l132 415h79l-142 -426q-48 -143 -83.5 -185t-108.5 -42q-20 0 -50 2zM354 659l-159 -111l-23 29l143 131z" />
    <glyph glyph-name="thorn" unicode="&#xfe;" horiz-adv-x="535" 
d="M306 -6h-10q-68 0 -102 16.5t-50 58.5h-2v-239h-77v850h77v-265h2q15 39 49.5 55t100.5 16h13q104 0 142 -47t38 -185v-25q0 -139 -38 -187t-143 -48zM270 56h14q77 0 101.5 32t24.5 139v28q0 106 -24.5 138.5t-101.5 32.5h-14q-78 0 -104 -30t-26 -127v-56
q0 -94 26 -125.5t104 -31.5z" />
    <glyph glyph-name="ydieresis" unicode="&#xff;" horiz-adv-x="457" 
d="M64 -171v59q22 -2 37 -2q46 0 67 22t48 102h-38l-169 470h80l145 -415h3l132 415h79l-142 -426q-48 -143 -83.5 -185t-108.5 -42q-20 0 -50 2zM186 680v-88h-69v88h69zM349 680v-88h-69v88h69z" />
    <glyph glyph-name="Amacron" unicode="&#x100;" horiz-adv-x="632" 
d="M378 680l242 -680h-87l-53 154h-328l-54 -154h-86l247 680h119zM171 218h288l-138 401h-6zM429 830v-52h-220v52h220z" />
    <glyph glyph-name="amacron" unicode="&#x101;" horiz-adv-x="503" 
d="M444 268v-268h-73v54h-2q-17 -33 -49 -46.5t-94 -13.5h-11q-99 0 -133 29.5t-34 114.5v14q0 81 36 111t128 30h10q67 0 99 -10t47 -36h2v31q0 101 -19 125.5t-99 24.5h-11q-66 0 -87 -15.5t-21 -62.5v-10h-71v10q0 82 38 109t144 27h14q64 0 98 -6.5t55.5 -32t27 -65
t5.5 -114.5zM240 52h9q71 0 96.5 17.5t25.5 70.5v10q0 56 -24.5 72t-103.5 16h-9q-70 0 -91.5 -17t-21.5 -71v-9q0 -55 22.5 -72t96.5 -17zM362 660v-52h-220v52h220z" />
    <glyph glyph-name="Abreve" unicode="&#x102;" horiz-adv-x="632" 
d="M378 680l242 -680h-87l-53 154h-328l-54 -154h-86l247 680h119zM171 218h288l-138 401h-6zM403 857h43q-4 -117 -126 -117q-123 0 -127 117h44q5 -38 25 -52.5t58 -14.5t58 14t25 53z" />
    <glyph glyph-name="abreve" unicode="&#x103;" horiz-adv-x="503" 
d="M444 268v-268h-73v54h-2q-17 -33 -49 -46.5t-94 -13.5h-11q-99 0 -133 29.5t-34 114.5v14q0 81 36 111t128 30h10q67 0 99 -10t47 -36h2v31q0 101 -19 125.5t-99 24.5h-11q-66 0 -87 -15.5t-21 -62.5v-10h-71v10q0 82 38 109t144 27h14q64 0 98 -6.5t55.5 -32t27 -65
t5.5 -114.5zM240 52h9q71 0 96.5 17.5t25.5 70.5v10q0 56 -24.5 72t-103.5 16h-9q-70 0 -91.5 -17t-21.5 -71v-9q0 -55 22.5 -72t96.5 -17zM337 682h43q-4 -117 -126 -117q-123 0 -127 117h44q5 -38 25 -52.5t58 -14.5t58 14t25 53z" />
    <glyph glyph-name="Aogonek" unicode="&#x104;" horiz-adv-x="632" 
d="M378 680l242 -680h-12q-102 -60 -102 -112q0 -35 46 -35q28 0 60 8v-40q-41 -13 -77 -13q-82 0 -82 65q0 34 22.5 63.5t75.5 63.5h-18l-53 154h-328l-54 -154h-86l247 680h119zM171 218h287l-137 401h-6z" />
    <glyph glyph-name="aogonek" unicode="&#x105;" horiz-adv-x="503" 
d="M444 268v-268h-9q-101 -60 -101 -112q0 -35 46 -35q30 0 60 8v-40q-43 -13 -78 -13q-82 0 -82 65q0 34 23 63t76 64h-8v54h-2q-17 -33 -49 -46.5t-94 -13.5h-11q-99 0 -133 29.5t-34 114.5v14q0 81 36 111t128 30h10q67 0 99 -10t47 -36h2v31q0 102 -19 126.5t-99 24.5
h-11q-66 0 -87 -15.5t-21 -63.5v-10h-71v10q0 82 38 109t144 27h14q64 0 98 -6.5t55.5 -32t27 -65t5.5 -114.5zM240 51h9q71 0 96.5 18t25.5 71v10q0 57 -24.5 73t-103.5 16h-9q-70 0 -91.5 -17.5t-21.5 -71.5v-9q0 -55 22.5 -72.5t96.5 -17.5z" />
    <glyph glyph-name="Cacute" unicode="&#x106;" horiz-adv-x="651" 
d="M343 -6h-19q-88 0 -138.5 12t-82 49.5t-41.5 95.5t-10 161v57q0 101 11 159.5t42.5 95.5t81.5 49.5t136 12.5h18q148 0 200 -40.5t52 -153.5v-21h-79v16q0 80 -33.5 106t-139.5 26h-16q-64 0 -97.5 -7.5t-56.5 -36t-29.5 -74.5t-6.5 -132v-56q0 -58 2.5 -95.5t11.5 -67
t21 -45.5t35.5 -26t51 -13t70.5 -3h15q109 0 142.5 25.5t33.5 108.5v15h80v-22q0 -115 -53.5 -155.5t-201.5 -40.5zM411 875l31 -54l-177 -79l-19 31z" />
    <glyph glyph-name="cacute" unicode="&#x107;" horiz-adv-x="505" 
d="M267 -6h-16q-120 0 -161.5 46t-41.5 184v33q0 138 42.5 183.5t161.5 45.5h17q109 0 148 -34t39 -126v-14h-72v10q0 62 -23 83t-93 21h-14q-80 0 -104.5 -31t-24.5 -138v-33q0 -105 25 -136.5t105 -31.5h15q70 0 93 21.5t23 84.5v11h73v-13q0 -95 -41 -130.5t-151 -35.5z
M361 659l-159 -111l-23 29l143 131z" />
    <glyph glyph-name="Ccircumflex" unicode="&#x108;" horiz-adv-x="651" 
d="M343 -6h-19q-88 0 -138.5 12t-82 49.5t-41.5 95.5t-10 161v57q0 101 11 159.5t42.5 95.5t81.5 49.5t136 12.5h18q148 0 200 -40.5t52 -153.5v-21h-79v16q0 80 -33.5 106t-139.5 26h-16q-64 0 -97.5 -7.5t-56.5 -36t-29.5 -74.5t-6.5 -132v-56q0 -58 2.5 -95.5t11.5 -67
t21 -45.5t35.5 -26t51 -13t70.5 -3h15q109 0 142.5 25.5t33.5 108.5v15h80v-22q0 -115 -53.5 -155.5t-201.5 -40.5zM463 776l-28 -30l-104 73l-103 -73l-28 30l131 106z" />
    <glyph glyph-name="ccircumflex" unicode="&#x109;" horiz-adv-x="505" 
d="M267 -6h-16q-120 0 -161.5 46t-41.5 184v33q0 138 42.5 183.5t161.5 45.5h17q109 0 148 -34t39 -126v-14h-72v10q0 62 -23 83t-93 21h-14q-80 0 -104.5 -31t-24.5 -138v-33q0 -105 25 -136.5t105 -31.5h15q70 0 93 21.5t23 84.5v11h73v-13q0 -95 -41 -130.5t-151 -35.5z
M383 589l-29 -30l-100 84l-99 -84l-29 30l128 117z" />
    <glyph glyph-name="Cdotaccent" unicode="&#x10a;" horiz-adv-x="651" 
d="M343 -6h-19q-88 0 -138.5 12t-82 49.5t-41.5 95.5t-10 161v57q0 101 11 159.5t42.5 95.5t81.5 49.5t136 12.5h18q148 0 200 -40.5t52 -153.5v-21h-79v16q0 80 -33.5 106t-139.5 26h-16q-64 0 -97.5 -7.5t-56.5 -36t-29.5 -74.5t-6.5 -132v-56q0 -58 2.5 -95.5t11.5 -67
t21 -45.5t35.5 -26t51 -13t70.5 -3h15q109 0 142.5 25.5t33.5 108.5v15h80v-22q0 -115 -53.5 -155.5t-201.5 -40.5zM368 847v-88h-77v88h77z" />
    <glyph glyph-name="cdotaccent" unicode="&#x10b;" horiz-adv-x="505" 
d="M267 -6h-16q-120 0 -161.5 46t-41.5 184v33q0 138 42.5 183.5t161.5 45.5h17q109 0 148 -34t39 -126v-14h-72v10q0 62 -23 83t-93 21h-14q-80 0 -104.5 -31t-24.5 -138v-33q0 -105 25 -136.5t105 -31.5h15q70 0 93 21.5t23 84.5v11h73v-13q0 -95 -41 -130.5t-151 -35.5z
M292 680v-88h-77v88h77z" />
    <glyph glyph-name="Ccaron" unicode="&#x10c;" horiz-adv-x="651" 
d="M343 -6h-19q-88 0 -138.5 12t-82 49.5t-41.5 95.5t-10 161v57q0 101 11 159.5t42.5 95.5t81.5 49.5t136 12.5h18q148 0 200 -40.5t52 -153.5v-21h-79v16q0 80 -33.5 106t-139.5 26h-16q-64 0 -97.5 -7.5t-56.5 -36t-29.5 -74.5t-6.5 -132v-56q0 -58 2.5 -95.5t11.5 -67
t21 -45.5t35.5 -26t51 -13t70.5 -3h15q109 0 142.5 25.5t33.5 108.5v15h80v-22q0 -115 -53.5 -155.5t-201.5 -40.5zM464 837l-132 -105l-131 105l28 30l103 -73l104 73z" />
    <glyph glyph-name="ccaron" unicode="&#x10d;" horiz-adv-x="505" 
d="M267 -6h-16q-120 0 -161.5 46t-41.5 184v33q0 138 42.5 183.5t161.5 45.5h17q109 0 148 -34t39 -126v-14h-72v10q0 62 -23 83t-93 21h-14q-80 0 -104.5 -31t-24.5 -138v-33q0 -105 25 -136.5t105 -31.5h15q70 0 93 21.5t23 84.5v11h73v-13q0 -95 -41 -130.5t-151 -35.5z
M382 665l-128 -117l-129 117l28 29l101 -83l100 82z" />
    <glyph glyph-name="Dcaron" unicode="&#x10e;" horiz-adv-x="687" 
d="M631 372v-63q0 -70 -4 -115.5t-17 -82t-31.5 -56.5t-53 -33.5t-76.5 -17.5t-107 -4h-273v680h273q64 0 105 -4t76 -16.5t53.5 -32.5t32 -56t18 -82.5t4.5 -116.5zM152 67h187q49 0 79 2.5t55.5 13t38.5 25.5t22 44.5t11.5 66.5t2.5 95v55q0 86 -7 131.5t-32 73t-61.5 34
t-108.5 6.5h-187v-547zM465 837l-132 -105l-131 105l28 30l103 -73l104 73z" />
    <glyph glyph-name="dcaron" unicode="&#x10f;" horiz-adv-x="534" 
d="M469 680v-680h-74v69h-2q-17 -42 -51.5 -58.5t-101.5 -16.5h-11q-106 0 -143.5 48.5t-37.5 186.5v25q0 138 38 185t141 47h14q65 0 99.5 -16t50.5 -55h1v265h77zM251 56h13q79 0 105 30t26 127v56q0 94 -26.5 125.5t-104.5 31.5h-13q-76 0 -101 -32.5t-25 -138.5v-28
q0 -105 25 -138t101 -33zM593 680v-73q0 -57 -15.5 -80t-55.5 -27v35q16 4 21 15.5t5 47.5v7h-22v75h67z" />
    <glyph glyph-name="Dcroat" unicode="&#x110;" horiz-adv-x="687" 
d="M18 326v51h51v303h273q64 0 105 -4t76 -16.5t53.5 -32.5t32 -56t18 -82.5t4.5 -116.5v-63q0 -70 -4 -115.5t-17 -82t-31.5 -56.5t-53 -33.5t-76.5 -17.5t-107 -4h-273v326h-51zM152 67h187q49 0 79 2.5t55.5 13t38.5 25.5t22 44.5t11.5 66.5t2.5 95v55q0 86 -7 131.5
t-32 73t-61.5 34t-108.5 6.5h-187v-237h164v-51h-164v-259z" />
    <glyph glyph-name="dcroat" unicode="&#x111;" horiz-adv-x="534" 
d="M469 552v-552h-74v69h-2q-17 -42 -51.5 -58.5t-101.5 -16.5h-11q-106 0 -143.5 48.5t-37.5 186.5v25q0 138 38 185t141 47h14q65 0 99.5 -16t50.5 -55h1v137h-146v47h146v81h77v-81h39v-47h-39zM251 56h13q79 0 105 30t26 127v56q0 94 -26.5 125.5t-104.5 31.5h-13
q-76 0 -101 -32.5t-25 -138.5v-28q0 -105 25 -138t101 -33z" />
    <glyph glyph-name="Emacron" unicode="&#x112;" horiz-adv-x="545" 
d="M512 67v-67h-443v680h440v-66h-357v-230h337v-64h-337v-253h360zM398 830v-52h-220v52h220z" />
    <glyph glyph-name="emacron" unicode="&#x113;" horiz-adv-x="506" 
d="M267 -6h-18q-122 0 -161.5 45t-39.5 185v31q0 141 40 186t158 45h16q115 0 154 -40t39 -159v-57h-332v-17q0 -100 24 -129t106 -29h13q73 0 96.5 19.5t23.5 78.5v9h72v-11q0 -90 -42.5 -123.5t-148.5 -33.5zM122 282h260v17q0 80 -22 104.5t-99 24.5h-11
q-80 0 -103.5 -26t-24.5 -120zM366 660v-52h-220v52h220z" />
    <glyph glyph-name="Ebreve" unicode="&#x114;" horiz-adv-x="545" 
d="M512 67v-67h-443v680h440v-66h-357v-230h337v-64h-337v-253h360zM372 857h43q-4 -117 -126 -117q-123 0 -127 117h44q5 -38 25 -52.5t58 -14.5t58 14t25 53z" />
    <glyph glyph-name="ebreve" unicode="&#x115;" horiz-adv-x="506" 
d="M267 -6h-18q-122 0 -161.5 45t-39.5 185v31q0 141 40 186t158 45h16q115 0 154 -40t39 -159v-57h-332v-17q0 -100 24 -129t106 -29h13q73 0 96.5 19.5t23.5 78.5v9h72v-11q0 -90 -42.5 -123.5t-148.5 -33.5zM122 282h260v17q0 80 -22 104.5t-99 24.5h-11
q-80 0 -103.5 -26t-24.5 -120zM339 682h43q-4 -117 -126 -117q-123 0 -127 117h44q5 -38 25 -52.5t58 -14.5t58 14t25 53z" />
    <glyph glyph-name="Edotaccent" unicode="&#x116;" horiz-adv-x="545" 
d="M512 67v-67h-443v680h440v-66h-357v-230h337v-64h-337v-253h360zM322 847v-88h-77v88h77z" />
    <glyph glyph-name="edotaccent" unicode="&#x117;" horiz-adv-x="506" 
d="M267 -6h-18q-122 0 -161.5 45t-39.5 185v31q0 141 40 186t158 45h16q115 0 154 -40t39 -159v-57h-332v-17q0 -100 24 -129t106 -29h13q73 0 96.5 19.5t23.5 78.5v9h72v-11q0 -90 -42.5 -123.5t-148.5 -33.5zM122 282h260v17q0 80 -22 104.5t-99 24.5h-11
q-80 0 -103.5 -26t-24.5 -120zM292 680v-88h-77v88h77z" />
    <glyph glyph-name="Eogonek" unicode="&#x118;" horiz-adv-x="545" 
d="M498 -139v-40q-43 -13 -79 -13q-82 0 -82 65q0 60 90 127h-358v680h440v-66h-357v-230h337v-64h-337v-253h360v-67h-32q-90 -62 -90 -112q0 -35 47 -35q26 0 61 8z" />
    <glyph glyph-name="eogonek" unicode="&#x119;" horiz-adv-x="506" 
d="M383 9q-102 -72 -102 -121q0 -35 46 -35q30 0 60 8v-40q-41 -13 -77 -13q-83 0 -83 65q0 58 87 123q-30 -2 -47 -2h-18q-122 0 -161.5 45t-39.5 185v31q0 141 40 186t158 45h16q115 0 154 -40t39 -159v-57h-332v-17q0 -100 24 -129t106 -29h13q73 0 96.5 19.5t23.5 78.5
v9h72v-11q0 -60 -17.5 -93.5t-57.5 -48.5zM122 282h260v17q0 80 -22 104.5t-99 24.5h-11q-80 0 -103.5 -26t-24.5 -120z" />
    <glyph glyph-name="Ecaron" unicode="&#x11a;" horiz-adv-x="545" 
d="M512 67v-67h-443v680h440v-66h-357v-230h337v-64h-337v-253h360zM418 837l-132 -105l-131 105l28 30l103 -73l104 73z" />
    <glyph glyph-name="ecaron" unicode="&#x11b;" horiz-adv-x="506" 
d="M267 -6h-18q-122 0 -161.5 45t-39.5 185v31q0 141 40 186t158 45h16q115 0 154 -40t39 -159v-57h-332v-17q0 -100 24 -129t106 -29h13q73 0 96.5 19.5t23.5 78.5v9h72v-11q0 -90 -42.5 -123.5t-148.5 -33.5zM122 282h260v17q0 80 -22 104.5t-99 24.5h-11
q-80 0 -103.5 -26t-24.5 -120zM384 665l-128 -117l-129 117l28 29l101 -83l100 82z" />
    <glyph glyph-name="Gcircumflex" unicode="&#x11c;" horiz-adv-x="653" 
d="M343 -6h-18q-86 0 -136 12.5t-81.5 49.5t-42.5 96t-11 160v58q0 82 8.5 135.5t25.5 90.5t50.5 56t76.5 26.5t111 7.5h18q148 0 200 -40.5t52 -149.5v-16h-80v14q0 76 -33 100.5t-140 24.5h-15q-43 0 -70 -3t-50.5 -13t-35.5 -26t-21 -45.5t-11.5 -67t-2.5 -95.5v-57
q0 -84 7 -130.5t30 -74.5t57 -36t97 -8h15q111 0 145 28t34 123v61h-212v62h292v-114q0 -135 -52.5 -182t-206.5 -47zM462 776l-28 -30l-104 73l-103 -73l-28 30l131 106z" />
    <glyph glyph-name="gcircumflex" unicode="&#x11d;" horiz-adv-x="531" 
d="M259 -176h-17q-110 0 -147.5 28t-37.5 114v12h72v-9q0 -52 21 -68t92 -16h17q48 0 71.5 3.5t38.5 20t18.5 41.5t3.5 78v68h-2q-16 -39 -50.5 -55.5t-103.5 -16.5h-11q-100 0 -138 44.5t-38 171.5v22q0 131 38 177.5t138 46.5h12q67 0 102 -16t53 -56h1v66h75v-447
q0 -70 -8 -109t-33 -62.5t-62.5 -30.5t-104.5 -7zM247 84h13q81 0 106.5 30t25.5 126v23q0 100 -25.5 131.5t-105.5 31.5h-14q-74 0 -98.5 -31.5t-24.5 -131.5v-23q0 -94 25 -125t98 -31zM380 589l-29 -30l-100 84l-99 -84l-29 30l128 117z" />
    <glyph glyph-name="Gbreve" unicode="&#x11e;" horiz-adv-x="653" 
d="M343 -6h-18q-86 0 -136 12.5t-81.5 49.5t-42.5 96t-11 160v58q0 82 8.5 135.5t25.5 90.5t50.5 56t76.5 26.5t111 7.5h18q148 0 200 -40.5t52 -149.5v-16h-80v14q0 76 -33 100.5t-140 24.5h-15q-43 0 -70 -3t-50.5 -13t-35.5 -26t-21 -45.5t-11.5 -67t-2.5 -95.5v-57
q0 -84 7 -130.5t30 -74.5t57 -36t97 -8h15q111 0 145 28t34 123v61h-212v62h292v-114q0 -135 -52.5 -182t-206.5 -47zM414 857h43q-4 -117 -126 -117q-123 0 -127 117h44q5 -38 25 -52.5t58 -14.5t58 14t25 53z" />
    <glyph glyph-name="gbreve" unicode="&#x11f;" horiz-adv-x="531" 
d="M259 -176h-17q-110 0 -147.5 28t-37.5 114v12h72v-9q0 -52 21 -68t92 -16h17q48 0 71.5 3.5t38.5 20t18.5 41.5t3.5 78v68h-2q-16 -39 -50.5 -55.5t-103.5 -16.5h-11q-100 0 -138 44.5t-38 171.5v22q0 131 38 177.5t138 46.5h12q67 0 102 -16t53 -56h1v66h75v-447
q0 -70 -8 -109t-33 -62.5t-62.5 -30.5t-104.5 -7zM247 84h13q81 0 106.5 30t25.5 126v23q0 100 -25.5 131.5t-105.5 31.5h-14q-74 0 -98.5 -31.5t-24.5 -131.5v-23q0 -94 25 -125t98 -31zM337 682h43q-4 -117 -126 -117q-123 0 -127 117h44q5 -38 25 -52.5t58 -14.5t58 14
t25 53z" />
    <glyph glyph-name="Gdotaccent" unicode="&#x120;" horiz-adv-x="653" 
d="M343 -6h-18q-86 0 -136 12.5t-81.5 49.5t-42.5 96t-11 160v58q0 82 8.5 135.5t25.5 90.5t50.5 56t76.5 26.5t111 7.5h18q148 0 200 -40.5t52 -149.5v-16h-80v14q0 76 -33 100.5t-140 24.5h-15q-43 0 -70 -3t-50.5 -13t-35.5 -26t-21 -45.5t-11.5 -67t-2.5 -95.5v-57
q0 -84 7 -130.5t30 -74.5t57 -36t97 -8h15q111 0 145 28t34 123v61h-212v62h292v-114q0 -135 -52.5 -182t-206.5 -47zM369 847v-88h-77v88h77z" />
    <glyph glyph-name="gdotaccent" unicode="&#x121;" horiz-adv-x="531" 
d="M259 -176h-17q-110 0 -147.5 28t-37.5 114v12h72v-9q0 -52 21 -68t92 -16h17q48 0 71.5 3.5t38.5 20t18.5 41.5t3.5 78v68h-2q-16 -39 -50.5 -55.5t-103.5 -16.5h-11q-100 0 -138 44.5t-38 171.5v22q0 131 38 177.5t138 46.5h12q67 0 102 -16t53 -56h1v66h75v-447
q0 -70 -8 -109t-33 -62.5t-62.5 -30.5t-104.5 -7zM247 84h13q81 0 106.5 30t25.5 126v23q0 100 -25.5 131.5t-105.5 31.5h-14q-74 0 -98.5 -31.5t-24.5 -131.5v-23q0 -94 25 -125t98 -31zM290 680v-88h-77v88h77z" />
    <glyph glyph-name="Gcommaaccent" unicode="&#x122;" horiz-adv-x="653" 
d="M343 -6h-18q-86 0 -136 12.5t-81.5 49.5t-42.5 96t-11 160v58q0 82 8.5 135.5t25.5 90.5t50.5 56t76.5 26.5t111 7.5h18q148 0 200 -40.5t52 -149.5v-16h-80v14q0 76 -33 100.5t-140 24.5h-15q-43 0 -70 -3t-50.5 -13t-35.5 -26t-21 -45.5t-11.5 -67t-2.5 -95.5v-57
q0 -84 7 -130.5t30 -74.5t57 -36t97 -8h15q111 0 145 28t34 123v61h-212v62h292v-114q0 -135 -52.5 -182t-206.5 -47zM373 -49v-76q0 -54 -16.5 -74.5t-65.5 -23.5v32q23 3 30 14.5t7 46.5v6h-22v75h67z" />
    <glyph glyph-name="gcommaaccent" unicode="&#x123;" horiz-adv-x="531" 
d="M259 -176h-17q-110 0 -147.5 28t-37.5 114v12h72v-9q0 -52 21 -68t92 -16h17q48 0 71.5 3.5t38.5 20t18.5 41.5t3.5 78v68h-2q-16 -39 -50.5 -55.5t-103.5 -16.5h-11q-100 0 -138 44.5t-38 171.5v22q0 131 38 177.5t138 46.5h12q67 0 102 -16t53 -56h1v66h75v-447
q0 -70 -8 -109t-33 -62.5t-62.5 -30.5t-104.5 -7zM247 84h13q81 0 106.5 30t25.5 126v23q0 100 -25.5 131.5t-105.5 31.5h-14q-74 0 -98.5 -31.5t-24.5 -131.5v-23q0 -94 25 -125t98 -31zM283 621v-75h-67v76q0 54 16.5 74.5t65.5 23.5v-32q-23 -3 -30 -14.5t-7 -46.5v-6h22
z" />
    <glyph glyph-name="Hcircumflex" unicode="&#x124;" horiz-adv-x="676" 
d="M607 680v-680h-83v317h-372v-317h-83v680h83v-290h372v290h83zM470 776l-28 -30l-104 73l-103 -73l-28 30l131 106z" />
    <glyph glyph-name="hcircumflex" unicode="&#x125;" horiz-adv-x="539" 
d="M477 302v-302h-77v283q0 90 -21 115.5t-96 25.5h-10q-72 0 -101.5 -29t-29.5 -112v-283h-77v680h77v-277h1q17 43 51.5 63t104.5 20h9q101 0 135 -36.5t34 -147.5zM239 776l-28 -30l-104 73l-103 -73l-28 30l131 106z" />
    <glyph glyph-name="Hbar" unicode="&#x126;" horiz-adv-x="676" 
d="M607 503v-503h-83v317h-372v-317h-83v503h-44v48h44v129h83v-129h372v129h83v-129h44v-48h-44zM152 390h372v113h-372v-113z" />
    <glyph glyph-name="hbar" unicode="&#x127;" horiz-adv-x="539" 
d="M24 552v47h41v81h77v-81h144v-47h-144v-149h1q17 43 51.5 63t104.5 20h9q101 0 135 -36.5t34 -147.5v-302h-77v283q0 90 -21 115.5t-96 25.5h-10q-72 0 -101.5 -29t-29.5 -112v-283h-77v552h-41z" />
    <glyph glyph-name="Itilde" unicode="&#x128;" horiz-adv-x="221" 
d="M152 680v-680h-83v680h83zM202 857l35 -7q-8 -91 -72 -91q-27 0 -61 25q-29 20 -47 20q-31 0 -39 -46l-34 8q6 89 71 89q27 0 59 -22q31 -22 50 -22q32 0 38 46z" />
    <glyph glyph-name="itilde" unicode="&#x129;" horiz-adv-x="207" 
d="M142 480v-480h-77v480h77zM195 681l35 -7q-8 -91 -72 -91q-27 0 -61 25q-29 20 -47 20q-31 0 -39 -46l-34 8q6 89 71 89q27 0 59 -22q31 -22 50 -22q32 0 38 46z" />
    <glyph glyph-name="Imacron" unicode="&#x12a;" horiz-adv-x="221" 
d="M152 680v-680h-83v680h83zM220 830v-52h-220v52h220z" />
    <glyph glyph-name="imacron" unicode="&#x12b;" horiz-adv-x="207" 
d="M142 480v-480h-77v480h77zM213 660v-52h-220v52h220z" />
    <glyph glyph-name="Iogonek" unicode="&#x12e;" horiz-adv-x="221" 
d="M168 -140v-40q-36 -12 -73 -12q-82 0 -82 65q0 58 78 127h-22v680h83v-680h-15q-71 -66 -71 -113q0 -34 46 -34q31 0 56 7z" />
    <glyph glyph-name="iogonek" unicode="&#x12f;" horiz-adv-x="207" 
d="M161 -140v-40q-38 -12 -74 -12q-82 0 -82 65q0 58 78 127l-18 1v479h77v-480h-13q-71 -66 -71 -113q0 -34 46 -34q30 0 57 7zM142 680v-88h-77v88h77z" />
    <glyph glyph-name="Idotaccent" unicode="&#x130;" horiz-adv-x="221" 
d="M152 680v-680h-83v680h83zM149 847v-88h-77v88h77z" />
    <glyph glyph-name="dotlessi" unicode="&#x131;" horiz-adv-x="207" 
d="M142 480v-480h-77v480h77z" />
    <glyph glyph-name="Jcircumflex" unicode="&#x134;" horiz-adv-x="523" 
d="M240 -6h-19q-125 0 -161 38t-36 171v27h76v-21q0 -97 21 -121.5t103 -24.5h15q92 0 114.5 26.5t22.5 135.5v455h83v-450q0 -79 -7.5 -122t-33 -70.5t-65.5 -35.5t-113 -8zM547 776l-28 -30l-104 73l-103 -73l-28 30l131 106z" />
    <glyph glyph-name="jcircumflex" unicode="&#x135;" horiz-adv-x="206" 
d="M142 480v-525q0 -73 -23.5 -100.5t-78.5 -27.5q-23 0 -36 3v61q10 -1 21 -1q24 0 32 13t8 61v516h77zM231 589l-29 -30l-100 84l-99 -84l-29 30l128 117z" />
    <glyph glyph-name="Kcommaaccent" unicode="&#x136;" horiz-adv-x="622" 
d="M293 349l320 -349h-108l-281 315h-73v-315h-82v680h82v-301h76l267 301h100zM339 -49v-76q0 -54 -16.5 -74.5t-65.5 -23.5v32q23 3 30 14.5t7 46.5v6h-22v75h67z" />
    <glyph glyph-name="kcommaaccent" unicode="&#x137;" horiz-adv-x="469" 
d="M232 257l228 -257h-92l-200 232h-26v-232h-77v680h77v-399h30l175 199h91zM274 -49v-76q0 -54 -16.5 -74.5t-65.5 -23.5v32q23 3 30 14.5t7 46.5v6h-22v75h67z" />
    <glyph glyph-name="Lacute" unicode="&#x139;" horiz-adv-x="490" 
d="M478 68v-68h-409v680h83v-612h326zM257 875l31 -54l-177 -79l-19 31z" />
    <glyph glyph-name="lacute" unicode="&#x13a;" horiz-adv-x="207" 
d="M142 680v-680h-77v680h77zM239 875l31 -54l-177 -79l-19 31z" />
    <glyph glyph-name="Lcommaaccent" unicode="&#x13b;" horiz-adv-x="490" 
d="M478 68v-68h-409v680h83v-612h326zM310 -49v-76q0 -54 -16.5 -74.5t-65.5 -23.5v32q23 3 30 14.5t7 46.5v6h-22v75h67z" />
    <glyph glyph-name="lcommaaccent" unicode="&#x13c;" horiz-adv-x="207" 
d="M142 680v-680h-77v680h77zM138 -49v-76q0 -54 -16.5 -74.5t-65.5 -23.5v32q23 3 30 14.5t7 46.5v6h-22v75h67z" />
    <glyph glyph-name="Lcaron" unicode="&#x13d;" horiz-adv-x="490" 
d="M478 68v-68h-409v680h83v-612h326zM301 680v-73q0 -57 -15.5 -80t-55.5 -27v35q16 4 21 15.5t5 47.5v7h-22v75h67z" />
    <glyph glyph-name="lcaron" unicode="&#x13e;" horiz-adv-x="207" 
d="M142 680v-680h-77v680h77zM266 680v-73q0 -57 -15.5 -80t-55.5 -27v35q16 4 21 15.5t5 47.5v7h-22v75h67z" />
    <glyph glyph-name="Ldot" unicode="&#x13f;" horiz-adv-x="490" 
d="M478 68v-68h-409v680h83v-612h326zM405 412v-106h-82v106h82z" />
    <glyph glyph-name="ldot" unicode="&#x140;" horiz-adv-x="299" 
d="M142 680v-680h-77v680h77zM294 402v-106h-82v106h82z" />
    <glyph glyph-name="Lslash" unicode="&#x141;" horiz-adv-x="490" 
d="M478 68v-68h-409v282l-58 -31v56l58 31v342h83v-302l147 78v-56l-147 -78v-254h326z" />
    <glyph glyph-name="lslash" unicode="&#x142;" horiz-adv-x="207" 
d="M142 341v-341h-77v297l-49 -40v59l49 39v325h77v-281l49 40v-57z" />
    <glyph glyph-name="Nacute" unicode="&#x143;" horiz-adv-x="706" 
d="M637 680v-680h-126l-361 609h-4l1 -609h-78v680h128l360 -607h3l-2 607h79zM435 875l31 -54l-177 -79l-19 31z" />
    <glyph glyph-name="nacute" unicode="&#x144;" horiz-adv-x="539" 
d="M477 302v-302h-77v282q0 91 -21 116.5t-96 25.5h-10q-71 0 -101 -29.5t-30 -112.5v-282h-77v480h76v-77h1q17 43 51.5 63t105.5 20h9q101 0 135 -37t34 -147zM379 659l-159 -111l-23 29l143 131z" />
    <glyph glyph-name="Ncommaaccent" unicode="&#x145;" horiz-adv-x="706" 
d="M637 680v-680h-126l-361 609h-4l1 -609h-78v680h128l360 -607h3l-2 607h79zM398 -49v-76q0 -54 -16.5 -74.5t-65.5 -23.5v32q23 3 30 14.5t7 46.5v6h-22v75h67z" />
    <glyph glyph-name="ncommaaccent" unicode="&#x146;" horiz-adv-x="539" 
d="M477 302v-302h-77v282q0 91 -21 116.5t-96 25.5h-10q-71 0 -101 -29.5t-30 -112.5v-282h-77v480h76v-77h1q17 43 51.5 63t105.5 20h9q101 0 135 -37t34 -147zM310 -49v-76q0 -54 -16.5 -74.5t-65.5 -23.5v32q23 3 30 14.5t7 46.5v6h-22v75h67z" />
    <glyph glyph-name="Ncaron" unicode="&#x147;" horiz-adv-x="706" 
d="M637 680v-680h-126l-361 609h-4l1 -609h-78v680h128l360 -607h3l-2 607h79zM493 837l-132 -105l-131 105l28 30l103 -73l104 73z" />
    <glyph glyph-name="ncaron" unicode="&#x148;" horiz-adv-x="539" 
d="M477 302v-302h-77v282q0 91 -21 116.5t-96 25.5h-10q-71 0 -101 -29.5t-30 -112.5v-282h-77v480h76v-77h1q17 43 51.5 63t105.5 20h9q101 0 135 -37t34 -147zM408 665l-128 -117l-129 117l28 29l101 -83l100 82z" />
    <glyph glyph-name="Omacron" unicode="&#x14c;" horiz-adv-x="679" 
d="M53 311v58q0 101 11 160t44 95.5t83.5 49t138.5 12.5h19q88 0 138.5 -12.5t83.5 -49t44 -95.5t11 -160v-58q0 -101 -11 -160t-44 -95.5t-83.5 -49t-138.5 -12.5h-19q-88 0 -138.5 12.5t-83.5 49t-44 95.5t-11 160zM136 369v-57q0 -85 6.5 -131.5t30 -74.5t58 -35.5
t100.5 -7.5h18q86 0 124.5 17.5t54 68t15.5 163.5v57q0 57 -3 94.5t-11.5 67t-21 45.5t-36 26.5t-51.5 13.5t-71 3h-18q-66 0 -100.5 -8t-58 -36t-30 -74.5t-6.5 -131.5zM449 830v-52h-220v52h220z" />
    <glyph glyph-name="omacron" unicode="&#x14d;" horiz-adv-x="525" 
d="M271 -6h-17q-121 0 -163.5 47t-42.5 183v33q0 135 43 182t163 47h17q120 0 163 -47t43 -182v-33q0 -136 -42.5 -183t-163.5 -47zM256 55h13q82 0 107 32t25 137v33q0 105 -25 137t-107 32h-13q-82 0 -107 -32t-25 -137v-33q0 -105 25 -137t107 -32zM375 660v-52h-220v52
h220z" />
    <glyph glyph-name="Obreve" unicode="&#x14e;" horiz-adv-x="679" 
d="M53 311v58q0 101 11 160t44 95.5t83.5 49t138.5 12.5h19q88 0 138.5 -12.5t83.5 -49t44 -95.5t11 -160v-58q0 -101 -11 -160t-44 -95.5t-83.5 -49t-138.5 -12.5h-19q-88 0 -138.5 12.5t-83.5 49t-44 95.5t-11 160zM136 369v-57q0 -85 6.5 -131.5t30 -74.5t58 -35.5
t100.5 -7.5h18q86 0 124.5 17.5t54 68t15.5 163.5v57q0 57 -3 94.5t-11.5 67t-21 45.5t-36 26.5t-51.5 13.5t-71 3h-18q-66 0 -100.5 -8t-58 -36t-30 -74.5t-6.5 -131.5zM423 857h43q-4 -117 -126 -117q-123 0 -127 117h44q5 -38 25 -52.5t58 -14.5t58 14t25 53z" />
    <glyph glyph-name="obreve" unicode="&#x14f;" horiz-adv-x="525" 
d="M271 -6h-17q-121 0 -163.5 47t-42.5 183v33q0 135 43 182t163 47h17q120 0 163 -47t43 -182v-33q0 -136 -42.5 -183t-163.5 -47zM256 55h13q82 0 107 32t25 137v33q0 105 -25 137t-107 32h-13q-82 0 -107 -32t-25 -137v-33q0 -105 25 -137t107 -32zM348 682h43
q-4 -117 -126 -117q-123 0 -127 117h44q5 -38 25 -52.5t58 -14.5t58 14t25 53z" />
    <glyph glyph-name="Ohungarumlaut" unicode="&#x150;" horiz-adv-x="679" 
d="M53 311v58q0 101 11 160t44 95.5t83.5 49t138.5 12.5h19q88 0 138.5 -12.5t83.5 -49t44 -95.5t11 -160v-58q0 -101 -11 -160t-44 -95.5t-83.5 -49t-138.5 -12.5h-19q-88 0 -138.5 12.5t-83.5 49t-44 95.5t-11 160zM136 369v-57q0 -85 6.5 -131.5t30 -74.5t58 -35.5
t100.5 -7.5h18q86 0 124.5 17.5t54 68t15.5 163.5v57q0 57 -3 94.5t-11.5 67t-21 45.5t-36 26.5t-51.5 13.5t-71 3h-18q-66 0 -100.5 -8t-58 -36t-30 -74.5t-6.5 -131.5zM396 844l-136 -114l-23 28l123 126zM535 844l-137 -115l-23 28l124 126z" />
    <glyph glyph-name="ohungarumlaut" unicode="&#x151;" horiz-adv-x="525" 
d="M271 -6h-17q-121 0 -163.5 47t-42.5 183v33q0 135 43 182t163 47h17q120 0 163 -47t43 -182v-33q0 -136 -42.5 -183t-163.5 -47zM256 55h13q82 0 107 32t25 137v33q0 105 -25 137t-107 32h-13q-82 0 -107 -32t-25 -137v-33q0 -105 25 -137t107 -32zM285 710l39 -37
l-129 -123l-25 27zM421 709l39 -37l-131 -123l-25 27z" />
    <glyph glyph-name="OE" unicode="&#x152;" horiz-adv-x="1015" 
d="M982 67v-67h-437v74h-1q-19 -46 -63.5 -63t-144.5 -17h-18q-82 0 -129.5 11.5t-80 47t-44 95t-11.5 159.5v69q0 130 24.5 195.5t78.5 90t161 24.5h17q104 0 146 -18t64 -63h1v75h434v-66h-357v-230h337v-64h-337v-253h360zM331 62h17q119 0 156.5 41.5t37.5 168.5v132
q0 131 -39 172.5t-155 41.5h-17q-83 0 -122 -17.5t-55.5 -67t-16.5 -155.5v-73q0 -80 7 -125t29.5 -73t58 -36.5t99.5 -8.5z" />
    <glyph glyph-name="oe" unicode="&#x153;" horiz-adv-x="857" 
d="M809 162v-10q0 -92 -41 -125t-145 -33h-19q-75 0 -112.5 17.5t-50.5 57.5h-1q-15 -40 -55.5 -57.5t-115.5 -17.5h-17q-118 0 -161 46.5t-43 182.5v34q0 135 43 182t161 47h17q77 0 115.5 -17t55.5 -58h1q26 75 159 75h16q110 0 150 -40.5t40 -156.5v-59h-329v-16
q0 -100 23 -129.5t106 -29.5h13q72 0 95 20t23 78v9h72zM256 55h14q82 0 106.5 31.5t24.5 135.5v38q0 105 -25.5 135.5t-105.5 30.5h-14q-81 0 -106.5 -32t-25.5 -137v-34q0 -106 25.5 -137t106.5 -31zM476 282h257v17q0 79 -22.5 104t-95.5 25h-11q-79 0 -103 -26t-25 -120
z" />
    <glyph glyph-name="Racute" unicode="&#x154;" horiz-adv-x="636" 
d="M151 332h223q68 0 93 26.5t25 98.5v25q0 83 -27.5 107.5t-122.5 24.5h-191v-282zM575 122v-122h-83v92q0 63 -3.5 94t-20.5 51.5t-42.5 25t-78.5 4.5h-196v-267h-82v680h290q132 0 174 -38t42 -150v-23q0 -81 -22 -117t-73 -46v-2q57 -11 76 -47t19 -135zM391 875l31 -54
l-177 -79l-19 31z" />
    <glyph glyph-name="racute" unicode="&#x155;" horiz-adv-x="439" 
d="M142 272v-272h-77v480h75v-84h2q15 47 46.5 68.5t91.5 21.5h7q79 0 104.5 -30t25.5 -114v-42h-68v25q0 60 -17 78.5t-74 18.5h-8q-56 0 -82 -31.5t-26 -118.5zM333 659l-159 -111l-23 29l143 131z" />
    <glyph glyph-name="Rcommaaccent" unicode="&#x156;" horiz-adv-x="636" 
d="M151 332h223q68 0 93 26.5t25 98.5v25q0 83 -27.5 107.5t-122.5 24.5h-191v-282zM575 122v-122h-83v92q0 63 -3.5 94t-20.5 51.5t-42.5 25t-78.5 4.5h-196v-267h-82v680h290q132 0 174 -38t42 -150v-23q0 -81 -22 -117t-73 -46v-2q57 -11 76 -47t19 -135zM360 -49v-76
q0 -54 -16.5 -74.5t-65.5 -23.5v32q23 3 30 14.5t7 46.5v6h-22v75h67z" />
    <glyph glyph-name="rcommaaccent" unicode="&#x157;" horiz-adv-x="439" 
d="M142 272v-272h-77v480h75v-84h2q15 47 46.5 68.5t91.5 21.5h7q79 0 104.5 -30t25.5 -114v-42h-68v25q0 60 -17 78.5t-74 18.5h-8q-56 0 -82 -31.5t-26 -118.5zM138 -49v-76q0 -54 -16.5 -74.5t-65.5 -23.5v32q23 3 30 14.5t7 46.5v6h-22v75h67z" />
    <glyph glyph-name="Rcaron" unicode="&#x158;" horiz-adv-x="636" 
d="M151 332h223q68 0 93 26.5t25 98.5v25q0 83 -27.5 107.5t-122.5 24.5h-191v-282zM575 122v-122h-83v92q0 63 -3.5 94t-20.5 51.5t-42.5 25t-78.5 4.5h-196v-267h-82v680h290q132 0 174 -38t42 -150v-23q0 -81 -22 -117t-73 -46v-2q57 -11 76 -47t19 -135zM446 837
l-132 -105l-131 105l28 30l103 -73l104 73z" />
    <glyph glyph-name="rcaron" unicode="&#x159;" horiz-adv-x="439" 
d="M142 272v-272h-77v480h75v-84h2q15 47 46.5 68.5t91.5 21.5h7q79 0 104.5 -30t25.5 -114v-42h-68v25q0 60 -17 78.5t-74 18.5h-8q-56 0 -82 -31.5t-26 -118.5zM357 665l-128 -117l-129 117l28 29l101 -83l100 82z" />
    <glyph glyph-name="Sacute" unicode="&#x15a;" horiz-adv-x="619" 
d="M567 202v-16q0 -114 -47 -153t-185 -39h-23q-86 0 -134 7t-77 30t-37.5 57t-8.5 97v28h78v-24q0 -56 13 -81.5t48.5 -36.5t112.5 -11h19q100 0 129.5 23t29.5 100v14q0 45 -11.5 65.5t-50 32.5t-124.5 19q-144 11 -190.5 47.5t-46.5 131.5v16q0 101 47 139t179 38h20
q79 0 125 -8t73 -31t36 -56.5t9 -91.5v-22h-79v18q0 77 -29.5 101.5t-130.5 24.5h-17q-95 0 -123.5 -21.5t-28.5 -91.5v-14q0 -41 12.5 -60.5t50.5 -31t120 -18.5q102 -8 153 -27t69.5 -53.5t18.5 -101.5zM392 875l31 -54l-177 -79l-19 31z" />
    <glyph glyph-name="sacute" unicode="&#x15b;" horiz-adv-x="494" 
d="M266 -6h-25q-118 0 -155 27t-37 110v15h72v-8q0 -54 21.5 -69.5t98.5 -15.5h23q70 0 90.5 15t20.5 63v8q0 29 -9 43t-39 22.5t-94 13.5q-105 7 -140 34t-35 94v12q0 72 37 100t135 28h20q112 0 148 -26.5t36 -108.5v-11h-70v8q0 50 -20.5 65t-89.5 15h-17
q-67 0 -86.5 -14t-19.5 -56v-11q0 -34 23 -47t102 -19q114 -8 153.5 -36.5t39.5 -98.5v-13q0 -81 -39 -110t-144 -29zM350 659l-159 -111l-23 29l143 131z" />
    <glyph glyph-name="Scircumflex" unicode="&#x15c;" horiz-adv-x="619" 
d="M567 202v-16q0 -114 -47 -153t-185 -39h-23q-86 0 -134 7t-77 30t-37.5 57t-8.5 97v28h78v-24q0 -56 13 -81.5t48.5 -36.5t112.5 -11h19q100 0 129.5 23t29.5 100v14q0 45 -11.5 65.5t-50 32.5t-124.5 19q-144 11 -190.5 47.5t-46.5 131.5v16q0 101 47 139t179 38h20
q79 0 125 -8t73 -31t36 -56.5t9 -91.5v-22h-79v18q0 77 -29.5 101.5t-130.5 24.5h-17q-95 0 -123.5 -21.5t-28.5 -91.5v-14q0 -41 12.5 -60.5t50.5 -31t120 -18.5q102 -8 153 -27t69.5 -53.5t18.5 -101.5zM441 776l-28 -30l-104 73l-103 -73l-28 30l131 106z" />
    <glyph glyph-name="scircumflex" unicode="&#x15d;" horiz-adv-x="494" 
d="M266 -6h-25q-118 0 -155 27t-37 110v15h72v-8q0 -54 21.5 -69.5t98.5 -15.5h23q70 0 90.5 15t20.5 63v8q0 29 -9 43t-39 22.5t-94 13.5q-105 7 -140 34t-35 94v12q0 72 37 100t135 28h20q112 0 148 -26.5t36 -108.5v-11h-70v8q0 50 -20.5 65t-89.5 15h-17
q-67 0 -86.5 -14t-19.5 -56v-11q0 -34 23 -47t102 -19q114 -8 153.5 -36.5t39.5 -98.5v-13q0 -81 -39 -110t-144 -29zM373 589l-29 -30l-100 84l-99 -84l-29 30l128 117z" />
    <glyph glyph-name="Scedilla" unicode="&#x15e;" horiz-adv-x="619" 
d="M567 202v-16q0 -114 -47 -153t-185 -39h-23q-86 0 -134 7t-77 30t-37.5 57t-8.5 97v28h78v-24q0 -56 13 -81.5t48.5 -36.5t112.5 -11h19q100 0 129.5 23t29.5 100v14q0 45 -11.5 65.5t-50 32.5t-124.5 19q-144 11 -190.5 47.5t-46.5 131.5v16q0 101 47 139t179 38h20
q79 0 125 -8t73 -31t36 -56.5t9 -91.5v-22h-79v18q0 77 -29.5 101.5t-130.5 24.5h-17q-95 0 -123.5 -21.5t-28.5 -91.5v-14q0 -41 12.5 -60.5t50.5 -31t120 -18.5q102 -8 153 -27t69.5 -53.5t18.5 -101.5zM370 -51l-146 -121l-25 25l129 140z" />
    <glyph glyph-name="scedilla" unicode="&#x15f;" horiz-adv-x="494" 
d="M266 -6h-25q-118 0 -155 27t-37 110v15h72v-8q0 -54 21.5 -69.5t98.5 -15.5h23q70 0 90.5 15t20.5 63v8q0 29 -9 43t-39 22.5t-94 13.5q-105 7 -140 34t-35 94v12q0 72 37 100t135 28h20q112 0 148 -26.5t36 -108.5v-11h-70v8q0 50 -20.5 65t-89.5 15h-17
q-67 0 -86.5 -14t-19.5 -56v-11q0 -34 23 -47t102 -19q114 -8 153.5 -36.5t39.5 -98.5v-13q0 -81 -39 -110t-144 -29zM308 -51l-146 -121l-25 25l129 140z" />
    <glyph glyph-name="Scaron" unicode="&#x160;" horiz-adv-x="619" 
d="M567 202v-16q0 -114 -47 -153t-185 -39h-23q-86 0 -134 7t-77 30t-37.5 57t-8.5 97v28h78v-24q0 -56 13 -81.5t48.5 -36.5t112.5 -11h19q100 0 129.5 23t29.5 100v14q0 45 -11.5 65.5t-50 32.5t-124.5 19q-144 11 -190.5 47.5t-46.5 131.5v16q0 101 47 139t179 38h20
q79 0 125 -8t73 -31t36 -56.5t9 -91.5v-22h-79v18q0 77 -29.5 101.5t-130.5 24.5h-17q-95 0 -123.5 -21.5t-28.5 -91.5v-14q0 -41 12.5 -60.5t50.5 -31t120 -18.5q102 -8 153 -27t69.5 -53.5t18.5 -101.5zM441 837l-132 -105l-131 105l28 30l103 -73l104 73z" />
    <glyph glyph-name="scaron" unicode="&#x161;" horiz-adv-x="494" 
d="M266 -6h-25q-118 0 -155 27t-37 110v15h72v-8q0 -54 21.5 -69.5t98.5 -15.5h23q70 0 90.5 15t20.5 63v8q0 29 -9 43t-39 22.5t-94 13.5q-105 7 -140 34t-35 94v12q0 72 37 100t135 28h20q112 0 148 -26.5t36 -108.5v-11h-70v8q0 50 -20.5 65t-89.5 15h-17
q-67 0 -86.5 -14t-19.5 -56v-11q0 -34 23 -47t102 -19q114 -8 153.5 -36.5t39.5 -98.5v-13q0 -81 -39 -110t-144 -29zM374 665l-128 -117l-129 117l28 29l101 -83l100 82z" />
    <glyph glyph-name="Tcommaaccent" unicode="&#x162;" horiz-adv-x="539" 
d="M311 613v-613h-83v613h-216v67h515v-67h-216zM305 -49v-76q0 -54 -16.5 -74.5t-65.5 -23.5v32q23 3 30 14.5t7 46.5v6h-22v75h67z" />
    <glyph glyph-name="tcommaaccent" unicode="&#x163;" horiz-adv-x="405" 
d="M233 -6h-16q-85 0 -111.5 34t-26.5 154v241h-67v57h67v125h76v-125h219v-57h-219v-236q0 -63 6 -89t19.5 -34t47.5 -8h11q49 0 61.5 20.5t12.5 101.5v38h64v-51q0 -105 -28.5 -138t-115.5 -33zM265 -49v-76q0 -54 -16.5 -74.5t-65.5 -23.5v32q23 3 30 14.5t7 46.5v6h-22
v75h67z" />
    <glyph glyph-name="Tcaron" unicode="&#x164;" horiz-adv-x="539" 
d="M311 613v-613h-83v613h-216v67h515v-67h-216zM403 837l-132 -105l-131 105l28 30l103 -73l104 73z" />
    <glyph glyph-name="tcaron" unicode="&#x165;" horiz-adv-x="405" 
d="M238 -6h-16q-85 0 -111.5 34t-26.5 154v241h-67v57h67v125h76v-125h167v-57h-167v-236q0 -63 6 -89t19.5 -34t47.5 -8h11q49 0 61.5 20.5t12.5 101.5v38h64v-51q0 -105 -28.5 -138t-115.5 -33zM426 680v-73q0 -57 -15.5 -80t-55.5 -27v35q16 4 21 15.5t5 47.5v7h-22v75
h67z" />
    <glyph glyph-name="Tbar" unicode="&#x166;" horiz-adv-x="539" 
d="M311 429v-429h-83v429h-155v50h155v134h-216v67h515v-67h-216v-134h158v-50h-158z" />
    <glyph glyph-name="tbar" unicode="&#x167;" horiz-adv-x="405" 
d="M30 309v39h49v75h-67v57h67v125h76v-125h219v-57h-219v-75h134v-39h-134v-122q0 -63 6 -89t19.5 -34t47.5 -8h11q49 0 61.5 20.5t12.5 101.5v38h64v-51q0 -105 -28.5 -138t-115.5 -33h-16q-85 0 -111.5 34t-26.5 154v127h-49z" />
    <glyph glyph-name="Utilde" unicode="&#x168;" horiz-adv-x="667" 
d="M340 -6h-15q-85 0 -132 8t-78 33.5t-41 68t-10 117.5v459h83v-452q0 -57 6 -88t28 -49t52.5 -23t89.5 -5h19q39 0 64 2t47 8.5t33.5 17t19.5 29.5t11 44.5t3 63.5v452h83v-459q0 -75 -10 -117.5t-42 -68t-79 -33.5t-132 -8zM425 857l35 -7q-8 -91 -72 -91q-27 0 -61 25
q-29 20 -47 20q-31 0 -39 -46l-34 8q6 89 71 89q27 0 59 -22q31 -22 50 -22q32 0 38 46z" />
    <glyph glyph-name="utilde" unicode="&#x169;" horiz-adv-x="535" 
d="M470 480v-480h-76v78h-1q-17 -43 -52 -63.5t-105 -20.5h-9q-99 0 -134 38.5t-35 148.5v299h77v-280q0 -92 21.5 -118.5t95.5 -26.5h9q72 0 102 29.5t30 113.5v282h77zM359 681l35 -7q-8 -91 -72 -91q-27 0 -61 25q-29 20 -47 20q-31 0 -39 -46l-34 8q6 89 71 89
q27 0 59 -22q31 -22 50 -22q32 0 38 46z" />
    <glyph glyph-name="Umacron" unicode="&#x16a;" horiz-adv-x="667" 
d="M340 -6h-15q-85 0 -132 8t-78 33.5t-41 68t-10 117.5v459h83v-452q0 -57 6 -88t28 -49t52.5 -23t89.5 -5h19q39 0 64 2t47 8.5t33.5 17t19.5 29.5t11 44.5t3 63.5v452h83v-459q0 -75 -10 -117.5t-42 -68t-79 -33.5t-132 -8zM443 830v-52h-220v52h220z" />
    <glyph glyph-name="umacron" unicode="&#x16b;" horiz-adv-x="535" 
d="M470 480v-480h-76v78h-1q-17 -43 -52 -63.5t-105 -20.5h-9q-99 0 -134 38.5t-35 148.5v299h77v-280q0 -92 21.5 -118.5t95.5 -26.5h9q72 0 102 29.5t30 113.5v282h77zM379 660v-52h-220v52h220z" />
    <glyph glyph-name="Ubreve" unicode="&#x16c;" horiz-adv-x="667" 
d="M340 -6h-15q-85 0 -132 8t-78 33.5t-41 68t-10 117.5v459h83v-452q0 -57 6 -88t28 -49t52.5 -23t89.5 -5h19q39 0 64 2t47 8.5t33.5 17t19.5 29.5t11 44.5t3 63.5v452h83v-459q0 -75 -10 -117.5t-42 -68t-79 -33.5t-132 -8zM417 857h43q-4 -117 -126 -117
q-123 0 -127 117h44q5 -38 25 -52.5t58 -14.5t58 14t25 53z" />
    <glyph glyph-name="ubreve" unicode="&#x16d;" horiz-adv-x="535" 
d="M470 480v-480h-76v78h-1q-17 -43 -52 -63.5t-105 -20.5h-9q-99 0 -134 38.5t-35 148.5v299h77v-280q0 -92 21.5 -118.5t95.5 -26.5h9q72 0 102 29.5t30 113.5v282h77zM352 682h43q-4 -117 -126 -117q-123 0 -127 117h44q5 -38 25 -52.5t58 -14.5t58 14t25 53z" />
    <glyph glyph-name="Uring" unicode="&#x16e;" horiz-adv-x="667" 
d="M340 -6h-15q-85 0 -132 8t-78 33.5t-41 68t-10 117.5v459h83v-452q0 -57 6 -88t28 -49t52.5 -23t89.5 -5h19q39 0 64 2t47 8.5t33.5 17t19.5 29.5t11 44.5t3 63.5v452h83v-459q0 -75 -10 -117.5t-42 -68t-79 -33.5t-132 -8zM336 726h-6q-55 0 -77 17t-22 58v6q0 41 22 58
t77 17h6q55 0 77 -17t22 -58v-6q0 -41 -22 -58t-77 -17zM330 757h6q35 0 48 10t13 35v6q0 25 -13 34.5t-48 9.5h-6q-35 0 -48 -9.5t-13 -34.5v-6q0 -26 13 -35.5t48 -9.5z" />
    <glyph glyph-name="uring" unicode="&#x16f;" horiz-adv-x="535" 
d="M470 480v-480h-76v78h-1q-17 -43 -52 -63.5t-105 -20.5h-9q-99 0 -134 38.5t-35 148.5v299h77v-280q0 -92 21.5 -118.5t95.5 -26.5h9q72 0 102 29.5t30 113.5v282h77zM270 552h-6q-55 0 -77 17t-22 58v6q0 41 22 58t77 17h6q55 0 77 -17t22 -58v-6q0 -41 -22 -58t-77 -17
zM264 583h6q35 0 48 10t13 35v6q0 25 -13 34.5t-48 9.5h-6q-35 0 -48 -9.5t-13 -34.5v-6q0 -26 13 -35.5t48 -9.5z" />
    <glyph glyph-name="Uhungarumlaut" unicode="&#x170;" horiz-adv-x="667" 
d="M340 -6h-15q-85 0 -132 8t-78 33.5t-41 68t-10 117.5v459h83v-452q0 -57 6 -88t28 -49t52.5 -23t89.5 -5h19q39 0 64 2t47 8.5t33.5 17t19.5 29.5t11 44.5t3 63.5v452h83v-459q0 -75 -10 -117.5t-42 -68t-79 -33.5t-132 -8zM388 844l-136 -114l-23 28l123 126zM527 844
l-137 -115l-23 28l124 126z" />
    <glyph glyph-name="uhungarumlaut" unicode="&#x171;" horiz-adv-x="535" 
d="M470 480v-480h-76v78h-1q-17 -43 -52 -63.5t-105 -20.5h-9q-99 0 -134 38.5t-35 148.5v299h77v-280q0 -92 21.5 -118.5t95.5 -26.5h9q72 0 102 29.5t30 113.5v282h77zM282 710l39 -37l-129 -123l-25 27zM418 709l39 -37l-131 -123l-25 27z" />
    <glyph glyph-name="Uogonek" unicode="&#x172;" horiz-adv-x="667" 
d="M412 -139v-40q-41 -13 -78 -13q-82 0 -82 65q0 56 76 121q-86 0 -133.5 8t-79 33.5t-41.5 68t-10 117.5v459h83v-452q0 -58 6 -89t28 -49t52.5 -23t89.5 -5h19q59 0 90 5t53 23t28.5 49.5t6.5 88.5v452h83v-459q0 -135 -44.5 -179t-180.5 -47q-73 -61 -73 -108
q0 -19 11 -26.5t35 -7.5q27 0 61 8z" />
    <glyph glyph-name="uogonek" unicode="&#x173;" horiz-adv-x="535" 
d="M470 480v-480h-10q-101 -61 -101 -112q0 -35 45 -35q29 0 61 8v-40q-43 -13 -78 -13q-82 0 -82 65q0 34 23 63t76 64h-10v78h-1q-17 -43 -52 -63.5t-105 -20.5h-9q-99 0 -134 38.5t-35 148.5v299h77v-280q0 -92 21.5 -118.5t95.5 -26.5h9q72 0 102 29.5t30 113.5v282h77z
" />
    <glyph glyph-name="Wcircumflex" unicode="&#x174;" horiz-adv-x="936" 
d="M914 680l-180 -680h-107l-157 604h-2l-159 -604h-106l-181 680h83l153 -612h3l160 612h97l160 -612h3l151 612h82zM602 776l-28 -30l-104 73l-103 -73l-28 30l131 106z" />
    <glyph glyph-name="wcircumflex" unicode="&#x175;" horiz-adv-x="735" 
d="M719 480l-140 -480h-104l-106 407h-2l-107 -407h-104l-140 480h81l112 -423h3l113 423h88l114 -423h3l111 423h78zM497 589l-29 -30l-100 84l-99 -84l-29 30l128 117z" />
    <glyph glyph-name="Ycircumflex" unicode="&#x176;" horiz-adv-x="604" 
d="M343 239v-239h-83v239l-250 441h90l202 -366h2l199 366h91zM436 776l-28 -30l-104 73l-103 -73l-28 30l131 106z" />
    <glyph glyph-name="ycircumflex" unicode="&#x177;" horiz-adv-x="457" 
d="M64 -171v59q22 -2 37 -2q46 0 67 22t48 102h-38l-169 470h80l145 -415h3l132 415h79l-142 -426q-48 -143 -83.5 -185t-108.5 -42q-20 0 -50 2zM364 589l-29 -30l-100 84l-99 -84l-29 30l128 117z" />
    <glyph glyph-name="Ydieresis" unicode="&#x178;" horiz-adv-x="604" 
d="M343 239v-239h-83v239l-250 441h90l202 -366h2l199 366h91zM256 847v-88h-69v88h69zM421 847v-88h-69v88h69z" />
    <glyph glyph-name="Zacute" unicode="&#x179;" horiz-adv-x="585" 
d="M547 65v-65h-508v67l409 548v1h-394v64h489v-68l-407 -545v-2h411zM376 875l31 -54l-177 -79l-19 31z" />
    <glyph glyph-name="zacute" unicode="&#x17a;" horiz-adv-x="415" 
d="M389 59v-59h-361v60l269 361v1h-257v58h346v-60l-267 -360v-1h270zM316 659l-159 -111l-23 29l143 131z" />
    <glyph glyph-name="Zdotaccent" unicode="&#x17b;" horiz-adv-x="585" 
d="M547 65v-65h-508v67l409 548v1h-394v64h489v-68l-407 -545v-2h411zM329 847v-88h-77v88h77z" />
    <glyph glyph-name="zdotaccent" unicode="&#x17c;" horiz-adv-x="415" 
d="M389 59v-59h-361v60l269 361v1h-257v58h346v-60l-267 -360v-1h270zM247 680v-88h-77v88h77z" />
    <glyph glyph-name="Zcaron" unicode="&#x17d;" horiz-adv-x="585" 
d="M547 65v-65h-508v67l409 548v1h-394v64h489v-68l-407 -545v-2h411zM427 837l-132 -105l-131 105l28 30l103 -73l104 73z" />
    <glyph glyph-name="zcaron" unicode="&#x17e;" horiz-adv-x="415" 
d="M389 59v-59h-361v60l269 361v1h-257v58h346v-60l-267 -360v-1h270zM340 665l-128 -117l-129 117l28 29l101 -83l100 82z" />
    <glyph glyph-name="florin" unicode="&#x192;" horiz-adv-x="590" 
d="M337 325l-43 -280q-14 -91 -52.5 -131t-119.5 -40q-50 0 -81 9v61q34 -10 68 -10q52 0 75.5 25t35.5 102l41 264h-132v60h141l20 129q15 96 56.5 134t121.5 38q31 0 80 -7v-60q-35 7 -69 7q-55 0 -79.5 -26.5t-36.5 -103.5l-17 -111h151v-60h-160z" />
    <glyph glyph-name="Scommaaccent" unicode="&#x218;" horiz-adv-x="619" 
d="M567 202v-16q0 -114 -47 -153t-185 -39h-23q-86 0 -134 7t-77 30t-37.5 57t-8.5 97v28h78v-24q0 -56 13 -81.5t48.5 -36.5t112.5 -11h19q100 0 129.5 23t29.5 100v14q0 45 -11.5 65.5t-50 32.5t-124.5 19q-144 11 -190.5 47.5t-46.5 131.5v16q0 101 47 139t179 38h20
q79 0 125 -8t73 -31t36 -56.5t9 -91.5v-22h-79v18q0 77 -29.5 101.5t-130.5 24.5h-17q-95 0 -123.5 -21.5t-28.5 -91.5v-14q0 -41 12.5 -60.5t50.5 -31t120 -18.5q102 -8 153 -27t69.5 -53.5t18.5 -101.5zM358 -49v-76q0 -54 -16.5 -74.5t-65.5 -23.5v32q23 3 30 14.5
t7 46.5v6h-22v75h67z" />
    <glyph glyph-name="scommaaccent" unicode="&#x219;" horiz-adv-x="494" 
d="M266 -6h-25q-118 0 -155 27t-37 110v15h72v-8q0 -54 21.5 -69.5t98.5 -15.5h23q70 0 90.5 15t20.5 63v8q0 29 -9 43t-39 22.5t-94 13.5q-105 7 -140 34t-35 94v12q0 72 37 100t135 28h20q112 0 148 -26.5t36 -108.5v-11h-70v8q0 50 -20.5 65t-89.5 15h-17
q-67 0 -86.5 -14t-19.5 -56v-11q0 -34 23 -47t102 -19q114 -8 153.5 -36.5t39.5 -98.5v-13q0 -81 -39 -110t-144 -29zM291 -49v-76q0 -54 -16.5 -74.5t-65.5 -23.5v32q23 3 30 14.5t7 46.5v6h-22v75h67z" />
    <glyph glyph-name="uni021A" unicode="&#x21a;" horiz-adv-x="539" 
d="M311 613v-613h-83v613h-216v67h515v-67h-216zM305 -49v-76q0 -54 -16.5 -74.5t-65.5 -23.5v32q23 3 30 14.5t7 46.5v6h-22v75h67z" />
    <glyph glyph-name="uni021B" unicode="&#x21b;" horiz-adv-x="405" 
d="M233 -6h-16q-85 0 -111.5 34t-26.5 154v241h-67v57h67v125h76v-125h219v-57h-219v-236q0 -63 6 -89t19.5 -34t47.5 -8h11q49 0 61.5 20.5t12.5 101.5v38h64v-51q0 -105 -28.5 -138t-115.5 -33zM265 -49v-76q0 -54 -16.5 -74.5t-65.5 -23.5v32q23 3 30 14.5t7 46.5v6h-22
v75h67z" />
    <glyph glyph-name="dotlessj" unicode="&#x237;" horiz-adv-x="206" 
d="M142 480v-525q0 -73 -23.5 -100.5t-78.5 -27.5q-23 0 -36 3v61q10 -1 21 -1q24 0 32 13t8 61v516h77z" />
    <glyph glyph-name="circumflex" unicode="&#x2c6;" 
d="M321 589l-29 -30l-100 84l-99 -84l-29 30l128 117z" />
    <glyph glyph-name="caron" unicode="&#x2c7;" 
d="M321 665l-128 -117l-129 117l28 29l101 -83l100 82z" />
    <glyph glyph-name="uni02C9" unicode="&#x2c9;" 
d="M304 830v-52h-220v52h220z" />
    <glyph glyph-name="breve" unicode="&#x2d8;" 
d="M279 682h43q-4 -117 -126 -117q-123 0 -127 117h44q5 -38 25 -52.5t58 -14.5t58 14t25 53z" />
    <glyph glyph-name="dotaccent" unicode="&#x2d9;" 
d="M229 680v-88h-77v88h77z" />
    <glyph glyph-name="ring" unicode="&#x2da;" 
d="M197 552h-6q-55 0 -77 17t-22 58v6q0 41 22 58t77 17h6q55 0 77 -17t22 -58v-6q0 -41 -22 -58t-77 -17zM191 583h6q35 0 48 10t13 35v6q0 25 -13 34.5t-48 9.5h-6q-35 0 -48 -9.5t-13 -34.5v-6q0 -26 13 -35.5t48 -9.5z" />
    <glyph glyph-name="ogonek" unicode="&#x2db;" horiz-adv-x="338" 
d="M247 -139v-40q-43 -13 -78 -13q-83 0 -83 65q0 33 21.5 62t68.5 65h46q-83 -69 -83 -112q0 -35 47 -35q27 0 61 8z" />
    <glyph glyph-name="tilde" unicode="&#x2dc;" 
d="M284 681l35 -7q-8 -91 -72 -91q-27 0 -61 25q-29 20 -47 20q-31 0 -39 -46l-34 8q6 89 71 89q27 0 59 -22q31 -22 50 -22q32 0 38 46z" />
    <glyph glyph-name="hungarumlaut" unicode="&#x2dd;" 
d="M186 710l39 -37l-129 -123l-25 27zM322 709l39 -37l-131 -123l-25 27z" />
    <glyph glyph-name="uni0394" unicode="&#x394;" horiz-adv-x="609" 
d="M351 680l237 -680h-568l239 680h92zM120 65h366l-180 547h-3z" />
    <glyph glyph-name="uni03A9" unicode="&#x3a9;" horiz-adv-x="660" 
d="M597 64v-64h-212v180q68 18 106 77t38 144q0 100 -53.5 160.5t-145.5 61.5q-91 0 -144.5 -61t-53.5 -161q0 -85 38 -144t106 -77v-180h-212v64h153v76q-79 29 -123 96.5t-44 165.5q0 127 76 205.5t204 78.5q129 0 204.5 -78t75.5 -206q0 -98 -44 -165.5t-123 -96.5v-76
h154z" />
    <glyph glyph-name="uni03BC" unicode="&#x3bc;" horiz-adv-x="546" 
d="M481 480v-480h-76v80h-1q-15 -43 -47 -64t-94 -21h-9q-87 0 -111 51h-1v-225h-77v659h77v-283q0 -86 26.5 -114.5t96.5 -28.5h10q71 0 100 29.5t29 113.5v283h77z" />
    <glyph glyph-name="pi" unicode="&#x3c0;" horiz-adv-x="570" 
d="M529 58v-54q-22 -10 -50 -10q-45 0 -64 25.5t-19 91.5v306h-227v-417h-77v417h-53v63h492v-63h-58v-297q0 -40 6.5 -53t26.5 -13q11 0 23 4z" />
    <glyph glyph-name="endash" unicode="&#x2013;" horiz-adv-x="548" 
d="M548 279v-52h-548v52h548z" />
    <glyph glyph-name="emdash" unicode="&#x2014;" horiz-adv-x="844" 
d="M814 279v-52h-784v52h784z" />
    <glyph glyph-name="quoteleft" unicode="&#x2018;" horiz-adv-x="196" 
d="M134 554v-102h-75v102q0 63 17.5 91.5t69.5 34.5v-43q-22 -4 -30 -20.5t-8 -54.5v-8h26z" />
    <glyph glyph-name="quoteright" unicode="&#x2019;" horiz-adv-x="196" 
d="M137 680v-102q0 -63 -17.5 -91.5t-69.5 -34.5v43q22 4 30 21t8 55v7h-26v102h75z" />
    <glyph glyph-name="quotesinglbase" unicode="&#x201a;" horiz-adv-x="196" 
d="M137 102v-102q0 -63 -17.5 -91.5t-69.5 -34.5v43q23 4 30.5 20.5t7.5 54.5v8h-26v102h75z" />
    <glyph glyph-name="quotedblleft" unicode="&#x201c;" horiz-adv-x="334" 
d="M134 554v-102h-75v102q0 63 17.5 91.5t69.5 34.5v-43q-22 -4 -30 -20.5t-8 -54.5v-8h26zM272 554v-102h-75v102q0 63 17.5 91.5t69.5 34.5v-43q-23 -4 -30.5 -20.5t-7.5 -54.5v-8h26z" />
    <glyph glyph-name="quotedblright" unicode="&#x201d;" horiz-adv-x="334" 
d="M137 680v-102q0 -63 -17.5 -91.5t-69.5 -34.5v43q23 4 30.5 21t7.5 55v7h-26v102h75zM275 680v-102q0 -63 -17.5 -91.5t-69.5 -34.5v43q23 4 30.5 21t7.5 55v7h-26v102h75z" />
    <glyph glyph-name="quotedblbase" unicode="&#x201e;" horiz-adv-x="334" 
d="M137 102v-102q0 -63 -17.5 -91.5t-69.5 -34.5v43q23 4 30.5 21t7.5 55v7h-26v102h75zM275 102v-102q0 -63 -17.5 -91.5t-69.5 -34.5v43q23 4 30.5 21t7.5 55v7h-26v102h75z" />
    <glyph glyph-name="dagger" unicode="&#x2020;" horiz-adv-x="557" 
d="M311 427v-517h-64v517h-171v60h171v193h64v-193h171v-60h-171z" />
    <glyph glyph-name="daggerdbl" unicode="&#x2021;" horiz-adv-x="549" 
d="M307 90v-180h-64v180h-167v59h167v304h-167v58h167v169h64v-169h166v-58h-166v-304h166v-59h-166z" />
    <glyph glyph-name="bullet" unicode="&#x2022;" horiz-adv-x="425" 
d="M325 340q0 -47 -33 -80t-79 -33q-47 0 -80 33t-33 80t33 79.5t80 32.5t79.5 -33t32.5 -79z" />
    <glyph glyph-name="ellipsis" unicode="&#x2026;" horiz-adv-x="606" 
d="M142 106v-106h-82v106h82zM344 106v-106h-82v106h82zM546 106v-106h-82v106h82z" />
    <glyph glyph-name="perthousand" unicode="&#x2030;" horiz-adv-x="1012" 
d="M186 376h-10q-70 0 -93 27.5t-23 114.5v21q0 87 23 114.5t93 27.5h10q70 0 93 -27t23 -115v-21q0 -88 -23 -115t-93 -27zM177 417h9q40 0 51 17t11 82v25q0 65 -11 82.5t-51 17.5h-9q-40 0 -51.5 -17.5t-11.5 -82.5v-25q0 -65 11.5 -82t51.5 -17zM512 680l-260 -680h-51
l260 680h51zM541 -1h-10q-70 0 -93 27.5t-23 114.5v21q0 87 23 114.5t93 27.5h10q70 0 93 -27t23 -115v-21q0 -88 -23 -115t-93 -27zM532 40h9q40 0 51 17t11 82v25q0 65 -11 82.5t-51 17.5h-9q-40 0 -51.5 -17.5t-11.5 -82.5v-25q0 -65 11.5 -82t51.5 -17zM838 -1h-10
q-70 0 -93 27.5t-23 114.5v21q0 87 23 114.5t93 27.5h10q70 0 93 -27t23 -115v-21q0 -88 -23 -115t-93 -27zM829 40h9q40 0 51 17t11 82v25q0 65 -11 82.5t-51 17.5h-9q-40 0 -51.5 -17.5t-11.5 -82.5v-25q0 -65 11.5 -82t51.5 -17z" />
    <glyph glyph-name="guilsinglleft" unicode="&#x2039;" horiz-adv-x="251" 
d="M110 271l95 -178l-54 -22l-106 200l106 201l54 -22z" />
    <glyph glyph-name="guilsinglright" unicode="&#x203a;" horiz-adv-x="251" 
d="M206 271l-106 -200l-54 22l95 178l-95 179l54 22z" />
    <glyph glyph-name="fraction" unicode="&#x2044;" horiz-adv-x="119" 
d="M215 680l-260 -680h-51l261 680h50z" />
    <glyph glyph-name="zero.superior" unicode="&#x2070;" horiz-adv-x="391" 
d="M190 494h11q62 0 79.5 23t17.5 106v32q0 82 -17.5 106t-79.5 24h-11q-62 0 -79.5 -23.5t-17.5 -106.5v-32q0 -83 17.5 -106t79.5 -23zM201 450h-12q-93 0 -121 34t-28 141v30q0 105 28.5 139t120.5 34h12q94 0 122 -34t28 -139v-30q0 -107 -28 -141t-122 -34z" />
    <glyph glyph-name="four.superior" unicode="&#x2074;" horiz-adv-x="391" 
d="M315 536v-83h-55v83h-228v53l205 236h78v-247h47v-42h-47zM84 578h176v204h-2l-174 -203v-1z" />
    <glyph glyph-name="five.superior" unicode="&#x2075;" horiz-adv-x="383" 
d="M197 450h-12q-87 0 -114 20.5t-27 84.5v12h51v-11q0 -39 16.5 -51t71.5 -12h13q64 0 81.5 13.5t17.5 63.5v13q0 48 -16.5 62t-73.5 14h-13q-49 0 -66 -5.5t-25 -23.5h-52v195h291v-44h-238v-110h1q10 16 32 23t71 7h12q78 0 104 -23t26 -92v-16q0 -73 -30.5 -96.5
t-120.5 -23.5z" />
    <glyph glyph-name="six.superior" unicode="&#x2076;" horiz-adv-x="384" 
d="M190 493h10q62 0 78 12t16 55v10q0 42 -16.5 53.5t-78.5 11.5h-10q-57 0 -75.5 -11t-18.5 -47v-11q0 -47 16.5 -60t78.5 -13zM201 450h-13q-93 0 -120 25t-27 108v83q0 102 29 132t122 30h12q82 0 109 -20.5t27 -83.5v-11h-51v11q0 38 -17 50t-70 12h-10
q-62 0 -79.5 -19.5t-17.5 -91.5v-30h1q18 32 100 32h12q84 0 111.5 -20t27.5 -82v-15q0 -67 -29 -88.5t-117 -21.5z" />
    <glyph glyph-name="seven.superior" unicode="&#x2077;" horiz-adv-x="366" 
d="M332 784l-188 -331h-61l186 326v1h-237v45h300v-41z" />
    <glyph glyph-name="eight.superior" unicode="&#x2078;" horiz-adv-x="384" 
d="M198 450h-14q-89 0 -117 19t-28 78v9q0 44 13 63.5t42 25.5v1q-28 6 -39.5 23.5t-11.5 57.5v11q0 53 28 71.5t112 18.5h15q85 0 113 -18.5t28 -71.5v-11q0 -40 -11.5 -57.5t-40.5 -23.5v-1q30 -6 43 -25.5t13 -63.5v-9q0 -59 -28 -78t-117 -19zM184 666h13q57 0 73 10.5
t16 46.5v9q0 34 -16 44.5t-73 10.5h-13q-56 0 -72 -10.5t-16 -44.5v-9q0 -36 15.5 -46.5t72.5 -10.5zM184 492h13q61 0 77 11t16 49v10q0 41 -16.5 52t-76.5 11h-13q-60 0 -76 -11t-16 -52v-10q0 -38 16 -49t76 -11z" />
    <glyph glyph-name="nine.superior" unicode="&#x2079;" horiz-adv-x="387" 
d="M188 643h10q57 0 75.5 11t18.5 47v11q0 47 -17 60.5t-78 13.5h-11q-59 0 -76 -12t-17 -54v-10q0 -42 17 -54.5t78 -12.5zM194 450h-12q-84 0 -111.5 20.5t-27.5 83.5v11h52v-11q0 -38 16.5 -49.5t72.5 -11.5h9q66 0 82.5 18t16.5 92v30h-1q-18 -32 -100 -32h-12
q-85 0 -112.5 21t-27.5 85v14q0 64 29.5 85.5t117.5 21.5h12q93 0 120 -25t27 -108v-83q0 -103 -27.5 -132.5t-123.5 -29.5z" />
    <glyph glyph-name="zero.inferior" unicode="&#x2080;" horiz-adv-x="391" 
d="M190 -113h11q62 0 79.5 23t17.5 106v32q0 82 -17.5 106t-79.5 24h-11q-62 0 -79.5 -23.5t-17.5 -106.5v-32q0 -83 17.5 -106t79.5 -23zM201 -157h-12q-93 0 -121 34t-28 141v30q0 105 28.5 139t120.5 34h12q94 0 122 -34t28 -139v-30q0 -107 -28 -141t-122 -34z" />
    <glyph glyph-name="one.inferior" unicode="&#x2081;" horiz-adv-x="276" 
d="M198 218v-372h-56v315h-1l-89 -93l-31 35l111 115h66z" />
    <glyph glyph-name="two.inferior" unicode="&#x2082;" horiz-adv-x="379" 
d="M345 -110v-44h-303v53q0 73 27 97.5t119 36.5q65 8 82.5 21.5t17.5 51.5v11q0 38 -17 49.5t-77 11.5h-7q-56 0 -72 -13t-16 -54v-16h-52v17q0 66 27 87.5t113 21.5h8q91 0 119.5 -20.5t28.5 -82.5v-10q0 -61 -27 -84.5t-115 -34.5q-71 -9 -88 -22.5t-17 -60.5v-16h249z
" />
    <glyph glyph-name="three.inferior" unicode="&#x2083;" horiz-adv-x="385" 
d="M198 -157h-12q-93 0 -120 20.5t-27 91.5v14h52v-14q0 -46 16.5 -57.5t78.5 -11.5h9q65 0 82 11t17 50v10q0 35 -14 47.5t-53 12.5h-78v40h78q35 0 47 11.5t12 41.5v12q0 35 -16.5 45.5t-74.5 10.5h-8q-58 0 -74 -11t-16 -53v-18h-51v18q0 66 27 86.5t115 20.5h9
q88 0 116 -19.5t28 -75.5v-10q0 -37 -10.5 -53.5t-35.5 -24.5v-1q28 -6 41 -23.5t13 -58.5v-12q0 -60 -30 -80t-121 -20z" />
    <glyph glyph-name="four.inferior" unicode="&#x2084;" horiz-adv-x="391" 
d="M315 -71v-83h-55v83h-228v53l205 236h78v-247h47v-42h-47zM84 -29h176v204h-2l-174 -203v-1z" />
    <glyph glyph-name="five.inferior" unicode="&#x2085;" horiz-adv-x="383" 
d="M197 -157h-12q-87 0 -114 20.5t-27 84.5v12h51v-11q0 -39 16.5 -51t71.5 -12h13q64 0 81.5 13.5t17.5 63.5v13q0 48 -16.5 62t-73.5 14h-13q-49 0 -66 -5.5t-25 -23.5h-52v195h291v-44h-238v-110h1q10 16 32 23t71 7h12q78 0 104 -23t26 -92v-16q0 -73 -30.5 -96.5
t-120.5 -23.5z" />
    <glyph glyph-name="six.inferior" unicode="&#x2086;" horiz-adv-x="384" 
d="M190 -114h10q62 0 78 12t16 55v10q0 42 -16.5 53.5t-78.5 11.5h-10q-57 0 -75.5 -11t-18.5 -47v-11q0 -47 16.5 -60t78.5 -13zM201 -157h-13q-93 0 -120 25t-27 108v83q0 102 29 132t122 30h12q82 0 109 -20.5t27 -83.5v-11h-51v11q0 38 -17 50t-70 12h-10
q-62 0 -79.5 -19.5t-17.5 -91.5v-30h1q18 32 100 32h12q84 0 111.5 -20t27.5 -82v-15q0 -67 -29 -88.5t-117 -21.5z" />
    <glyph glyph-name="seven.inferior" unicode="&#x2087;" horiz-adv-x="366" 
d="M332 177l-188 -331h-61l186 326v1h-237v45h300v-41z" />
    <glyph glyph-name="eight.inferior" unicode="&#x2088;" horiz-adv-x="384" 
d="M198 -157h-14q-89 0 -117 19t-28 78v9q0 44 13 63.5t42 25.5v1q-28 6 -39.5 23.5t-11.5 57.5v11q0 53 28 71.5t112 18.5h15q85 0 113 -18.5t28 -71.5v-11q0 -40 -11.5 -57.5t-40.5 -23.5v-1q30 -6 43 -25.5t13 -63.5v-9q0 -59 -28 -78t-117 -19zM184 59h13q57 0 73 10.5
t16 46.5v9q0 34 -16 44.5t-73 10.5h-13q-56 0 -72 -10.5t-16 -44.5v-9q0 -36 15.5 -46.5t72.5 -10.5zM184 -115h13q61 0 77 11t16 49v10q0 41 -16.5 52t-76.5 11h-13q-60 0 -76 -11t-16 -52v-10q0 -38 16 -49t76 -11z" />
    <glyph glyph-name="nine.inferior" unicode="&#x2089;" horiz-adv-x="387" 
d="M188 36h10q57 0 75.5 11t18.5 47v11q0 47 -17 60.5t-78 13.5h-11q-59 0 -76 -12t-17 -54v-10q0 -42 17 -54.5t78 -12.5zM194 -157h-12q-84 0 -111.5 20.5t-27.5 83.5v11h52v-11q0 -38 16.5 -49.5t72.5 -11.5h9q66 0 82.5 18t16.5 92v30h-1q-18 -32 -100 -32h-12
q-85 0 -112.5 21t-27.5 85v14q0 64 29.5 85.5t117.5 21.5h12q93 0 120 -25t27 -108v-83q0 -103 -27.5 -132.5t-123.5 -29.5z" />
    <glyph glyph-name="Euro" unicode="&#x20ac;" horiz-adv-x="672" 
d="M613 187v-18q0 -69 -17.5 -104.5t-67 -53t-144.5 -17.5h-13q-84 0 -130 9.5t-76 41.5t-39.5 82.5t-10.5 141.5h-65v39h65v77h-65v39h65q2 86 12 134.5t40 78.5t76 39.5t127 9.5h16q134 0 177 -35.5t43 -134.5v-14h-78v15q0 60 -27.5 82t-114.5 22h-14q-59 0 -88 -5
t-50.5 -26t-28 -58t-7.5 -108h283v-39h-283v-77h283v-39h-283q1 -75 7 -113.5t27 -61.5t50.5 -28t89.5 -5h13q94 0 122 22.5t28 88.5v15h78z" />
    <glyph glyph-name="afii61289" unicode="&#x2113;" horiz-adv-x="392" 
d="M304 85l26 -36q-55 -55 -116 -55q-52 0 -77 33.5t-25 107.5v73q-13 -15 -42 -44l-24 40q40 40 65 69v203q0 133 31 188t91 55q48 0 72.5 -32.5t24.5 -92.5q0 -151 -156 -338v-103q0 -58 13 -82t45 -24q34 0 72 38zM174 483v-152q102 140 102 259q0 82 -43 82
q-29 0 -44 -41.5t-15 -147.5z" />
    <glyph glyph-name="trademark" unicode="&#x2122;" horiz-adv-x="774" 
d="M193 637v-287h-52v287h-105v43h263v-43h-106zM715 680v-330h-50v276h-4l-110 -276h-43l-110 276h-4v-276h-50v330h79l107 -275h2l106 275h77z" />
    <glyph glyph-name="Omega" unicode="&#x2126;" horiz-adv-x="660" 
d="M597 64v-64h-212v180q68 18 106 77t38 144q0 100 -53.5 160.5t-145.5 61.5q-91 0 -144.5 -61t-53.5 -161q0 -85 38 -144t106 -77v-180h-212v64h153v76q-79 29 -123 96.5t-44 165.5q0 127 76 205.5t204 78.5q129 0 204.5 -78t75.5 -206q0 -98 -44 -165.5t-123 -96.5v-76
h154z" />
    <glyph glyph-name="estimated" unicode="&#x212e;" horiz-adv-x="736" 
d="M607 192l43 -28q-58 -88 -122.5 -127.5t-161.5 -39.5q-143 0 -231.5 99t-88.5 246t88.5 244t231.5 97q145 0 234 -94.5t90 -246.5h-503v-226q71 -72 179 -72q79 0 137.5 35t103.5 113zM187 386h362v179q-79 77 -183 77q-108 0 -179 -77v-179z" />
    <glyph glyph-name="partialdiff" unicode="&#x2202;" horiz-adv-x="501" 
d="M106 607l-27 50q60 62 154 62q108 0 167.5 -93.5t59.5 -258.5q0 -373 -226 -373q-90 0 -140 55t-50 156q0 97 51.5 161t145.5 64q108 0 151 -85h1q0 31 -1 45q-6 128 -49.5 198t-112.5 70q-70 0 -124 -51zM389 280q-45 92 -139 92q-65 0 -100 -45.5t-35 -122.5
q0 -71 34 -110.5t90 -39.5q133 0 150 226z" />
    <glyph glyph-name="Delta" unicode="&#x2206;" horiz-adv-x="609" 
d="M351 680l237 -680h-568l239 680h92zM120 65h366l-180 547h-3z" />
    <glyph glyph-name="product" unicode="&#x220f;" horiz-adv-x="702" 
d="M599 717v-931h-77v931h-342v-931h-77v931h-50v69h596v-69h-50z" />
    <glyph glyph-name="summation" unicode="&#x2211;" horiz-adv-x="561" 
d="M510 -144v-70h-461v57l273 475l-263 411v57h441v-69h-342v-2l248 -396l-264 -462v-1h368z" />
    <glyph glyph-name="minus" unicode="&#x2212;" horiz-adv-x="527" 
d="M468 335v-60h-409v60h409z" />
    <glyph glyph-name="uni2215" unicode="&#x2215;" horiz-adv-x="120" 
d="M216 680l-261 -680h-51l261 680h51z" />
    <glyph glyph-name="uni2219" unicode="&#x2219;" horiz-adv-x="202" 
d="M142 319v-106h-82v106h82z" />
    <glyph glyph-name="radical" unicode="&#x221a;" horiz-adv-x="577" 
d="M545 787l-207 -1002h-82l-147 378l-58 -21l-18 46l116 45l142 -379h2l187 933h65z" />
    <glyph glyph-name="infinity" unicode="&#x221e;" horiz-adv-x="753" 
d="M376 303q50 58 92.5 86t92.5 28q64 0 105 -42t41 -109q0 -68 -40.5 -110t-105.5 -42q-88 0 -185 110q-49 -55 -91 -82.5t-93 -27.5q-64 0 -105 42t-41 110q0 66 41 108t105 42q50 0 93.5 -28.5t90.5 -84.5zM340 263q-45 52 -77.5 74.5t-66.5 22.5q-40 0 -63.5 -27.5
t-23.5 -68.5q0 -40 24 -67t64 -27q34 0 66.5 21.5t76.5 71.5zM412 264q45 -51 77 -72.5t66 -21.5q41 0 65 27t24 67q0 42 -24 69.5t-65 27.5q-33 0 -65 -22.5t-78 -74.5z" />
    <glyph glyph-name="integral" unicode="&#x222b;" horiz-adv-x="381" 
d="M49 -212v58q15 -3 36 -3q38 0 53 38.5t15 159.5v470q0 159 29.5 218.5t105.5 59.5q32 0 45 -5v-58q-15 3 -36 3q-38 0 -53 -38.5t-15 -159.5v-470q0 -159 -29.5 -218.5t-105.5 -59.5q-32 0 -45 5z" />
    <glyph glyph-name="approxequal" unicode="&#x2248;" horiz-adv-x="527" 
d="M419 434h48q-11 -118 -106 -118q-37 0 -99 29q-60 30 -95 30q-50 0 -59 -61h-49q12 119 106 119q35 0 103 -31q60 -29 92 -29q26 0 40 15t19 46zM419 258h48q-11 -119 -106 -119q-35 0 -99 30t-95 30q-50 0 -59 -61h-49q12 119 106 119q35 0 103 -31q60 -29 92 -29
q48 0 59 61z" />
    <glyph glyph-name="notequal" unicode="&#x2260;" horiz-adv-x="527" 
d="M468 240v-60h-239l-70 -145l-46 21l61 124h-115v60h144l59 123h-203v59h232l68 139l46 -22l-57 -117h120v-59h-149l-60 -123h209z" />
    <glyph glyph-name="lessequal" unicode="&#x2264;" horiz-adv-x="527" 
d="M468 188v-65l-409 178v61l409 178v-64l-336 -144v-2zM468 81v-60h-409v60h409z" />
    <glyph glyph-name="greaterequal" unicode="&#x2265;" horiz-adv-x="527" 
d="M468 362v-61l-409 -178v65l336 142v2l-336 144v64zM468 81v-60h-409v60h409z" />
    <glyph glyph-name="lozenge" unicode="&#x25ca;" horiz-adv-x="461" 
d="M231 60h1l121 286l-122 272h-1l-121 -272zM413 346l-155 -346h-55l-155 346l155 334h55z" />
    <glyph glyph-name="exclam.sc" unicode="&#xe000;" horiz-adv-x="237" 
d="M155 94v-94h-74v94h74zM156 528l-5 -366h-66l-5 366h76z" />
    <glyph glyph-name="dollar.sc" unicode="&#xe001;" horiz-adv-x="511" 
d="M283 -6v-58h-38v58q-66 1 -102.5 7t-57.5 24.5t-27 44.5t-6 76v22h71v-20q0 -61 20.5 -76.5t101.5 -16.5v185q-115 11 -150.5 40t-35.5 106v14q0 78 38 106t148 28v50h38v-50q111 -2 144 -30.5t33 -116.5v-19h-70v17q0 57 -20 72.5t-87 17.5v-174q119 -12 155 -40
t36 -106v-14q0 -87 -36.5 -116.5t-154.5 -30.5zM283 234v-179q78 1 98.5 15.5t20.5 68.5v12q0 46 -21.5 61t-97.5 22zM130 399v-14q0 -42 20.5 -57t94.5 -22v169q-73 0 -94 -14t-21 -62z" />
    <glyph glyph-name="percent.sc" unicode="&#xe002;" horiz-adv-x="588" 
d="M153 287h-10q-56 0 -75.5 23.5t-19.5 90.5v14q0 67 19.5 90.5t75.5 23.5h10q56 0 75.5 -23.5t19.5 -90.5v-14q0 -67 -19.5 -90.5t-75.5 -23.5zM145 326h6q31 0 40 13t9 60v18q0 47 -9 60t-40 13h-6q-31 0 -40 -13t-9 -60v-18q0 -47 9 -60t40 -13zM421 528l-209 -528h-47
l209 528h47zM438 39h6q31 0 40 13t9 60v18q0 47 -9 60t-40 13h-6q-31 0 -40 -13t-9 -60v-18q0 -47 9 -60t40 -13zM446 0h-10q-56 0 -75.5 23.5t-19.5 90.5v14q0 67 19.5 90.5t75.5 23.5h10q56 0 75.5 -23.5t19.5 -90.5v-14q0 -67 -19.5 -90.5t-75.5 -23.5z" />
    <glyph glyph-name="ampersand.sc" unicode="&#xe003;" horiz-adv-x="578" 
d="M419 212v59h61v-51q0 -65 -6 -110l87 -69l-38 -46l-66 51q-17 -31 -55.5 -41.5t-138.5 -10.5h-13q-87 0 -128.5 14t-56 46t-14.5 99v12q0 71 17.5 103t63.5 39q-23 21 -32 43t-9 61v9q0 65 35 89.5t135 24.5h14q107 0 138 -25.5t31 -108.5v-23h-64v24q0 51 -18 65.5
t-84 14.5h-13q-65 0 -85 -13.5t-20 -51.5v-8q0 -32 10.5 -48.5t49.5 -47.5l196 -156q3 22 3 56zM119 170v-10q0 -69 24 -90t109 -21h10q80 0 107 7.5t36 31.5l-230 181q-34 -3 -45 -23.5t-11 -75.5z" />
    <glyph glyph-name="question.sc" unicode="&#xe004;" horiz-adv-x="446" 
d="M240 93v-93h-75v93h75zM235 175v-15h-67v20q0 45 17 65.5t65 32.5q58 14 73.5 32t15.5 69v10q0 54 -20 72t-86 18h-11q-71 0 -92.5 -19t-21.5 -85v-21h-65v21q0 99 35 129t144 30h12q103 0 137.5 -29.5t34.5 -111.5v-14q0 -70 -23.5 -101t-91.5 -47q-35 -8 -45.5 -18.5
t-10.5 -37.5z" />
    <glyph glyph-name="a.sc" unicode="&#xe005;" horiz-adv-x="522" 
d="M313 528l197 -528h-79l-42 118h-258l-41 -118h-78l198 528h103zM151 174h220l-108 300h-4z" />
    <glyph glyph-name="b.sc" unicode="&#xe006;" horiz-adv-x="537" 
d="M321 0h-254v528h241q100 0 134.5 -27t34.5 -109q0 -52 -14.5 -79t-48.5 -37v-1q41 -10 59.5 -39.5t18.5 -89.5q0 -85 -37 -115.5t-134 -30.5zM141 56h168q66 0 87.5 19t21.5 77q0 56 -19 75.5t-68 19.5h-190v-191zM141 299h187q43 0 59.5 18.5t16.5 68.5q0 54 -19.5 70.5
t-85.5 16.5h-158v-174z" />
    <glyph glyph-name="c.sc" unicode="&#xe007;" horiz-adv-x="547" 
d="M288 -6h-15q-136 0 -179 48t-43 202v42q0 150 43.5 199t177.5 49h16q123 0 165 -33t42 -120v-20h-75v16q0 56 -25.5 76t-106.5 20h-12q-94 0 -121 -33t-27 -152v-46q0 -119 26.5 -152t122.5 -33h13q83 0 108.5 19t25.5 77v16h75v-21q0 -90 -43 -122t-168 -32z" />
    <glyph glyph-name="d.sc" unicode="&#xe008;" horiz-adv-x="577" 
d="M526 285v-39q0 -82 -7.5 -126.5t-34.5 -73.5t-70 -37.5t-123 -8.5h-224v528h224q78 0 121 -8t70.5 -36.5t35.5 -73t8 -125.5zM144 60h144q46 0 72 4t45.5 13.5t28 32t12 52t3.5 81.5v45q0 63 -5 96t-23.5 53.5t-47.5 26t-85 5.5h-144v-409z" />
    <glyph glyph-name="e.sc" unicode="&#xe009;" horiz-adv-x="465" 
d="M432 59v-59h-365v528h362v-58h-286v-169h270v-56h-270v-186h289z" />
    <glyph glyph-name="f.sc" unicode="&#xe00a;" horiz-adv-x="445" 
d="M406 287v-57h-262v-230h-77v528h354v-59h-277v-182h262z" />
    <glyph glyph-name="g.sc" unicode="&#xe00b;" horiz-adv-x="550" 
d="M288 -6h-15q-72 0 -113 9.5t-67 38.5t-34 75t-8 127v42q0 153 42.5 200.5t183.5 47.5h14q121 0 163 -32.5t42 -117.5v-15h-75v12q0 55 -24 73.5t-107 18.5h-13q-96 0 -122.5 -32t-26.5 -153v-45q0 -64 5.5 -99t23 -56t44 -27t75.5 -6h14q88 0 113 21t25 94v36h-164v59
h236v-88q0 -112 -41.5 -147.5t-170.5 -35.5z" />
    <glyph glyph-name="h.sc" unicode="&#xe00c;" horiz-adv-x="576" 
d="M509 528v-528h-77v244h-288v-244h-77v528h77v-222h288v222h77z" />
    <glyph glyph-name="i.sc" unicode="&#xe00d;" horiz-adv-x="211" 
d="M144 528v-528h-77v528h77z" />
    <glyph glyph-name="j.sc" unicode="&#xe00e;" horiz-adv-x="446" 
d="M202 -5h-16q-102 0 -132 29.5t-30 131.5v28h71v-20q0 -70 16 -88.5t77 -18.5h13q72 0 89 19t17 100v352h77v-348q0 -117 -33.5 -151t-148.5 -34z" />
    <glyph glyph-name="k.sc" unicode="&#xe00f;" horiz-adv-x="524" 
d="M256 272l259 -272h-98l-221 242h-54v-242h-75v528h75v-229h56l210 229h91z" />
    <glyph glyph-name="l.sc" unicode="&#xe010;" horiz-adv-x="415" 
d="M403 61v-61h-336v528h77v-467h259z" />
    <glyph glyph-name="m.sc" unicode="&#xe011;" horiz-adv-x="732" 
d="M665 528v-528h-72v461h-2l-186 -461h-75l-189 461h-2v-461h-72v528h116l185 -456h2l182 456h113z" />
    <glyph glyph-name="n.sc" unicode="&#xe012;" horiz-adv-x="600" 
d="M533 528v-528h-114l-278 464h-2v-464h-72v528h115l276 -463h3v463h72z" />
    <glyph glyph-name="o.sc" unicode="&#xe013;" horiz-adv-x="569" 
d="M292 -6h-15q-136 0 -181 49.5t-45 198.5v43q0 150 45 199.5t181 49.5h15q136 0 181 -49.5t45 -199.5v-43q0 -149 -45 -198.5t-181 -49.5zM278 57h12q66 0 96 13.5t43 52.5t13 122v39q0 120 -28.5 154.5t-123.5 34.5h-12q-49 0 -76 -6t-45.5 -27.5t-24 -57t-5.5 -98.5v-39
q0 -84 13 -122.5t42.5 -52t95.5 -13.5z" />
    <glyph glyph-name="p.sc" unicode="&#xe014;" horiz-adv-x="520" 
d="M143 252h136q84 0 106.5 18.5t22.5 82.5v17q0 65 -22 82.5t-107 17.5h-136v-218zM143 194v-194h-76v528h218q123 0 161 -30t38 -127v-18q0 -95 -39.5 -127t-157.5 -32h-144z" />
    <glyph glyph-name="q.sc" unicode="&#xe015;" horiz-adv-x="571" 
d="M292 -6h-15q-136 0 -181 49.5t-45 198.5v43q0 150 45 199.5t181 49.5h15q136 0 181 -49.5t45 -199.5v-43q0 -110 -22 -162l52 -40l-38 -49l-49 41q-46 -38 -169 -38zM403 80l-121 99l38 46l113 -95q10 40 10 115v39q0 120 -29 154.5t-124 34.5h-12q-49 0 -76 -6
t-45.5 -27.5t-24 -57t-5.5 -98.5v-39q0 -63 5.5 -98.5t24 -57t45.5 -27.5t76 -6h12q84 0 113 24z" />
    <glyph glyph-name="r.sc" unicode="&#xe016;" horiz-adv-x="538" 
d="M143 262h173q53 0 71.5 19.5t18.5 71.5v20q0 63 -20.5 80t-96.5 17h-146v-208zM482 97v-97h-76v75q0 87 -19 108.5t-94 21.5h-150v-205h-76v528h236q110 0 144.5 -28.5t34.5 -118.5v-20q0 -57 -16 -85t-51 -38v-1q40 -9 53.5 -37.5t13.5 -102.5z" />
    <glyph glyph-name="s.sc" unicode="&#xe017;" horiz-adv-x="519" 
d="M276 -6h-18q-68 0 -106.5 6t-62 24t-30.5 45.5t-7 76.5v22h74v-20q0 -61 22.5 -77.5t107.5 -16.5h16q82 0 104 17t22 73v11q0 45 -26 61t-119 23q-117 8 -155 38t-38 107v15q0 77 39 106t146 29h17q122 0 159.5 -29t37.5 -117v-19h-72v16q0 56 -22.5 73t-98.5 17h-13
q-75 0 -97.5 -15t-22.5 -62v-12q0 -45 25.5 -61.5t117.5 -22.5q120 -9 158 -38.5t38 -105.5v-13q0 -90 -39 -120.5t-157 -30.5z" />
    <glyph glyph-name="t.sc" unicode="&#xe018;" horiz-adv-x="448" 
d="M262 467v-467h-77v467h-173v61h424v-61h-174z" />
    <glyph glyph-name="u.sc" unicode="&#xe019;" horiz-adv-x="566" 
d="M290 -5h-13q-133 0 -174 34t-41 145v354h77v-348q0 -79 24 -101t113 -22h15q89 0 112.5 21.5t23.5 101.5v348h77v-354q0 -112 -40.5 -145.5t-173.5 -33.5z" />
    <glyph glyph-name="v.sc" unicode="&#xe01a;" horiz-adv-x="509" 
d="M497 528l-192 -528h-99l-194 528h81l162 -462h3l161 462h78z" />
    <glyph glyph-name="w.sc" unicode="&#xe01b;" horiz-adv-x="764" 
d="M744 528l-144 -528h-95l-121 456h-2l-122 -456h-94l-146 528h77l118 -464h2l122 464h88l124 -464h1l117 464h75z" />
    <glyph glyph-name="x.sc" unicode="&#xe01c;" horiz-adv-x="521" 
d="M314 276l188 -276h-89l-153 237l-153 -237h-88l187 276l-169 252h86l138 -214l139 214h84z" />
    <glyph glyph-name="y.sc" unicode="&#xe01d;" horiz-adv-x="499" 
d="M288 186v-186h-77v186l-202 342h84l157 -278h1l155 278h84z" />
    <glyph glyph-name="z.sc" unicode="&#xe01e;" horiz-adv-x="490" 
d="M454 58v-58h-416v56l321 414v1h-309v57h400v-57l-320 -412v-1h324z" />
    <glyph glyph-name="agrave.sc" unicode="&#xe01f;" horiz-adv-x="522" 
d="M313 528l197 -528h-79l-42 118h-258l-41 -118h-78l198 528h103zM151 174h220l-108 300h-4zM297 614l-23 -29l-158 111l38 49z" />
    <glyph glyph-name="aacute.sc" unicode="&#xe020;" horiz-adv-x="522" 
d="M313 528l197 -528h-79l-42 118h-258l-41 -118h-78l198 528h103zM151 174h220l-108 300h-4zM406 697l-159 -111l-23 29l143 131z" />
    <glyph glyph-name="acircumflex.sc" unicode="&#xe021;" horiz-adv-x="522" 
d="M313 528l197 -528h-79l-42 118h-258l-41 -118h-78l198 528h103zM151 174h220l-108 300h-4zM390 627l-29 -30l-100 84l-99 -84l-29 30l128 117z" />
    <glyph glyph-name="atilde.sc" unicode="&#xe022;" horiz-adv-x="522" 
d="M313 528l197 -528h-79l-42 118h-258l-41 -118h-78l198 528h103zM151 174h220l-108 300h-4zM354 712l35 -7q-8 -91 -72 -91q-27 0 -61 25q-29 20 -47 20q-31 0 -39 -46l-34 8q6 89 71 89q27 0 59 -22q31 -22 50 -22q32 0 38 46z" />
    <glyph glyph-name="adieresis.sc" unicode="&#xe023;" horiz-adv-x="522" 
d="M313 528l197 -528h-79l-42 118h-258l-41 -118h-78l198 528h103zM151 174h220l-108 300h-4zM214 711v-88h-69v88h69zM377 711v-88h-69v88h69z" />
    <glyph glyph-name="aring.sc" unicode="&#xe024;" horiz-adv-x="522" 
d="M313 528l197 -528h-79l-42 118h-258l-41 -118h-78l198 528h103zM151 174h220l-108 300h-4zM265 589h-6q-55 0 -77 17t-22 58v6q0 41 22 58t77 17h6q55 0 77 -17t22 -58v-6q0 -41 -22 -58t-77 -17zM259 620h6q35 0 48 10t13 35v6q0 25 -13 34.5t-48 9.5h-6q-35 0 -48 -9.5
t-13 -34.5v-6q0 -26 13 -35.5t48 -9.5z" />
    <glyph glyph-name="amacron.sc" unicode="&#xe025;" horiz-adv-x="522" 
d="M313 528l197 -528h-79l-42 118h-258l-41 -118h-78l198 528h103zM151 174h220l-108 300h-4zM374 693v-52h-220v52h220z" />
    <glyph glyph-name="abreve.sc" unicode="&#xe026;" horiz-adv-x="522" 
d="M313 528l197 -528h-79l-42 118h-258l-41 -118h-78l198 528h103zM151 174h220l-108 300h-4zM346 717h43q-4 -117 -126 -117q-123 0 -127 117h44q5 -38 25 -52.5t58 -14.5t58 14t25 53z" />
    <glyph glyph-name="aogonek.sc" unicode="&#xe027;" horiz-adv-x="522" 
d="M313 528l197 -528h-11q-100 -61 -100 -112q0 -35 46 -35q30 0 60 8v-40q-41 -13 -77 -13q-83 0 -83 65q0 34 23 63.5t76 63.5h-13l-42 118h-258l-41 -118h-78l198 528h103zM151 174h220l-108 300h-4z" />
    <glyph glyph-name="ae.sc" unicode="&#xe028;" horiz-adv-x="779" 
d="M746 59v-59h-364v118h-230l-62 -118h-81l283 528h451v-58h-286v-169h270v-56h-270v-186h289zM180 174h202v297h-44z" />
    <glyph glyph-name="cacute.sc" unicode="&#xe029;" horiz-adv-x="547" 
d="M288 -6h-15q-136 0 -179 48t-43 202v42q0 150 43.5 199t177.5 49h16q123 0 165 -33t42 -120v-20h-75v16q0 56 -25.5 76t-106.5 20h-12q-94 0 -121 -33t-27 -152v-46q0 -119 26.5 -152t122.5 -33h13q83 0 108.5 19t25.5 77v16h75v-21q0 -90 -43 -122t-168 -32zM385 697
l-159 -111l-23 29l143 131z" />
    <glyph glyph-name="ccircumflex.sc" unicode="&#xe02a;" horiz-adv-x="547" 
d="M288 -6h-15q-136 0 -179 48t-43 202v42q0 150 43.5 199t177.5 49h16q123 0 165 -33t42 -120v-20h-75v16q0 56 -25.5 76t-106.5 20h-12q-94 0 -121 -33t-27 -152v-46q0 -119 26.5 -152t122.5 -33h13q83 0 108.5 19t25.5 77v16h75v-21q0 -90 -43 -122t-168 -32zM406 627
l-29 -30l-100 84l-99 -84l-29 30l128 117z" />
    <glyph glyph-name="ccaron.sc" unicode="&#xe02b;" horiz-adv-x="547" 
d="M288 -6h-15q-136 0 -179 48t-43 202v42q0 150 43.5 199t177.5 49h16q123 0 165 -33t42 -120v-20h-75v16q0 56 -25.5 76t-106.5 20h-12q-94 0 -121 -33t-27 -152v-46q0 -119 26.5 -152t122.5 -33h13q83 0 108.5 19t25.5 77v16h75v-21q0 -90 -43 -122t-168 -32zM405 702
l-128 -117l-129 117l28 29l101 -83l100 82z" />
    <glyph glyph-name="cdotaccent.sc" unicode="&#xe02c;" horiz-adv-x="547" 
d="M288 -6h-15q-136 0 -179 48t-43 202v42q0 150 43.5 199t177.5 49h16q123 0 165 -33t42 -120v-20h-75v16q0 56 -25.5 76t-106.5 20h-12q-94 0 -121 -33t-27 -152v-46q0 -119 26.5 -152t122.5 -33h13q83 0 108.5 19t25.5 77v16h75v-21q0 -90 -43 -122t-168 -32zM313 711
v-88h-77v88h77z" />
    <glyph glyph-name="ccedilla.sc" unicode="&#xe02d;" horiz-adv-x="547" 
d="M288 -6h-15q-136 0 -179 48t-43 202v42q0 150 43.5 199t177.5 49h16q123 0 165 -33t42 -120v-20h-75v16q0 56 -25.5 76t-106.5 20h-12q-94 0 -121 -33t-27 -152v-46q0 -119 26.5 -152t122.5 -33h13q83 0 108.5 19t25.5 77v16h75v-21q0 -90 -43 -122t-168 -32zM343 -51
l-146 -121l-25 25l129 140z" />
    <glyph glyph-name="dcaron.sc" unicode="&#xe02e;" horiz-adv-x="577" 
d="M526 285v-39q0 -82 -7.5 -126.5t-34.5 -73.5t-70 -37.5t-123 -8.5h-224v528h224q78 0 121 -8t70.5 -36.5t35.5 -73t8 -125.5zM144 60h144q46 0 72 4t45.5 13.5t28 32t12 52t3.5 81.5v45q0 63 -5 96t-23.5 53.5t-47.5 26t-85 5.5h-144v-409zM410 702l-128 -117l-129 117
l28 29l101 -83l100 82z" />
    <glyph glyph-name="dcroat.sc" unicode="&#xe02f;" horiz-adv-x="577" 
d="M24 249v46h43v233h224q78 0 121 -8t70.5 -36.5t35.5 -73t8 -125.5v-39q0 -82 -7.5 -126.5t-34.5 -73.5t-70 -37.5t-123 -8.5h-224v249h-43zM144 60h144q46 0 72 4t45.5 13.5t28 32t12 52t3.5 81.5v45q0 63 -5 96t-23.5 53.5t-47.5 26t-85 5.5h-144v-174h124v-46h-124
v-189z" />
    <glyph glyph-name="eth.sc" unicode="&#xe030;" horiz-adv-x="577" 
d="M24 249v46h43v233h224q78 0 121 -8t70.5 -36.5t35.5 -73t8 -125.5v-39q0 -82 -7.5 -126.5t-34.5 -73.5t-70 -37.5t-123 -8.5h-224v249h-43zM144 60h144q46 0 72 4t45.5 13.5t28 32t12 52t3.5 81.5v45q0 63 -5 96t-23.5 53.5t-47.5 26t-85 5.5h-144v-174h124v-46h-124
v-189z" />
    <glyph glyph-name="egrave.sc" unicode="&#xe031;" horiz-adv-x="465" 
d="M432 59v-59h-365v528h362v-58h-286v-169h270v-56h-270v-186h289zM325 614l-23 -29l-158 111l38 49z" />
    <glyph glyph-name="eacute.sc" unicode="&#xe032;" horiz-adv-x="465" 
d="M432 59v-59h-365v528h362v-58h-286v-169h270v-56h-270v-186h289zM338 697l-159 -111l-23 29l143 131z" />
    <glyph glyph-name="ecircumflex.sc" unicode="&#xe033;" horiz-adv-x="465" 
d="M432 59v-59h-365v528h362v-58h-286v-169h270v-56h-270v-186h289zM378 627l-29 -30l-100 84l-99 -84l-29 30l128 117z" />
    <glyph glyph-name="ecaron.sc" unicode="&#xe034;" horiz-adv-x="465" 
d="M432 59v-59h-365v528h362v-58h-286v-169h270v-56h-270v-186h289zM374 702l-128 -117l-129 117l28 29l101 -83l100 82z" />
    <glyph glyph-name="edieresis.sc" unicode="&#xe035;" horiz-adv-x="465" 
d="M432 59v-59h-365v528h362v-58h-286v-169h270v-56h-270v-186h289zM196 711v-88h-69v88h69zM359 711v-88h-69v88h69z" />
    <glyph glyph-name="edotaccent.sc" unicode="&#xe036;" horiz-adv-x="465" 
d="M432 59v-59h-365v528h362v-58h-286v-169h270v-56h-270v-186h289zM281 711v-88h-77v88h77z" />
    <glyph glyph-name="emacron.sc" unicode="&#xe037;" horiz-adv-x="465" 
d="M432 59v-59h-365v528h362v-58h-286v-169h270v-56h-270v-186h289zM354 693v-52h-220v52h220z" />
    <glyph glyph-name="ebreve.sc" unicode="&#xe038;" horiz-adv-x="465" 
d="M432 59v-59h-365v528h362v-58h-286v-169h270v-56h-270v-186h289zM329 717h43q-4 -117 -126 -117q-123 0 -127 117h44q5 -38 25 -52.5t58 -14.5t58 14t25 53z" />
    <glyph glyph-name="eogonek.sc" unicode="&#xe039;" horiz-adv-x="465" 
d="M411 -139v-40q-43 -13 -78 -13q-83 0 -83 65q0 33 21.5 62t68.5 65h-273v528h362v-58h-286v-169h270v-56h-270v-186h289v-59h-39q-90 -63 -90 -112q0 -35 47 -35q27 0 61 8z" />
    <glyph glyph-name="gcircumflex.sc" unicode="&#xe03a;" horiz-adv-x="550" 
d="M288 -6h-15q-72 0 -113 9.5t-67 38.5t-34 75t-8 127v42q0 153 42.5 200.5t183.5 47.5h14q121 0 163 -32.5t42 -117.5v-15h-75v12q0 55 -24 73.5t-107 18.5h-13q-96 0 -122.5 -32t-26.5 -153v-45q0 -64 5.5 -99t23 -56t44 -27t75.5 -6h14q88 0 113 21t25 94v36h-164v59
h236v-88q0 -112 -41.5 -147.5t-170.5 -35.5zM405 627l-29 -30l-100 84l-99 -84l-29 30l128 117z" />
    <glyph glyph-name="gdotaccent.sc" unicode="&#xe03b;" horiz-adv-x="550" 
d="M288 -6h-15q-72 0 -113 9.5t-67 38.5t-34 75t-8 127v42q0 153 42.5 200.5t183.5 47.5h14q121 0 163 -32.5t42 -117.5v-15h-75v12q0 55 -24 73.5t-107 18.5h-13q-96 0 -122.5 -32t-26.5 -153v-45q0 -64 5.5 -99t23 -56t44 -27t75.5 -6h14q88 0 113 21t25 94v36h-164v59
h236v-88q0 -112 -41.5 -147.5t-170.5 -35.5zM314 711v-88h-77v88h77z" />
    <glyph glyph-name="gbreve.sc" unicode="&#xe03c;" horiz-adv-x="550" 
d="M288 -6h-15q-72 0 -113 9.5t-67 38.5t-34 75t-8 127v42q0 153 42.5 200.5t183.5 47.5h14q121 0 163 -32.5t42 -117.5v-15h-75v12q0 55 -24 73.5t-107 18.5h-13q-96 0 -122.5 -32t-26.5 -153v-45q0 -64 5.5 -99t23 -56t44 -27t75.5 -6h14q88 0 113 21t25 94v36h-164v59
h236v-88q0 -112 -41.5 -147.5t-170.5 -35.5zM361 717h43q-4 -117 -126 -117q-123 0 -127 117h44q5 -38 25 -52.5t58 -14.5t58 14t25 53z" />
    <glyph glyph-name="gcommaaccent.sc" unicode="&#xe03d;" horiz-adv-x="550" 
d="M288 -6h-15q-72 0 -113 9.5t-67 38.5t-34 75t-8 127v42q0 153 42.5 200.5t183.5 47.5h14q121 0 163 -32.5t42 -117.5v-15h-75v12q0 55 -24 73.5t-107 18.5h-13q-96 0 -122.5 -32t-26.5 -153v-45q0 -64 5.5 -99t23 -56t44 -27t75.5 -6h14q88 0 113 21t25 94v36h-164v59
h236v-88q0 -112 -41.5 -147.5t-170.5 -35.5zM320 -49v-76q0 -54 -16.5 -74.5t-65.5 -23.5v32q23 3 30 14.5t7 46.5v6h-22v75h67z" />
    <glyph glyph-name="hcircumflex.sc" unicode="&#xe03e;" horiz-adv-x="576" 
d="M509 528v-528h-77v244h-288v-244h-77v528h77v-222h288v222h77zM417 627l-29 -30l-100 84l-99 -84l-29 30l128 117z" />
    <glyph glyph-name="hbar.sc" unicode="&#xe03f;" horiz-adv-x="576" 
d="M509 392v-392h-77v244h-288v-244h-77v392h-37v44h37v92h77v-92h288v92h77v-92h36v-44h-36zM144 306h288v86h-288v-86z" />
    <glyph glyph-name="igrave.sc" unicode="&#xe040;" horiz-adv-x="211" 
d="M144 528v-528h-77v528h77zM141 614l-23 -29l-158 111l38 49z" />
    <glyph glyph-name="iacute.sc" unicode="&#xe041;" horiz-adv-x="211" 
d="M144 528v-528h-77v528h77zM255 697l-159 -111l-23 29l143 131z" />
    <glyph glyph-name="icircumflex.sc" unicode="&#xe042;" horiz-adv-x="211" 
d="M144 528v-528h-77v528h77zM234 627l-29 -30l-100 84l-99 -84l-29 30l128 117z" />
    <glyph glyph-name="itilde.sc" unicode="&#xe043;" horiz-adv-x="211" 
d="M144 528v-528h-77v528h77zM197 712l35 -7q-8 -91 -72 -91q-27 0 -61 25q-29 20 -47 20q-31 0 -39 -46l-34 8q6 89 71 89q27 0 59 -22q31 -22 50 -22q32 0 38 46z" />
    <glyph glyph-name="idieresis.sc" unicode="&#xe044;" horiz-adv-x="211" 
d="M144 528v-528h-77v528h77zM58 711v-88h-69v88h69zM221 711v-88h-69v88h69z" />
    <glyph glyph-name="imacron.sc" unicode="&#xe045;" horiz-adv-x="211" 
d="M144 528v-528h-77v528h77zM215 693v-52h-220v52h220z" />
    <glyph glyph-name="idotaccent.sc" unicode="&#xe046;" horiz-adv-x="211" 
d="M144 528v-528h-77v528h77zM144 711v-88h-77v88h77z" />
    <glyph glyph-name="iogonek.sc" unicode="&#xe047;" horiz-adv-x="211" 
d="M162 -140v-40q-38 -12 -74 -12q-82 0 -82 65q0 58 78 127h-17v528h77v-528h-14q-71 -66 -71 -113q0 -34 46 -34q30 0 57 7z" />
    <glyph glyph-name="jcircumflex.sc" unicode="&#xe048;" horiz-adv-x="446" 
d="M202 -5h-16q-102 0 -132 29.5t-30 131.5v28h71v-20q0 -70 16 -88.5t77 -18.5h13q72 0 89 19t17 100v352h77v-348q0 -117 -33.5 -151t-148.5 -34zM473 627l-29 -30l-100 84l-99 -84l-29 30l128 117z" />
    <glyph glyph-name="kcommaaccent.sc" unicode="&#xe049;" horiz-adv-x="524" 
d="M256 272l259 -272h-98l-221 242h-54v-242h-75v528h75v-229h56l210 229h91zM295 -49v-76q0 -54 -16.5 -74.5t-65.5 -23.5v32q23 3 30 14.5t7 46.5v6h-22v75h67z" />
    <glyph glyph-name="lacute.sc" unicode="&#xe04a;" horiz-adv-x="415" 
d="M403 61v-61h-336v528h77v-467h259zM279 697l-159 -111l-23 29l143 131z" />
    <glyph glyph-name="lcaron.sc" unicode="&#xe04b;" horiz-adv-x="415" 
d="M403 61v-61h-336v528h77v-467h259zM274 528v-73q0 -57 -15.5 -80t-55.5 -27v35q16 4 21 15.5t5 47.5v7h-22v75h67z" />
    <glyph glyph-name="lcommaaccent.sc" unicode="&#xe04c;" horiz-adv-x="415" 
d="M403 61v-61h-336v528h77v-467h259zM258 -49v-76q0 -54 -16.5 -74.5t-65.5 -23.5v32q23 3 30 14.5t7 46.5v6h-22v75h67z" />
    <glyph glyph-name="ldot.sc" unicode="&#xe04d;" horiz-adv-x="415" 
d="M403 61v-61h-336v528h77v-467h259zM361 350v-106h-82v106h82z" />
    <glyph glyph-name="lslash.sc" unicode="&#xe04e;" horiz-adv-x="415" 
d="M403 61v-61h-336v215l-49 -25v50l49 26v262h77v-226l124 63v-50l-124 -63v-191h259z" />
    <glyph glyph-name="nacute.sc" unicode="&#xe04f;" horiz-adv-x="600" 
d="M533 528v-528h-114l-278 464h-2v-464h-72v528h115l276 -463h3v463h72zM394 697l-159 -111l-23 29l143 131z" />
    <glyph glyph-name="ncaron.sc" unicode="&#xe050;" horiz-adv-x="600" 
d="M533 528v-528h-114l-278 464h-2v-464h-72v528h115l276 -463h3v463h72zM432 702l-128 -117l-129 117l28 29l101 -83l100 82z" />
    <glyph glyph-name="ntilde.sc" unicode="&#xe051;" horiz-adv-x="600" 
d="M533 528v-528h-114l-278 464h-2v-464h-72v528h115l276 -463h3v463h72zM395 712l35 -7q-8 -91 -72 -91q-27 0 -61 25q-29 20 -47 20q-31 0 -39 -46l-34 8q6 89 71 89q27 0 59 -22q31 -22 50 -22q32 0 38 46z" />
    <glyph glyph-name="ncommaaccent.sc" unicode="&#xe052;" horiz-adv-x="600" 
d="M533 528v-528h-114l-278 464h-2v-464h-72v528h115l276 -463h3v463h72zM340 -49v-76q0 -54 -16.5 -74.5t-65.5 -23.5v32q23 3 30 14.5t7 46.5v6h-22v75h67z" />
    <glyph glyph-name="ograve.sc" unicode="&#xe054;" horiz-adv-x="569" 
d="M292 -6h-15q-136 0 -181 49.5t-45 198.5v43q0 150 45 199.5t181 49.5h15q136 0 181 -49.5t45 -199.5v-43q0 -149 -45 -198.5t-181 -49.5zM278 57h12q66 0 96 13.5t43 52.5t13 122v39q0 120 -28.5 154.5t-123.5 34.5h-12q-49 0 -76 -6t-45.5 -27.5t-24 -57t-5.5 -98.5v-39
q0 -84 13 -122.5t42.5 -52t95.5 -13.5zM375 614l-23 -29l-158 111l38 49z" />
    <glyph glyph-name="oacute.sc" unicode="&#xe055;" horiz-adv-x="569" 
d="M292 -6h-15q-136 0 -181 49.5t-45 198.5v43q0 150 45 199.5t181 49.5h15q136 0 181 -49.5t45 -199.5v-43q0 -149 -45 -198.5t-181 -49.5zM278 57h12q66 0 96 13.5t43 52.5t13 122v39q0 120 -28.5 154.5t-123.5 34.5h-12q-49 0 -76 -6t-45.5 -27.5t-24 -57t-5.5 -98.5v-39
q0 -84 13 -122.5t42.5 -52t95.5 -13.5zM379 697l-159 -111l-23 29l143 131z" />
    <glyph glyph-name="ocircumflex.sc" unicode="&#xe056;" horiz-adv-x="569" 
d="M292 -6h-15q-136 0 -181 49.5t-45 198.5v43q0 150 45 199.5t181 49.5h15q136 0 181 -49.5t45 -199.5v-43q0 -149 -45 -198.5t-181 -49.5zM278 57h12q66 0 96 13.5t43 52.5t13 122v39q0 120 -28.5 154.5t-123.5 34.5h-12q-49 0 -76 -6t-45.5 -27.5t-24 -57t-5.5 -98.5v-39
q0 -84 13 -122.5t42.5 -52t95.5 -13.5zM413 627l-29 -30l-100 84l-99 -84l-29 30l128 117z" />
    <glyph glyph-name="otilde.sc" unicode="&#xe057;" horiz-adv-x="569" 
d="M292 -6h-15q-136 0 -181 49.5t-45 198.5v43q0 150 45 199.5t181 49.5h15q136 0 181 -49.5t45 -199.5v-43q0 -149 -45 -198.5t-181 -49.5zM278 57h12q66 0 96 13.5t43 52.5t13 122v39q0 120 -28.5 154.5t-123.5 34.5h-12q-49 0 -76 -6t-45.5 -27.5t-24 -57t-5.5 -98.5v-39
q0 -84 13 -122.5t42.5 -52t95.5 -13.5zM376 712l35 -7q-8 -91 -72 -91q-27 0 -61 25q-29 20 -47 20q-31 0 -39 -46l-34 8q6 89 71 89q27 0 59 -22q31 -22 50 -22q32 0 38 46z" />
    <glyph glyph-name="odieresis.sc" unicode="&#xe058;" horiz-adv-x="569" 
d="M292 -6h-15q-136 0 -181 49.5t-45 198.5v43q0 150 45 199.5t181 49.5h15q136 0 181 -49.5t45 -199.5v-43q0 -149 -45 -198.5t-181 -49.5zM278 57h12q66 0 96 13.5t43 52.5t13 122v39q0 120 -28.5 154.5t-123.5 34.5h-12q-49 0 -76 -6t-45.5 -27.5t-24 -57t-5.5 -98.5v-39
q0 -84 13 -122.5t42.5 -52t95.5 -13.5zM237 711v-88h-69v88h69zM400 711v-88h-69v88h69z" />
    <glyph glyph-name="omacron.sc" unicode="&#xe059;" horiz-adv-x="569" 
d="M292 -6h-15q-136 0 -181 49.5t-45 198.5v43q0 150 45 199.5t181 49.5h15q136 0 181 -49.5t45 -199.5v-43q0 -149 -45 -198.5t-181 -49.5zM278 57h12q66 0 96 13.5t43 52.5t13 122v39q0 120 -28.5 154.5t-123.5 34.5h-12q-49 0 -76 -6t-45.5 -27.5t-24 -57t-5.5 -98.5v-39
q0 -84 13 -122.5t42.5 -52t95.5 -13.5zM394 693v-52h-220v52h220z" />
    <glyph glyph-name="obreve.sc" unicode="&#xe05a;" horiz-adv-x="569" 
d="M292 -6h-15q-136 0 -181 49.5t-45 198.5v43q0 150 45 199.5t181 49.5h15q136 0 181 -49.5t45 -199.5v-43q0 -149 -45 -198.5t-181 -49.5zM278 57h12q66 0 96 13.5t43 52.5t13 122v39q0 120 -28.5 154.5t-123.5 34.5h-12q-49 0 -76 -6t-45.5 -27.5t-24 -57t-5.5 -98.5v-39
q0 -84 13 -122.5t42.5 -52t95.5 -13.5zM368 717h43q-4 -117 -126 -117q-123 0 -127 117h44q5 -38 25 -52.5t58 -14.5t58 14t25 53z" />
    <glyph glyph-name="ohungarumlaut.sc" unicode="&#xe05b;" horiz-adv-x="569" 
d="M292 -6h-15q-136 0 -181 49.5t-45 198.5v43q0 150 45 199.5t181 49.5h15q136 0 181 -49.5t45 -199.5v-43q0 -149 -45 -198.5t-181 -49.5zM278 57h12q66 0 96 13.5t43 52.5t13 122v39q0 120 -28.5 154.5t-123.5 34.5h-12q-49 0 -76 -6t-45.5 -27.5t-24 -57t-5.5 -98.5v-39
q0 -84 13 -122.5t42.5 -52t95.5 -13.5zM301 750l39 -37l-129 -123l-25 27zM437 749l39 -37l-131 -123l-25 27z" />
    <glyph glyph-name="oslash.sc" unicode="&#xe05c;" horiz-adv-x="569" 
d="M452 502l37 46l31 -26l-38 -48q36 -51 36 -189v-43q0 -149 -45 -198.5t-181 -49.5h-15q-112 0 -158 30l-38 -46l-32 27l39 48q-37 50 -37 189v43q0 150 45 199.5t181 49.5h15q111 0 160 -32zM290 474h-12q-96 0 -124.5 -34.5t-28.5 -155.5v-39q0 -90 14 -129l269 331
q-31 27 -118 27zM278 55h12q96 0 125 34.5t29 155.5v39q0 87 -14 126l-266 -330q29 -25 114 -25z" />
    <glyph glyph-name="oe.sc" unicode="&#xe05d;" horiz-adv-x="836" 
d="M803 59v-59h-362v54h-1q-16 -34 -50.5 -47t-107.5 -13h-15q-129 0 -172.5 49t-43.5 199v44q0 150 43 199t170 49h14q77 0 111.5 -12.5t50.5 -45.5h1v52h359v-58h-285v-169h269v-56h-269v-186h288zM441 221v79q0 107 -29 140t-120 33h-14q-93 0 -122 -33.5t-29 -145.5v-56
q0 -112 28 -147t124 -35h12q89 0 119.5 31.5t30.5 133.5z" />
    <glyph glyph-name="racute.sc" unicode="&#xe05e;" horiz-adv-x="538" 
d="M143 262h173q53 0 71.5 19.5t18.5 71.5v20q0 63 -20.5 80t-96.5 17h-146v-208zM482 97v-97h-76v75q0 87 -19 108.5t-94 21.5h-150v-205h-76v528h236q110 0 144.5 -28.5t34.5 -118.5v-20q0 -57 -16 -85t-51 -38v-1q40 -9 53.5 -37.5t13.5 -102.5zM372 697l-159 -111
l-23 29l143 131z" />
    <glyph glyph-name="rcommaaccent.sc" unicode="&#xe05f;" horiz-adv-x="538" 
d="M143 262h173q53 0 71.5 19.5t18.5 71.5v20q0 63 -20.5 80t-96.5 17h-146v-208zM482 97v-97h-76v75q0 87 -19 108.5t-94 21.5h-150v-205h-76v528h236q110 0 144.5 -28.5t34.5 -118.5v-20q0 -57 -16 -85t-51 -38v-1q40 -9 53.5 -37.5t13.5 -102.5zM313 -49v-76
q0 -54 -16.5 -74.5t-65.5 -23.5v32q23 3 30 14.5t7 46.5v6h-22v75h67z" />
    <glyph glyph-name="rcaron.sc" unicode="&#xe060;" horiz-adv-x="538" 
d="M143 262h173q53 0 71.5 19.5t18.5 71.5v20q0 63 -20.5 80t-96.5 17h-146v-208zM482 97v-97h-76v75q0 87 -19 108.5t-94 21.5h-150v-205h-76v528h236q110 0 144.5 -28.5t34.5 -118.5v-20q0 -57 -16 -85t-51 -38v-1q40 -9 53.5 -37.5t13.5 -102.5zM399 702l-128 -117
l-129 117l28 29l101 -83l100 82z" />
    <glyph glyph-name="sacute.sc" unicode="&#xe061;" horiz-adv-x="519" 
d="M276 -6h-18q-68 0 -106.5 6t-62 24t-30.5 45.5t-7 76.5v22h74v-20q0 -61 22.5 -77.5t107.5 -16.5h16q82 0 104 17t22 73v11q0 45 -26 61t-119 23q-117 8 -155 38t-38 107v15q0 77 39 106t146 29h17q122 0 159.5 -29t37.5 -117v-19h-72v16q0 56 -22.5 73t-98.5 17h-13
q-75 0 -97.5 -15t-22.5 -62v-12q0 -45 25.5 -61.5t117.5 -22.5q120 -9 158 -38.5t38 -105.5v-13q0 -90 -39 -120.5t-157 -30.5zM358 697l-159 -111l-23 29l143 131z" />
    <glyph glyph-name="scircumflex.sc" unicode="&#xe062;" horiz-adv-x="519" 
d="M276 -6h-18q-68 0 -106.5 6t-62 24t-30.5 45.5t-7 76.5v22h74v-20q0 -61 22.5 -77.5t107.5 -16.5h16q82 0 104 17t22 73v11q0 45 -26 61t-119 23q-117 8 -155 38t-38 107v15q0 77 39 106t146 29h17q122 0 159.5 -29t37.5 -117v-19h-72v16q0 56 -22.5 73t-98.5 17h-13
q-75 0 -97.5 -15t-22.5 -62v-12q0 -45 25.5 -61.5t117.5 -22.5q120 -9 158 -38.5t38 -105.5v-13q0 -90 -39 -120.5t-157 -30.5zM390 627l-29 -30l-100 84l-99 -84l-29 30l128 117z" />
    <glyph glyph-name="scaron.sc" unicode="&#xe063;" horiz-adv-x="519" 
d="M276 -6h-18q-68 0 -106.5 6t-62 24t-30.5 45.5t-7 76.5v22h74v-20q0 -61 22.5 -77.5t107.5 -16.5h16q82 0 104 17t22 73v11q0 45 -26 61t-119 23q-117 8 -155 38t-38 107v15q0 77 39 106t146 29h17q122 0 159.5 -29t37.5 -117v-19h-72v16q0 56 -22.5 73t-98.5 17h-13
q-75 0 -97.5 -15t-22.5 -62v-12q0 -45 25.5 -61.5t117.5 -22.5q120 -9 158 -38.5t38 -105.5v-13q0 -90 -39 -120.5t-157 -30.5zM390 702l-128 -117l-129 117l28 29l101 -83l100 82z" />
    <glyph glyph-name="scedilla.sc" unicode="&#xe064;" horiz-adv-x="519" 
d="M276 -6h-18q-68 0 -106.5 6t-62 24t-30.5 45.5t-7 76.5v22h74v-20q0 -61 22.5 -77.5t107.5 -16.5h16q82 0 104 17t22 73v11q0 45 -26 61t-119 23q-117 8 -155 38t-38 107v15q0 77 39 106t146 29h17q122 0 159.5 -29t37.5 -117v-19h-72v16q0 56 -22.5 73t-98.5 17h-13
q-75 0 -97.5 -15t-22.5 -62v-12q0 -45 25.5 -61.5t117.5 -22.5q120 -9 158 -38.5t38 -105.5v-13q0 -90 -39 -120.5t-157 -30.5zM326 -51l-146 -121l-25 25l129 140z" />
    <glyph glyph-name="scommaaccent.sc" unicode="&#xe065;" horiz-adv-x="519" 
d="M276 -6h-18q-68 0 -106.5 6t-62 24t-30.5 45.5t-7 76.5v22h74v-20q0 -61 22.5 -77.5t107.5 -16.5h16q82 0 104 17t22 73v11q0 45 -26 61t-119 23q-117 8 -155 38t-38 107v15q0 77 39 106t146 29h17q122 0 159.5 -29t37.5 -117v-19h-72v16q0 56 -22.5 73t-98.5 17h-13
q-75 0 -97.5 -15t-22.5 -62v-12q0 -45 25.5 -61.5t117.5 -22.5q120 -9 158 -38.5t38 -105.5v-13q0 -90 -39 -120.5t-157 -30.5zM311 -49v-76q0 -54 -16.5 -74.5t-65.5 -23.5v32q23 3 30 14.5t7 46.5v6h-22v75h67z" />
    <glyph glyph-name="germandbls.sc" unicode="&#xe066;" horiz-adv-x="1038" 
d="M276 -6h-18q-68 0 -106.5 6t-62 24t-30.5 45.5t-7 76.5v22h74v-20q0 -61 22.5 -77.5t107.5 -16.5h16q82 0 104 17t22 73v11q0 45 -26 61t-119 23q-117 8 -155 38t-38 107v15q0 77 39 106t146 29h17q122 0 159.5 -29t37.5 -117v-19h-72v16q0 56 -22.5 73t-98.5 17h-13
q-75 0 -97.5 -15t-22.5 -62v-12q0 -45 25.5 -61.5t117.5 -22.5q120 -9 158 -38.5t38 -105.5v-13q0 -90 -39 -120.5t-157 -30.5zM795 -6h-18q-68 0 -106.5 6t-62 24t-30.5 45.5t-7 76.5v22h74v-20q0 -61 22.5 -77.5t107.5 -16.5h16q82 0 104 17t22 73v11q0 45 -26 61t-119 23
q-117 8 -155 38t-38 107v15q0 77 39 106t146 29h17q122 0 159.5 -29t37.5 -117v-19h-72v16q0 56 -22.5 73t-98.5 17h-13q-75 0 -97.5 -15t-22.5 -62v-12q0 -45 25.5 -61.5t117.5 -22.5q120 -9 158 -38.5t38 -105.5v-13q0 -90 -39 -120.5t-157 -30.5z" />
    <glyph glyph-name="tcaron.sc" unicode="&#xe067;" horiz-adv-x="448" 
d="M262 467v-467h-77v467h-173v61h424v-61h-174zM354 702l-128 -117l-129 117l28 29l101 -83l100 82z" />
    <glyph glyph-name="tcommaaccent.sc" unicode="&#xe068;" horiz-adv-x="448" 
d="M262 467v-467h-77v467h-173v61h424v-61h-174zM258 -49v-76q0 -54 -16.5 -74.5t-65.5 -23.5v32q23 3 30 14.5t7 46.5v6h-22v75h67z" />
    <glyph glyph-name="tbar.sc" unicode="&#xe069;" horiz-adv-x="448" 
d="M262 315v-315h-77v315h-129v45h129v107h-173v61h424v-61h-174v-107h130v-45h-130z" />
    <glyph glyph-name="thorn.sc" unicode="&#xe06a;" horiz-adv-x="521" 
d="M287 106h-144v-106h-76v528h76v-88h142q123 0 161 -30t38 -127v-18q0 -95 -39.5 -127t-157.5 -32zM143 164h136q84 0 106.5 18.5t22.5 82.5v17q0 65 -22 82.5t-107 17.5h-136v-218z" />
    <glyph glyph-name="ugrave.sc" unicode="&#xe06b;" horiz-adv-x="566" 
d="M290 -5h-13q-133 0 -174 34t-41 145v354h77v-348q0 -79 24 -101t113 -22h15q89 0 112.5 21.5t23.5 101.5v348h77v-354q0 -112 -40.5 -145.5t-173.5 -33.5zM376 614l-23 -29l-158 111l38 49z" />
    <glyph glyph-name="uacute.sc" unicode="&#xe06c;" horiz-adv-x="566" 
d="M290 -5h-13q-133 0 -174 34t-41 145v354h77v-348q0 -79 24 -101t113 -22h15q89 0 112.5 21.5t23.5 101.5v348h77v-354q0 -112 -40.5 -145.5t-173.5 -33.5zM384 697l-159 -111l-23 29l143 131z" />
    <glyph glyph-name="ucircumflex.sc" unicode="&#xe06d;" horiz-adv-x="566" 
d="M290 -5h-13q-133 0 -174 34t-41 145v354h77v-348q0 -79 24 -101t113 -22h15q89 0 112.5 21.5t23.5 101.5v348h77v-354q0 -112 -40.5 -145.5t-173.5 -33.5zM412 627l-29 -30l-100 84l-99 -84l-29 30l128 117z" />
    <glyph glyph-name="utilde.sc" unicode="&#xe06e;" horiz-adv-x="566" 
d="M290 -5h-13q-133 0 -174 34t-41 145v354h77v-348q0 -79 24 -101t113 -22h15q89 0 112.5 21.5t23.5 101.5v348h77v-354q0 -112 -40.5 -145.5t-173.5 -33.5zM375 712l35 -7q-8 -91 -72 -91q-27 0 -61 25q-29 20 -47 20q-31 0 -39 -46l-34 8q6 89 71 89q27 0 59 -22
q31 -22 50 -22q32 0 38 46z" />
    <glyph glyph-name="udieresis.sc" unicode="&#xe06f;" horiz-adv-x="566" 
d="M290 -5h-13q-133 0 -174 34t-41 145v354h77v-348q0 -79 24 -101t113 -22h15q89 0 112.5 21.5t23.5 101.5v348h77v-354q0 -112 -40.5 -145.5t-173.5 -33.5zM236 711v-88h-69v88h69zM399 711v-88h-69v88h69z" />
    <glyph glyph-name="umacron.sc" unicode="&#xe070;" horiz-adv-x="566" 
d="M290 -5h-13q-133 0 -174 34t-41 145v354h77v-348q0 -79 24 -101t113 -22h15q89 0 112.5 21.5t23.5 101.5v348h77v-354q0 -112 -40.5 -145.5t-173.5 -33.5zM393 693v-52h-220v52h220z" />
    <glyph glyph-name="ubreve.sc" unicode="&#xe071;" horiz-adv-x="566" 
d="M290 -5h-13q-133 0 -174 34t-41 145v354h77v-348q0 -79 24 -101t113 -22h15q89 0 112.5 21.5t23.5 101.5v348h77v-354q0 -112 -40.5 -145.5t-173.5 -33.5zM367 717h43q-4 -117 -126 -117q-123 0 -127 117h44q5 -38 25 -52.5t58 -14.5t58 14t25 53z" />
    <glyph glyph-name="uring.sc" unicode="&#xe072;" horiz-adv-x="566" 
d="M290 -5h-13q-133 0 -174 34t-41 145v354h77v-348q0 -79 24 -101t113 -22h15q89 0 112.5 21.5t23.5 101.5v348h77v-354q0 -112 -40.5 -145.5t-173.5 -33.5zM286 589h-6q-55 0 -77 17t-22 58v6q0 41 22 58t77 17h6q55 0 77 -17t22 -58v-6q0 -41 -22 -58t-77 -17zM280 620h6
q35 0 48 10t13 35v6q0 25 -13 34.5t-48 9.5h-6q-35 0 -48 -9.5t-13 -34.5v-6q0 -26 13 -35.5t48 -9.5z" />
    <glyph glyph-name="uhungarumlaut.sc" unicode="&#xe073;" horiz-adv-x="566" 
d="M290 -5h-13q-133 0 -174 34t-41 145v354h77v-348q0 -79 24 -101t113 -22h15q89 0 112.5 21.5t23.5 101.5v348h77v-354q0 -112 -40.5 -145.5t-173.5 -33.5zM292 750l39 -37l-129 -123l-25 27zM428 749l39 -37l-131 -123l-25 27z" />
    <glyph glyph-name="uogonek.sc" unicode="&#xe074;" horiz-adv-x="566" 
d="M359 -139v-40q-43 -13 -78 -13q-83 0 -83 65q0 55 77 121q-132 2 -172.5 36t-40.5 144v354h77v-348q0 -80 24 -101.5t113 -21.5h14q90 0 113.5 21t23.5 102v348h77v-353q0 -105 -35 -140.5t-145 -39.5q-73 -61 -73 -108q0 -34 47 -34q27 0 61 8z" />
    <glyph glyph-name="wcircumflex.sc" unicode="&#xe075;" horiz-adv-x="764" 
d="M744 528l-144 -528h-95l-121 456h-2l-122 -456h-94l-146 528h77l118 -464h2l122 464h88l124 -464h1l117 464h75zM512 627l-29 -30l-100 84l-99 -84l-29 30l128 117z" />
    <glyph glyph-name="yacute.sc" unicode="&#xe076;" horiz-adv-x="499" 
d="M288 186v-186h-77v186l-202 342h84l157 -278h1l155 278h84zM361 697l-159 -111l-23 29l143 131z" />
    <glyph glyph-name="ycircumflex.sc" unicode="&#xe077;" horiz-adv-x="499" 
d="M288 186v-186h-77v186l-202 342h84l157 -278h1l155 278h84zM380 627l-29 -30l-100 84l-99 -84l-29 30l128 117z" />
    <glyph glyph-name="ydieresis.sc" unicode="&#xe078;" horiz-adv-x="499" 
d="M288 186v-186h-77v186l-202 342h84l157 -278h1l155 278h84zM203 711v-88h-69v88h69zM366 711v-88h-69v88h69z" />
    <glyph glyph-name="zacute.sc" unicode="&#xe079;" horiz-adv-x="490" 
d="M454 58v-58h-416v56l321 414v1h-309v57h400v-57l-320 -412v-1h324zM356 697l-159 -111l-23 29l143 131z" />
    <glyph glyph-name="zcaron.sc" unicode="&#xe07a;" horiz-adv-x="490" 
d="M454 58v-58h-416v56l321 414v1h-309v57h400v-57l-320 -412v-1h324zM378 702l-128 -117l-129 117l28 29l101 -83l100 82z" />
    <glyph glyph-name="zdotaccent.sc" unicode="&#xe07b;" horiz-adv-x="490" 
d="M454 58v-58h-416v56l321 414v1h-309v57h400v-57l-320 -412v-1h324zM284 711v-88h-77v88h77z" />
    <glyph glyph-name="exclamdown.sc" unicode="&#xe07f;" horiz-adv-x="236" 
d="M155 528v-94h-74v94h74zM151 366l5 -366h-76l5 366h66z" />
    <glyph glyph-name="questiondown.sc" unicode="&#xe080;" horiz-adv-x="452" 
d="M212 435v93h75v-93h-75zM217 353v15h67v-20q0 -45 -17 -65.5t-65 -32.5q-58 -14 -73.5 -32t-15.5 -69v-10q0 -54 20 -72t86 -18h11q71 0 92.5 19t21.5 85v21h65v-21q0 -99 -35 -129t-144 -30h-12q-103 0 -137.5 29.5t-34.5 111.5v14q0 70 23.5 101t91.5 47
q35 8 45.5 18.5t10.5 37.5z" />
    <glyph glyph-name="Euro.sc" unicode="&#xe081;" horiz-adv-x="551" 
d="M315 -6h-13q-128 0 -167.5 40.5t-42.5 172.5h-53v35h52v56h-52v35h53q3 124 44 162.5t166 38.5h13q107 0 144.5 -28.5t37.5 -104.5v-16h-71v11q0 49 -20.5 63.5t-91.5 14.5h-10q-47 0 -69 -3t-39 -18t-22 -41.5t-7 -78.5h224v-35h-224v-56h224v-35h-224q1 -54 6 -82.5
t21.5 -45.5t39.5 -21t69 -4h10q75 0 97 15.5t22 68.5v11h71v-16q0 -79 -39 -109t-149 -30z" />
    <glyph glyph-name="cent.sc" unicode="&#xe082;" horiz-adv-x="456" 
d="M248 64v-88h-38v88q-95 2 -127 37.5t-32 141.5v26q0 108 32 142.5t127 36.5v80h38v-80q91 -1 123 -27t32 -97v-16h-65v11q0 45 -17 59.5t-73 14.5v-274q56 0 74 16t18 63v11h65v-17q0 -74 -34.5 -100.5t-122.5 -27.5zM119 271v-29q0 -76 17 -98.5t74 -24.5v274
q-58 0 -74.5 -22t-16.5 -100z" />
    <glyph glyph-name="sterling.sc" unicode="&#xe083;" horiz-adv-x="512" 
d="M469 58v-58h-421v58q36 11 47.5 42t12.5 124h-65v52h66v21q1 104 15 152.5t48.5 66.5t108.5 18h16q97 0 127.5 -27.5t30.5 -112.5v-15h-68v13q0 53 -17 68.5t-74 15.5h-11q-25 0 -39.5 -1.5t-28 -8t-19.5 -16.5t-11 -31t-6 -47t-1 -69v-27h180v-52h-181
q-2 -84 -13.5 -116.5t-43.5 -48.5v-1h347z" />
    <glyph glyph-name="florin.sc" unicode="&#xe084;" horiz-adv-x="494" 
d="M282 265l-28 -168q-13 -79 -45.5 -112t-102.5 -33q-41 0 -73 8v53q32 -9 61 -9q42 0 61 21.5t30 84.5l27 155h-107v54h116l12 69q14 81 49 113.5t106 32.5q37 0 70 -6v-53q-36 6 -61 6q-46 0 -65.5 -21.5t-30.5 -85.5l-10 -55h132v-54h-141z" />
    <glyph glyph-name="yen.sc" unicode="&#xe085;" horiz-adv-x="508" 
d="M291 162v-162h-75v162h-159v42h159v4l-43 73h-116v42h92l-121 205h81l145 -270h2l142 270h81l-121 -205h92v-42h-116l-43 -73v-4h159v-42h-159z" />
    <glyph glyph-name="perthousand.sc" unicode="&#xe087;" horiz-adv-x="834" 
d="M153 287h-10q-56 0 -75.5 23t-19.5 91v14q0 68 19.5 91t75.5 23h10q56 0 75.5 -23t19.5 -91v-14q0 -68 -19.5 -91t-75.5 -23zM145 326h6q31 0 40 13t9 60v18q0 47 -9 60t-40 13h-6q-31 0 -40 -13t-9 -60v-18q0 -47 9 -60t40 -13zM421 528l-209 -528h-47l209 528h47z
M438 39h6q31 0 40 13t9 60v18q0 47 -9 60t-40 13h-6q-31 0 -40 -13t-9 -60v-18q0 -47 9 -60t40 -13zM446 0h-10q-56 0 -75.5 23t-19.5 91v14q0 68 19.5 91t75.5 23h10q56 0 75.5 -23t19.5 -91v-14q0 -68 -19.5 -91t-75.5 -23zM683 39h6q31 0 40 13t9 60v18q0 47 -9 60
t-40 13h-6q-31 0 -40 -13t-9 -60v-18q0 -47 9 -60t40 -13zM691 0h-10q-56 0 -75.5 23t-19.5 91v14q0 68 19.5 91t75.5 23h10q56 0 75.5 -23t19.5 -91v-14q0 -68 -19.5 -91t-75.5 -23z" />
    <glyph glyph-name="braceleft.sc" unicode="&#xe0cf;" horiz-adv-x="294" 
d="M247 40v-48h-34q-59 0 -81.5 24t-22.5 94v49q0 44 -12.5 66t-46.5 22v41q34 0 46.5 22t12.5 65v43q0 70 22.5 94t81.5 24h34v-48h-20q-33 0 -43.5 -14t-10.5 -61v-35q0 -53 -12 -78t-48 -32v-2q36 -6 48 -31.5t12 -78.5v-40q0 -47 10.5 -61.5t43.5 -14.5h20z" />
    <glyph glyph-name="braceright.sc" unicode="&#xe0d0;" horiz-adv-x="294" 
d="M81 -8h-34v48h20q33 0 43.5 14.5t10.5 61.5v40q0 53 11.5 78.5t48.5 31.5v2q-36 7 -48 32t-12 78v35q0 47 -10.5 61t-43.5 14h-20v48h34q59 0 81.5 -24t22.5 -94v-43q0 -43 12.5 -65t46.5 -22v-41q-34 0 -46.5 -22t-12.5 -66v-49q0 -70 -22.5 -94t-81.5 -24z" />
    <glyph glyph-name="bracketleft.sc" unicode="&#xe0d1;" horiz-adv-x="274" 
d="M227 47v-55h-152v544h152v-55h-86v-434h86z" />
    <glyph glyph-name="bracketright.sc" unicode="&#xe0d2;" horiz-adv-x="274" 
d="M199 536v-544h-152v55h86v434h-86v55h152z" />
    <glyph glyph-name="parenleft.sc" unicode="&#xe0d8;" horiz-adv-x="277" 
d="M230 50v-58h-15q-65 0 -95.5 18t-45 73.5t-14.5 170.5v20q0 115 14.5 170.5t45 73.5t95.5 18h15v-58h-13q-38 0 -55.5 -13t-26 -56.5t-8.5 -137.5v-14q0 -94 8.5 -137.5t26 -56.5t55.5 -13h13z" />
    <glyph glyph-name="parenright.sc" unicode="&#xe0d9;" horiz-adv-x="277" 
d="M62 -8h-15v58h13q38 0 55.5 13t26 56.5t8.5 137.5v14q0 94 -8.5 137.5t-26 56.5t-55.5 13h-13v58h15q65 0 95.5 -18t45 -73.5t14.5 -170.5v-20q0 -115 -14.5 -170.5t-45 -73.5t-95.5 -18z" />
    <glyph glyph-name="quotedblleft.sc" unicode="&#xe0e1;" horiz-adv-x="334" 
d="M134 402v-102h-75v102q0 63 17.5 91.5t69.5 34.5v-43q-22 -4 -30 -20.5t-8 -54.5v-8h26zM272 402v-102h-75v102q0 63 17.5 91.5t69.5 34.5v-43q-23 -4 -30.5 -20.5t-7.5 -54.5v-8h26z" />
    <glyph glyph-name="quotedblright.sc" unicode="&#xe0e2;" horiz-adv-x="334" 
d="M137 528v-102q0 -63 -17.5 -91.5t-69.5 -34.5v43q23 4 30.5 21t7.5 55v7h-26v102h75zM275 528v-102q0 -63 -17.5 -91.5t-69.5 -34.5v43q23 4 30.5 21t7.5 55v7h-26v102h75z" />
    <glyph glyph-name="quoteleft.sc" unicode="&#xe0e3;" horiz-adv-x="196" 
d="M134 402v-102h-75v102q0 63 17.5 91.5t69.5 34.5v-43q-22 -4 -30 -20.5t-8 -54.5v-8h26z" />
    <glyph glyph-name="quoteright.sc" unicode="&#xe0e4;" horiz-adv-x="196" 
d="M137 528v-102q0 -63 -17.5 -91.5t-69.5 -34.5v43q23 4 30.5 21t7.5 55v7h-26v102h75z" />
    <glyph glyph-name="zero.sc" unicode="&#xe10a;" horiz-adv-x="521" 
d="M268 -6h-15q-45 0 -74 3t-53.5 13.5t-37.5 26.5t-22 44.5t-12 65.5t-3 92v50q0 55 3 92t12 65.5t22 44.5t37.5 26.5t53.5 13.5t74 3h15q67 0 103.5 -8t60.5 -35.5t31 -73t7 -128.5v-50q0 -83 -7 -128.5t-31 -73t-60.5 -35.5t-103.5 -8zM254 55h12q46 0 69 5t39 26
t20 54.5t4 98.5v52q0 64 -4 98t-20 54.5t-39 25.5t-69 5h-12q-60 0 -85.5 -12.5t-35.5 -49t-10 -121.5v-52q0 -85 10 -122t35.5 -49.5t85.5 -12.5z" />
    <glyph glyph-name="one.sc" unicode="&#xe10b;" horiz-adv-x="350" 
d="M250 528v-528h-73v454h-2l-121 -138l-43 41l150 171h89z" />
    <glyph glyph-name="two.sc" unicode="&#xe10c;" horiz-adv-x="500" 
d="M457 57v-57h-405q-1 5 -1 72q0 104 34.5 138t160.5 54q90 14 114 33.5t24 75.5v13q0 55 -22.5 72.5t-100.5 17.5h-12q-79 0 -99.5 -18t-20.5 -87v-19h-69v17q0 103 35.5 134t152.5 31h11q120 0 158.5 -29.5t38.5 -115.5v-15q0 -82 -36 -116t-147 -52q-57 -9 -82.5 -14.5
t-42.5 -20t-20 -32t-3 -55.5v-27h332z" />
    <glyph glyph-name="three.sc" unicode="&#xe10d;" horiz-adv-x="511" 
d="M464 154v-15q0 -89 -39 -117t-168 -28h-16q-121 0 -155.5 29.5t-34.5 130.5v21h69v-20q0 -67 21 -84.5t100 -17.5h13q90 0 113.5 16.5t23.5 75.5v13q0 51 -17.5 67.5t-71.5 16.5h-109v56h105q50 0 66.5 15.5t16.5 61.5v15q0 55 -22 70.5t-104 15.5h-11q-77 0 -97.5 -17.5
t-20.5 -82.5v-21h-68v21q0 98 34.5 128t150.5 30h13q87 0 128 -12t55.5 -40t14.5 -87v-16q0 -51 -12.5 -73.5t-44.5 -32.5v-2q36 -9 51.5 -34t15.5 -83z" />
    <glyph glyph-name="four.sc" unicode="&#xe10e;" horiz-adv-x="518" 
d="M416 121v-121h-72v121h-300v71l273 336h99v-350h67v-57h-67zM112 178h232v288h-2l-230 -287v-1z" />
    <glyph glyph-name="five.sc" unicode="&#xe10f;" horiz-adv-x="506" 
d="M463 188v-30q0 -102 -39.5 -133t-168.5 -31h-18q-81 0 -120 13.5t-52.5 43.5t-13.5 94v18h69v-13q0 -63 21 -80t103 -17h14q86 0 109 19.5t23 88.5v19q0 72 -21.5 91.5t-102.5 19.5h-16q-64 0 -89.5 -8.5t-34.5 -36.5h-68v282h391v-57h-322v-164h1q14 23 42 32.5t100 9.5
h19q107 0 140.5 -32t33.5 -129z" />
    <glyph glyph-name="six.sc" unicode="&#xe110;" horiz-adv-x="510" 
d="M264 -6h-15q-68 0 -104.5 6.5t-59 30t-28.5 58.5t-6 101v98q0 68 5 109t16.5 70.5t36.5 43t57.5 18.5t87.5 5h14q117 0 152 -27.5t35 -118.5v-19h-69v15q0 59 -21 75.5t-95 16.5h-12q-49 0 -71.5 -3.5t-39 -22.5t-20 -50t-3.5 -94v-33h1q27 44 136 44h13q119 0 154.5 -28
t35.5 -124v-17q0 -94 -38 -124t-162 -30zM251 53h12q86 0 108 16.5t22 79.5v13q0 65 -22.5 82t-107.5 17h-12q-76 0 -102 -16t-26 -66v-12q0 -77 21.5 -95.5t106.5 -18.5z" />
    <glyph glyph-name="seven.sc" unicode="&#xe111;" horiz-adv-x="478" 
d="M445 473l-259 -473h-81l258 466v3h-329v59h411v-55z" />
    <glyph glyph-name="eight.sc" unicode="&#xe112;" horiz-adv-x="512" 
d="M262 -6h-15q-126 0 -162.5 26.5t-36.5 112.5v11q0 63 16 91.5t56 38.5v1q-37 8 -51 32.5t-14 85.5v11q0 80 36.5 105t154.5 25h16q120 0 157 -25t37 -105v-11q0 -59 -14.5 -84t-52.5 -34v-1q41 -9 57.5 -37t16.5 -93v-11q0 -86 -37.5 -112.5t-163.5 -26.5zM248 302h13
q81 0 102 14t21 70v11q0 53 -21.5 67t-101.5 14h-13q-79 0 -100.5 -14t-21.5 -67v-11q0 -56 21 -70t101 -14zM249 52h12q86 0 108 15.5t22 73.5v13q0 60 -23.5 76t-106.5 16h-12q-83 0 -106.5 -16t-23.5 -76v-13q0 -58 22.5 -73.5t107.5 -15.5z" />
    <glyph glyph-name="nine.sc" unicode="&#xe113;" horiz-adv-x="510" 
d="M255 -6h-15q-118 0 -153.5 27.5t-35.5 118.5v19h68v-15q0 -59 21.5 -75t98.5 -16h11q50 0 73 3.5t40 22.5t20.5 49.5t3.5 93.5v34h-2q-27 -45 -136 -45h-13q-119 0 -154.5 29t-35.5 123v18q0 93 38 123t161 30h16q68 0 104.5 -6.5t59 -30t28.5 -58.5t6 -101v-98
q0 -85 -6.5 -130.5t-31 -73.5t-60.5 -35t-106 -7zM246 267h12q76 0 102.5 16.5t26.5 65.5v13q0 76 -22 95t-107 19h-12q-85 0 -107 -16.5t-22 -79.5v-13q0 -65 22 -82.5t107 -17.5z" />
    <glyph glyph-name="zero.tab" unicode="&#xe114;" horiz-adv-x="620" 
d="M302 62h15q40 0 63.5 2.5t45 12t31.5 24t18 44t10 66.5t2 96v66q0 59 -2 96t-10 66.5t-18 44t-31.5 24t-45 12t-63.5 2.5h-15q-60 0 -89.5 -6t-50 -33.5t-25.5 -72.5t-5 -133v-66q0 -88 5 -133t25.5 -72.5t50 -33.5t89.5 -6zM319 -6h-19q-55 0 -90.5 4t-65 17.5t-45.5 34
t-27.5 58t-15 85t-3.5 118.5v59q0 71 3.5 118t15 84.5t27.5 58t45.5 34t65 17.5t90.5 4h19q55 0 90.5 -4t65 -17.5t45.5 -34t27.5 -58t15 -84.5t3.5 -118v-59q0 -71 -3.5 -118.5t-15 -85t-27.5 -58t-45.5 -34t-65 -17.5t-90.5 -4z" />
    <glyph glyph-name="one.tab" unicode="&#xe115;" horiz-adv-x="620" 
d="M378 680v-680h-81v603h-2l-152 -156l-46 50l182 183h99z" />
    <glyph glyph-name="two.tab" unicode="&#xe116;" horiz-adv-x="620" 
d="M561 65v-65h-495q-1 13 -1 91q0 72 7 110t34.5 66.5t70.5 41t126 24.5q113 17 144 43t31 106v18q0 76 -29 99t-128 23h-14q-103 0 -129.5 -25t-26.5 -118v-20h-76v18q0 68 8 105.5t34 62.5t69 33t119 8h13q101 0 151.5 -16t70 -54t19.5 -114v-19q0 -112 -44 -152
t-180 -60q-49 -7 -76 -12.5t-51.5 -15t-34.5 -18.5t-17.5 -27.5t-9 -38.5t-1.5 -55v-39h416z" />
    <glyph glyph-name="three.tab" unicode="&#xe117;" horiz-adv-x="620" 
d="M564 196v-21q0 -75 -21 -112.5t-74.5 -53t-160.5 -15.5h-20q-62 0 -100 5t-65.5 17t-40.5 37t-18 57.5t-5 86.5v23h76v-24q0 -90 26 -113t129 -23h17q114 0 145 21.5t31 99.5v20q0 69 -23 91.5t-92 22.5h-131v63h125q66 0 87.5 21t21.5 85v20q0 73 -29.5 95t-133.5 22
h-13q-99 0 -126 -23t-27 -113v-24h-75v24q0 65 8 101.5t33.5 60.5t67.5 31.5t117 7.5h16q149 0 195.5 -34.5t46.5 -142.5v-18q0 -71 -18 -100.5t-65 -41.5v-2q51 -11 73.5 -41.5t22.5 -109.5z" />
    <glyph glyph-name="four.tab" unicode="&#xe118;" horiz-adv-x="620" 
d="M498 157v-157h-77v157h-373v85l338 438h112v-459h82v-64h-82zM119 221h302v395h-3l-299 -392v-3z" />
    <glyph glyph-name="five.tab" unicode="&#xe119;" horiz-adv-x="620" 
d="M314 -6h-22q-78 0 -121 7t-69.5 30t-34 58t-7.5 99v16h75v-14q0 -86 28.5 -108t134.5 -22h17q58 0 89.5 5t50 23t23.5 43.5t5 75.5v21q0 100 -27 126.5t-134 26.5h-20q-84 0 -114.5 -11t-42.5 -49h-75v359h476v-64h-401v-225h1q16 31 53.5 43.5t124.5 12.5h22
q135 0 176.5 -40t41.5 -166v-35q0 -89 -19.5 -132t-71.5 -61.5t-159 -18.5z" />
    <glyph glyph-name="six.tab" unicode="&#xe11a;" horiz-adv-x="620" 
d="M318 -6h-19q-82 0 -126.5 8.5t-72 38t-35 74.5t-7.5 129v127q0 73 3.5 121t15 85t27.5 57t46.5 32.5t65.5 16t92 3.5h18q140 0 181.5 -35t41.5 -153v-19h-75v17q0 80 -26.5 102t-123.5 22h-14q-41 0 -65 -2t-46 -10.5t-32 -22t-17.5 -40.5t-9.5 -61t-2 -89v-57h1
q16 35 55 50.5t119 15.5h17q144 0 188 -36t44 -156v-25q0 -81 -19.5 -120.5t-70.5 -56t-154 -16.5zM303 60h13q110 0 139 23t29 107v17q0 85 -29.5 109t-138.5 24h-13q-97 0 -131.5 -21.5t-34.5 -88.5v-15q0 -102 29 -128.5t137 -26.5z" />
    <glyph glyph-name="seven.tab" unicode="&#xe11b;" horiz-adv-x="620" 
d="M566 617l-321 -617h-90l321 610v3h-411v67h501v-63z" />
    <glyph glyph-name="eight.tab" unicode="&#xe11c;" horiz-adv-x="620" 
d="M310 384h15q107 0 133 19t26 93v17q0 69 -28.5 89.5t-129.5 20.5h-16q-102 0 -130.5 -20.5t-28.5 -89.5v-17q0 -39 4.5 -58.5t22.5 -33t47 -17t85 -3.5zM310 59h15q77 0 110.5 9.5t45 32.5t11.5 78v19q0 79 -30 100.5t-137 21.5h-15q-106 0 -136 -21.5t-30 -100.5v-19
q0 -55 11.5 -78t45 -32.5t109.5 -9.5zM328 -6h-19q-79 0 -124.5 7t-73.5 27.5t-37 52t-9 86.5v15q0 91 25 126t84 43v2q-57 8 -78.5 39.5t-21.5 113.5v16q0 98 46 131t188 33h20q143 0 188.5 -33t45.5 -131v-16q0 -82 -21.5 -113t-80.5 -40v-2q60 -8 85.5 -43t25.5 -126v-15
q0 -55 -9 -86.5t-37 -52t-73.5 -27.5t-123.5 -7z" />
    <glyph glyph-name="nine.tab" unicode="&#xe11d;" horiz-adv-x="620" 
d="M309 -6h-17q-140 0 -184 36.5t-44 151.5v19h75v-17q0 -78 29 -101t126 -23h13q42 0 66 2t46 10.5t32 22t18 40.5t10 61t2 89v57h-1q-16 -35 -55 -50.5t-119 -15.5h-17q-143 0 -187.5 36t-44.5 156v25q0 81 19.5 120.5t70.5 56t154 16.5h19q82 0 126.5 -8.5t72 -38.5
t35 -74.5t7.5 -128.5v-127q0 -73 -3.5 -121t-15 -85t-27.5 -57t-47 -32.5t-66.5 -16t-92.5 -3.5zM304 340h12q97 0 131.5 22t34.5 90v15q0 101 -28.5 127.5t-137.5 26.5h-12q-77 0 -111 -10.5t-46 -36t-12 -83.5v-16q0 -87 29.5 -111t139.5 -24z" />
    <glyph glyph-name="one.numerator" unicode="&#xe13c;" horiz-adv-x="278" 
d="M198 680v-372h-56v315h-1l-89 -93l-31 35l111 115h66z" />
    <glyph glyph-name="two.numerator" unicode="&#xe13d;" horiz-adv-x="379" 
d="M345 352v-44h-303v53q0 73 27 97.5t119 36.5q65 8 82.5 21.5t17.5 51.5v11q0 38 -17 49.5t-77 11.5h-7q-56 0 -72 -13t-16 -54v-16h-52v17q0 66 27 87.5t113 21.5h8q91 0 119.5 -20.5t28.5 -82.5v-10q0 -61 -27 -84.5t-115 -34.5q-71 -9 -88 -22.5t-17 -60.5v-16h249z
" />
    <glyph glyph-name="three.numerator" unicode="&#xe13e;" horiz-adv-x="385" 
d="M198 305h-12q-93 0 -120 20.5t-27 91.5v14h52v-14q0 -46 16.5 -57.5t78.5 -11.5h9q65 0 82 11t17 50v10q0 35 -14 47.5t-53 12.5h-78v40h78q35 0 47 11.5t12 41.5v12q0 35 -16.5 45.5t-74.5 10.5h-8q-58 0 -74 -11t-16 -53v-18h-51v18q0 66 27 86.5t115 20.5h9
q88 0 116 -19.5t28 -75.5v-10q0 -37 -10.5 -53.5t-35.5 -24.5v-1q28 -6 41 -23.5t13 -58.5v-12q0 -60 -30 -80t-121 -20z" />
    <glyph glyph-name="four.numerator" unicode="&#xe13f;" horiz-adv-x="391" 
d="M315 391v-83h-55v83h-228v53l205 236h78v-247h47v-42h-47zM84 433h176v204h-2l-174 -203v-1z" />
    <glyph glyph-name="five.numerator" unicode="&#xe140;" horiz-adv-x="383" 
d="M197 305h-12q-87 0 -114 20.5t-27 84.5v12h51v-11q0 -39 16.5 -51t71.5 -12h13q64 0 81.5 13.5t17.5 63.5v13q0 48 -16.5 62t-73.5 14h-13q-49 0 -66 -5.5t-25 -23.5h-52v195h291v-44h-238v-110h1q10 16 32 23t71 7h12q78 0 104 -23t26 -92v-16q0 -73 -30.5 -96.5
t-120.5 -23.5z" />
    <glyph glyph-name="six.numerator" unicode="&#xe141;" horiz-adv-x="384" 
d="M190 348h10q62 0 78 12t16 55v10q0 42 -16.5 53.5t-78.5 11.5h-10q-57 0 -75.5 -11t-18.5 -47v-11q0 -47 16.5 -60t78.5 -13zM201 305h-13q-93 0 -120 25t-27 108v83q0 102 29 132t122 30h12q82 0 109 -20.5t27 -83.5v-11h-51v11q0 38 -17 50t-70 12h-10
q-62 0 -79.5 -19.5t-17.5 -91.5v-30h1q18 32 100 32h12q84 0 111.5 -20t27.5 -82v-15q0 -67 -29 -88.5t-117 -21.5z" />
    <glyph glyph-name="seven.numerator" unicode="&#xe142;" horiz-adv-x="366" 
d="M332 639l-188 -331h-61l186 326v1h-237v45h300v-41z" />
    <glyph glyph-name="eight.numerator" unicode="&#xe143;" horiz-adv-x="384" 
d="M198 305h-14q-89 0 -117 19t-28 78v9q0 44 13 63.5t42 25.5v1q-28 6 -39.5 23.5t-11.5 57.5v11q0 53 28 71.5t112 18.5h15q85 0 113 -18.5t28 -71.5v-11q0 -40 -11.5 -57.5t-40.5 -23.5v-1q30 -6 43 -25.5t13 -63.5v-9q0 -59 -28 -78t-117 -19zM184 521h13q57 0 73 10.5
t16 46.5v9q0 34 -16 44.5t-73 10.5h-13q-56 0 -72 -10.5t-16 -44.5v-9q0 -36 15.5 -46.5t72.5 -10.5zM184 347h13q61 0 77 11t16 49v10q0 41 -16.5 52t-76.5 11h-13q-60 0 -76 -11t-16 -52v-10q0 -38 16 -49t76 -11z" />
    <glyph glyph-name="nine.numerator" unicode="&#xe144;" horiz-adv-x="387" 
d="M188 498h10q57 0 75.5 11t18.5 47v11q0 47 -17 60.5t-78 13.5h-11q-59 0 -76 -12t-17 -54v-10q0 -42 17 -54.5t78 -12.5zM194 305h-12q-84 0 -111.5 20.5t-27.5 83.5v11h52v-11q0 -38 16.5 -49.5t72.5 -11.5h9q66 0 82.5 18t16.5 92v30h-1q-18 -32 -100 -32h-12
q-85 0 -112.5 21t-27.5 85v14q0 64 29.5 85.5t117.5 21.5h12q93 0 120 -25t27 -108v-83q0 -103 -27.5 -132.5t-123.5 -29.5z" />
    <glyph glyph-name="zero.numerator" unicode="&#xe145;" horiz-adv-x="391" 
d="M190 349h11q62 0 79.5 23t17.5 106v32q0 82 -17.5 106t-79.5 24h-11q-62 0 -79.5 -23.5t-17.5 -106.5v-32q0 -83 17.5 -106t79.5 -23zM201 305h-12q-93 0 -121 34t-28 141v30q0 105 28.5 139t120.5 34h12q94 0 122 -34t28 -139v-30q0 -107 -28 -141t-122 -34z" />
    <glyph glyph-name="one.denominator" unicode="&#xe146;" horiz-adv-x="276" 
d="M198 372v-372h-56v315h-1l-89 -93l-31 35l111 115h66z" />
    <glyph glyph-name="two.denominator" unicode="&#xe147;" horiz-adv-x="379" 
d="M345 44v-44h-303v53q0 73 27 97.5t119 36.5q65 8 82.5 21.5t17.5 51.5v11q0 38 -17 49.5t-77 11.5h-7q-56 0 -72 -13t-16 -54v-16h-52v17q0 66 27 87.5t113 21.5h8q91 0 119.5 -20.5t28.5 -82.5v-10q0 -61 -27 -84.5t-115 -34.5q-71 -9 -88 -22.5t-17 -60.5v-16h249z" />
    <glyph glyph-name="three.denominator" unicode="&#xe148;" horiz-adv-x="385" 
d="M198 -3h-12q-93 0 -120 20.5t-27 91.5v14h52v-14q0 -46 16.5 -57.5t78.5 -11.5h9q65 0 82 11t17 50v10q0 35 -14 47.5t-53 12.5h-78v40h78q35 0 47 11.5t12 41.5v12q0 35 -16.5 45.5t-74.5 10.5h-8q-58 0 -74 -11t-16 -53v-18h-51v18q0 66 27 86.5t115 20.5h9
q88 0 116 -19.5t28 -75.5v-10q0 -37 -10.5 -53.5t-35.5 -24.5v-1q28 -6 41 -23.5t13 -58.5v-12q0 -60 -30 -80t-121 -20z" />
    <glyph glyph-name="four.denominator" unicode="&#xe149;" horiz-adv-x="391" 
d="M315 83v-83h-55v83h-228v53l205 236h78v-247h47v-42h-47zM84 125h176v204h-2l-174 -203v-1z" />
    <glyph glyph-name="five.denominator" unicode="&#xe14a;" horiz-adv-x="383" 
d="M197 -3h-12q-87 0 -114 20.5t-27 84.5v12h51v-11q0 -39 16.5 -51t71.5 -12h13q64 0 81.5 13.5t17.5 63.5v13q0 48 -16.5 62t-73.5 14h-13q-49 0 -66 -5.5t-25 -23.5h-52v195h291v-44h-238v-110h1q10 16 32 23t71 7h12q78 0 104 -23t26 -92v-16q0 -73 -30.5 -96.5
t-120.5 -23.5z" />
    <glyph glyph-name="six.denominator" unicode="&#xe14b;" horiz-adv-x="384" 
d="M190 40h10q62 0 78 12t16 55v10q0 42 -16.5 53.5t-78.5 11.5h-10q-57 0 -75.5 -11t-18.5 -47v-11q0 -47 16.5 -60t78.5 -13zM201 -3h-13q-93 0 -120 25t-27 108v83q0 102 29 132t122 30h12q82 0 109 -20.5t27 -83.5v-11h-51v11q0 38 -17 50t-70 12h-10q-62 0 -79.5 -19.5
t-17.5 -91.5v-30h1q18 32 100 32h12q84 0 111.5 -20t27.5 -82v-15q0 -67 -29 -88.5t-117 -21.5z" />
    <glyph glyph-name="seven.denominator" unicode="&#xe14c;" horiz-adv-x="366" 
d="M332 331l-188 -331h-61l186 326v1h-237v45h300v-41z" />
    <glyph glyph-name="eight.denominator" unicode="&#xe14d;" horiz-adv-x="384" 
d="M198 -3h-14q-89 0 -117 19t-28 78v9q0 44 13 63.5t42 25.5v1q-28 6 -39.5 23.5t-11.5 57.5v11q0 53 28 71.5t112 18.5h15q85 0 113 -18.5t28 -71.5v-11q0 -40 -11.5 -57.5t-40.5 -23.5v-1q30 -6 43 -25.5t13 -63.5v-9q0 -59 -28 -78t-117 -19zM184 213h13q57 0 73 10.5
t16 46.5v9q0 34 -16 44.5t-73 10.5h-13q-56 0 -72 -10.5t-16 -44.5v-9q0 -36 15.5 -46.5t72.5 -10.5zM184 39h13q61 0 77 11t16 49v10q0 41 -16.5 52t-76.5 11h-13q-60 0 -76 -11t-16 -52v-10q0 -38 16 -49t76 -11z" />
    <glyph glyph-name="nine.denominator" unicode="&#xe14e;" horiz-adv-x="387" 
d="M188 190h10q57 0 75.5 11t18.5 47v11q0 47 -17 60.5t-78 13.5h-11q-59 0 -76 -12t-17 -54v-10q0 -42 17 -54.5t78 -12.5zM194 -3h-12q-84 0 -111.5 20.5t-27.5 83.5v11h52v-11q0 -38 16.5 -49.5t72.5 -11.5h9q66 0 82.5 18t16.5 92v30h-1q-18 -32 -100 -32h-12
q-85 0 -112.5 21t-27.5 85v14q0 64 29.5 85.5t117.5 21.5h12q93 0 120 -25t27 -108v-83q0 -103 -27.5 -132.5t-123.5 -29.5z" />
    <glyph glyph-name="zero.denominator" unicode="&#xe14f;" horiz-adv-x="391" 
d="M190 41h11q62 0 79.5 23t17.5 106v32q0 82 -17.5 106t-79.5 24h-11q-62 0 -79.5 -23.5t-17.5 -106.5v-32q0 -83 17.5 -106t79.5 -23zM201 -3h-12q-93 0 -121 34t-28 141v30q0 105 28.5 139t120.5 34h12q94 0 122 -34t28 -139v-30q0 -107 -28 -141t-122 -34z" />
    <glyph glyph-name="dollar.tab" unicode="&#xe1fb;" horiz-adv-x="620" 
d="M332 -6v-75h-40v75q-80 0 -124 7t-70.5 29.5t-33.5 55.5t-7 96v31h77v-24q0 -84 27 -106t131 -23v256q-140 12 -183.5 46t-43.5 129v16q0 105 47.5 142t179.5 37v64h40v-64q71 -1 112 -9.5t66 -31t33 -55.5t8 -91v-22h-76v19q0 77 -27 101t-116 25v-240
q146 -13 190.5 -48t44.5 -133v-16q0 -116 -46 -153t-189 -38zM332 310v-250q100 1 129 22.5t29 98.5v17q0 62 -28 83t-130 29zM142 506v-15q0 -39 10 -57.5t41.5 -30t98.5 -16.5v235q-93 -1 -121.5 -23t-28.5 -93z" />
    <glyph glyph-name="Euro.tab" unicode="&#xe1fc;" horiz-adv-x="620" 
d="M585 187v-18q0 -69 -17.5 -104.5t-67 -53t-144.5 -17.5h-13q-84 0 -130 9.5t-76 41.5t-39.5 82.5t-10.5 141.5h-65v39h65v77h-65v39h65q2 86 12 134.5t40 78.5t76 39.5t127 9.5h16q134 0 177 -35.5t43 -134.5v-14h-78v15q0 60 -27.5 82t-114.5 22h-14q-59 0 -88 -5
t-50.5 -26t-28 -58t-7.5 -108h283v-39h-283v-77h283v-39h-283q1 -75 7 -113.5t27 -61.5t50.5 -28t89.5 -5h13q94 0 122 22.5t28 88.5v15h78z" />
    <glyph glyph-name="sterling.tab" unicode="&#xe1fd;" horiz-adv-x="620" 
d="M568 65v-65h-512v67q31 9 46 28.5t22 63.5t8 132h-82v59h82v29q0 84 5.5 135t17.5 88t37.5 53.5t59 23.5t89.5 7h18q118 0 156.5 -34t38.5 -145v-15h-75v14q0 73 -22.5 95t-98.5 22h-14q-39 0 -60.5 -4.5t-38.5 -16t-24 -40.5t-10 -68t-3 -108v-36h225v-59h-226
q-1 -83 -10 -128.5t-23 -63.5t-42 -31v-3h436z" />
    <glyph glyph-name="yen.tab" unicode="&#xe1fe;" horiz-adv-x="620" 
d="M351 211v-211h-83v211h-196v44h196v8l-57 104h-139v44h115l-150 269h88l186 -364h1l186 364h85l-151 -269h116v-44h-140l-57 -104v-8h197v-44h-197z" />
    <glyph glyph-name="grave.cap" unicode="&#xe300;" 
d="M270 772l-18 -31l-177 79l30 54z" />
    <glyph glyph-name="acute.cap" unicode="&#xe301;" 
d="M277 875l31 -54l-177 -79l-19 31z" />
    <glyph glyph-name="circumflex.cap" unicode="&#xe302;" 
d="M324 776l-28 -30l-104 73l-103 -73l-28 30l131 106z" />
    <glyph glyph-name="caron.cap" unicode="&#xe303;" 
d="M324 837l-132 -105l-131 105l28 30l103 -73l104 73z" />
    <glyph glyph-name="tilde.cap" unicode="&#xe304;" 
d="M284 857l35 -7q-8 -91 -72 -91q-27 0 -61 25q-29 20 -47 20q-31 0 -39 -46l-34 8q6 89 71 89q27 0 59 -22q31 -22 50 -22q32 0 38 46z" />
    <glyph glyph-name="dieresis.cap" unicode="&#xe305;" 
d="M144 847v-88h-69v88h69zM309 847v-88h-69v88h69z" />
    <glyph glyph-name="macron.cap" unicode="&#xe306;" 
d="M304 830v-52h-220v52h220z" />
    <glyph glyph-name="breve.cap" unicode="&#xe307;" 
d="M277 857h43q-4 -117 -126 -117q-123 0 -127 117h44q5 -38 25 -52.5t58 -14.5t58 14t25 53z" />
    <glyph glyph-name="ring.cap" unicode="&#xe308;" 
d="M197 726h-6q-55 0 -77 17t-22 58v6q0 41 22 58t77 17h6q55 0 77 -17t22 -58v-6q0 -41 -22 -58t-77 -17zM191 757h6q35 0 48 10t13 35v6q0 25 -13 34.5t-48 9.5h-6q-35 0 -48 -9.5t-13 -34.5v-6q0 -26 13 -35.5t48 -9.5z" />
    <glyph glyph-name="hungarumlaut.cap" unicode="&#xe309;" 
d="M228 844l-136 -114l-23 28l123 126zM367 844l-137 -115l-23 28l124 126z" />
    <glyph glyph-name="dotaccent.cap" unicode="&#xe30a;" 
d="M229 847v-88h-77v88h77z" />
    <glyph glyph-name="caron.alt" unicode="&#xe30b;" 
d="M229 680v-73q0 -57 -15.5 -80t-55.5 -27v35q16 4 21 15.5t5 47.5v7h-22v75h67z" />
    <glyph glyph-name="commaaccent" unicode="&#xe30c;" 
d="M221 -49v-76q0 -54 -16.5 -74.5t-65.5 -23.5v32q23 3 30 14.5t7 46.5v6h-22v75h67z" />
    <glyph glyph-name="commaaccent.alt" unicode="&#xe30d;" horiz-adv-x="385" 
d="M221 621v-75h-67v76q0 54 16.5 74.5t65.5 23.5v-32q-23 -3 -30 -14.5t-7 -46.5v-6h22z" />
    <glyph glyph-name="grave.sc" unicode="&#xe320;" 
d="M271 614l-23 -29l-158 111l38 49z" />
    <glyph glyph-name="acute.sc" unicode="&#xe321;" 
d="M298 697l-159 -111l-23 29l143 131z" />
    <glyph glyph-name="circumflex.sc" unicode="&#xe322;" 
d="M321 627l-29 -30l-100 84l-99 -84l-29 30l128 117z" />
    <glyph glyph-name="caron.sc" unicode="&#xe323;" 
d="M321 702l-128 -117l-129 117l28 29l101 -83l100 82z" />
    <glyph glyph-name="tilde.sc" unicode="&#xe324;" 
d="M284 712l35 -7q-8 -91 -72 -91q-27 0 -61 25q-29 20 -47 20q-31 0 -39 -46l-34 8q6 89 71 89q27 0 59 -22q31 -22 50 -22q32 0 38 46z" />
    <glyph glyph-name="dieresis.sc" unicode="&#xe325;" 
d="M144 711v-88h-69v88h69zM307 711v-88h-69v88h69z" />
    <glyph glyph-name="macron.sc" unicode="&#xe326;" 
d="M305 693v-52h-220v52h220z" />
    <glyph glyph-name="breve.sc" unicode="&#xe327;" 
d="M279 717h43q-4 -117 -126 -117q-123 0 -127 117h44q5 -38 25 -52.5t58 -14.5t58 14t25 53z" />
    <glyph glyph-name="ring.sc" unicode="&#xe328;" 
d="M197 589h-6q-55 0 -77 17t-22 58v6q0 41 22 58t77 17h6q55 0 77 -17t22 -58v-6q0 -41 -22 -58t-77 -17zM191 620h6q35 0 48 10t13 35v6q0 25 -13 34.5t-48 9.5h-6q-35 0 -48 -9.5t-13 -34.5v-6q0 -26 13 -35.5t48 -9.5z" />
    <glyph glyph-name="hungarumlaut.sc" unicode="&#xe329;" 
d="M186 750l39 -37l-129 -123l-25 27zM322 749l39 -37l-131 -123l-25 27z" />
    <glyph glyph-name="dotaccent.sc" unicode="&#xe32a;" 
d="M229 711v-88h-77v88h77z" />
    <glyph glyph-name="cent.tab" unicode="&#xe33c;" horiz-adv-x="620" 
d="M334 82v-120h-40v120q-112 1 -155 48.5t-43 179.5v37q0 133 42.5 179.5t155.5 47.5v106h40v-106q106 0 147 -34.5t41 -122.5v-16h-69v12q0 55 -25.5 78t-93.5 23v-370q72 0 96.5 22.5t24.5 82.5v12h69v-17q0 -89 -42 -125.5t-148 -36.5zM170 348v-39q0 -98 26.5 -131
t97.5 -34v370q-72 -1 -98 -34t-26 -132z" />
    <glyph glyph-name="uniF8FF" unicode="&#xf8ff;" horiz-adv-x="485" 
d="M263 111h-53v63h53v-63zM257 222h-46v16q0 50 11 75.5t46 55.5q28 28 37 44.5t9 35.5q0 33 -21 56.5t-51 23.5q-67 0 -77 -90l-48 8q7 66 41 98t87 32q52 0 85 -34t33 -90q0 -32 -12.5 -56.5t-47.5 -56.5q-33 -30 -39.5 -45.5t-6.5 -55.5v-17zM47 47h391v585h-391v-585z
M0 680h485v-680h-485v680z" />
    </font>
</defs>
</svg>
