<svg xmlns="http://www.w3.org/2000/svg" viewBox="0 0 32 32"><defs><style>.cls-1{fill:#231f20;}</style></defs><title>bill</title><g id="Layer_2" data-name="Layer 2"><g id="address_book"><path class="cls-1" d="M9.55,15.49a6.18,6.18,0,0,1-2.86-.75l-.55,2A7.6,7.6,0,0,0,9,17.48V19h2V17.34A3.13,3.13,0,0,0,14,14.19c0-1.56-.89-2.51-2.94-3.23-1.47-.53-2.07-.91-2.07-1.46s.37-1,1.48-1a5.37,5.37,0,0,1,2.49.6l.54-1.94A6.5,6.5,0,0,0,11,6.62V5H9V6.74a2.93,2.93,0,0,0-2.8,3c0,1.67,1.36,2.53,3.2,3.14,1.28.43,1.83.85,1.83,1.5S10.55,15.49,9.55,15.49Z"/><rect class="cls-1" x="17" y="17" width="10" height="1"/><rect class="cls-1" x="17" y="20" width="10" height="1"/><rect class="cls-1" x="17" y="23" width="10" height="1"/><rect class="cls-1" x="5" y="23" width="10" height="1"/><rect class="cls-1" x="17" y="26" width="10" height="1"/><rect class="cls-1" x="5" y="26" width="10" height="1"/><path class="cls-1" d="M31.41,8.15,23.88.59A2,2,0,0,0,22.47,0H2A2,2,0,0,0,0,2V30a2,2,0,0,0,2,2H30a2,2,0,0,0,2-2V9.59A2.27,2.27,0,0,0,31.41,8.15ZM30,30H2V2H22v8h8ZM23,9V2l7,7Z"/></g></g></svg>