<svg xmlns="http://www.w3.org/2000/svg"
     viewBox="0 0 78 78">
  <g>
    <path transform="translate(1.575, 0.42)" class="svg-circle" fill="#fff"
          d="M74.15,45.32c-.5.23-1,.45-1.48.66a36,36,0,0,0,.76-7.4h1.33A38.05,38.05,0,0,1,74.15,45.32ZM69.44,57.8q.77-.06,1.53-.15c.45-.74.82-1.53,1.22-2.3l.54-1.18.27-.6.24-.6A37.62,37.62,0,0,0,74.85,48c-.29-.35-.59-.69-.89-1-.56.23-1.12.45-1.68.65a36.32,36.32,0,0,1-2.9,7.52,35,35,0,0,1-4.49,6.69c.14.51.27,1,.4,1.57A37.48,37.48,0,0,0,69.44,57.8ZM49.59,75.21l.53-.18c.14-.47.28-.91.4-1.39l-.39-.26Q49.89,74.28,49.59,75.21Zm-46-20.84c.27-.47.55-.93.83-1.38a35.89,35.89,0,0,1-3-14.41H.09A37.42,37.42,0,0,0,3.59,54.37Zm.76,1.53c.28.57.62,1.11.93,1.67.23-.5.46-1,.69-1.46-.15-.26-.3-.54-.43-.81l-.43-.83C4.85,54.94,4.6,55.41,4.35,55.9Zm2.07,1-.28-.48-.69,1.47c.1.17.21.33.31.49l.31-.74Zm24.9,18.53.34.7.36.68a39,39,0,0,0,16.74-1.31c.29-.84.55-1.7.78-2.53l-.42-.31a36.26,36.26,0,0,1-20.61.83c-.41.36-.81.7-1.24,1,.34.09.67.2,1,.28l1,.23C30,75.19,30.64,75.29,31.32,75.41ZM6.21,59.07c.27.43.58.84.87,1.25l.44.62.48.6-.28.94A38.14,38.14,0,0,0,22,73.43l.83-.49c.62.26,1.25.5,1.87.74s1.27.44,1.91.63l1.26-1a36,36,0,0,1-21-15.72C6.62,58.06,6.42,58.56,6.21,59.07Zm53.9,9.16c0-.54,0-1.08-.1-1.61a35.58,35.58,0,0,1-4.43,3.06A33.93,33.93,0,0,1,50.73,72c.44.3.9.61,1.36.89.71-.33,1.43-.62,2.11-1l1-.53,1-.58.5-.29.49-.32,1-.63c.33-.21.64-.44,1-.67S59.81,68.48,60.11,68.23ZM62,64.91l-.31.29c.08.53.14,1.06.19,1.6l.33-.29-.09-.8ZM64.8,64c-.11-.53-.23-1.06-.37-1.58-.3.36-.63.7-1,1s-.65.68-1,1c.09.52.17,1.06.24,1.6l1.06-1ZM.09,38.58H1.42a36,36,0,0,1,.76-7.39c-.5.2-1,.42-1.47.65A38.06,38.06,0,0,0,.09,38.58ZM5.41,19.36l-1.53.15c-.45.74-.82,1.53-1.22,2.3L2.12,23l-.27.59-.24.61A40.69,40.69,0,0,0,0,29.14c.29.35.59.7.89,1q.84-.34,1.68-.66A36.24,36.24,0,0,1,5.47,22,35.1,35.1,0,0,1,10,15.31c-.14-.52-.27-1-.4-1.57A38.1,38.1,0,0,0,5.41,19.36ZM25.26,2l-.53.17c-.14.47-.27.92-.39,1.39l.38.26C24.89,3.18,25.07,2.57,25.26,2Zm46,20.83c-.27.47-.55.94-.83,1.39a35.84,35.84,0,0,1,3,14.4h1.33A37.45,37.45,0,0,0,71.26,22.79Zm-.76-1.52c-.27-.58-.62-1.12-.93-1.68-.22.5-.45,1-.69,1.46.16.27.3.54.44.82l.42.82C70,22.23,70.25,21.75,70.5,21.27Zm-2.06-1,.27.47q.36-.72.69-1.47c-.1-.16-.2-.32-.31-.48l-.31.74ZM43.53,1.75l-.34-.7L42.83.37A39.17,39.17,0,0,0,26.09,1.68c-.29.85-.55,1.7-.78,2.53l.43.32a36.17,36.17,0,0,1,20.61-.84c.4-.36.81-.69,1.23-1-.33-.09-.66-.19-1-.27l-1-.23C44.9,2,44.21,1.88,43.53,1.75ZM68.64,18.1c-.27-.44-.58-.84-.87-1.26l-.44-.62-.47-.6.27-.94A38.25,38.25,0,0,0,52.89,3.73l-.83.49-1.87-.74c-.64-.21-1.27-.44-1.91-.63-.43.34-.85.68-1.26,1A36,36,0,0,1,68,19.59C68.23,19.1,68.44,18.6,68.64,18.1ZM14.74,8.93c0,.55.06,1.09.1,1.62a33.66,33.66,0,0,1,4.44-3.06,34.42,34.42,0,0,1,4.84-2.37c-.44-.3-.9-.6-1.36-.88-.7.33-1.42.62-2.11,1l-1,.53-1,.58-.51.29-.49.31-1,.63-.95.67C15.36,8.47,15,8.69,14.74,8.93Zm-1.87,3.32.31-.29c-.07-.53-.13-1.06-.19-1.6l-.33.29.09.8Zm-2.82.95c.11.52.24,1.05.37,1.58.3-.37.63-.7,1-1s.64-.68,1-1c-.09-.53-.17-1.06-.25-1.6l-1.06,1ZM37.43,5.05a33.37,33.37,0,0,1,12.4,2.37l.47-1.17A34.61,34.61,0,0,0,37.43,3.78c-1.06,0-2.1.06-3.13.15l.12,1.25C35.41,5.09,36.41,5.05,37.43,5.05ZM26.16,7,25.73,5.8c-.64.23-1.27.47-1.89.74l.49,1.16C24.93,7.44,25.54,7.21,26.16,7ZM21.55,9,21,7.92a36.22,36.22,0,0,0-3.52,2.18l.73,1A31.75,31.75,0,0,1,21.55,9ZM6.17,26.4,5,26a34.37,34.37,0,0,0-2.09,8.3l1.24.16A33,33,0,0,1,6.17,26.4ZM69,27.12l1.19-.43a34.61,34.61,0,0,0-4.26-8.13l-1,.72A33.6,33.6,0,0,1,69,27.12ZM63,16.85l1-.81a34.71,34.71,0,0,0-7.68-6.72l-.68,1A33.71,33.71,0,0,1,63,16.85Zm-8.26-7,.65-1.08A33.26,33.26,0,0,0,51.81,6.9L51.3,8A31.7,31.7,0,0,1,54.71,9.84ZM15.47,13.23l-.82-1A34.86,34.86,0,0,0,5.39,25l1.16.49A33.57,33.57,0,0,1,15.47,13.23ZM60.74,62.69l.87.9A34.7,34.7,0,0,0,71.8,44l-1.24-.2A33.44,33.44,0,0,1,60.74,62.69Zm-7,5.19L54.37,69a33.89,33.89,0,0,0,3.38-2.15l-.74-1A33.12,33.12,0,0,1,53.76,67.88Zm18.3-32.63-1.25.12Q71,37,71,38.58c0,.73,0,1.44-.07,2.16l1.26.08c0-.74.07-1.49.07-2.24C72.22,37.46,72.17,36.35,72.06,35.25ZM3.89,38.58c0-1.07,0-2.12.15-3.17l-1.25-.12c-.1,1.09-.16,2.18-.16,3.29A34.67,34.67,0,0,0,3.76,47.4L5,47.08A33.51,33.51,0,0,1,3.89,38.58Zm13.62,27-.75,1a35.17,35.17,0,0,0,8.62,4.66l.44-1.18A33.54,33.54,0,0,1,17.51,65.56Zm33.78,3.57.52,1.14c.56-.26,1.1-.52,1.64-.8l-.58-1.11C52.35,68.63,51.83,68.88,51.29,69.13Zm-13.86,3A34,34,0,0,1,28.76,71l-.32,1.21a34.86,34.86,0,0,0,22.42-1.51l-.49-1.16A33.39,33.39,0,0,1,37.43,72.12Z"/>
  </g>
</svg>
