<svg xmlns="http://www.w3.org/2000/svg" viewBox="0 0 74.22 33.55"><path fill="#fff" d="M10.84,20.18a8,8,0,0,1,12.4-8.38c.27-.09.27-.37.36-.57A17.3,17.3,0,0,1,37.09.27a17.57,17.57,0,0,1,20,13.14,1.49,1.49,0,0,1,0,.78c-.83,2.09-1.29,4.35-2.72,6.15a9.39,9.39,0,0,1-7.64,3.89c-8.56.06-17.11.2-25.67.3a1.22,1.22,0,0,0-.7.12.6.6,0,0,0-.34.65.55.55,0,0,0,.54.4c.17,0,.33,0,.5,0L45.16,26l2.23.06a3.88,3.88,0,0,1,3.88,4.44,16.11,16.11,0,0,1-.55,2.38.8.8,0,0,1-.85.63H1.33c-1.15,0-1.25-.1-1.31-1.26a11.25,11.25,0,0,1,10.42-12ZM63,33.55H53.72c-1.44,0-1.46,0-.92-1.32a9.42,9.42,0,0,1,7.14-6,34,34,0,0,1,4.29-.34l2.37-.15c.4,0,.72-.18.71-.64s-.36-.51-.71-.54c-1.75-.1-3.49-.22-5.23-.3-3.12-.16-4.8-2.37-4-5.38.31-1.21.7-2.39,1-3.59a.79.79,0,0,1,.87-.67,14.4,14.4,0,0,1,13.37,8,14,14,0,0,1,1.3,9.69c-.24,1.2-.31,1.26-1.56,1.26Z"/></svg>
