<svg xmlns="http://www.w3.org/2000/svg" viewBox="0 0 32 32"><defs><style>.cls-1{fill:#231f20;}</style></defs><title>envelop</title><g id="Layer_2" data-name="Layer 2"><g id="address_book"><path class="cls-1" d="M31.16,10.37l-14-10a2,2,0,0,0-2.33,0l-14,10A2,2,0,0,0,0,12V30a2,2,0,0,0,2,2H30a2,2,0,0,0,2-2V12A2,2,0,0,0,31.16,10.37ZM2,13.35l9.2,6.75L2,29.29Zm23,2.43-9,6.6-9-6.6V11H25ZM12,20.7l3.69,2.7a.5.5,0,0,0,.6,0L20,20.7l9.3,9.3H2.71Zm8.79-.6L30,13.35V29.29ZM16,2,30,12v.11l-4,2.94V10H6v5.05L2,12.11V12Z"/><rect class="cls-1" x="10" y="15" width="12" height="1"/><rect class="cls-1" x="10" y="13" width="12" height="1"/></g></g></svg>