<svg xmlns="http://www.w3.org/2000/svg"
     xmlns:xlink="http://www.w3.org/1999/xlink"
     viewBox="0 0 811.74 85.2">
  <defs>
    <style>
      .letters{fill: #ffffff;}
      .flip{fill: url(#gradient);}
    </style>

    <linearGradient
      id="gradient" x1="304.52" y1="42.6" x2="386.39" y2="42.6"
      gradientTransform="matrix(-1, 0, 0, 1, 576.9, 0)"
      gradientUnits="userSpaceOnUse">
      <stop offset="0" stop-color="#0d80b9"/>
      <stop offset="0.28" stop-color="#0c7bb5"/>
      <stop offset="0.62" stop-color="#076ca9"/>
      <stop offset="0.99" stop-color="#005395"/>
      <stop offset="1" stop-color="#005294"/>
    </linearGradient>
  </defs>

  <g>
    <path class="letters"
          d="M20.87,60.06c-6.16,0-11.2-1.93-15.07-5.85a19.27,19.27,0,0,1-5.8-14A18.51,18.51,0,0,1,5.8,26.52C9.52,22.8,14.5,21,20.87,21h54.4L70.44,34.82H22.75a4.8,4.8,0,0,0-3.51,1.47,5.07,5.07,0,0,0-1.48,3.56,5.31,5.31,0,0,0,1.48,3.37A5.51,5.51,0,0,0,23,44.69H58.32c6.47,0,11.61,1.94,15.47,5.85a19.37,19.37,0,0,1,6,14.1,19.82,19.82,0,0,1-6,14.45q-6,6.12-15.47,6.11H.81L5.65,71.31h52a5.62,5.62,0,0,0,4.13-1.68,5.55,5.55,0,0,0,.05-7.89,5.17,5.17,0,0,0-3.92-1.68ZM173.5,21V85.2H156V59.3H108.91V85.2H91.41V21h17.5V45H156V21ZM344.24,21q9.61,0,15.57,6a19.39,19.39,0,0,1,6,14.2,19.92,19.92,0,0,1-6,14.4c-4,4-9.11,6.06-15.42,6.06h-4.23l26,23.61h-24L305.25,48.76h36.08a6.87,6.87,0,0,0,5.09-2,6.7,6.7,0,0,0,.06-9.47,6.6,6.6,0,0,0-5-2H302.6V85.2H284.94V21ZM417,51.1,457,85.2H432.79L396.3,54.26V85.2H378.79V21H396.3V48.61L429.43,21h24.12ZM462.56,42.35a20.38,20.38,0,0,1,6.41-15C473.3,23.11,479.1,21,486.38,21h59.8L541.44,35H490.5a10.74,10.74,0,0,0-7.38,2.7,9,9,0,0,0-2.95,7V61.08a8.84,8.84,0,0,0,3,7,11.78,11.78,0,0,0,7.69,2.65H524.4c2.85-.06,4.73-.56,5.7-1.58s1.57-2.8,1.57-5.3V59.3H509.94l4.23-12.83h35.06v20.2a16.67,16.67,0,0,1-6,13,21.72,21.72,0,0,1-14.66,5.55H486.38c-7.18,0-12.93-2.14-17.36-6.46a20.46,20.46,0,0,1-6.46-14.92ZM579.61,75.73l-5.49,9.47H554.27L592.69,21h19.44L650.56,85.2H630.25l-5.55-9.47Zm38.07-11.85L602.16,37.67,586.69,63.88ZM676.36,85.2V34.92H644.91l4.73-14H726.9l-4.74,14H693.92V85.2ZM807.67,46.32,803.29,59.4H756.06V70.9h55.68L807,85.2h-68.4V21h73.19L807,35.27H756.06v11Z"/>
    <path class="flip"
          d="M272.38,79.79s-30-29-23.68-72.06C250.39-3.77,243,1,243,1S192.21,27.69,190.51,85.2h42c5.08-15.9-20-30.11-20-30.11C228.74,51.71,272.38,79.79,272.38,79.79Z"/>
  </g>
</svg>
