<svg xmlns="http://www.w3.org/2000/svg" viewBox="0 0 33 32"><defs><style>.cls-1{fill:#231f20;}</style></defs><title>notebook</title><g id="Layer_2" data-name="Layer 2"><g id="address_book"><path class="cls-1" d="M33,2.93A2.94,2.94,0,0,0,30.07,0H5A2,2,0,0,0,3,2V8H1A1,1,0,0,0,0,9v1a1,1,0,0,0,1,1H3V21H1a1,1,0,0,0-1,1v1a1,1,0,0,0,1,1H3v6a2,2,0,0,0,2,2H28a2,2,0,0,0,2-2V24h.07A3.18,3.18,0,0,0,33,20.77v-4a2.74,2.74,0,0,0-.38-1.4,3.21,3.21,0,0,0,.38-1.5v-4a2.88,2.88,0,0,0-.38-1.43A3.07,3.07,0,0,0,33,6.94ZM28,30H5V24H7a1,1,0,0,0,1-1V22a1,1,0,0,0-1-1H5V11H7a1,1,0,0,0,1-1V9A1,1,0,0,0,7,8H5V2H28Zm3-9.23c0,.52-.42,1.23-.93,1.23H29V16h1.07c.51,0,.93.25.93.76Zm0-6.91c0,.51-.42,1.14-.93,1.14H29V9h1.07a.86.86,0,0,1,.93.85Zm0-6.92A1,1,0,0,1,30.07,8H29V2h1.07a.93.93,0,0,1,.93.93Z"/></g></g></svg>