<svg xmlns="http://www.w3.org/2000/svg" viewBox="0 0 134.97 140.26">
  <path fill="#fff"
        d="M67.48,140.26a69,69,0,0,1-26.13-5.07,67.26,67.26,0,0,1-21.44-13.87A64.8,64.8,0,0,1,5.37,100.61a63.25,63.25,0,0,1,0-51A65,65,0,0,1,19.91,28.88,10,10,0,1,1,33.76,43.31,45,45,0,0,0,23.67,57.66a43.27,43.27,0,0,0,0,34.88,44.89,44.89,0,0,0,10.09,14.35,47.5,47.5,0,0,0,15.11,9.77,49.93,49.93,0,0,0,37.23,0,47.5,47.5,0,0,0,15.11-9.77A44.93,44.93,0,0,0,111.3,92.54a43.27,43.27,0,0,0,0-34.88,45.15,45.15,0,0,0-10.09-14.35,10,10,0,0,1,13.84-14.43A65,65,0,0,1,129.6,49.6a63.25,63.25,0,0,1,0,51,64.83,64.83,0,0,1-14.55,20.71,67.22,67.22,0,0,1-21.43,13.87A69.05,69.05,0,0,1,67.48,140.26ZM67.48,74.89a10,10,0,0,1-10-10V10a10,10,0,1,1,20,0V64.89A10,10,0,0,1,67.48,74.89Z"/>
</svg>
