<?xml version="1.0" standalone="no"?>
<!DOCTYPE svg PUBLIC "-//W3C//DTD SVG 1.1//EN" "http://www.w3.org/Graphics/SVG/1.1/DTD/svg11.dtd" >
<svg xmlns="http://www.w3.org/2000/svg" xmlns:xlink="http://www.w3.org/1999/xlink" version="1.1">
<metadata></metadata>
<defs>
<font id="sairaextralight" horiz-adv-x="1232" >
<font-face units-per-em="2048" ascent="1638" descent="-410" />
<missing-glyph horiz-adv-x="462" />
<glyph unicode="&#xfb01;" horiz-adv-x="1204" d="M59 958v86h220v218q0 115 38.5 171t114.5 72.5t217 16.5v-80q-115 0 -172 -13.5t-80.5 -47t-23.5 -103.5v-234h276v-86h-276v-958h-94v958h-220zM907 1382v140h109v-140h-109zM916 0v1044h94v-1044h-94z" />
<glyph unicode="&#xfb02;" horiz-adv-x="1204" d="M59 958v86h220v218q0 115 38.5 171t114.5 72.5t217 16.5v-80q-115 0 -172 -13.5t-80.5 -47t-23.5 -103.5v-234h276v-86h-276v-958h-94v958h-220zM916 0v1522h94v-1522h-94z" />
<glyph horiz-adv-x="0" />
<glyph unicode="&#xd;" horiz-adv-x="462" />
<glyph horiz-adv-x="0" />
<glyph horiz-adv-x="0" />
<glyph unicode=" "  horiz-adv-x="462" />
<glyph unicode="&#x09;" horiz-adv-x="462" />
<glyph unicode="&#xa0;" horiz-adv-x="462" />
<glyph unicode="!" horiz-adv-x="430" d="M156 0v150h120v-150h-120zM164 1133v276h104v-276q0 -90 -8 -431l-6 -335h-76l-6 335q-8 340 -8 431z" />
<glyph unicode="&#x22;" horiz-adv-x="589" d="M133 1233v176h98v-176l-16 -309h-63zM358 1233v176h99v-176l-19 -309h-61z" />
<glyph unicode="#" horiz-adv-x="1683" d="M154 408v84h227l94 407h-246v84h265l100 426h82l-98 -426h397l98 426h84l-100 -426h221v-84h-240l-94 -407h258v-84h-278l-93 -408h-83l94 408h-398l-94 -408h-82l92 408h-206zM463 492h397l94 407h-397z" />
<glyph unicode="$" horiz-adv-x="1097" d="M158 956q0 127 40 192.5t114.5 90.5t199.5 29v157h84v-157q156 -4 287 -27v-88q-121 18 -287 27v-424l133 -15q88 -8 132 -33.5t61.5 -85t17.5 -176.5q0 -120 -34 -185.5t-106.5 -91.5t-203.5 -30v-155h-84v155q-201 6 -322 25v86q166 -20 322 -23v443l-123 12 q-92 10 -142 38t-69.5 83t-19.5 153zM254 969q0 -82 12.5 -121t42 -53.5t94.5 -20.5l109 -10v416q-90 -2 -143.5 -15.5t-84 -58.5t-30.5 -137zM596 227q104 2 156.5 21.5t72 64.5t19.5 131q0 92 -13.5 133t-40 54.5t-88.5 19.5l-106 11v-435z" />
<glyph unicode="%" horiz-adv-x="1640" d="M121 1030q0 178 16.5 256t73.5 108.5t190 30.5t189.5 -30.5t73 -107.5t16.5 -257t-16.5 -257t-72.5 -106.5t-190 -29.5q-133 0 -190 29.5t-73.5 107.5t-16.5 256zM205 1030q0 -162 12 -223.5t48 -76.5t136 -15q101 0 136.5 15t48 76.5t12.5 223.5q0 170 -10 228.5t-46 74 t-141 15.5q-100 0 -136 -15.5t-48 -77t-12 -225.5zM313 0l918 1409h98l-919 -1409h-97zM961 377q0 178 16 256t73.5 108.5t190.5 30.5t189.5 -30.5t73 -107.5t16.5 -257t-16.5 -257t-73 -106.5t-189.5 -29.5t-190.5 29.5t-73.5 107.5t-16 256zM1044 377q0 -162 12.5 -223.5 t48.5 -77t136 -15.5t136 15.5t48.5 77t12.5 223.5q0 170 -10.5 228.5t-46 73.5t-140.5 15q-100 0 -136 -15t-48.5 -76.5t-12.5 -225.5z" />
<glyph unicode="&#x26;" horiz-adv-x="1501" d="M154 377q0 113 28.5 179.5t82.5 102t145 56.5v8q-127 31 -185.5 106.5t-58.5 225.5q0 125 45 203.5t171 122.5t359 44q94 0 213 -10t205 -24v-84q-92 14 -198.5 23t-176.5 9q-229 0 -340.5 -29.5t-147.5 -90t-36 -175.5q0 -78 20.5 -138t94.5 -103t221 -43h225v-90h-225 q-152 0 -227.5 -36t-98 -98.5t-22.5 -166.5q0 -127 53 -191.5t156.5 -86t285.5 -21.5q197 0 330 20v670h340v-90h-246v-652q-35 -8 -164 -21t-260 -13q-250 0 -376.5 45t-169.5 127t-43 221z" />
<glyph unicode="'" horiz-adv-x="364" d="M133 1233v176h98v-176l-16 -309h-63z" />
<glyph unicode="(" horiz-adv-x="583" d="M180 608q0 266 25.5 417t82 251t175.5 246h82q-113 -147 -164 -236.5t-80 -246t-29 -431.5q0 -274 29 -431t80 -248t164 -236h-82q-121 147 -176.5 247.5t-81 251t-25.5 416.5z" />
<glyph unicode=")" horiz-adv-x="583" d="M41 -307q113 147 163 237t79.5 247t29.5 431t-29.5 431t-79.5 245t-163 238h80q121 -145 177 -245.5t82 -251.5t26 -417t-26 -416.5t-82 -251t-177 -247.5h-80z" />
<glyph unicode="*" horiz-adv-x="899" d="M102 883l283 149l-283 152l43 76l273 -173l-12 322h86l-13 -322l273 173l43 -76l-283 -152l283 -149l-43 -78l-271 172l11 -320h-86l12 320l-273 -172z" />
<glyph unicode="+" horiz-adv-x="1103" d="M143 475v84h367v369h82v-369h369v-84h-369v-366h-82v366h-367z" />
<glyph unicode="," horiz-adv-x="382" d="M74 -164q47 0 69.5 11.5t29.5 37t7 80.5v35h-49v150h121v-156q0 -88 -14.5 -132t-51 -61.5t-112.5 -17.5v53z" />
<glyph unicode="-" horiz-adv-x="729" d="M131 539v94h469v-94h-469z" />
<glyph unicode="." horiz-adv-x="382" d="M131 0v150h121v-150h-121z" />
<glyph unicode="/" horiz-adv-x="686" d="M-2 -113l594 1635h96l-596 -1635h-94z" />
<glyph unicode="0" horiz-adv-x="1380" d="M178 705q0 354 25.5 488t126 183t360.5 49q258 0 359.5 -49t127 -184t25.5 -487t-25.5 -487.5t-127 -184.5t-359.5 -49q-260 0 -360.5 49t-126 183t-25.5 489zM274 705q0 -334 21.5 -451t98.5 -148.5t296 -31.5t296 31.5t98.5 148.5t21.5 451t-21.5 450.5t-98.5 148 t-296 31.5t-296 -31.5t-98.5 -148.5t-21.5 -450z" />
<glyph unicode="1" horiz-adv-x="751" d="M96 1130v97l324 182h76v-1409h-99v1286z" />
<glyph unicode="2" horiz-adv-x="1245" d="M158 0v150q0 174 11 247.5t58 120.5t166 98q145 61 410 179q76 33 115.5 66.5t54 79.5t14.5 124q0 117 -31.5 173t-109.5 76.5t-238 20.5q-156 0 -422 -24v86q84 12 211 20t238 8q152 0 245 -20.5t149 -95t56 -226.5q0 -117 -23.5 -184.5t-77.5 -110.5t-157 -88l-161 -69 q-55 -25 -131 -56.5t-170 -74.5q-80 -33 -95 -94q-10 -37 -12 -75t-2 -114v-125h829v-92h-927z" />
<glyph unicode="3" horiz-adv-x="1222" d="M131 14v84q240 -25 397 -24q150 0 239 20.5t138 85t49 189.5q0 162 -70.5 231.5t-232.5 69.5h-278v90h278q123 0 205 62.5t82 221.5q0 125 -44 187.5t-133 83t-253 20.5t-369 -26v86q82 14 193.5 22t202.5 8q195 0 303 -36.5t153 -116.5t45 -217q0 -150 -60.5 -227.5 t-178.5 -102.5v-8q125 -20 190.5 -98t65.5 -242q0 -137 -40 -220t-154 -128t-327 -45q-92 0 -205.5 8t-195.5 22z" />
<glyph unicode="4" horiz-adv-x="1306" d="M106 352v82l564 975h112l-563 -967h664l10 586h86v-586h219v-90h-219v-352h-96v352h-777z" />
<glyph unicode="5" horiz-adv-x="1261" d="M180 14v84q242 -24 400 -24q178 0 267 30.5t123 100t34 203.5q0 143 -36 207.5t-129.5 87t-297.5 22.5q-109 0 -344 -31v715h802v-92h-708v-524q135 23 338 22q205 0 307 -42t135 -123t33 -228q0 -172 -43 -264t-153.5 -133t-325.5 -41q-92 0 -206 8t-196 22z" />
<glyph unicode="6" horiz-adv-x="1329" d="M178 686q0 186 8.5 301t32.5 191q33 100 96.5 153t160.5 73.5t253 20.5q168 0 399 -30v-86q-227 27 -378 26q-219 0 -314.5 -45t-127.5 -169t-32 -406h13q41 49 135 77.5t293 28.5t299 -26.5t145 -107.5t45 -253q0 -186 -36.5 -280.5t-140 -132t-314.5 -37.5 q-160 0 -254 16t-155.5 66.5t-94.5 152.5q-20 59 -26.5 167t-6.5 300zM283 465q0 -176 35.5 -257t119.5 -107.5t260 -26.5q181 0 263.5 20.5t115.5 87t33 213.5q0 162 -30.5 229.5t-110.5 86t-271 18.5q-188 0 -275 -25.5t-113.5 -79t-26.5 -159.5z" />
<glyph unicode="7" horiz-adv-x="1144" d="M90 1317v92h940v-80l-602 -1329h-109l599 1317h-828z" />
<glyph unicode="8" horiz-adv-x="1394" d="M168 377q0 119 27.5 186.5t82 100t146.5 51.5v8q-127 23 -185.5 100.5t-58.5 231.5q0 135 44 215t157 117.5t317 37.5q205 0 316.5 -37.5t155.5 -117.5t44 -215q0 -154 -58 -232t-185 -100v-8q92 -18 146 -51t82 -100.5t28 -186.5q0 -143 -40 -226t-154.5 -125 t-334.5 -42q-221 0 -335.5 42t-154.5 124.5t-40 226.5zM266 369q0 -123 39 -185.5t129 -86t264 -23.5q172 0 262.5 23.5t129 86t38.5 185.5q0 131 -35.5 193.5t-123.5 84t-271 21.5q-184 0 -273 -21.5t-124 -84t-35 -193.5zM279 1044q0 -117 35.5 -177t123.5 -84.5 t260 -24.5q170 0 259.5 24.5t124 85t34.5 176.5q0 119 -33.5 179.5t-122 86t-262.5 25.5q-176 0 -264 -25.5t-121.5 -86t-33.5 -179.5z" />
<glyph unicode="9" horiz-adv-x="1329" d="M123 975q0 186 37 280.5t140 132t314 37.5q160 0 255.5 -15t156.5 -62.5t90 -143.5q23 -76 30 -187.5t7 -293.5q0 -186 -10 -304t-39 -202q-45 -135 -160 -184t-344 -49q-78 0 -190.5 8t-208.5 22v86q221 -27 379 -26q219 0 315 45t128 169t32 406h-13 q-43 -49 -137 -77.5t-293 -28.5t-299 26.5t-145 107.5t-45 253zM221 1014q0 -162 31 -229.5t109.5 -86t269.5 -18.5q188 0 276 25.5t115 79t27 159.5q0 176 -36 257t-121 107.5t-261 26.5q-180 0 -262 -20.5t-115 -87t-33 -213.5z" />
<glyph unicode=":" horiz-adv-x="382" d="M131 0v150h121v-150h-121zM131 895v149h121v-149h-121z" />
<glyph unicode=";" horiz-adv-x="382" d="M74 -164q47 0 69.5 11.5t29.5 37t7 80.5v35h-49v150h121v-156q0 -88 -14.5 -132t-51 -61.5t-112.5 -17.5v53zM131 895v149h121v-149h-121z" />
<glyph unicode="&#x3c;" horiz-adv-x="1105" d="M145 457v121l818 366v-94l-750 -332l750 -334v-92z" />
<glyph unicode="=" horiz-adv-x="1103" d="M143 270v84h818v-84h-818zM143 682v82h818v-82h-818z" />
<glyph unicode="&#x3e;" horiz-adv-x="1105" d="M143 92v92l750 334l-750 332v94l818 -366v-121z" />
<glyph unicode="?" horiz-adv-x="1017" d="M82 1311v86q84 12 187.5 20t179.5 8q150 0 237.5 -28.5t129.5 -100t42 -204.5q0 -104 -11 -169t-50 -113t-121 -77l-49 -18q-106 -39 -144.5 -58.5t-48.5 -44t-10 -84.5v-161h-94v174q0 76 15 114.5t48 59t105 45.5l61 22q92 33 133 62.5t55.5 79t14.5 149.5 q0 117 -32 172t-100.5 72.5t-203.5 17.5q-133 0 -344 -24zM317 0v150h121v-150h-121z" />
<glyph unicode="@" horiz-adv-x="1892" d="M180 602q0 403 37 556t189.5 210t539.5 57q389 0 540.5 -56t188.5 -209.5t37 -557.5q0 -213 -23.5 -306t-73.5 -117.5t-159 -24.5h-225l-6 141h-8q-33 -94 -117 -125t-203 -31q-115 0 -182.5 21.5t-100 77t-32.5 159.5q0 100 23.5 155.5t80.5 80t162 24.5q127 0 369 -8 v70q0 125 -20.5 177t-77 67.5t-193.5 15.5q-61 0 -148.5 -6t-132.5 -15v82q137 20 313 21q150 0 222.5 -27.5t99.5 -96.5t27 -208v-508h174q63 0 93 19.5t46 99.5t16 262q0 311 -18.5 448.5t-88 203t-229.5 83.5q-133 18 -356 19q-209 0 -346 -17q-166 -18 -235.5 -82.5 t-89 -203t-19.5 -451.5q0 -319 21.5 -456.5t100.5 -202t267 -82.5q106 -12 303 -13q250 0 361 9v-74q-68 -4 -361 -4q-387 0 -539.5 57.5t-189.5 210t-37 555.5zM672 399q0 -78 18.5 -114.5t67.5 -51t151 -14.5q119 0 184.5 25.5t94.5 89t29 182.5v66h-349 q-84 0 -123.5 -12.5t-56 -50.5t-16.5 -120z" />
<glyph unicode="A" horiz-adv-x="1396" d="M76 0l569 1409h107l569 -1409h-104l-177 436h-686l-176 -436h-102zM389 528h617l-304 756h-10z" />
<glyph unicode="B" horiz-adv-x="1402" d="M227 0v1409h635q197 0 277 -91t80 -261q0 -287 -240 -332v-8q152 -25 204 -118t52 -230q0 -166 -81 -267.5t-308 -101.5h-619zM326 90h516q164 0 229.5 68.5t65.5 220.5t-70 221.5t-225 69.5h-516v-580zM326 760h510q137 0 210.5 72.5t73.5 205.5q0 150 -61.5 215.5 t-222.5 65.5h-510v-559z" />
<glyph unicode="C" horiz-adv-x="1179" d="M178 705q0 330 40 476t150.5 195t360.5 49q80 0 168 -7t147 -19v-84q-143 20 -290 20q-231 0 -325.5 -37.5t-124.5 -161.5t-30 -431t30 -431t124 -162t326 -38q162 0 299 20v-88q-62 -10 -153 -16t-171 -6q-252 0 -361.5 48t-149.5 193.5t-40 479.5z" />
<glyph unicode="D" horiz-adv-x="1415" d="M227 0v1409h426q287 0 402.5 -48t148.5 -183.5t33 -472.5q0 -338 -33 -473.5t-148.5 -183.5t-402.5 -48h-426zM326 90h290q274 0 370.5 30t125.5 145.5t29 439.5q0 322 -30 438.5t-126 146t-369 29.5h-290v-1229z" />
<glyph unicode="E" horiz-adv-x="1226" d="M227 0v1409h883v-90h-784v-561h688v-90h-688v-578h784v-90h-883z" />
<glyph unicode="F" horiz-adv-x="1148" d="M227 0v1409h842v-90h-743v-590h667v-92h-667v-637h-99z" />
<glyph unicode="G" horiz-adv-x="1392" d="M178 705q0 324 45 472t163 198t374 50q102 0 224 -11t204 -28v-83q-92 14 -194.5 23t-168.5 9q-258 0 -361.5 -30.5t-146.5 -158.5t-43 -441q0 -291 32 -417t129 -170t323 -44q74 0 175 7t165 15v539h-377v90h473v-705q-96 -16 -218 -26t-216 -10q-258 0 -376 50 t-162 197.5t-44 473.5z" />
<glyph unicode="H" horiz-adv-x="1507" d="M227 0v1409h99v-651h854v651h98v-1409h-98v666h-854v-666h-99z" />
<glyph unicode="I" horiz-adv-x="552" d="M227 0v1409h99v-1409h-99z" />
<glyph unicode="J" horiz-adv-x="677" d="M78 0v90q158 4 211 25.5t67.5 96.5t14.5 296v901h98v-860q0 -285 -20.5 -386.5t-93 -130t-277.5 -32.5z" />
<glyph unicode="K" horiz-adv-x="1361" d="M227 0v1409h99v-649h329l514 649h113l-547 -692l553 -717h-117l-516 670h-329v-670h-99z" />
<glyph unicode="L" horiz-adv-x="1097" d="M227 0v1409h99v-1317h702v-92h-801z" />
<glyph unicode="M" horiz-adv-x="1867" d="M227 0v1409h129l572 -1253h10l575 1253h125v-1409h-96v1229h-8l-561 -1229h-82l-561 1229h-8v-1229h-95z" />
<glyph unicode="N" horiz-adv-x="1507" d="M227 0v1409h99l850 -1225h8v1225h94v-1409h-94l-852 1229h-8v-1229h-97z" />
<glyph unicode="O" horiz-adv-x="1480" d="M178 705q0 346 32 484t143.5 187t385.5 49q276 0 388 -49t144 -187t32 -484t-32 -484.5t-143.5 -187.5t-388.5 -49q-274 0 -385.5 49t-143.5 187t-32 485zM274 705q0 -326 28 -448t114 -152.5t323 -30.5q238 0 324 30.5t113.5 151.5t27.5 449t-27.5 448.5t-113.5 151 t-324 30.5t-323.5 -30.5t-113.5 -152.5t-28 -447z" />
<glyph unicode="P" horiz-adv-x="1337" d="M227 0v1409h596q172 0 257 -55.5t107.5 -144.5t22.5 -230q0 -139 -23.5 -227t-108.5 -144.5t-255 -56.5h-497v-551h-99zM326 641h479q139 0 205.5 38t85 106.5t18.5 193.5q0 127 -18.5 195.5t-84 106.5t-204.5 38h-481v-678z" />
<glyph unicode="Q" horiz-adv-x="1480" d="M178 705q0 346 32 484t143.5 187t385.5 49q276 0 388 -49t144 -187t32 -484q0 -233 -11.5 -357.5t-48.5 -201t-115 -113.5l201 -264v-5h-115l-180 240q-94 -20 -295 -20q-274 0 -385.5 49t-143.5 187t-32 485zM274 705q0 -326 28 -448t114 -152.5t323 -30.5q175 0 236 8 l-275 364h113l258 -340q59 27 87 91.5t37 178t9 329.5q0 328 -27.5 448.5t-113.5 151t-324 30.5t-323.5 -30.5t-113.5 -152.5t-28 -447z" />
<glyph unicode="R" horiz-adv-x="1398" d="M227 0v1409h631q164 0 245 -55.5t102.5 -139.5t21.5 -215q0 -100 -14.5 -173.5t-64.5 -132t-151 -83.5l246 -610h-106l-236 594q-29 -2 -74 -2h-501v-592h-99zM326 682h489q139 0 208 38t88 102.5t19 176.5q0 115 -16 179.5t-78.5 102.5t-193.5 38h-516v-637z" />
<glyph unicode="S" horiz-adv-x="1296" d="M158 1049q0 158 52 238.5t155.5 109t283.5 28.5q121 0 238 -7t182 -21v-88q-82 12 -196.5 19t-210.5 7q-127 0 -205 -13t-123 -46q-47 -29 -62.5 -83t-15.5 -146q0 -100 13.5 -148.5t53 -70t128.5 -31.5l352 -37q104 -10 161.5 -23.5t97.5 -43t58 -89.5q12 -37 15.5 -83 t3.5 -132q0 -184 -54.5 -271t-146.5 -110.5t-258 -23.5q-113 0 -248 7t-233 17v92q104 -10 235 -18t217 -8q113 0 181.5 10t123.5 39q51 29 68.5 92.5t17.5 163.5q0 129 -12 178t-60 70.5t-173 34.5l-369 38q-125 12 -183.5 55.5t-72.5 109t-14 184.5z" />
<glyph unicode="T" horiz-adv-x="1189" d="M78 1317v92h1034v-92h-469v-1317h-96v1317h-469z" />
<glyph unicode="U" horiz-adv-x="1462" d="M209 606v803h96v-866q0 -209 24.5 -301t112.5 -130t291 -38q201 0 288 38t110.5 129t23.5 302v866h98v-803q0 -272 -31.5 -396t-139 -175t-349.5 -51q-244 0 -351.5 51t-140 175t-32.5 396z" />
<glyph unicode="V" horiz-adv-x="1355" d="M76 1409h104l494 -1272h10l494 1272h102l-549 -1409h-106z" />
<glyph unicode="W" horiz-adv-x="2015" d="M92 1409h105l356 -1251h12l393 1251h103l395 -1251h12l355 1251h98l-408 -1409h-104l-397 1241h-8l-398 -1241h-104z" />
<glyph unicode="X" horiz-adv-x="1378" d="M76 0l555 709l-547 700h121l479 -614h14l482 614h116l-546 -698l553 -711h-119l-488 621h-16l-487 -621h-117z" />
<glyph unicode="Y" horiz-adv-x="1230" d="M37 1409h110l461 -739h15l462 739h109l-530 -844v-565h-99v565z" />
<glyph unicode="Z" horiz-adv-x="1230" d="M119 0v86l864 1233h-842v90h965v-86l-862 -1233h878v-90h-1003z" />
<glyph unicode="[" horiz-adv-x="645" d="M227 -307v1829h336v-82l-244 -8v-1649l244 -8v-82h-336z" />
<glyph unicode="\" horiz-adv-x="686" d="M-2 1522h96l594 -1635h-94z" />
<glyph unicode="]" horiz-adv-x="645" d="M82 -225l244 8v1649l-244 8v82h336v-1829h-336v82z" />
<glyph unicode="^" horiz-adv-x="954" d="M133 909l285 625h119l284 -625h-90l-254 559l-254 -559h-90z" />
<glyph unicode="_" horiz-adv-x="704" d="M0 -250h705v-84h-705v84z" />
<glyph unicode="`" horiz-adv-x="411" d="M41 1511v11h115l215 -275v-10h-72z" />
<glyph unicode="a" horiz-adv-x="1171" d="M129 285q0 117 27.5 181t93 92t188.5 28q68 0 441 -11v87q0 150 -26 213t-94.5 81.5t-230.5 18.5q-74 0 -173 -7t-154 -18v86q147 25 364 25q176 0 261 -33t116 -113.5t31 -242.5v-672h-78l-6 164h-10q-39 -109 -140.5 -144.5t-240.5 -35.5q-133 0 -212 24.5t-118 89 t-39 187.5zM221 287q0 -92 23.5 -138.5t83 -63.5t182.5 -17q127 0 208 22.5t113 93.5q27 55 37.5 112.5t10.5 133.5v76h-414q-104 0 -154.5 -15.5t-70 -61.5t-19.5 -142z" />
<glyph unicode="b" horiz-adv-x="1216" d="M199 0v1522h94v-625h8q37 88 125 126t238 38q172 0 256 -44t115.5 -156.5t31.5 -338.5q0 -225 -31.5 -337.5t-115.5 -156.5t-256 -44q-144 0 -238 35.5t-133 144.5h-10l-7 -164h-77zM293 522q0 -115 5 -180.5t26 -122.5q27 -78 103.5 -113.5t203.5 -35.5q157 0 226 30.5 t92.5 121.5t23.5 300q0 207 -23.5 298t-92.5 122t-226 31q-127 0 -203 -35t-102 -109q-20 -59 -26.5 -126.5t-6.5 -180.5z" />
<glyph unicode="c" horiz-adv-x="937" d="M147 520q0 219 33 333t118 161t255 47q70 0 144.5 -7t125.5 -18v-84q-113 23 -250 23q-147 0 -215.5 -36t-92 -128t-23.5 -287q0 -201 23.5 -294t93 -126.5t221.5 -33.5q63 0 133.5 7t120.5 17v-86q-50 -10 -125.5 -17t-145.5 -7q-188 0 -275 52t-114 160.5t-27 323.5z " />
<glyph unicode="d" horiz-adv-x="1216" d="M147 522q0 225 32 338t116 157t258 44q150 0 238 -38t124 -126h9v625h94v-1522h-78l-8 164h-8q-39 -109 -133.5 -144.5t-237.5 -35.5q-172 0 -257 44t-117 156.5t-32 337.5zM242 522q0 -209 23.5 -300t93 -121.5t225.5 -30.5q131 0 206.5 35.5t102.5 111.5 q20 63 25.5 131t5.5 199q0 90 -5.5 152.5t-21.5 109.5q-31 88 -106.5 126t-215.5 38q-152 0 -219 -31t-90.5 -122t-23.5 -298z" />
<glyph unicode="e" horiz-adv-x="1148" d="M147 520q0 229 26 335t120 156t307 50q188 0 271 -48t105.5 -152.5t22.5 -336.5v-35h-757q0 -184 23.5 -269t100 -118.5t246.5 -33.5q80 0 177.5 8t168.5 20v-86q-59 -12 -160.5 -19t-201.5 -7q-199 0 -292 45t-125 154.5t-32 336.5zM242 569h665v37q0 168 -26.5 245 t-90 101.5t-196.5 24.5q-164 0 -234.5 -29.5t-93 -110.5t-24.5 -268z" />
<glyph unicode="f" horiz-adv-x="716" d="M59 958v86h220v218q0 115 38.5 171t114.5 72.5t217 16.5v-80q-115 0 -172 -13.5t-80.5 -47t-23.5 -103.5v-234h276v-86h-276v-958h-94v958h-220z" />
<glyph unicode="g" horiz-adv-x="1216" d="M147 522q0 225 32 338t117 157t257 44q143 0 237.5 -37t133.5 -143h8l8 163h78v-901q0 -227 -32 -343.5t-126 -169t-291 -52.5q-236 0 -379 16v84q158 -14 363 -14q168 0 244.5 38t101.5 130t25 285v30h-9q-35 -86 -124 -123.5t-238 -37.5q-174 0 -258 44t-116 155.5 t-32 336.5zM242 522q0 -207 23.5 -298t93 -121.5t225.5 -30.5q131 0 205.5 35.5t103.5 115.5q20 55 25.5 122t5.5 177q0 115 -4.5 176.5t-20.5 110.5q-31 88 -107.5 127t-207.5 39q-156 0 -224.5 -32t-93 -123t-24.5 -298z" />
<glyph unicode="h" d="M199 0v1522h94v-627h8q29 72 108.5 119t249.5 47q162 0 242 -40t106.5 -124t26.5 -242v-655h-94v633q0 154 -22.5 223.5t-85 93t-201.5 23.5q-158 0 -231.5 -53.5t-90 -138.5t-16.5 -240v-541h-94z" />
<glyph unicode="i" horiz-adv-x="489" d="M190 1382v140h109v-140h-109zM199 0v1044h94v-1044h-94z" />
<glyph unicode="j" horiz-adv-x="489" d="M-8 -330q94 0 137 10.5t56.5 33t13.5 71.5v1259h94v-1234q0 -100 -31 -147.5t-90 -60t-180 -12.5v80zM190 1382v140h109v-140h-109z" />
<glyph unicode="k" horiz-adv-x="1071" d="M199 0v1522h94v-947h164l420 469h112l-457 -507l463 -537h-118l-420 487h-164v-487h-94z" />
<glyph unicode="l" horiz-adv-x="489" d="M199 0v1522h94v-1522h-94z" />
<glyph unicode="m" horiz-adv-x="1820" d="M199 0v1044h77l7 -163h10q27 84 100.5 132t227.5 48q150 0 221 -42t96 -138h12q27 82 103.5 131t232.5 49q143 0 216 -40t97.5 -125t24.5 -241v-655h-94v633q0 154 -19.5 223.5t-74 93t-176.5 23.5q-143 0 -207 -50.5t-79.5 -133t-15.5 -248.5v-541h-94v633 q0 154 -19.5 223.5t-73.5 93t-177 23.5q-141 0 -205.5 -53.5t-80 -138.5t-15.5 -240v-541h-94z" />
<glyph unicode="n" d="M199 0v1044h77l7 -163h10q31 84 111.5 132t254.5 48q162 0 242 -40t106.5 -124t26.5 -242v-655h-94v633q0 154 -22.5 223.5t-85 93t-201.5 23.5q-158 0 -231.5 -53.5t-90 -138.5t-16.5 -240v-541h-94z" />
<glyph unicode="o" horiz-adv-x="1185" d="M147 520q0 244 26 349.5t117 148.5t302 43q213 0 303 -43t115.5 -147.5t25.5 -350.5q0 -244 -25.5 -348t-115.5 -146t-303 -42t-303 42t-116 146t-26 348zM242 520q0 -221 16 -304t86 -114.5t248 -31.5t247.5 31.5t86 114.5t16.5 304t-16.5 305t-86 117t-247.5 33 t-248 -33t-86 -117t-16 -305z" />
<glyph unicode="p" horiz-adv-x="1216" d="M199 -410v1454h77l7 -163h10q39 109 133 144.5t238 35.5q172 0 256 -44t115.5 -156.5t31.5 -338.5q0 -225 -31.5 -337.5t-115.5 -156.5t-256 -44q-150 0 -238 37.5t-125 125.5h-8v-557h-94zM293 522q0 -109 4 -172t18 -106q33 -94 108 -133t208 -39q157 0 226 30.5 t92.5 121.5t23.5 298t-23.5 298t-92.5 123t-226 32q-131 0 -207 -38t-102 -120q-18 -53 -23.5 -116.5t-5.5 -178.5z" />
<glyph unicode="q" horiz-adv-x="1216" d="M147 522q0 225 32 338t117 157t257 44q143 0 237.5 -36t133.5 -144h8l8 163h78v-1454h-94v557h-9q-37 -88 -125 -125.5t-237 -37.5q-174 0 -258 44t-116 156.5t-32 337.5zM242 522q0 -207 23.5 -298t93 -121.5t225.5 -30.5q133 0 207.5 37.5t105.5 123.5q16 49 21.5 115 t5.5 174q0 115 -5.5 180.5t-27.5 126.5q-27 74 -102.5 110t-204.5 36q-156 0 -224.5 -32t-93 -123t-24.5 -298z" />
<glyph unicode="r" horiz-adv-x="710" d="M199 0v1044h75l9 -217h10q33 133 123 183.5t233 50.5v-96q-143 0 -221 -50.5t-106.5 -146.5t-28.5 -252v-516h-94z" />
<glyph unicode="s" horiz-adv-x="1021" d="M129 762q0 133 44 196.5t126 83t227 19.5q74 0 161 -7t149 -20v-84q-156 25 -336 25q-100 0 -156.5 -11.5t-89.5 -54.5t-33 -135q0 -78 13.5 -113.5t44 -50t96.5 -20.5l289 -29q98 -10 144 -32.5t65.5 -79t19.5 -173.5q0 -121 -38 -183t-117 -85.5t-218 -23.5 q-82 0 -183 6t-175 16v86q129 -14 202.5 -18t176.5 -4q113 0 168 20.5t73.5 62.5t18.5 123q0 86 -13.5 125t-42 51.5t-96.5 18.5l-295 29q-92 10 -140 37.5t-66.5 80t-18.5 144.5z" />
<glyph unicode="t" horiz-adv-x="688" d="M59 958v86h220v304h94v-304h254v-86h-254v-958h-94v958h-220z" />
<glyph unicode="u" d="M199 389v655h94v-632q0 -154 22.5 -223.5t85 -93t201.5 -23.5q158 0 231.5 53t90 138t16.5 241v540h94v-1044h-78l-6 164h-10q-31 -84 -111.5 -132t-255.5 -48q-162 0 -241.5 39.5t-106 123.5t-26.5 242z" />
<glyph unicode="v" horiz-adv-x="1069" d="M68 1044h100l362 -925h13l360 925h98l-413 -1044h-105z" />
<glyph unicode="w" horiz-adv-x="1648" d="M76 1044h100l303 -905h13l286 905h96l289 -905h13l299 905h98l-356 -1044h-101l-287 881h-12l-285 -881h-100z" />
<glyph unicode="x" horiz-adv-x="1103" d="M78 0l414 530l-402 514h117l340 -434h10l342 434h113l-402 -512l416 -532h-117l-354 453h-10l-357 -453h-110z" />
<glyph unicode="y" d="M199 391v653h94v-630q0 -156 22.5 -225.5t85 -93t201.5 -23.5q158 0 231.5 53t90 138t16.5 243v538h94v-909q0 -219 -33.5 -335.5t-130 -169t-290.5 -52.5q-202 0 -349 14v86q164 -14 332 -14q170 0 250 43t103.5 129t23.5 258v56h-8q-59 -164 -359 -164 q-162 0 -241.5 40t-106 123.5t-26.5 241.5z" />
<glyph unicode="z" horiz-adv-x="1019" d="M111 0v76l669 882h-645v86h770v-75l-667 -883h671v-86h-798z" />
<glyph unicode="{" horiz-adv-x="624" d="M59 573v68q119 0 170.5 77t51.5 187v236q0 121 64.5 228.5t150.5 152.5h88q-86 -53 -148.5 -154.5t-62.5 -204.5v-248q0 -256 -180 -303v-10q180 -47 180 -303v-248q0 -102 62.5 -203.5t148.5 -154.5h-88q-86 45 -150.5 152.5t-64.5 228.5v235q0 111 -51.5 187.5 t-170.5 76.5z" />
<glyph unicode="|" horiz-adv-x="548" d="M229 -330v1852h90v-1852h-90z" />
<glyph unicode="}" horiz-adv-x="624" d="M41 -307q86 53 149.5 154.5t63.5 203.5v248q0 256 180 303v10q-180 47 -180 303v248q0 102 -63.5 203.5t-149.5 155.5h88q86 -45 150.5 -152.5t64.5 -228.5v-236q0 -111 51 -187.5t170 -76.5v-68q-119 0 -170 -76.5t-51 -187.5v-235q0 -121 -64.5 -228.5t-150.5 -152.5 h-88z" />
<glyph unicode="~" horiz-adv-x="1015" d="M154 506q0 117 24.5 161t106.5 44q53 0 104 -13.5t141 -42.5q63 -23 109.5 -34t89.5 -11q45 0 57.5 26t12.5 97h65q0 -117 -25.5 -161t-107.5 -44q-55 0 -109.5 13.5t-138.5 42.5q-66 23 -109.5 34t-84.5 11q-45 0 -58.5 -27t-13.5 -96h-63z" />
<glyph unicode="&#xa1;" horiz-adv-x="425" d="M154 895v149h120v-149h-120zM160 -88q0 84 4 271.5t6 285.5l6 209h74l6 -209q2 -98 6 -285.5t4 -271.5v-277h-106v277z" />
<glyph unicode="&#xa2;" horiz-adv-x="956" d="M150 700q0 229 34.5 348t113.5 167.5t226 52.5v157h84v-157q137 -8 226 -27v-88q-41 10 -102.5 17.5t-123.5 7.5v-951q59 2 126 10.5t110 18.5v-92q-92 -20 -236 -25v-155h-84v157q-162 6 -240.5 57.5t-106 165t-27.5 336.5zM248 705q0 -199 21.5 -295.5t77.5 -135 t177 -45.5v947q-119 -6 -176 -45t-78.5 -135.5t-21.5 -290.5z" />
<glyph unicode="&#xa3;" horiz-adv-x="1191" d="M119 0v90h151v596h-151v92h151q0 274 38 407.5t143.5 186.5t324.5 53q80 0 162 -7t129 -19v-86q-59 10 -133 16t-121 6q-123 0 -197.5 -10t-123.5 -37q-76 -45 -99.5 -169t-23.5 -341h544v-92h-544v-596h723v-90h-973z" />
<glyph unicode="&#xa4;" horiz-adv-x="1538" d="M147 27l236 233q-37 59 -48 157.5t-11 284.5q0 184 11 283.5t46 159.5l-234 231l60 60l231 -230q47 35 125 48.5t205 13.5q129 0 207 -14.5t123 -49.5l233 232l58 -58l-234 -231q35 -59 46 -159.5t11 -285.5q0 -184 -11 -283.5t-46 -158.5l236 -233l-60 -60l-233 234 q-47 -33 -126 -46.5t-204 -13.5q-127 0 -205 13.5t-123 48.5l-235 -234zM418 702q0 -233 16.5 -320t86 -121t247.5 -34t247.5 34t86 121t16.5 320t-16.5 321.5t-86 123.5t-247.5 35t-247.5 -35t-86 -123t-16.5 -322z" />
<glyph unicode="&#xa5;" horiz-adv-x="1267" d="M78 1409h108l277 -491h344l278 491h105l-285 -491h211v-82h-258l-135 -232h393v-82h-434v-522h-98v522h-434v82h393l-133 232h-260v82h212zM510 836l117 -209h14l119 209h-250z" />
<glyph unicode="&#xa6;" horiz-adv-x="548" d="M229 -330v723h90v-723h-90zM229 799v723h90v-723h-90z" />
<glyph unicode="&#xa7;" horiz-adv-x="1427" d="M137 580q0 143 44 238t179 102q-27 39 -34 86t-7 122q0 119 49.5 183.5t144.5 89t249 24.5q92 0 188.5 -7t153.5 -15v-88q-164 20 -320 20q-139 0 -212.5 -11t-114.5 -54t-41 -135q0 -86 14 -128t54 -67t126 -47l355 -98q129 -35 196.5 -68t98 -86t30.5 -145 q0 -143 -45 -239.5t-178 -100.5q27 -39 34 -87.5t7 -121.5q0 -119 -49 -183.5t-143.5 -89t-247.5 -24.5q-93 0 -190 7t-154 15v88q164 -20 319 -20q139 0 213 11t115 54t41 136q0 84 -12.5 127t-43 65.5t-94.5 38.5l-375 102q-143 37 -214.5 71t-103.5 87t-32 148zM233 608 q0 -74 11.5 -111.5t40 -59t90.5 -38.5l522 -141l45 -12q12 -4 43 -11.5t51 -7.5q160 0 160 238q0 104 -23.5 144t-95.5 59l-540 145q-18 4 -68.5 18.5t-75.5 14.5q-80 0 -120 -57.5t-40 -180.5z" />
<glyph unicode="&#xa8;" horiz-adv-x="559" d="M41 1362v135h104v-135h-104zM414 1362v135h104v-135h-104z" />
<glyph unicode="&#xa9;" horiz-adv-x="1484" d="M182 705q0 358 28 491t137.5 181t393.5 48q285 0 395.5 -48t138.5 -181t28 -491t-28 -491.5t-138.5 -181.5t-395.5 -48q-284 0 -393.5 48t-137.5 181t-28 492zM248 705q0 -340 24.5 -462t118.5 -160t350 -38q258 0 352.5 38t119 160t24.5 462t-24.5 461.5t-119 159.5 t-352.5 38q-256 0 -350 -38t-118.5 -160t-24.5 -461zM489 705q0 178 21.5 256.5t82 105.5t195.5 27q119 0 177 -15v-67q-72 10 -164 10q-115 0 -161 -19.5t-61.5 -82t-15.5 -215.5q0 -156 15.5 -218.5t61.5 -82t161 -19.5q100 0 168 10v-69q-76 -10 -181 -11 q-137 0 -196.5 27t-81 104.5t-21.5 258.5z" />
<glyph unicode="&#xaa;" horiz-adv-x="825" d="M90 866q0 86 19.5 133.5t67.5 66.5t140 19l306 -6v56q0 102 -17.5 145t-65.5 56.5t-161 13.5q-55 0 -127 -5.5t-113 -13.5v76q92 18 267 18q129 0 191 -23.5t85 -82.5t23 -178v-486h-70l-10 88h-11q-35 -61 -99 -78.5t-159 -17.5q-98 0 -154.5 17.5t-84 64.5t-27.5 137z M168 868q0 -63 17.5 -95t58.5 -44t123 -12q92 0 150 16.5t79 69.5q27 61 27 164v47h-287q-70 0 -104.5 -10.5t-49 -41t-14.5 -94.5z" />
<glyph unicode="&#xab;" horiz-adv-x="940" d="M117 623l270 421h76l-242 -421l242 -420h-76zM434 623l271 421h75l-239 -421l239 -420h-75z" />
<glyph unicode="&#xac;" horiz-adv-x="1101" d="M143 477v88h815v-456h-84v368h-731z" />
<glyph unicode="&#xad;" horiz-adv-x="729" d="M131 539v94h469v-94h-469z" />
<glyph unicode="&#xae;" horiz-adv-x="1484" d="M182 705q0 358 28 491t137.5 181t393.5 48q285 0 395.5 -48t138.5 -181t28 -491t-28 -491.5t-138.5 -181.5t-395.5 -48t-394 48t-137 181t-28 492zM248 705q0 -340 24.5 -462t118.5 -160t350 -38q258 0 352.5 38t119 160t24.5 462t-24.5 461.5t-119 159.5t-352.5 38 q-256 0 -350 -38t-118.5 -160t-24.5 -461zM479 322v761h338q92 0 138 -30.5t58.5 -77.5t12.5 -117q0 -80 -23.5 -135t-91.5 -78l131 -323h-86l-118 313q-14 -2 -43 -2h-240v-311h-76zM555 702h240q70 0 103.5 18.5t42.5 50.5t9 87t-8 86t-39 49.5t-94 18.5h-254v-310z" />
<glyph unicode="&#xaf;" horiz-adv-x="729" d="M131 1425v95h469v-95h-469z" />
<glyph unicode="&#xb0;" horiz-adv-x="790" d="M139 1118q0 135 15.5 196.5t67.5 86t173 24.5t173.5 -24.5t66.5 -85t14 -197.5t-14 -196.5t-66.5 -84t-173.5 -24.5t-173 24.5t-67.5 85t-15.5 195.5zM221 1118q0 -113 8.5 -155.5t43 -60t122.5 -17.5t123 17.5t43 60.5t8 155q0 113 -8 157t-43 61.5t-123 17.5 t-122.5 -17.5t-43 -61.5t-8.5 -157z" />
<glyph unicode="&#xb1;" horiz-adv-x="1103" d="M143 0v84h818v-84h-818zM143 745v84h367v367h82v-367h369v-84h-369v-368h-82v368h-367z" />
<glyph unicode="&#xb2;" horiz-adv-x="722" d="M104 653v86q0 96 5.5 135t28 64t79.5 49l229 98q53 23 71 51.5t18 84.5q0 53 -15.5 78.5t-52.5 34.5t-111 9q-57 0 -237 -16v80q119 18 250 18q84 0 135 -11t82.5 -53t31.5 -130q0 -94 -30.5 -137t-112.5 -80l-233 -101q-41 -18 -50.5 -41.5t-9.5 -95.5v-41h436v-82h-514 z" />
<glyph unicode="&#xb3;" horiz-adv-x="702" d="M80 655v76q176 -16 225 -16q106 0 155.5 26.5t49.5 110.5q0 80 -32 113.5t-107 33.5h-160v74h160q131 0 131 135q0 82 -46 108.5t-161 26.5q-88 0 -211 -14v78q125 18 225 18q156 0 216.5 -48t60.5 -163q0 -121 -94 -170v-8q104 -49 104 -178q0 -78 -22.5 -125t-85 -72.5 t-181.5 -25.5q-88 0 -227 20z" />
<glyph unicode="&#xb4;" horiz-adv-x="411" d="M41 1237v10l215 275h115v-11l-258 -274h-72z" />
<glyph unicode="&#xb5;" horiz-adv-x="1230" d="M199 -389v1433h94v-632q0 -154 22.5 -223.5t85 -93t201.5 -23.5q158 0 231.5 53t90 138t16.5 241v540h94v-1044h-78l-6 164h-10q-31 -84 -111.5 -132t-255.5 -48q-102 0 -169.5 19.5t-110.5 64.5v-457h-94z" />
<glyph unicode="&#xb6;" horiz-adv-x="1155" d="M147 930q0 229 27 320t127 125t346 34h86v-1704h-86v750q-248 0 -347 32.5t-126 122.5t-27 320zM868 -295v1704h86v-1704h-86z" />
<glyph unicode="&#xb7;" horiz-adv-x="382" d="M131 539v149h121v-149h-121z" />
<glyph unicode="&#xb8;" horiz-adv-x="272" d="M41 -379l123 395h67v-10l-88 -395h-102v10z" />
<glyph unicode="&#xb9;" horiz-adv-x="456" d="M66 1223v84l180 102h61v-756h-82v652z" />
<glyph unicode="&#xba;" horiz-adv-x="849" d="M100 1032q0 176 18.5 253t85 108.5t222.5 31.5q154 0 220.5 -31.5t85 -108.5t18.5 -253t-18.5 -251.5t-84 -105.5t-221.5 -30t-222.5 30t-85 105.5t-18.5 251.5zM184 1032q0 -154 11.5 -211t59.5 -80.5t171 -23.5q121 0 169 23.5t59.5 81t11.5 210.5q0 154 -11.5 212.5 t-59.5 82t-169 23.5q-123 0 -171 -23.5t-59.5 -82t-11.5 -212.5z" />
<glyph unicode="&#xbb;" horiz-adv-x="940" d="M158 203l241 420l-241 421h78l270 -421l-270 -420h-78zM477 203l240 420l-240 421h76l270 -421l-270 -420h-76z" />
<glyph unicode="&#xbc;" horiz-adv-x="1398" d="M66 1223v84l180 102h61v-756h-82v652zM131 0l918 1409h98l-920 -1409h-96zM672 172v66l297 518h90l-291 -504h315l7 303h77v-303h113v-80h-113v-172h-86v172h-409z" />
<glyph unicode="&#xbd;" horiz-adv-x="1591" d="M66 1223v84l180 102h61v-756h-82v652zM131 0l918 1409h98l-920 -1409h-96zM920 0v84q0 96 5 136t27.5 64.5t79.5 49.5q162 70 230 96q53 25 70.5 52.5t17.5 84.5q0 53 -15.5 79t-52.5 35t-111 9q-55 0 -239 -16v80q147 18 252 18q84 0 135 -12t83 -54t32 -128 q0 -94 -31 -138.5t-115 -81.5l-235 -102q-39 -16 -47.5 -41t-8.5 -92v-41h437v-82h-514z" />
<glyph unicode="&#xbe;" horiz-adv-x="1619" d="M119 655v76q174 -16 223 -16q106 0 155.5 26.5t49.5 110.5q0 80 -32 113.5t-105 33.5h-162v74h162q129 0 129 135q0 82 -46.5 108.5t-160.5 26.5q-90 0 -209 -14v78q121 18 223 18q158 0 218.5 -48t60.5 -163q0 -121 -97 -170v-8q104 -47 105 -178q0 -78 -22.5 -125 t-85 -72.5t-181.5 -25.5q-90 0 -225 20zM365 0l917 1409h98l-919 -1409h-96zM893 172v66l297 518h90l-291 -504h318l6 303h78v-303h112v-80h-112v-172h-86v172h-412z" />
<glyph unicode="&#xbf;" horiz-adv-x="876" d="M139 -47q0 104 11.5 168.5t51.5 114t124 77.5l108 39q74 27 99.5 42.5t33.5 39t8 82.5v162h93v-174q0 -76 -14.5 -115t-47.5 -59.5t-102 -44.5l-55 -21q-96 -33 -138.5 -62.5t-57.5 -79.5t-15 -151q0 -117 30.5 -172t99 -72.5t203.5 -17.5t347 25v-86 q-86 -12 -189.5 -20.5t-177.5 -8.5q-152 0 -239 28.5t-130 100.5t-43 205zM561 895v149h121v-149h-121z" />
<glyph unicode="&#xc0;" horiz-adv-x="1396" d="M76 0l569 1409h107l569 -1409h-104l-177 436h-686l-176 -436h-102zM389 528h617l-304 756h-10zM430 1810v11h115l215 -275v-10h-72z" />
<glyph unicode="&#xc1;" horiz-adv-x="1396" d="M76 0l569 1409h107l569 -1409h-104l-177 436h-686l-176 -436h-102zM389 528h617l-304 756h-10zM635 1536v10l215 275h115v-11l-258 -274h-72z" />
<glyph unicode="&#xc2;" horiz-adv-x="1396" d="M76 0l569 1409h107l569 -1409h-104l-177 436h-686l-176 -436h-102zM389 528h617l-304 756h-10zM424 1536v10l217 275h113l217 -275v-10h-70l-205 215l-202 -215h-70z" />
<glyph unicode="&#xc3;" horiz-adv-x="1396" d="M76 0l569 1409h107l569 -1409h-104l-177 436h-686l-176 -436h-102zM344 1536q0 117 25.5 161t107.5 44q55 0 110.5 -14.5t133.5 -40.5q10 -4 53 -17.5t80 -20.5t65 -7q45 0 57.5 25.5t12.5 97.5h66q0 -117 -26 -161t-108 -44q-53 0 -102 12t-141 43q-63 23 -109.5 34 t-89.5 11t-56.5 -25.5t-13.5 -97.5h-65zM389 528h617l-304 756h-10z" />
<glyph unicode="&#xc4;" horiz-adv-x="1396" d="M76 0l569 1409h107l569 -1409h-104l-177 436h-686l-176 -436h-102zM389 528h617l-304 756h-10zM461 1579v135h104v-135h-104zM834 1579v135h104v-135h-104z" />
<glyph unicode="&#xc5;" horiz-adv-x="1396" d="M76 0l547 1358q-74 6 -109 27.5t-44 58.5t-9 110q0 82 13 122t63.5 58.5t160.5 18.5q111 0 161 -18.5t63.5 -58.5t13.5 -122q0 -74 -9 -110.5t-43 -58t-110 -27.5l547 -1358h-104l-177 436h-686l-176 -436h-102zM389 528h617l-304 756h-10zM539 1554q0 -61 8 -85.5 t41 -36t110 -11.5q78 0 111 11.5t41 36t8 85.5q0 59 -8 85t-41 37.5t-111 11.5t-110.5 -11.5t-40.5 -37t-8 -85.5z" />
<glyph unicode="&#xc6;" horiz-adv-x="1941" d="M-4 0l715 1409h1114v-90h-979l170 -561h713v-90h-689l174 -578h611v-90h-688l-129 436h-689l-221 -436h-102zM362 528h619l-223 756h-10z" />
<glyph unicode="&#xc7;" horiz-adv-x="1177" d="M178 705q0 328 40 474t150.5 195t360.5 49q80 0 168 -7t145 -19v-84q-139 20 -288 20q-231 0 -325.5 -38t-124.5 -161.5t-30 -428.5q0 -307 30 -431t124 -162t326 -38q164 0 297 20v-88q-61 -10 -151.5 -16t-170.5 -6q-72 0 -104 2l-84 -375h-103v10l115 369 q-162 14 -239.5 76.5t-106.5 206t-29 432.5z" />
<glyph unicode="&#xc8;" horiz-adv-x="1226" d="M227 0v1409h883v-90h-784v-561h688v-90h-688v-578h784v-90h-883zM408 1810v11h115l215 -275v-10h-72z" />
<glyph unicode="&#xc9;" horiz-adv-x="1226" d="M227 0v1409h883v-90h-784v-561h688v-90h-688v-578h784v-90h-883zM608 1536v10l215 275h115v-11l-258 -274h-72z" />
<glyph unicode="&#xca;" horiz-adv-x="1226" d="M227 0v1409h883v-90h-784v-561h688v-90h-688v-578h784v-90h-883zM406 1536v10l217 275h113l217 -275v-10h-70l-205 215l-202 -215h-70z" />
<glyph unicode="&#xcb;" horiz-adv-x="1226" d="M227 0v1409h883v-90h-784v-561h688v-90h-688v-578h784v-90h-883zM447 1579v135h104v-135h-104zM820 1579v135h104v-135h-104z" />
<glyph unicode="&#xcc;" horiz-adv-x="552" d="M14 1810v11h115l215 -275v-10h-72zM227 0v1409h99v-1409h-99z" />
<glyph unicode="&#xcd;" horiz-adv-x="552" d="M215 1536v10l215 275h115v-11l-258 -274h-72zM227 0v1409h99v-1409h-99z" />
<glyph unicode="&#xce;" horiz-adv-x="552" d="M4 1536v10l217 275h113l217 -275v-10h-70l-205 215l-202 -215h-70zM227 0v1409h99v-1409h-99z" />
<glyph unicode="&#xcf;" horiz-adv-x="552" d="M37 1577v135h104v-135h-104zM227 0v1409h99v-1409h-99zM410 1577v135h104v-135h-104z" />
<glyph unicode="&#xd0;" horiz-adv-x="1415" d="M86 668v92h141v649h426q287 0 402.5 -48t148.5 -183.5t33 -472.5q0 -338 -33 -473.5t-148.5 -183.5t-402.5 -48h-426v668h-141zM326 90h290q275 0 371 30t125 145.5t29 439.5q0 322 -30 438.5t-126 146t-369 29.5h-290v-559h254v-92h-254v-578z" />
<glyph unicode="&#xd1;" horiz-adv-x="1507" d="M227 0v1409h99l850 -1225h8v1225h94v-1409h-94l-852 1229h-8v-1229h-97zM406 1536q0 117 25.5 161t107.5 44q55 0 110.5 -14.5t133.5 -40.5q10 -4 53 -17.5t80 -20.5t65 -7q45 0 57.5 25.5t12.5 97.5h66q0 -117 -26 -161t-108 -44q-53 0 -102 12t-141 43 q-63 23 -109.5 34t-89.5 11t-56.5 -25.5t-13.5 -97.5h-65z" />
<glyph unicode="&#xd2;" horiz-adv-x="1480" d="M178 705q0 346 32 484t143.5 187t385.5 49q276 0 388 -49t144 -187t32 -484t-32 -484.5t-143.5 -187.5t-388.5 -49q-274 0 -385.5 49t-143.5 187t-32 485zM274 705q0 -326 28 -448t114 -152.5t323 -30.5q238 0 324 30.5t113.5 151.5t27.5 449t-27.5 448.5t-113.5 151 t-324 30.5t-323.5 -30.5t-113.5 -152.5t-28 -447zM455 1810v11h115l215 -275v-10h-72z" />
<glyph unicode="&#xd3;" horiz-adv-x="1480" d="M178 705q0 346 32 484t143.5 187t385.5 49q276 0 388 -49t144 -187t32 -484t-32 -484.5t-143.5 -187.5t-388.5 -49q-274 0 -385.5 49t-143.5 187t-32 485zM274 705q0 -326 28 -448t114 -152.5t323 -30.5q238 0 324 30.5t113.5 151.5t27.5 449t-27.5 448.5t-113.5 151 t-324 30.5t-323.5 -30.5t-113.5 -152.5t-28 -447zM684 1536v10l215 275h115v-11l-258 -274h-72z" />
<glyph unicode="&#xd4;" horiz-adv-x="1480" d="M178 705q0 346 32 484t143.5 187t385.5 49q276 0 388 -49t144 -187t32 -484t-32 -484.5t-143.5 -187.5t-388.5 -49q-274 0 -385.5 49t-143.5 187t-32 485zM274 705q0 -326 28 -448t114 -152.5t323 -30.5q238 0 324 30.5t113.5 151.5t27.5 449t-27.5 448.5t-113.5 151 t-324 30.5t-323.5 -30.5t-113.5 -152.5t-28 -447zM467 1536v10l217 275h113l217 -275v-10h-70l-205 215l-202 -215h-70z" />
<glyph unicode="&#xd5;" horiz-adv-x="1480" d="M178 705q0 346 32 484t143.5 187t385.5 49q276 0 388 -49t144 -187t32 -484t-32 -484.5t-143.5 -187.5t-388.5 -49q-274 0 -385.5 49t-143.5 187t-32 485zM274 705q0 -326 28 -448t114 -152.5t323 -30.5q238 0 324 30.5t113.5 151.5t27.5 449t-27.5 448.5t-113.5 151 t-324 30.5t-323.5 -30.5t-113.5 -152.5t-28 -447zM385 1536q0 117 25.5 161t107.5 44q55 0 110.5 -14.5t133.5 -40.5q10 -4 53 -17.5t80 -20.5t65 -7q45 0 57.5 25.5t12.5 97.5h66q0 -117 -26 -161t-108 -44q-53 0 -102 12t-141 43q-63 23 -109.5 34t-89.5 11t-56.5 -25.5 t-13.5 -97.5h-65z" />
<glyph unicode="&#xd6;" horiz-adv-x="1480" d="M178 705q0 346 32 484t143.5 187t385.5 49q276 0 388 -49t144 -187t32 -484t-32 -484.5t-143.5 -187.5t-388.5 -49q-274 0 -385.5 49t-143.5 187t-32 485zM274 705q0 -326 28 -448t114 -152.5t323 -30.5q238 0 324 30.5t113.5 151.5t27.5 449t-27.5 448.5t-113.5 151 t-324 30.5t-323.5 -30.5t-113.5 -152.5t-28 -447zM502 1579v135h104v-135h-104zM875 1579v135h104v-135h-104z" />
<glyph unicode="&#xd7;" horiz-adv-x="962" d="M143 238l281 278l-281 281l58 59l280 -281l283 281l57 -57l-282 -281l282 -280l-59 -62l-281 283l-280 -281z" />
<glyph unicode="&#xd8;" horiz-adv-x="1480" d="M178 -113l115 185q-51 43 -75.5 120.5t-32 193.5t-7.5 319q0 346 32 484t143.5 187t385.5 49q137 0 228.5 -10t150.5 -35l88 142h97l-115 -185q51 -45 75.5 -122.5t32 -193.5t7.5 -316q0 -346 -32 -484.5t-143.5 -187.5t-388.5 -49q-137 0 -227 10t-150 35l-90 -142h-94z M274 705q0 -250 14.5 -371t59.5 -178l719 1147q-47 20 -118.5 26t-209.5 6q-238 0 -323.5 -30.5t-113.5 -152.5t-28 -447zM412 106q47 -20 119.5 -26t207.5 -6q238 0 324 30.5t113.5 151.5t27.5 449q0 254 -13 371.5t-58 174.5z" />
<glyph unicode="&#xd9;" horiz-adv-x="1462" d="M209 606v803h96v-866q0 -209 24.5 -301t112.5 -130t291 -38q201 0 288 38t110.5 129t23.5 302v866h98v-803q0 -272 -31.5 -396t-139 -175t-349.5 -51q-244 0 -351.5 51t-140 175t-32.5 396zM498 1810v11h115l215 -275v-10h-72z" />
<glyph unicode="&#xda;" horiz-adv-x="1462" d="M209 606v803h96v-866q0 -209 24.5 -301t112.5 -130t291 -38q201 0 288 38t110.5 129t23.5 302v866h98v-803q0 -272 -31.5 -396t-139 -175t-349.5 -51q-244 0 -351.5 51t-140 175t-32.5 396zM666 1536v10l215 275h115v-11l-258 -274h-72z" />
<glyph unicode="&#xdb;" horiz-adv-x="1462" d="M209 606v803h96v-866q0 -209 24.5 -301t112.5 -130t291 -38q201 0 288 38t110.5 129t23.5 302v866h98v-803q0 -272 -31.5 -396t-139 -175t-349.5 -51q-244 0 -351.5 51t-140 175t-32.5 396zM461 1536v10l217 275h113l217 -275v-10h-70l-205 215l-202 -215h-70z" />
<glyph unicode="&#xdc;" horiz-adv-x="1462" d="M209 606v803h96v-866q0 -209 24.5 -301t112.5 -130t291 -38q201 0 288 38t110.5 129t23.5 302v866h98v-803q0 -272 -31.5 -396t-139 -175t-349.5 -51q-244 0 -351.5 51t-140 175t-32.5 396zM494 1579v135h104v-135h-104zM867 1579v135h104v-135h-104z" />
<glyph unicode="&#xdd;" horiz-adv-x="1230" d="M37 1409h110l461 -739h15l462 739h109l-530 -844v-565h-99v565zM573 1536v10l215 275h115v-11l-258 -274h-72z" />
<glyph unicode="&#xde;" horiz-adv-x="1337" d="M227 0v1409h99v-262h497q172 0 257 -56.5t107.5 -144.5t22.5 -229q0 -139 -23.5 -228.5t-108.5 -145.5t-255 -56h-497v-287h-99zM326 379h479q139 0 205.5 38t85 106.5t18.5 193.5q0 127 -18.5 194.5t-84 105.5t-204.5 38h-481v-676z" />
<glyph unicode="&#xdf;" horiz-adv-x="1251" d="M199 0v1085q0 160 43 257.5t143 145.5t274 48q166 0 258.5 -39t129 -115.5t36.5 -201.5q0 -123 -57 -188.5t-178 -86.5v-8q129 -20 191.5 -112.5t62.5 -286.5q0 -199 -30 -302.5t-116 -149.5t-260 -46h-182v84h141q168 0 237 24.5t92.5 102.5t23.5 270q0 150 -31 228.5 t-102.5 110.5t-204.5 32h-80v86h80q174 0 246.5 56.5t72.5 189.5q0 102 -29.5 158.5t-103.5 82t-213 25.5q-129 0 -203.5 -29.5t-111.5 -110.5t-37 -237v-1073h-92z" />
<glyph unicode="&#xe0;" horiz-adv-x="1171" d="M129 285q0 117 27.5 181t93 92t188.5 28q68 0 441 -11v87q0 150 -26 213t-94.5 81.5t-230.5 18.5q-74 0 -173 -7t-154 -18v86q147 25 364 25q176 0 261 -33t116 -113.5t31 -242.5v-672h-78l-6 164h-10q-39 -109 -140.5 -144.5t-240.5 -35.5q-133 0 -212 24.5t-118 89 t-39 187.5zM221 287q0 -92 23.5 -138.5t83 -63.5t182.5 -17q127 0 208 22.5t113 93.5q27 55 37.5 112.5t10.5 133.5v76h-414q-104 0 -154.5 -15.5t-70 -61.5t-19.5 -142zM350 1511v11h115l215 -275v-10h-72z" />
<glyph unicode="&#xe1;" horiz-adv-x="1171" d="M129 285q0 117 27.5 181t93 92t188.5 28q68 0 441 -11v87q0 150 -26 213t-94.5 81.5t-230.5 18.5q-74 0 -173 -7t-154 -18v86q147 25 364 25q176 0 261 -33t116 -113.5t31 -242.5v-672h-78l-6 164h-10q-39 -109 -140.5 -144.5t-240.5 -35.5q-133 0 -212 24.5t-118 89 t-39 187.5zM221 287q0 -92 23.5 -138.5t83 -63.5t182.5 -17q127 0 208 22.5t113 93.5q27 55 37.5 112.5t10.5 133.5v76h-414q-104 0 -154.5 -15.5t-70 -61.5t-19.5 -142zM514 1237v10l215 275h115v-11l-258 -274h-72z" />
<glyph unicode="&#xe2;" horiz-adv-x="1171" d="M129 285q0 117 27.5 181t93 92t188.5 28q68 0 441 -11v87q0 150 -26 213t-94.5 81.5t-230.5 18.5q-74 0 -173 -7t-154 -18v86q147 25 364 25q176 0 261 -33t116 -113.5t31 -242.5v-672h-78l-6 164h-10q-39 -109 -140.5 -144.5t-240.5 -35.5q-133 0 -212 24.5t-118 89 t-39 187.5zM221 287q0 -92 23.5 -138.5t83 -63.5t182.5 -17q127 0 208 22.5t113 93.5q27 55 37.5 112.5t10.5 133.5v76h-414q-104 0 -154.5 -15.5t-70 -61.5t-19.5 -142zM320 1237v10l217 275h113l217 -275v-10h-70l-205 215l-202 -215h-70z" />
<glyph unicode="&#xe3;" horiz-adv-x="1171" d="M129 285q0 117 27.5 181t93 92t188.5 28q68 0 441 -11v87q0 150 -26 213t-94.5 81.5t-230.5 18.5q-74 0 -173 -7t-154 -18v86q147 25 364 25q176 0 261 -33t116 -113.5t31 -242.5v-672h-78l-6 164h-10q-39 -109 -140.5 -144.5t-240.5 -35.5q-133 0 -212 24.5t-118 89 t-39 187.5zM221 287q0 -92 23.5 -138.5t83 -63.5t182.5 -17q127 0 208 22.5t113 93.5q27 55 37.5 112.5t10.5 133.5v76h-414q-104 0 -154.5 -15.5t-70 -61.5t-19.5 -142zM229 1294q0 117 25.5 161t107.5 44q55 0 110.5 -14.5t133.5 -40.5q10 -4 53 -17.5t80 -20.5t65 -7 q45 0 57.5 25.5t12.5 97.5h66q0 -117 -26 -161t-108 -44q-53 0 -102 12t-141 43q-63 23 -109.5 34t-89.5 11t-56.5 -25.5t-13.5 -97.5h-65z" />
<glyph unicode="&#xe4;" horiz-adv-x="1171" d="M129 285q0 117 27.5 181t93 92t188.5 28q68 0 441 -11v87q0 150 -26 213t-94.5 81.5t-230.5 18.5q-74 0 -173 -7t-154 -18v86q147 25 364 25q176 0 261 -33t116 -113.5t31 -242.5v-672h-78l-6 164h-10q-39 -109 -140.5 -144.5t-240.5 -35.5q-133 0 -212 24.5t-118 89 t-39 187.5zM221 287q0 -92 23.5 -138.5t83 -63.5t182.5 -17q127 0 208 22.5t113 93.5q27 55 37.5 112.5t10.5 133.5v76h-414q-104 0 -154.5 -15.5t-70 -61.5t-19.5 -142zM354 1362v135h104v-135h-104zM727 1362v135h104v-135h-104z" />
<glyph unicode="&#xe5;" horiz-adv-x="1171" d="M129 285q0 117 27.5 181t93 92t188.5 28q68 0 441 -11v87q0 150 -26 213t-94.5 81.5t-230.5 18.5q-74 0 -173 -7t-154 -18v86q147 25 364 25q176 0 261 -33t116 -113.5t31 -242.5v-672h-78l-6 164h-10q-39 -109 -140.5 -144.5t-240.5 -35.5q-133 0 -212 24.5t-118 89 t-39 187.5zM221 287q0 -92 23.5 -138.5t83 -63.5t182.5 -17q127 0 208 22.5t113 93.5q27 55 37.5 112.5t10.5 133.5v76h-414q-104 0 -154.5 -15.5t-70 -61.5t-19.5 -142zM348 1442q0 82 13.5 122t62.5 58.5t160 18.5t161 -18.5t63 -58.5t13 -122q0 -84 -13 -122t-63 -56.5 t-161 -18.5t-160 18.5t-62.5 56.5t-13.5 122zM424 1442q0 -59 8.5 -84t40 -36t111.5 -11t112.5 11t41 35.5t8.5 84.5q0 59 -8.5 84.5t-41 37t-112.5 11.5q-78 0 -110.5 -11.5t-41 -37t-8.5 -84.5z" />
<glyph unicode="&#xe6;" horiz-adv-x="1880" d="M129 285q0 115 27.5 177t93 89t188.5 27h441v84q0 150 -26 213t-94.5 81.5t-230.5 18.5q-74 0 -173 -7t-154 -18v86q143 25 364 25q166 0 251 -31t118 -108q41 76 132 107.5t265 31.5q188 0 271.5 -47t106 -150.5t22.5 -333.5v-32h-756q0 -188 23.5 -274.5t99.5 -121 t245 -34.5q80 0 177.5 8t169.5 20v-86q-59 -12 -161 -19t-200 -7q-193 0 -284 42t-127 152q-51 -121 -156 -157.5t-260 -36.5q-135 0 -215 24.5t-119 90t-39 186.5zM221 287q0 -92 23.5 -138.5t83 -63.5t182.5 -17q127 0 208 23.5t118 98.5q25 53 34 108.5t9 131.5v68h-414 q-104 0 -154.5 -14.5t-70 -58.5t-19.5 -138zM975 575h663v31q0 168 -26.5 245t-90 101.5t-196.5 24.5q-164 0 -234.5 -28.5t-93 -108.5t-22.5 -265z" />
<glyph unicode="&#xe7;" horiz-adv-x="937" d="M147 520q0 219 33 332t118 160t255 47q147 0 270 -23v-84q-113 23 -250 23q-147 0 -215.5 -36t-92 -128t-23.5 -287q0 -201 23.5 -294t93 -126.5t221.5 -33.5q63 0 133.5 7t120.5 17v-86q-49 -10 -125 -17t-146 -7q-41 0 -59 2l-84 -375h-103v10l115 371 q-127 16 -187.5 75.5t-79 162t-18.5 290.5z" />
<glyph unicode="&#xe8;" horiz-adv-x="1148" d="M147 520q0 229 26 335t120 156t307 50q188 0 271 -48t105.5 -152.5t22.5 -336.5v-35h-757q0 -184 23.5 -269t100 -118.5t246.5 -33.5q80 0 177.5 8t168.5 20v-86q-59 -12 -160.5 -19t-201.5 -7q-199 0 -292 45t-125 154.5t-32 336.5zM242 569h665v37q0 168 -26.5 245 t-90 101.5t-196.5 24.5q-164 0 -234.5 -29.5t-93 -110.5t-24.5 -268zM320 1511v11h115l215 -275v-10h-72z" />
<glyph unicode="&#xe9;" horiz-adv-x="1148" d="M147 520q0 229 26 335t120 156t307 50q188 0 271 -48t105.5 -152.5t22.5 -336.5v-35h-757q0 -184 23.5 -269t100 -118.5t246.5 -33.5q80 0 177.5 8t168.5 20v-86q-59 -12 -160.5 -19t-201.5 -7q-199 0 -292 45t-125 154.5t-32 336.5zM242 569h665v37q0 168 -26.5 245 t-90 101.5t-196.5 24.5q-164 0 -234.5 -29.5t-93 -110.5t-24.5 -268zM520 1237v10l215 275h115v-11l-258 -274h-72z" />
<glyph unicode="&#xea;" horiz-adv-x="1148" d="M147 520q0 229 26 335t120 156t307 50q188 0 271 -48t105.5 -152.5t22.5 -336.5v-35h-757q0 -184 23.5 -269t100 -118.5t246.5 -33.5q80 0 177.5 8t168.5 20v-86q-59 -12 -160.5 -19t-201.5 -7q-199 0 -292 45t-125 154.5t-32 336.5zM242 569h665v37q0 168 -26.5 245 t-90 101.5t-196.5 24.5q-164 0 -234.5 -29.5t-93 -110.5t-24.5 -268zM303 1237v10l217 275h113l217 -275v-10h-70l-205 215l-202 -215h-70z" />
<glyph unicode="&#xeb;" horiz-adv-x="1148" d="M147 520q0 229 26 335t120 156t307 50q188 0 271 -48t105.5 -152.5t22.5 -336.5v-35h-757q0 -184 23.5 -269t100 -118.5t246.5 -33.5q80 0 177.5 8t168.5 20v-86q-59 -12 -160.5 -19t-201.5 -7q-199 0 -292 45t-125 154.5t-32 336.5zM242 569h665v37q0 168 -26.5 245 t-90 101.5t-196.5 24.5q-164 0 -234.5 -29.5t-93 -110.5t-24.5 -268zM336 1362v135h104v-135h-104zM709 1362v135h104v-135h-104z" />
<glyph unicode="&#xec;" horiz-adv-x="489" d="M-31 1511v11h115l215 -275v-10h-72zM199 0v1044h94v-1044h-94z" />
<glyph unicode="&#xed;" horiz-adv-x="489" d="M193 1237v10l215 275h115v-11l-258 -274h-72zM199 0v1044h94v-1044h-94z" />
<glyph unicode="&#xee;" horiz-adv-x="489" d="M-27 1237v10l217 275h113l217 -275v-10h-70l-205 215l-202 -215h-70zM199 0v1044h94v-1044h-94z" />
<glyph unicode="&#xef;" horiz-adv-x="489" d="M6 1362v135h104v-135h-104zM199 0v1044h94v-1044h-94zM379 1362v135h104v-135h-104z" />
<glyph unicode="&#xf0;" horiz-adv-x="1185" d="M147 520q0 240 26 345.5t115 150.5t296 45q195 0 295 -70l10 6q-57 174 -154 306l-248 -41v77l193 33q-55 66 -100 101.5t-50 39.5v9h111q84 -68 137 -133l209 36v-77l-158 -27q63 -94 115.5 -219t71.5 -250q20 -141 20 -285q0 -272 -22.5 -382.5t-112.5 -155.5t-309 -45 q-211 0 -302 42t-117 147.5t-26 346.5zM242 520q0 -221 16 -304t86 -115.5t248 -32.5t247.5 32.5t86 115.5t16.5 304q0 188 -16.5 274.5t-90 133.5t-243.5 47q-178 0 -248 -33t-86 -117t-16 -305z" />
<glyph unicode="&#xf1;" d="M199 0v1044h77l7 -163h10q31 84 111.5 132t254.5 48q162 0 242 -40t106.5 -124t26.5 -242v-655h-94v633q0 154 -22.5 223.5t-85 93t-201.5 23.5q-158 0 -231.5 -53.5t-90 -138.5t-16.5 -240v-541h-94zM262 1294q0 117 25.5 161t107.5 44q55 0 110.5 -14.5t133.5 -40.5 q10 -4 53 -17.5t80 -20.5t65 -7q45 0 57.5 25.5t12.5 97.5h66q0 -117 -26 -161t-108 -44q-53 0 -102 12t-141 43q-63 23 -109.5 34t-89.5 11t-56.5 -25.5t-13.5 -97.5h-65z" />
<glyph unicode="&#xf2;" horiz-adv-x="1185" d="M147 520q0 244 26 349.5t117 148.5t302 43q213 0 303 -43t115.5 -147.5t25.5 -350.5q0 -244 -25.5 -348t-115.5 -146t-303 -42t-303 42t-116 146t-26 348zM242 520q0 -221 16 -304t86 -114.5t248 -31.5t247.5 31.5t86 114.5t16.5 304t-16.5 305t-86 117t-247.5 33 t-248 -33t-86 -117t-16 -305zM340 1511v11h115l215 -275v-10h-72z" />
<glyph unicode="&#xf3;" horiz-adv-x="1185" d="M147 520q0 244 26 349.5t117 148.5t302 43q213 0 303 -43t115.5 -147.5t25.5 -350.5q0 -244 -25.5 -348t-115.5 -146t-303 -42t-303 42t-116 146t-26 348zM242 520q0 -221 16 -304t86 -114.5t248 -31.5t247.5 31.5t86 114.5t16.5 304t-16.5 305t-86 117t-247.5 33 t-248 -33t-86 -117t-16 -305zM533 1237v10l215 275h115v-11l-258 -274h-72z" />
<glyph unicode="&#xf4;" horiz-adv-x="1185" d="M147 520q0 244 26 349.5t117 148.5t302 43q213 0 303 -43t115.5 -147.5t25.5 -350.5q0 -244 -25.5 -348t-115.5 -146t-303 -42t-303 42t-116 146t-26 348zM242 520q0 -221 16 -304t86 -114.5t248 -31.5t247.5 31.5t86 114.5t16.5 304t-16.5 305t-86 117t-247.5 33 t-248 -33t-86 -117t-16 -305zM320 1237v10l217 275h113l217 -275v-10h-70l-205 215l-202 -215h-70z" />
<glyph unicode="&#xf5;" horiz-adv-x="1185" d="M147 520q0 244 26 349.5t117 148.5t302 43q213 0 303 -43t115.5 -147.5t25.5 -350.5q0 -244 -25.5 -348t-115.5 -146t-303 -42t-303 42t-116 146t-26 348zM238 1294q0 117 25.5 161t107.5 44q55 0 110.5 -14.5t133.5 -40.5q10 -4 53 -17.5t80 -20.5t65 -7q45 0 57.5 25.5 t12.5 97.5h66q0 -117 -26 -161t-108 -44q-53 0 -102 12t-141 43q-63 23 -109.5 34t-89.5 11t-56.5 -25.5t-13.5 -97.5h-65zM242 520q0 -221 16 -304t86 -114.5t248 -31.5t247.5 31.5t86 114.5t16.5 304t-16.5 305t-86 117t-247.5 33t-248 -33t-86 -117t-16 -305z" />
<glyph unicode="&#xf6;" horiz-adv-x="1185" d="M147 520q0 244 26 349.5t117 148.5t302 43q213 0 303 -43t115.5 -147.5t25.5 -350.5q0 -244 -25.5 -348t-115.5 -146t-303 -42t-303 42t-116 146t-26 348zM242 520q0 -221 16 -304t86 -114.5t248 -31.5t247.5 31.5t86 114.5t16.5 304t-16.5 305t-86 117t-247.5 33 t-248 -33t-86 -117t-16 -305zM354 1362v135h104v-135h-104zM727 1362v135h104v-135h-104z" />
<glyph unicode="&#xf7;" horiz-adv-x="1103" d="M143 475v84h818v-84h-818zM500 61v136h104v-136h-104zM500 840v133h104v-133h-104z" />
<glyph unicode="&#xf8;" horiz-adv-x="1185" d="M147 520q0 244 26 349.5t117 148.5t302 43q182 0 272 -31l78 127h92l-100 -162q65 -49 83.5 -151.5t18.5 -323.5q0 -244 -25.5 -348t-115.5 -146t-303 -42q-186 0 -273 30l-79 -127h-90l100 162q-66 51 -84.5 153.5t-18.5 317.5zM242 520q0 -188 9 -268t50 -121l514 821 q-70 23 -223 23q-178 0 -248 -33t-86 -117t-16 -305zM369 92q70 -23 223 -22q178 0 247.5 31.5t86 114.5t16.5 304q0 190 -9 270t-52 123z" />
<glyph unicode="&#xf9;" d="M199 389v655h94v-632q0 -154 22.5 -223.5t85 -93t201.5 -23.5q158 0 231.5 53t90 138t16.5 241v540h94v-1044h-78l-6 164h-10q-31 -84 -111.5 -132t-255.5 -48q-162 0 -241.5 39.5t-106 123.5t-26.5 242zM350 1511v11h115l215 -275v-10h-72z" />
<glyph unicode="&#xfa;" d="M199 389v655h94v-632q0 -154 22.5 -223.5t85 -93t201.5 -23.5q158 0 231.5 53t90 138t16.5 241v540h94v-1044h-78l-6 164h-10q-31 -84 -111.5 -132t-255.5 -48q-162 0 -241.5 39.5t-106 123.5t-26.5 242zM569 1237v10l215 275h115v-11l-258 -274h-72z" />
<glyph unicode="&#xfb;" d="M199 389v655h94v-632q0 -154 22.5 -223.5t85 -93t201.5 -23.5q158 0 231.5 53t90 138t16.5 241v540h94v-1044h-78l-6 164h-10q-31 -84 -111.5 -132t-255.5 -48q-162 0 -241.5 39.5t-106 123.5t-26.5 242zM344 1237v10l217 275h113l217 -275v-10h-70l-205 215l-202 -215 h-70z" />
<glyph unicode="&#xfc;" d="M199 389v655h94v-632q0 -154 22.5 -223.5t85 -93t201.5 -23.5q158 0 231.5 53t90 138t16.5 241v540h94v-1044h-78l-6 164h-10q-31 -84 -111.5 -132t-255.5 -48q-162 0 -241.5 39.5t-106 123.5t-26.5 242zM377 1362v135h104v-135h-104zM750 1362v135h104v-135h-104z" />
<glyph unicode="&#xfd;" d="M199 391v653h94v-630q0 -156 22.5 -225.5t85 -93t201.5 -23.5q158 0 231.5 53t90 138t16.5 243v538h94v-909q0 -219 -33.5 -335.5t-130 -169t-290.5 -52.5q-202 0 -349 14v86q164 -14 332 -14q170 0 250 43t103.5 129t23.5 258v56h-8q-59 -164 -359 -164 q-162 0 -241.5 40t-106 123.5t-26.5 241.5zM569 1237v10l215 275h115v-11l-258 -274h-72z" />
<glyph unicode="&#xfe;" horiz-adv-x="1216" d="M199 -389v1911h94v-625h8q37 88 125 126t238 38q172 0 256 -44t115.5 -156.5t31.5 -338.5q0 -225 -31.5 -337.5t-115.5 -156.5t-256 -44q-150 0 -238 37.5t-125 125.5h-8v-536h-94zM293 522q0 -106 4 -169.5t16 -100.5q33 -98 109 -139t209 -41q157 0 226 30.5 t92.5 121.5t23.5 298t-23.5 298t-92.5 123t-226 32q-129 0 -206 -38t-108 -126q-16 -49 -20 -111.5t-4 -177.5z" />
<glyph unicode="&#xff;" d="M199 391v653h94v-630q0 -156 22.5 -225.5t85 -93t201.5 -23.5q158 0 231.5 53t90 138t16.5 243v538h94v-909q0 -219 -33.5 -335.5t-130 -169t-290.5 -52.5q-202 0 -349 14v86q164 -14 332 -14q170 0 250 43t103.5 129t23.5 258v56h-8q-59 -164 -359 -164 q-162 0 -241.5 40t-106 123.5t-26.5 241.5zM383 1362v135h104v-135h-104zM756 1362v135h104v-135h-104z" />
<glyph unicode="&#x152;" horiz-adv-x="2181" d="M178 705q0 338 32 473t142.5 183t386.5 48h1325v-90h-749q-92 0 -150 8q57 -41 87 -111.5t39 -175t12 -282.5h665v-90h-665q-2 -186 -11.5 -294t-38 -179.5t-88.5 -112.5q57 8 150 8h749v-90h-1325q-276 0 -386.5 48t-142.5 183.5t-32 473.5zM274 705q0 -317 28 -436 t114 -149t323 -30q238 0 324 30t113.5 148.5t27.5 436.5q0 317 -27.5 436t-113.5 148.5t-324 29.5t-323.5 -29.5t-113.5 -148.5t-28 -436z" />
<glyph unicode="&#x153;" horiz-adv-x="1943" d="M147 520q0 244 26 349.5t117 148.5t302 43q184 0 273 -35t126 -125q39 86 131 123t273 37q186 0 270 -48t106.5 -153.5t22.5 -335.5v-35h-758q0 -184 23.5 -269t100.5 -118.5t247 -33.5q80 0 177 8t169 20v-86q-59 -12 -160.5 -19t-201.5 -7q-174 0 -265.5 36.5 t-134.5 129.5q-35 -96 -123 -131t-276 -35q-213 0 -303 42t-116 146t-26 348zM242 520q0 -221 16 -304t86 -114.5t248 -31.5t247.5 31.5t86 114.5t16.5 304t-16.5 305t-86 117t-247.5 33t-248 -33t-86 -117t-16 -305zM1036 569h666v37q0 166 -27.5 244t-91 102.5 t-194.5 24.5q-164 0 -235 -29.5t-94.5 -110.5t-23.5 -268z" />
<glyph unicode="&#x178;" horiz-adv-x="1230" d="M37 1409h110l461 -739h15l462 739h109l-530 -844v-565h-99v565zM381 1579v135h104v-135h-104zM754 1579v135h104v-135h-104z" />
<glyph unicode="&#x2c6;" horiz-adv-x="628" d="M41 1237v10l217 275h113l217 -275v-10h-70l-205 215l-202 -215h-70z" />
<glyph unicode="&#x2dc;" horiz-adv-x="792" d="M41 1294q0 117 25.5 161t107.5 44q55 0 110.5 -14.5t133.5 -40.5q10 -4 53 -17.5t80 -20.5t65 -7q45 0 57.5 25.5t12.5 97.5h66q0 -117 -26 -161t-108 -44q-53 0 -102 12t-141 43q-63 23 -109.5 34t-89.5 11t-56.5 -25.5t-13.5 -97.5h-65z" />
<glyph unicode="&#x2000;" horiz-adv-x="910" />
<glyph unicode="&#x2001;" horiz-adv-x="1821" />
<glyph unicode="&#x2002;" horiz-adv-x="910" />
<glyph unicode="&#x2003;" horiz-adv-x="1821" />
<glyph unicode="&#x2004;" horiz-adv-x="607" />
<glyph unicode="&#x2005;" horiz-adv-x="455" />
<glyph unicode="&#x2006;" horiz-adv-x="303" />
<glyph unicode="&#x2007;" horiz-adv-x="303" />
<glyph unicode="&#x2008;" horiz-adv-x="227" />
<glyph unicode="&#x2009;" horiz-adv-x="364" />
<glyph unicode="&#x200a;" horiz-adv-x="101" />
<glyph unicode="&#x2010;" horiz-adv-x="729" d="M131 539v94h469v-94h-469z" />
<glyph unicode="&#x2011;" horiz-adv-x="729" d="M131 539v94h469v-94h-469z" />
<glyph unicode="&#x2012;" horiz-adv-x="729" d="M131 539v94h469v-94h-469z" />
<glyph unicode="&#x2013;" horiz-adv-x="962" d="M129 580v86h705v-86h-705z" />
<glyph unicode="&#x2014;" horiz-adv-x="1783" d="M129 580v86h1526v-86h-1526z" />
<glyph unicode="&#x2018;" horiz-adv-x="380" d="M131 1044v158q0 86 14.5 129t51 60.5t110.5 17.5v-51q-68 0 -87 -25.5t-19 -103.5v-35h49v-150h-119z" />
<glyph unicode="&#x2019;" horiz-adv-x="380" d="M74 1044v54q67 0 86.5 24.5t19.5 102.5v35h-49v149h119v-156q0 -86 -14.5 -130t-51.5 -61.5t-110 -17.5z" />
<glyph unicode="&#x201a;" horiz-adv-x="380" d="M74 -164q67 0 86.5 25.5t19.5 103.5v35h-49v150h119v-158q0 -86 -14.5 -129t-51.5 -60.5t-110 -17.5v51z" />
<glyph unicode="&#x201c;" horiz-adv-x="657" d="M131 1044v158q0 86 14.5 129t51 60.5t110.5 17.5v-51q-68 0 -87 -25.5t-19 -103.5v-35h49v-150h-119zM406 1044v158q0 84 14 128t51 61.5t111 17.5v-51q-68 0 -86.5 -25.5t-18.5 -103.5v-35h49v-150h-120z" />
<glyph unicode="&#x201d;" horiz-adv-x="657" d="M74 1044v54q67 0 86.5 24.5t19.5 102.5v35h-49v149h119v-156q0 -86 -14.5 -130t-51.5 -61.5t-110 -17.5zM350 1044v54q68 0 86.5 24.5t18.5 102.5v35h-49v149h120v-156q0 -86 -14 -130t-51 -61.5t-111 -17.5z" />
<glyph unicode="&#x201e;" horiz-adv-x="657" d="M74 -164q67 0 86.5 25.5t19.5 103.5v35h-49v150h119v-158q0 -86 -14.5 -129t-51.5 -60.5t-110 -17.5v51zM350 -164q68 0 86.5 25.5t18.5 103.5v35h-49v150h120v-158q0 -86 -14 -129t-51 -60.5t-111 -17.5v51z" />
<glyph unicode="&#x2022;" horiz-adv-x="733" d="M154 700q0 104 11 145.5t52 57t145 15.5q109 0 152 -15.5t54.5 -56.5t11.5 -146q0 -100 -11.5 -141t-54.5 -55.5t-152 -14.5q-104 0 -145 14.5t-52 55.5t-11 141z" />
<glyph unicode="&#x2026;" horiz-adv-x="1148" d="M131 0v150h121v-150h-121zM514 0v150h121v-150h-121zM897 0v150h121v-150h-121z" />
<glyph unicode="&#x202f;" horiz-adv-x="364" />
<glyph unicode="&#x2039;" horiz-adv-x="620" d="M117 623l268 421h78l-242 -421l242 -420h-78z" />
<glyph unicode="&#x203a;" horiz-adv-x="620" d="M158 203l241 420l-241 421h78l270 -421l-270 -420h-78z" />
<glyph unicode="&#x205f;" horiz-adv-x="455" />
<glyph unicode="&#x20ac;" horiz-adv-x="1275" d="M82 510v82h192v231h-192v82h194q12 229 60.5 338t157 145.5t329.5 36.5q82 0 170 -8t146 -18v-84q-143 20 -289 20q-205 0 -297 -26.5t-131 -114.5t-47 -289h663v-82h-665v-231h665v-82h-663q8 -205 46 -294t130 -115.5t299 -26.5q154 0 297 20v-88q-57 -10 -148.5 -16 t-175.5 -6q-223 0 -331.5 35.5t-156.5 145t-59 345.5h-194z" />
<glyph unicode="&#x2122;" horiz-adv-x="1476" d="M84 1354v55h465v-55h-207v-566h-57v566h-201zM668 788v621h67l244 -524h8l242 524h67v-621h-57v498h-8l-230 -498h-40l-230 494h-8v-494h-55z" />
<glyph unicode="&#x25fc;" horiz-adv-x="1044" d="M0 0v1044h1044v-1044h-1044z" />
</font>
</defs>
</svg>
