<?xml version="1.0" standalone="no"?>
<!DOCTYPE svg PUBLIC "-//W3C//DTD SVG 1.1//EN" "http://www.w3.org/Graphics/SVG/1.1/DTD/svg11.dtd" >
<svg xmlns="http://www.w3.org/2000/svg" xmlns:xlink="http://www.w3.org/1999/xlink" version="1.1">
<metadata></metadata>
<defs>
<font id="sairathin" horiz-adv-x="1236" >
<font-face units-per-em="2048" ascent="1638" descent="-410" />
<missing-glyph horiz-adv-x="458" />
<glyph unicode="&#xfb01;" horiz-adv-x="1185" d="M61 979v65h222v236q0 104 38.5 156.5t111.5 69t200 16.5v-62q-113 0 -171.5 -14t-83 -49t-24.5 -105v-248h279v-65h-279v-979h-71v979h-222zM902 1397v125h88v-125h-88zM910 0v1044h71v-1044h-71z" />
<glyph unicode="&#xfb02;" horiz-adv-x="1185" d="M61 979v65h222v236q0 104 38.5 156.5t111.5 69t200 16.5v-62q-113 0 -171.5 -14t-83 -49t-24.5 -105v-248h279v-65h-279v-979h-71v979h-222zM910 0v1522h71v-1522h-71z" />
<glyph horiz-adv-x="0" />
<glyph unicode="&#xd;" horiz-adv-x="458" />
<glyph horiz-adv-x="0" />
<glyph horiz-adv-x="0" />
<glyph unicode=" "  horiz-adv-x="458" />
<glyph unicode="&#x09;" horiz-adv-x="458" />
<glyph unicode="&#xa0;" horiz-adv-x="458" />
<glyph unicode="!" horiz-adv-x="405" d="M154 0v133h98v-133h-98zM164 1108v301h78v-301q0 -256 -11 -754h-57q-10 498 -10 754z" />
<glyph unicode="&#x22;" horiz-adv-x="552" d="M133 1227v182h80v-182l-16 -297h-47zM340 1227v182h80v-182l-17 -297h-47z" />
<glyph unicode="#" horiz-adv-x="1705" d="M158 414v69h227l98 422h-250v70h267l100 434h70l-101 -434h412l100 434h70l-100 -434h225v-70h-242l-98 -422h264v-69h-280l-95 -414h-69l94 414h-412l-94 -414h-70l95 414h-211zM455 483h411l99 422h-412z" />
<glyph unicode="$" horiz-adv-x="1099" d="M164 958q0 129 40 195t114.5 89.5t201.5 25.5v157h70v-157q156 -4 289 -25v-69q-125 18 -289 26v-455l137 -12q88 -8 132 -33.5t60.5 -84t16.5 -175.5q0 -121 -35 -184t-107.5 -89t-203.5 -28v-155h-70v155q-197 6 -323 23v69q98 -14 162.5 -18t160.5 -6v473l-127 12 q-92 10 -141 36t-68.5 79t-19.5 151zM238 973q0 -88 13 -129t45 -57.5t97 -22.5l127 -12v448q-100 0 -157.5 -13t-91 -62.5t-33.5 -151.5zM590 207q115 0 172 20.5t78.5 69.5t21.5 143q0 98 -14 143.5t-43 58.5t-90 20l-125 12v-467z" />
<glyph unicode="%" horiz-adv-x="1628" d="M123 1030q0 180 17.5 258t73.5 107.5t187 29.5t187.5 -29.5t73 -107.5t16.5 -258t-16.5 -257t-73 -106.5t-187.5 -29.5t-187 29.5t-73.5 106.5t-17.5 257zM197 1030q0 -166 13 -229.5t51 -78.5t140 -15q103 0 141 15t51 78.5t13 229.5q0 174 -10 234.5t-48 76t-147 15.5 q-102 0 -140 -16.5t-51 -79t-13 -230.5zM311 0l920 1409h86l-920 -1409h-86zM950 377q0 180 17.5 258t74 107.5t187.5 29.5t187.5 -29.5t72.5 -107.5t16 -258t-16 -257t-72.5 -106.5t-187.5 -29.5t-187.5 29.5t-74 106.5t-17.5 257zM1024 377q0 -166 13.5 -229.5t51 -79 t140.5 -15.5q102 0 140 15.5t51.5 79t13.5 229.5q0 174 -10.5 234.5t-48.5 75.5t-146 15q-102 0 -140 -16t-51.5 -78.5t-13.5 -230.5z" />
<glyph unicode="&#x26;" horiz-adv-x="1503" d="M158 377q0 113 28.5 179.5t83 102t144.5 56.5v8q-127 31 -185.5 106.5t-58.5 225.5q0 127 45 205.5t169 121.5t357 43q92 0 209 -9t203 -23v-66q-92 14 -196.5 23.5t-172.5 9.5q-236 0 -351.5 -31t-153 -95.5t-37.5 -182.5q0 -82 21.5 -145.5t98 -109.5t230.5 -46h235 v-70h-235q-158 0 -237 -38t-102.5 -104.5t-23.5 -175.5q0 -133 55.5 -200.5t163 -90t295.5 -22.5q211 0 347 23v678h321v-70h-250v-664q-16 -2 -75.5 -10t-152.5 -15t-190 -7q-248 0 -374.5 44t-168.5 126t-42 223z" />
<glyph unicode="'" horiz-adv-x="346" d="M133 1227v182h80v-182l-16 -297h-47z" />
<glyph unicode="(" horiz-adv-x="571" d="M184 608q0 266 26 417t81 251t172 246h67q-115 -150 -165 -240t-79.5 -245.5t-29.5 -428.5q0 -272 29.5 -428.5t81 -248t163.5 -238.5h-67q-117 145 -172 246.5t-81 252t-26 416.5z" />
<glyph unicode=")" horiz-adv-x="571" d="M41 -307q113 147 164 238.5t80.5 248t29.5 428.5t-29.5 428t-79.5 246t-165 240h68q117 -145 172 -245.5t80.5 -251.5t25.5 -417t-25.5 -416.5t-81 -252t-171.5 -246.5h-68z" />
<glyph unicode="*" horiz-adv-x="897" d="M104 879l287 153l-287 156l39 67l277 -174l-10 328h77l-12 -328l279 174l39 -67l-287 -156l287 -153l-39 -68l-277 172l10 -326h-77l10 326l-277 -172z" />
<glyph unicode="+" horiz-adv-x="1105" d="M143 485v66h375v377h66v-377h379v-66h-379v-376h-66v376h-375z" />
<glyph unicode="," horiz-adv-x="360" d="M70 -164q47 0 67.5 11.5t27.5 37t7 80.5v35h-41v133h98v-153q0 -76 -13 -115t-47 -55.5t-99 -16.5v43z" />
<glyph unicode="-" horiz-adv-x="727" d="M133 549v74h461v-74h-461z" />
<glyph unicode="." horiz-adv-x="360" d="M131 0v133h98v-133h-98z" />
<glyph unicode="/" horiz-adv-x="671" d="M0 -113l594 1635h78l-596 -1635h-76z" />
<glyph unicode="0" horiz-adv-x="1384" d="M184 705q0 358 24.5 492t125 181t358.5 47t358.5 -47t125 -181t24.5 -492t-24.5 -492.5t-125 -181.5t-358.5 -47t-358.5 47t-125 181t-24.5 493zM258 705q0 -346 22.5 -467t102.5 -153t309 -32q230 0 309.5 32t102 152.5t22.5 467.5q0 346 -22.5 466.5t-102 152.5 t-309.5 32q-229 0 -309 -32t-102.5 -152.5t-22.5 -466.5z" />
<glyph unicode="1" horiz-adv-x="747" d="M102 1153v76l320 180h59v-1409h-73v1315z" />
<glyph unicode="2" horiz-adv-x="1245" d="M164 0v145q0 176 10 246t57.5 115t165.5 98l422 184q78 35 118 70t55.5 84t15.5 129q0 123 -33 182.5t-113 81t-244 21.5q-182 0 -425 -23v66q80 12 204.5 19t237.5 7q152 0 243 -20.5t147 -93t56 -221.5q0 -115 -23.5 -181.5t-76.5 -109.5t-158 -88l-477 -209 q-82 -37 -96 -101q-8 -39 -10 -88t-2 -108v-135h843v-70h-917z" />
<glyph unicode="3" horiz-adv-x="1220" d="M133 12v66q240 -25 397 -25q154 0 247 22.5t144.5 89t51.5 197.5q0 170 -73 244t-241 74h-282v70h282q125 0 211 66.5t86 234.5q0 131 -47 196.5t-139 87t-260 21.5q-176 0 -369 -25v66q84 12 194.5 20t196.5 8q193 0 300.5 -35.5t152.5 -115.5t45 -219 q0 -147 -61.5 -226t-177.5 -104v-8q123 -20 189.5 -98t66.5 -242q0 -139 -40 -222t-152 -127t-325 -44q-88 0 -200.5 8t-196.5 20z" />
<glyph unicode="4" horiz-adv-x="1306" d="M111 360v64l569 985h86l-569 -979h702v614h72v-614h223v-70h-223v-360h-74v360h-786z" />
<glyph unicode="5" horiz-adv-x="1261" d="M184 12v66q240 -25 398 -25q184 0 278 32t129 105.5t35 212.5q0 150 -37 218.5t-135 92t-311 23.5q-100 0 -340 -30v702h792v-70h-719v-557q133 25 347 25q209 0 311 -41t134 -121t32 -227q0 -172 -42 -263.5t-151.5 -131t-322.5 -39.5q-88 0 -201 8t-197 20z" />
<glyph unicode="6" horiz-adv-x="1327" d="M184 684q0 184 8.5 300t30.5 190q33 102 95.5 156t159.5 74.5t253 20.5q152 0 395 -28v-66q-207 25 -378 25q-225 0 -324.5 -47t-132.5 -177.5t-33 -424.5h12q41 49 138.5 77.5t302.5 28.5q203 0 303 -25.5t145 -105.5t45 -252q0 -186 -37 -278.5t-138 -130t-312 -37.5 q-160 0 -254 16t-156.5 69.5t-93.5 159.5q-16 57 -22.5 164t-6.5 291zM264 467q0 -184 38 -270t126 -115t272 -29q189 0 275 21.5t120.5 91.5t34.5 225q0 170 -32.5 240.5t-115.5 91t-282 20.5q-197 0 -289 -26.5t-119.5 -81.5t-27.5 -168z" />
<glyph unicode="7" horiz-adv-x="1142" d="M92 1339v70h932v-59l-610 -1350h-84l608 1339h-846z" />
<glyph unicode="8" horiz-adv-x="1396" d="M174 377q0 121 27.5 187.5t82 99t146.5 51.5v8q-127 23 -185.5 100.5t-58.5 231.5q0 137 44 216t155 116.5t313 37.5q203 0 313.5 -37.5t154.5 -116.5t44 -216q0 -154 -58 -232t-185 -100v-8q92 -18 146 -51t82 -99.5t28 -187.5q0 -145 -39 -227t-151.5 -124t-334.5 -42 q-221 0 -333.5 42t-151.5 123.5t-39 227.5zM248 362q0 -129 41 -194.5t135 -90t274 -24.5q181 0 275 24.5t135 90t41 194.5q0 137 -37 203t-129 89.5t-285 23.5t-284.5 -23.5t-128.5 -89t-37 -203.5zM260 1051q0 -121 37 -185.5t130 -91t271 -26.5q179 0 272 26.5t130 91 t37 185.5q0 123 -35 186t-128 91t-276 28q-182 0 -275 -28t-128 -91t-35 -186z" />
<glyph unicode="9" horiz-adv-x="1327" d="M123 979q0 186 37 278.5t138 130t312 37.5q160 0 254 -15t154.5 -63.5t89.5 -144.5q20 -72 27.5 -181.5t7.5 -295.5t-8.5 -302t-34.5 -200q-31 -96 -92.5 -147t-158.5 -71.5t-253 -20.5q-170 -1 -395 28v66q201 -25 379 -25q225 0 324.5 47t132 177.5t32.5 424.5h-12 q-41 -49 -138.5 -77.5t-302.5 -28.5q-203 0 -303 25.5t-145 105.5t-45 252zM197 1018q0 -170 32.5 -240.5t115.5 -91t282 -20.5q196 0 288.5 26.5t120 81.5t27.5 168q0 184 -38 270t-126 115t-272 29q-188 0 -274.5 -21.5t-121 -91t-34.5 -225.5z" />
<glyph unicode=":" horiz-adv-x="360" d="M131 0v133h98v-133h-98zM131 911v133h98v-133h-98z" />
<glyph unicode=";" horiz-adv-x="360" d="M70 -164q47 0 67.5 11.5t27.5 37t7 80.5v35h-41v133h98v-153q0 -76 -13 -115t-47 -55.5t-99 -16.5v43zM131 911v133h98v-133h-98z" />
<glyph unicode="&#x3c;" horiz-adv-x="1107" d="M145 465v106l820 373v-76l-772 -350l772 -350v-76z" />
<glyph unicode="=" horiz-adv-x="1105" d="M143 281v65h820v-65h-820zM143 690v66h820v-66h-820z" />
<glyph unicode="&#x3e;" horiz-adv-x="1107" d="M143 92v76l772 350l-772 350v76l820 -373v-106z" />
<glyph unicode="?" horiz-adv-x="1015" d="M82 1331v66q84 12 185.5 20t174.5 8q150 0 237 -26.5t130 -96t43 -202.5q0 -109 -10.5 -172.5t-50 -113.5t-125.5 -81l-43 -14q-113 -43 -153 -63.5t-50 -45t-10 -82.5v-174h-74v178q0 76 15.5 114t48 57.5t108.5 46.5l57 20q98 35 141.5 66.5t57.5 83t14 157.5 q0 123 -32.5 181.5t-103.5 78t-210 19.5q-133 0 -350 -25zM324 0v133h98v-133h-98z" />
<glyph unicode="@" horiz-adv-x="1892" d="M184 602q0 403 37 556t187.5 210t537.5 57t537.5 -57t187.5 -209.5t37 -556.5q0 -213 -23.5 -306t-72.5 -117.5t-158 -24.5h-209l-6 145h-8q-31 -96 -117 -128t-207 -32q-119 0 -186.5 20.5t-101 76t-33.5 159.5q0 98 23.5 153.5t79.5 80t161 24.5q131 0 381 -8v76 q0 131 -21.5 186.5t-80 71.5t-197.5 16q-66 0 -151 -7t-132 -15v67q129 20 309 21q147 0 219 -26.5t99 -94.5t27 -207v-518h176q66 0 96.5 19.5t46.5 101.5t16 266q0 319 -19.5 457.5t-90 203t-238.5 83.5q-158 18 -346 18q-186 0 -342 -18q-168 -18 -239.5 -83t-91 -203 t-19.5 -458q0 -319 21.5 -457.5t100.5 -204t265 -85.5q98 -12 307 -13q268 0 357 6v-65q-63 -4 -357 -4q-387 0 -537.5 57.5t-187.5 210t-37 555.5zM657 395q0 -82 19.5 -120.5t72 -54t156.5 -15.5q125 0 194.5 27.5t100.5 95t31 192.5v68h-365q-90 0 -133 -13.5 t-59.5 -53.5t-16.5 -126z" />
<glyph unicode="A" horiz-adv-x="1398" d="M82 0l582 1409h71l582 -1409h-80l-186 455h-705l-186 -455h-78zM375 524h647l-317 781h-11z" />
<glyph unicode="B" horiz-adv-x="1406" d="M236 0v1409h628q197 0 275 -92t78 -260q0 -287 -240 -332v-8q154 -25 205 -119t51 -229q0 -164 -80 -266.5t-307 -102.5h-610zM309 70h545q168 0 236.5 73.5t68.5 231.5t-72.5 231.5t-232.5 73.5h-545v-610zM309 750h539q141 0 218 77.5t77 216.5q0 154 -64.5 224.5 t-230.5 70.5h-539v-589z" />
<glyph unicode="C" horiz-adv-x="1183" d="M184 705q0 334 40 479t149.5 193t357.5 48q78 0 165 -7t146 -17v-66q-137 20 -290 21q-240 0 -336.5 -39t-127 -167t-30.5 -445t30.5 -445.5t127 -167.5t336.5 -39q162 0 299 21v-70q-140 -20 -320 -20q-250 0 -358.5 46t-148.5 191.5t-40 483.5z" />
<glyph unicode="D" horiz-adv-x="1419" d="M236 0v1409h419q285 0 399.5 -46t147.5 -182.5t33 -475.5q0 -340 -33 -476.5t-147.5 -182.5t-399.5 -46h-419zM309 70h305q287 0 387.5 30.5t130 150.5t29.5 454q0 332 -31.5 452.5t-132 151t-383.5 30.5h-305v-1269z" />
<glyph unicode="E" horiz-adv-x="1224" d="M236 0v1409h872v-70h-799v-591h703v-70h-703v-608h799v-70h-872z" />
<glyph unicode="F" horiz-adv-x="1148" d="M236 0v1409h831v-70h-758v-620h682v-70h-682v-649h-73z" />
<glyph unicode="G" horiz-adv-x="1398" d="M184 705q0 328 45 476t162 196t371 48q102 0 223 -10t203 -26v-66q-90 14 -193.5 23.5t-171.5 9.5q-266 0 -371.5 -31t-149.5 -163t-44 -457q0 -303 33 -432.5t133 -174.5t336 -45q72 0 180.5 7.5t179.5 17.5v567h-397v70h471v-697q-98 -14 -219 -24t-213 -10 q-258 0 -374 48t-160 195.5t-44 477.5z" />
<glyph unicode="H" horiz-adv-x="1511" d="M236 0v1409h73v-661h893v661h74v-1409h-74v678h-893v-678h-73z" />
<glyph unicode="I" horiz-adv-x="544" d="M236 0v1409h73v-1409h-73z" />
<glyph unicode="J" horiz-adv-x="663" d="M82 0v70q158 4 211 26.5t67.5 100t14.5 307.5v905h74v-868q0 -279 -19.5 -379.5t-87.5 -129t-260 -32.5z" />
<glyph unicode="K" horiz-adv-x="1361" d="M236 0v1409h73v-659h355l524 659h86l-549 -694l555 -715h-88l-528 680h-355v-680h-73z" />
<glyph unicode="L" horiz-adv-x="1097" d="M236 0v1409h73v-1339h717v-70h-790z" />
<glyph unicode="M" horiz-adv-x="1873" d="M236 0v1409h94l602 -1300h10l604 1300h92v-1409h-73v1266h-9l-587 -1266h-66l-588 1266h-8v-1266h-71z" />
<glyph unicode="N" horiz-adv-x="1511" d="M236 0v1409h71l889 -1274h8v1274h72v-1409h-72l-889 1274h-8v-1274h-71z" />
<glyph unicode="O" horiz-adv-x="1486" d="M184 705q0 348 32 487t142.5 186t384.5 47t385 -47t143 -186t32 -487t-32 -487.5t-142.5 -186.5t-385.5 -47q-274 0 -384.5 47t-142.5 186t-32 488zM258 705q0 -336 29.5 -462t119 -158t336.5 -32q248 0 337 32t119 158t30 462t-30 461.5t-119 157.5t-337 32t-337 -32 t-118.5 -158t-29.5 -461z" />
<glyph unicode="P" horiz-adv-x="1341" d="M236 0v1409h589q172 0 256 -56.5t105.5 -142.5t21.5 -225q0 -137 -22.5 -224t-106.5 -143.5t-254 -56.5h-516v-561h-73zM309 631h512q139 0 207 41t87.5 113.5t19.5 199.5q0 129 -17.5 200.5t-85 112.5t-211.5 41h-512v-708z" />
<glyph unicode="Q" horiz-adv-x="1486" d="M184 705q0 348 32 487t142.5 186t384.5 47t385 -47t143 -186t32 -487q0 -238 -11.5 -364t-49.5 -202t-118 -110l201 -260v-5h-88l-184 242q-90 -22 -292 -22h-18q-274 0 -384.5 47t-142.5 186t-32 488zM258 705q0 -336 29.5 -462t119 -158t336.5 -32q78 0 149 2t116 11 l-291 380h88l276 -360q66 27 96.5 92.5t41 184t10.5 342.5q0 336 -30 461.5t-119 157.5t-337 32t-337 -32t-118.5 -158t-29.5 -461z" />
<glyph unicode="R" horiz-adv-x="1402" d="M236 0v1409h626q162 0 242 -55.5t100.5 -138t20.5 -209.5q0 -102 -14.5 -175t-65.5 -130.5t-154 -82.5l248 -618h-82l-242 606q-27 -4 -84 -4h-522v-602h-73zM309 672h518q144 0 213.5 41t90 109.5t20.5 183.5q0 117 -17.5 184t-80 108t-195.5 41h-549v-667z" />
<glyph unicode="S" horiz-adv-x="1302" d="M164 1055q0 154 50 233.5t152.5 108t284.5 28.5q119 0 234.5 -7t181.5 -19v-68q-86 10 -200.5 17.5t-209.5 7.5q-129 0 -208.5 -14.5t-129.5 -47.5q-49 -33 -65 -90t-16 -153q0 -106 14 -156.5t56 -74t132 -34.5l357 -36q111 -12 169 -23.5t98 -42.5t58 -90 q10 -35 13.5 -80t3.5 -129q0 -182 -53.5 -269t-145.5 -109.5t-258 -22.5q-113 0 -247 7t-230 17v72q104 -10 236 -18.5t221 -8.5q117 0 185 9.5t126 39.5q55 29 73.5 97.5t18.5 175.5q0 139 -12.5 191t-63.5 74t-186 36l-375 39q-125 12 -182.5 54t-69.5 104.5t-12 181.5z " />
<glyph unicode="T" horiz-adv-x="1191" d="M82 1339v70h1028v-70h-477v-1339h-74v1339h-477z" />
<glyph unicode="U" horiz-adv-x="1468" d="M215 602v807h74v-868q0 -217 26.5 -312.5t117.5 -135.5t302 -40t302 40t117 135.5t26 312.5v868h73v-807q0 -270 -31.5 -393t-138 -174t-348.5 -51t-349 51t-139 174t-32 393z" />
<glyph unicode="V" horiz-adv-x="1357" d="M82 1409h80l512 -1296h10l514 1296h78l-561 -1409h-72z" />
<glyph unicode="W" horiz-adv-x="2015" d="M98 1409h80l371 -1276h12l410 1276h78l409 -1276h12l371 1276h76l-418 -1409h-72l-415 1276h-8l-416 -1276h-72z" />
<glyph unicode="X" horiz-adv-x="1380" d="M82 0l563 709l-555 700h92l502 -635h14l504 635h90l-557 -698l563 -711h-92l-508 641h-16l-510 -641h-90z" />
<glyph unicode="Y" horiz-adv-x="1226" d="M41 1409h86l479 -756h15l481 756h84l-537 -834v-575h-74v575z" />
<glyph unicode="Z" horiz-adv-x="1230" d="M123 0v66l887 1273h-865v70h957v-66l-885 -1273h901v-70h-995z" />
<glyph unicode="[" horiz-adv-x="632" d="M236 -307v1829h315v-68l-244 -8v-1677l244 -9v-67h-315z" />
<glyph unicode="\" horiz-adv-x="671" d="M0 1522h78l594 -1635h-76z" />
<glyph unicode="]" horiz-adv-x="632" d="M82 -240l244 9v1677l-244 8v68h315v-1829h-315v67z" />
<glyph unicode="^" horiz-adv-x="962" d="M143 909l285 625h107l284 -625h-76l-262 578l-262 -578h-76z" />
<glyph unicode="_" horiz-adv-x="696" d="M0 -262h696v-66h-696v66z" />
<glyph unicode="`" horiz-adv-x="395" d="M41 1511v11h94l219 -273v-10h-55z" />
<glyph unicode="a" horiz-adv-x="1175" d="M133 283q0 117 27.5 180t93 90t188.5 27q61 0 457 -11v95q0 158 -26.5 224t-97 86.5t-236.5 20.5q-72 0 -172.5 -8t-159.5 -18v67q141 25 360 25q174 0 258 -31t115 -110.5t31 -243.5v-676h-58l-6 170h-8q-39 -113 -142.5 -149.5t-246.5 -36.5q-137 0 -217 23.5t-120 88 t-40 187.5zM205 283q0 -98 24.5 -147.5t88 -68t190.5 -18.5q137 0 222 22.5t120 100.5q27 59 38 119.5t11 138.5v84h-436q-111 0 -163 -16.5t-73.5 -64.5t-21.5 -150z" />
<glyph unicode="b" horiz-adv-x="1220" d="M205 0v1522h71v-629h9q37 90 126 129t244 39q178 0 264.5 -44t117 -154.5t30.5 -340.5q0 -229 -30.5 -339.5t-116.5 -154.5t-265 -44q-147 0 -243.5 36.5t-135.5 149.5h-8l-6 -170h-57zM276 522q0 -117 5.5 -183.5t25.5 -127.5q27 -84 109 -123t219 -39q164 0 236.5 33 t98 128t25.5 312t-25.5 312.5t-98 128t-236.5 32.5q-137 0 -218 -38.5t-108 -118.5q-20 -63 -26.5 -133t-6.5 -183z" />
<glyph unicode="c" horiz-adv-x="937" d="M154 520q0 223 32.5 337t116.5 159t252 45q66 0 140.5 -6t125.5 -17v-67q-53 10 -123.5 17t-128.5 7q-152 0 -223.5 -37.5t-96 -134t-24.5 -299.5q0 -211 24.5 -307t96.5 -132t229 -36q63 0 136 8.5t120 18.5v-68q-47 -10 -121.5 -17t-144.5 -7q-186 0 -273 51 t-112.5 159.5t-25.5 325.5z" />
<glyph unicode="d" horiz-adv-x="1220" d="M154 522q0 229 30.5 340t116.5 155t264 44q156 0 245 -39t126 -129h8v629h72v-1522h-58l-6 170h-8q-39 -113 -135 -149.5t-244 -36.5q-178 0 -264 44t-116.5 154.5t-30.5 339.5zM225 522q0 -217 25.5 -312t98.5 -128t237 -33q137 0 218 38t107 118q23 68 28 138.5 t5 207.5q0 92 -5 155.5t-21 112.5q-33 94 -114 135t-229 41q-160 0 -230.5 -32.5t-95 -128t-24.5 -312.5z" />
<glyph unicode="e" horiz-adv-x="1150" d="M154 520q0 233 23.5 338t116.5 154t308 49q186 0 268 -46t104.5 -151.5t22.5 -339.5v-26h-772q0 -197 24.5 -286t103.5 -126t253 -37q82 0 180.5 8.5t169.5 20.5v-68q-59 -12 -159.5 -19t-200.5 -7q-197 0 -289 44t-122.5 153.5t-30.5 338.5zM225 563h701v43 q0 176 -29 257t-95.5 106.5t-205.5 25.5q-174 0 -249 -30.5t-98.5 -115.5t-23.5 -286z" />
<glyph unicode="f" horiz-adv-x="704" d="M61 979v65h222v236q0 104 38.5 156.5t111.5 69t200 16.5v-62q-113 0 -171.5 -14t-83 -49t-24.5 -105v-248h279v-65h-279v-979h-71v979h-222z" />
<glyph unicode="g" horiz-adv-x="1220" d="M154 522q0 229 30.5 340t116.5 155t264 44q147 0 243.5 -37t135.5 -150h8l6 170h58v-897q0 -231 -32 -347.5t-125 -169t-286 -52.5q-221 0 -383 14v68q190 -16 373 -16q170 0 250 41t105.5 138t25.5 300v29h-8q-37 -90 -126 -129t-245 -39q-178 0 -264 44t-116.5 154.5 t-30.5 339.5zM225 522q0 -217 25.5 -312t98.5 -128t237 -33q139 0 219 40t108 126q20 57 25.5 126t5.5 181q0 117 -4 180.5t-20 112.5q-31 96 -113 138t-221 42q-164 0 -237 -32.5t-98.5 -128t-25.5 -312.5z" />
<glyph unicode="h" d="M205 0v1522h71v-631h9q59 170 364 170q164 0 246 -39t109.5 -123t27.5 -244v-655h-71v645q0 158 -25 229.5t-91.5 96t-209.5 24.5q-168 0 -246 -57t-95.5 -146.5t-17.5 -250.5v-541h-71z" />
<glyph unicode="i" horiz-adv-x="481" d="M197 1397v125h88v-125h-88zM205 0v1044h71v-1044h-71z" />
<glyph unicode="j" horiz-adv-x="481" d="M-4 -348q96 0 139 10t56.5 32.5t13.5 74.5v1275h71v-1255q0 -92 -29.5 -134t-85 -53.5t-165.5 -11.5v62zM197 1397v125h88v-125h-88z" />
<glyph unicode="k" horiz-adv-x="1064" d="M205 0v1522h71v-955h175l436 477h90l-467 -507l473 -537h-94l-438 498h-175v-498h-71z" />
<glyph unicode="l" horiz-adv-x="481" d="M205 0v1522h71v-1522h-71z" />
<glyph unicode="m" horiz-adv-x="1828" d="M205 0v1044h57l6 -170h8q25 86 99 136.5t233 50.5q152 0 225.5 -43t98.5 -144h10q25 84 102.5 135.5t237.5 51.5q145 0 218 -39t98.5 -124t25.5 -243v-655h-72v645q0 158 -20.5 229.5t-78.5 96t-185 24.5q-152 0 -219.5 -53t-83 -141t-15.5 -260v-541h-71v645 q0 158 -20.5 229.5t-79 96t-185.5 24.5q-150 0 -218.5 -57t-84 -146.5t-15.5 -250.5v-541h-71z" />
<glyph unicode="n" d="M205 0v1044h57l6 -170h8q29 86 111 136.5t262 50.5q164 0 246 -39t109.5 -123t27.5 -244v-655h-71v645q0 158 -25 229.5t-91.5 96t-209.5 24.5q-168 0 -246 -57t-95.5 -146.5t-17.5 -250.5v-541h-71z" />
<glyph unicode="o" horiz-adv-x="1187" d="M154 520q0 246 24.5 351.5t114.5 147.5t301 42t301 -42t114.5 -147.5t24.5 -351.5t-24.5 -350t-114.5 -145t-301 -41t-301 41t-114.5 145t-24.5 350zM225 520q0 -229 17.5 -316t90.5 -121t261 -34t261 34t90.5 121t17.5 316t-17.5 317.5t-91.5 123t-260 34.5t-260 -34.5 t-91.5 -122.5t-17.5 -318z" />
<glyph unicode="p" horiz-adv-x="1220" d="M205 -410v1454h57l6 -170h8q39 113 135.5 150t243.5 37q178 0 264.5 -44t117 -154.5t30.5 -340.5q0 -229 -30.5 -339.5t-116.5 -154.5t-265 -44q-156 0 -244.5 38.5t-125.5 129.5h-9v-562h-71zM276 522q0 -111 4.5 -177t18.5 -109q35 -100 116 -143.5t220 -43.5 q164 0 236.5 33t98 128t25.5 312t-25.5 312.5t-98 128t-236.5 32.5q-139 0 -220 -40t-110 -128q-18 -57 -23.5 -122.5t-5.5 -182.5z" />
<glyph unicode="q" horiz-adv-x="1220" d="M154 522q0 229 30.5 340t116.5 155t264 44q147 0 243.5 -37t135.5 -150h8l6 170h58v-1454h-72v562h-8q-37 -90 -126 -129t-245 -39q-178 0 -264 44t-116.5 154.5t-30.5 339.5zM225 522q0 -217 25.5 -312t98.5 -128t237 -33q139 0 220 41t112 133q16 51 21 119t5 180 q0 117 -5 184.5t-28 133.5q-27 80 -107.5 117.5t-217.5 37.5q-164 0 -237 -32.5t-98.5 -128t-25.5 -312.5z" />
<glyph unicode="r" horiz-adv-x="698" d="M205 0v1044h55l8 -223h8q33 137 124.5 188.5t236.5 51.5v-74q-145 0 -224 -52t-108 -149.5t-29 -255.5v-530h-71z" />
<glyph unicode="s" horiz-adv-x="1024" d="M133 764q0 133 44 196.5t125 82t226 18.5q70 0 155 -7t151 -18v-67q-90 14 -164 20t-176 6t-161 -12t-93.5 -59t-34.5 -146q0 -82 14 -122t46 -54t102 -20l292 -29q100 -10 146.5 -32.5t66 -78t19.5 -170.5q0 -119 -37 -181t-116 -84.5t-218 -22.5q-80 0 -180 6t-174 16 v68q145 -16 211.5 -20.5t171.5 -4.5q117 0 174 21.5t76.5 68.5t19.5 133q0 94 -14 135.5t-44 54.5t-99 19l-304 29q-92 10 -139 35.5t-66.5 76t-19.5 142.5z" />
<glyph unicode="t" horiz-adv-x="673" d="M61 979v65h222v304h71v-304h258v-65h-258v-979h-71v979h-222z" />
<glyph unicode="u" d="M205 389v655h71v-645q0 -158 25 -229.5t91.5 -96t209.5 -24.5q168 0 246 57.5t95.5 146.5t17.5 251v540h71v-1044h-57l-6 170h-8q-29 -86 -111 -136t-262 -50q-164 0 -246 38.5t-109.5 122.5t-27.5 244z" />
<glyph unicode="v" horiz-adv-x="1067" d="M72 1044h78l378 -944h13l379 944h75l-426 -1044h-71z" />
<glyph unicode="w" horiz-adv-x="1644" d="M80 1044h78l317 -927h12l297 927h78l299 -927h13l315 927h76l-365 -1044h-72l-301 920h-12l-299 -920h-72z" />
<glyph unicode="x" horiz-adv-x="1099" d="M82 0l422 530l-408 514h92l357 -450h10l358 450h91l-408 -512l422 -532h-92l-371 469h-10l-373 -469h-90z" />
<glyph unicode="y" d="M205 389v655h71v-645q0 -158 25 -229.5t91.5 -96t209.5 -24.5q168 0 246 57.5t95.5 146.5t17.5 251v540h71v-907q0 -221 -34.5 -337.5t-130 -169t-285.5 -52.5q-202 0 -349 14v68q176 -16 338 -16q174 0 257 46t108 138t25 270v56h-9q-59 -170 -364 -170 q-164 0 -246 38.5t-109.5 122.5t-27.5 244z" />
<glyph unicode="z" horiz-adv-x="1015" d="M113 0v57l690 922h-666v65h762v-57l-688 -921h692v-66h-790z" />
<glyph unicode="{" horiz-adv-x="614" d="M61 578v59q119 0 172.5 77t53.5 189v236q0 119 59.5 227.5t151.5 155.5h75q-94 -59 -154.5 -159.5t-60.5 -199.5v-248q0 -123 -41 -200.5t-133 -102.5v-10q92 -25 133 -102.5t41 -200.5v-248q0 -98 60.5 -198.5t154.5 -159.5h-75q-92 47 -151.5 155.5t-59.5 227.5v235 q0 113 -53.5 190t-172.5 77z" />
<glyph unicode="|" horiz-adv-x="542" d="M236 -330v1852h71v-1852h-71z" />
<glyph unicode="}" horiz-adv-x="614" d="M41 -307q94 59 154.5 159.5t60.5 198.5v248q0 123 41 201t133 102v10q-92 25 -133 103t-41 200v248q0 98 -60.5 198.5t-154.5 160.5h76q92 -47 151.5 -156t59.5 -227v-236q0 -113 53 -189.5t172 -76.5v-59q-119 0 -172 -77t-53 -190v-235q0 -119 -59.5 -227.5 t-151.5 -155.5h-76z" />
<glyph unicode="~" horiz-adv-x="1017" d="M158 510q0 113 24.5 154t102.5 41q55 0 106 -13.5t139 -44.5q68 -23 114 -35t89 -12q45 0 58.5 26.5t13.5 100.5h55q0 -113 -24.5 -154t-102.5 -41q-53 0 -104 13.5t-144 44.5q-63 23 -110 35t-90 12q-45 0 -58.5 -26.5t-13.5 -100.5h-55z" />
<glyph unicode="&#xa1;" horiz-adv-x="405" d="M154 911v133h98v-133h-98zM164 -63q0 256 10 753h57q10 -498 11 -753v-302h-78v302z" />
<glyph unicode="&#xa2;" horiz-adv-x="956" d="M154 700q0 238 35.5 358t114.5 163t231 47v157h69v-157q106 -6 230 -25v-69q-94 25 -230 24v-991q61 2 129 10t111 21v-74q-109 -23 -240 -25v-155h-69v155q-164 6 -244 55.5t-108.5 163t-28.5 342.5zM229 705q0 -213 23.5 -313.5t86 -138.5t196.5 -44v989 q-131 -6 -193.5 -45t-87.5 -139.5t-25 -308.5z" />
<glyph unicode="&#xa3;" horiz-adv-x="1189" d="M123 0v70h151v628h-151v70h151q0 283 37 417t140.5 187t324.5 53q78 0 159 -7t128 -19v-66q-59 10 -133 16.5t-123 6.5q-127 0 -204 -9.5t-126 -37.5q-80 -45 -104.5 -178.5t-24.5 -362.5h561v-70h-561v-628h739v-70h-964z" />
<glyph unicode="&#xa4;" horiz-adv-x="1562" d="M154 10l245 246q-37 57 -48 156.5t-11 289.5q0 188 11 288t46 159l-243 244l47 47l239 -240q47 37 128 52.5t212 15.5q133 0 213 -15.5t127 -54.5l242 242l45 -45l-244 -244q35 -59 46.5 -159.5t11.5 -289.5q0 -188 -11.5 -287.5t-46.5 -158.5l246 -246l-47 -47l-244 244 q-47 -37 -128 -51.5t-210 -14.5q-131 0 -211 15.5t-127 52.5l-243 -244zM412 702q0 -242 17 -332.5t90 -126.5t261 -36q189 0 261.5 36t90 127t17.5 332q0 242 -17.5 334t-91 129t-260.5 37q-186 0 -260 -37t-91 -129t-17 -334z" />
<glyph unicode="&#xa5;" horiz-adv-x="1267" d="M82 1409h84l280 -491h375l283 491h82l-291 -491h215v-70h-256l-143 -244h399v-69h-440v-535h-74v535h-440v69h399l-143 244h-256v70h215zM487 848l140 -244h14l139 244h-293z" />
<glyph unicode="&#xa6;" horiz-adv-x="542" d="M236 -330v723h71v-723h-71zM236 799v723h71v-723h-71z" />
<glyph unicode="&#xa7;" horiz-adv-x="1431" d="M143 582q0 143 44 239.5t182 98.5q-29 39 -36 88t-7 127q0 119 48 181t142 85.5t248 23.5q86 0 182 -6t156 -16v-68q-158 20 -328 21q-137 0 -212 -12.5t-119 -58.5t-44 -144q0 -90 15.5 -136.5t58.5 -73t135 -50.5l344 -93q135 -37 204 -69.5t100.5 -83.5t31.5 -141 q0 -143 -45 -239.5t-180 -98.5q29 -41 36 -90.5t7 -124.5q0 -119 -48 -181.5t-142.5 -86t-247.5 -23.5q-86 0 -182.5 6t-155.5 16v68q158 -20 327 -21q137 0 212 12.5t119 58.5t44 144q0 88 -13 134.5t-45 71t-100 42.5l-366 99q-150 39 -224.5 73.5t-107.5 86t-33 141.5z M217 608q0 -74 11.5 -113.5t42 -63t94.5 -40.5l536 -143l41 -10q78 -23 102 -23q170 0 170 250q0 106 -23.5 148t-94.5 61l-559 149l-41 13q-8 2 -47 12t-62 10q-170 0 -170 -250z" />
<glyph unicode="&#xa8;" horiz-adv-x="538" d="M41 1372v125h88v-125h-88zM410 1372v125h88v-125h-88z" />
<glyph unicode="&#xa9;" horiz-adv-x="1482" d="M184 705q0 358 28 492t136.5 181t392.5 47q285 0 393.5 -47t136 -181t27.5 -492t-27.5 -492.5t-136 -181.5t-393.5 -47q-284 0 -392.5 47t-136.5 181t-28 493zM244 705q0 -342 25.5 -466t119.5 -163t352 -39t352.5 39t120 162.5t25.5 466.5q0 342 -25.5 465.5t-120 162.5 t-352.5 39t-352 -39t-119.5 -162.5t-25.5 -465.5zM489 705q0 180 21.5 258.5t81 104.5t196.5 26q125 0 175 -13v-59q-68 10 -166 10q-117 0 -165 -19.5t-63.5 -84t-15.5 -223.5q0 -160 15.5 -224.5t63.5 -84t165 -19.5q102 0 170 10v-61q-76 -10 -179 -11q-137 0 -196.5 25 t-81 103.5t-21.5 261.5z" />
<glyph unicode="&#xaa;" horiz-adv-x="823" d="M92 866q0 86 19.5 132t67.5 65.5t140 19.5l314 -6v60q0 106 -17.5 152t-66.5 59.5t-164 13.5q-59 0 -133 -5t-111 -14v66q94 16 265 16q127 0 188 -22.5t83.5 -80.5t22.5 -177v-490h-55l-10 90h-8q-35 -63 -100.5 -80.5t-161.5 -17.5q-101 0 -158 16.5t-86 63.5t-29 139z M156 866q0 -66 17 -99.5t61.5 -46.5t127.5 -13q97 0 159.5 17t84.5 73q27 68 27 172v51h-299q-74 0 -111 -11.5t-52 -43t-15 -99.5z" />
<glyph unicode="&#xab;" horiz-adv-x="931" d="M123 623l270 421h64l-244 -421l244 -420h-64zM434 623l271 421h63l-244 -421l244 -420h-63z" />
<glyph unicode="&#xac;" horiz-adv-x="1103" d="M143 487v70h818v-448h-70v378h-748z" />
<glyph unicode="&#xad;" horiz-adv-x="727" d="M133 549v74h461v-74h-461z" />
<glyph unicode="&#xae;" horiz-adv-x="1482" d="M184 705q0 358 28 492t136.5 181t392.5 47q285 0 393.5 -47t136 -181t27.5 -492t-27.5 -492.5t-136 -181.5t-393.5 -47t-393 47t-136 181t-28 493zM244 705q0 -342 25.5 -466t119.5 -163t352 -39t352.5 39t120 162.5t25.5 466.5q0 342 -25.5 465.5t-120 162.5t-352.5 39 t-352 -39t-119.5 -162.5t-25.5 -465.5zM481 322v761h338q90 0 135 -31.5t56.5 -77.5t11.5 -114q0 -80 -23.5 -134t-91.5 -77l131 -327h-73l-123 317q-10 -2 -39 -2h-258v-315h-64zM545 698h256q69 0 104 20.5t44 53.5t9 88t-8 89t-38.5 53.5t-94.5 19.5h-272v-324z" />
<glyph unicode="&#xaf;" horiz-adv-x="727" d="M133 1446v74h461v-74h-461z" />
<glyph unicode="&#xb0;" horiz-adv-x="788" d="M143 1118q0 137 15.5 197.5t66.5 85t170 24.5t170 -24.5t65.5 -84t14.5 -198.5t-14.5 -198.5t-65.5 -83t-170 -23.5t-170 23.5t-66.5 84t-15.5 197.5zM213 1118q0 -117 8 -161t45 -62t129 -18t128 18t44 62t8 161t-8 162t-44 63.5t-128 18.5t-129 -18.5t-45 -63.5 t-8 -162z" />
<glyph unicode="&#xb1;" horiz-adv-x="1105" d="M143 0v66h820v-66h-820zM143 754v65h375v377h66v-377h379v-65h-379v-377h-66v377h-375z" />
<glyph unicode="&#xb2;" horiz-adv-x="718" d="M104 655v80q0 96 5.5 135t29 63.5t80.5 49.5l234 98q53 25 71.5 54.5t18.5 89.5q0 57 -15.5 83.5t-53.5 37t-116 10.5q-49 0 -239 -17v70q131 16 248 16q84 0 134 -11t81.5 -52t31.5 -127q0 -94 -30.5 -136t-116.5 -81l-238 -105q-43 -18 -51 -42.5t-8 -102.5v-43h444 v-70h-510z" />
<glyph unicode="&#xb3;" horiz-adv-x="696" d="M80 655v66q180 -16 223 -16q111 0 162 28.5t51 116.5q0 84 -33.5 120t-109.5 36h-162v63h162q55 0 95 32t40 111q0 88 -49 116t-166 28q-90 0 -209 -15v66q121 18 221 18q156 0 215.5 -47t59.5 -164t-95 -170v-8q104 -49 105 -178q0 -78 -22.5 -125t-85 -71.5 t-179.5 -24.5q-102 0 -223 18z" />
<glyph unicode="&#xb4;" horiz-adv-x="395" d="M41 1239v10l219 273h94v-11l-258 -272h-55z" />
<glyph unicode="&#xb5;" d="M205 -389v1433h71v-645q0 -158 25 -229.5t91.5 -96t209.5 -24.5q168 0 246 57.5t95.5 146.5t17.5 251v540h71v-1044h-57l-6 170h-8q-29 -86 -111 -136t-262 -50q-115 0 -187.5 21.5t-113.5 68.5h-11v-463h-71z" />
<glyph unicode="&#xb6;" horiz-adv-x="1140" d="M154 930q0 229 26.5 320t127 125t345.5 34h74v-1704h-74v750q-248 0 -347 32.5t-125.5 122.5t-26.5 320zM862 -295v1704h74v-1704h-74z" />
<glyph unicode="&#xb7;" horiz-adv-x="360" d="M131 547v133h98v-133h-98z" />
<glyph unicode="&#xb8;" horiz-adv-x="253" d="M41 -379l119 395h53v-10l-90 -395h-82v10z" />
<glyph unicode="&#xb9;" horiz-adv-x="446" d="M63 1235v72l179 102h53v-754h-70v664z" />
<glyph unicode="&#xba;" horiz-adv-x="847" d="M102 1032q0 178 18.5 255t84 107.5t219.5 30.5t219.5 -30.5t83.5 -107.5t18 -255q0 -180 -18 -255t-82.5 -103.5t-220.5 -28.5t-220.5 28.5t-83 103.5t-18.5 255zM170 1032q0 -160 11.5 -220t62.5 -83.5t180 -23.5t180 23.5t62.5 83.5t11.5 220q0 158 -11.5 219.5 t-62.5 86t-180 24.5t-180 -24.5t-62.5 -86t-11.5 -219.5z" />
<glyph unicode="&#xbb;" horiz-adv-x="931" d="M164 203l244 420l-244 421h63l271 -421l-271 -420h-63zM475 203l244 420l-244 421h64l270 -421l-270 -420h-64z" />
<glyph unicode="&#xbc;" horiz-adv-x="1386" d="M63 1235v72l179 102h53v-754h-70v664zM127 0l920 1409h86l-920 -1409h-86zM659 176v55l299 523h76l-293 -510h336v317h72v-317h115v-68h-115v-176h-74v176h-416z" />
<glyph unicode="&#xbd;" horiz-adv-x="1589" d="M63 1235v72l179 102h53v-754h-70v664zM127 0l920 1409h86l-920 -1409h-86zM915 0v80q0 96 5.5 135t29 63.5t80.5 49.5l234 98q53 25 71.5 54.5t18.5 88.5q0 57 -15.5 84t-53.5 37t-116 10q-49 0 -239 -16v70q131 16 248 16q84 0 134 -11t81.5 -52t31.5 -127 q0 -94 -30.5 -136.5t-118.5 -81.5l-242 -106q-39 -16 -46 -43t-7 -100v-43h444v-70h-510z" />
<glyph unicode="&#xbe;" horiz-adv-x="1619" d="M123 655v66q180 -16 223 -16q111 0 162 28.5t51 116.5q0 84 -33.5 120t-109.5 36h-162v63h162q55 0 95 32t40 111q0 88 -49 116t-166 28q-90 0 -209 -15v66q121 18 221 18q156 0 215.5 -47t59.5 -164t-95 -170v-8q104 -49 105 -178q0 -78 -22.5 -125t-85 -71.5 t-179.5 -24.5q-102 0 -223 18zM373 0l919 1409h86l-919 -1409h-86zM893 176v55l299 523h76l-293 -510h336v317h71v-317h115v-68h-115v-176h-73v176h-416z" />
<glyph unicode="&#xbf;" horiz-adv-x="872" d="M143 -55q0 109 10.5 172t51.5 114.5t129 81.5l112 41q72 27 98.5 42.5t34 39t7.5 80.5v174h73v-178q0 -76 -14 -114t-47 -57t-106 -46l-54 -19q-100 -35 -145 -66.5t-60.5 -83.5t-15.5 -159q0 -123 33 -181t103.5 -77.5t209.5 -19.5q133 0 350 24v-65q-84 -12 -185 -20.5 t-175 -8.5q-150 0 -237 26.5t-130 96.5t-43 203zM573 911v133h99v-133h-99z" />
<glyph unicode="&#xc0;" horiz-adv-x="1398" d="M82 0l582 1409h71l582 -1409h-80l-186 455h-705l-186 -455h-78zM375 524h647l-317 781h-11zM434 1808v11h94l219 -273v-10h-55z" />
<glyph unicode="&#xc1;" horiz-adv-x="1398" d="M82 0l582 1409h71l582 -1409h-80l-186 455h-705l-186 -455h-78zM375 524h647l-317 781h-11zM649 1536v10l219 273h94v-11l-258 -272h-55z" />
<glyph unicode="&#xc2;" horiz-adv-x="1398" d="M82 0l582 1409h71l582 -1409h-80l-186 455h-705l-186 -455h-78zM375 524h647l-317 781h-11zM432 1536v10l219 273h94l219 -273v-10h-55l-211 221l-211 -221h-55z" />
<glyph unicode="&#xc3;" horiz-adv-x="1398" d="M82 0l582 1409h71l582 -1409h-80l-186 455h-705l-186 -455h-78zM348 1536q0 113 24.5 153.5t102.5 40.5q55 0 106.5 -13t139.5 -44q68 -23 113.5 -35t88.5 -12q45 0 58.5 26.5t13.5 100.5h55q0 -113 -24.5 -154t-102.5 -41q-55 0 -106 13.5t-139 43.5q-68 23 -114 35.5 t-89 12.5q-45 0 -58.5 -27t-13.5 -100h-55zM375 524h647l-317 781h-11z" />
<glyph unicode="&#xc4;" horiz-adv-x="1398" d="M82 0l582 1409h71l582 -1409h-80l-186 455h-705l-186 -455h-78zM375 524h647l-317 781h-11zM471 1577v125h88v-125h-88zM840 1577v125h88v-125h-88z" />
<glyph unicode="&#xc5;" horiz-adv-x="1398" d="M82 0l557 1352q-78 4 -114 23.5t-46 56t-10 110.5q0 82 13.5 120t61.5 55.5t154 17.5q109 0 157 -17.5t61.5 -55.5t13.5 -120q0 -74 -9.5 -109.5t-45 -56t-115.5 -24.5l557 -1352h-80l-186 455h-705l-186 -455h-78zM375 524h647l-317 781h-11zM537 1542q0 -61 8 -85.5 t40.5 -36t112.5 -11.5t114 11.5t42 36t8 85.5t-8 87t-42 37t-114 11t-112.5 -11t-40.5 -36.5t-8 -87.5z" />
<glyph unicode="&#xc6;" horiz-adv-x="1939" d="M0 0l725 1409h1098v-70h-1004l185 -591h722v-70h-702l188 -608h611v-70h-668l-139 455h-707l-231 -455h-78zM346 524h647l-237 781h-11z" />
<glyph unicode="&#xc7;" horiz-adv-x="1183" d="M184 705q0 334 40 479t149.5 193t357.5 48q78 0 165 -7t146 -17v-66q-137 20 -290 21q-240 0 -336.5 -39t-127 -167t-30.5 -445t30.5 -445.5t127 -167.5t336.5 -39q162 1 299 21v-70q-139 -20 -320 -20q-78 0 -113 2l-86 -375h-81v10l110 369q-164 12 -241.5 72.5 t-106.5 205t-29 437.5z" />
<glyph unicode="&#xc8;" horiz-adv-x="1224" d="M236 0v1409h872v-70h-799v-591h703v-70h-703v-608h799v-70h-872zM418 1808v11h94l219 -273v-10h-55z" />
<glyph unicode="&#xc9;" horiz-adv-x="1224" d="M236 0v1409h872v-70h-799v-591h703v-70h-703v-608h799v-70h-872zM614 1536v10l219 273h94v-11l-258 -272h-55z" />
<glyph unicode="&#xca;" horiz-adv-x="1224" d="M236 0v1409h872v-70h-799v-591h703v-70h-703v-608h799v-70h-872zM418 1536v10l219 273h94l219 -273v-10h-55l-211 221l-211 -221h-55z" />
<glyph unicode="&#xcb;" horiz-adv-x="1224" d="M236 0v1409h872v-70h-799v-591h703v-70h-703v-608h799v-70h-872zM461 1577v125h88v-125h-88zM830 1577v125h88v-125h-88z" />
<glyph unicode="&#xcc;" horiz-adv-x="544" d="M16 1808v11h94l219 -273v-10h-55zM236 0v1409h73v-1409h-73z" />
<glyph unicode="&#xcd;" horiz-adv-x="544" d="M219 1536v10l219 273h94v-11l-258 -272h-55zM236 0v1409h73v-1409h-73z" />
<glyph unicode="&#xce;" horiz-adv-x="544" d="M6 1536v10l219 273h94l219 -273v-10h-55l-211 221l-211 -221h-55zM236 0v1409h73v-1409h-73z" />
<glyph unicode="&#xcf;" horiz-adv-x="544" d="M43 1575v125h88v-125h-88zM236 0v1409h73v-1409h-73zM412 1575v125h88v-125h-88z" />
<glyph unicode="&#xd0;" horiz-adv-x="1419" d="M92 678v74h144v657h419q285 0 399.5 -46t147.5 -182.5t33 -475.5q0 -340 -33 -476.5t-147.5 -182.5t-399.5 -46h-419v678h-144zM309 70h305q287 0 387.5 30.5t130 150.5t29.5 454q0 332 -31.5 452.5t-132 151t-383.5 30.5h-305v-587h264v-74h-264v-608z" />
<glyph unicode="&#xd1;" horiz-adv-x="1511" d="M236 0v1409h71l889 -1274h8v1274h72v-1409h-72l-889 1274h-8v-1274h-71zM414 1536q0 113 24.5 153.5t102.5 40.5q55 0 106.5 -13t139.5 -44q68 -23 113.5 -35t88.5 -12q45 0 58.5 26.5t13.5 100.5h55q0 -113 -24.5 -154t-102.5 -41q-55 0 -106 13.5t-139 43.5 q-68 23 -114 35.5t-89 12.5q-45 0 -58.5 -27t-13.5 -100h-55z" />
<glyph unicode="&#xd2;" horiz-adv-x="1486" d="M184 705q0 348 32 487t142.5 186t384.5 47t385 -47t143 -186t32 -487t-32 -487.5t-142.5 -186.5t-385.5 -47q-274 0 -384.5 47t-142.5 186t-32 488zM258 705q0 -336 29.5 -462t119 -158t336.5 -32q248 0 337 32t119 158t30 462t-30 461.5t-119 157.5t-337 32t-337 -32 t-118.5 -158t-29.5 -461zM465 1808v11h94l219 -273v-10h-55z" />
<glyph unicode="&#xd3;" horiz-adv-x="1486" d="M184 705q0 348 32 487t142.5 186t384.5 47t385 -47t143 -186t32 -487t-32 -487.5t-142.5 -186.5t-385.5 -47q-274 0 -384.5 47t-142.5 186t-32 488zM258 705q0 -336 29.5 -462t119 -158t336.5 -32q248 0 337 32t119 158t30 462t-30 461.5t-119 157.5t-337 32t-337 -32 t-118.5 -158t-29.5 -461zM696 1536v10l219 273h94v-11l-258 -272h-55z" />
<glyph unicode="&#xd4;" horiz-adv-x="1486" d="M184 705q0 348 32 487t142.5 186t384.5 47t385 -47t143 -186t32 -487t-32 -487.5t-142.5 -186.5t-385.5 -47q-274 0 -384.5 47t-142.5 186t-32 488zM258 705q0 -336 29.5 -462t119 -158t336.5 -32q248 0 337 32t119 158t30 462t-30 461.5t-119 157.5t-337 32t-337 -32 t-118.5 -158t-29.5 -461zM477 1536v10l219 273h94l219 -273v-10h-55l-211 221l-211 -221h-55z" />
<glyph unicode="&#xd5;" horiz-adv-x="1486" d="M184 705q0 348 32 487t142.5 186t384.5 47t385 -47t143 -186t32 -487t-32 -487.5t-142.5 -186.5t-385.5 -47q-274 0 -384.5 47t-142.5 186t-32 488zM258 705q0 -336 29.5 -462t119 -158t336.5 -32q248 0 337 32t119 158t30 462t-30 461.5t-119 157.5t-337 32t-337 -32 t-118.5 -158t-29.5 -461zM391 1536q0 113 24.5 153.5t102.5 40.5q55 0 106.5 -13t139.5 -44q68 -23 113.5 -35t88.5 -12q45 0 58.5 26.5t13.5 100.5h55q0 -113 -24.5 -154t-102.5 -41q-55 0 -106 13.5t-139 43.5q-68 23 -114 35.5t-89 12.5q-45 0 -58.5 -27t-13.5 -100h-55z " />
<glyph unicode="&#xd6;" horiz-adv-x="1486" d="M184 705q0 348 32 487t142.5 186t384.5 47t385 -47t143 -186t32 -487t-32 -487.5t-142.5 -186.5t-385.5 -47q-274 0 -384.5 47t-142.5 186t-32 488zM258 705q0 -336 29.5 -462t119 -158t336.5 -32q248 0 337 32t119 158t30 462t-30 461.5t-119 157.5t-337 32t-337 -32 t-118.5 -158t-29.5 -461zM514 1577v125h88v-125h-88zM883 1577v125h88v-125h-88z" />
<glyph unicode="&#xd7;" horiz-adv-x="956" d="M143 805l47 47l289 -289l289 289l45 -45l-289 -289l289 -289l-47 -47l-289 289l-287 -287l-45 45l287 287z" />
<glyph unicode="&#xd8;" horiz-adv-x="1486" d="M184 -113l115 181q-51 43 -75.5 121.5t-32 194.5t-7.5 321q0 348 32 487t142.5 186t384.5 47q145 0 237.5 -10t152.5 -39l92 146h78l-115 -181q51 -43 75.5 -121.5t32 -194.5t7.5 -320q0 -348 -32 -487.5t-142.5 -186.5t-385.5 -47q-147 0 -239 10t-152 39l-92 -146h-76z M258 705q0 -269 15.5 -393t66.5 -181l754 1186q-49 25 -126 32t-225 7q-248 0 -337 -32t-118.5 -158t-29.5 -461zM391 92q49 -25 126 -32t226 -7q248 0 337 32t119 158t30 462q0 268 -15.5 392t-66.5 181z" />
<glyph unicode="&#xd9;" horiz-adv-x="1468" d="M215 602v807h74v-868q0 -217 26.5 -312.5t117.5 -135.5t302 -40t302 40t117 135.5t26 312.5v868h73v-807q0 -270 -31.5 -393t-138 -174t-348.5 -51t-349 51t-139 174t-32 393zM514 1808v11h94l219 -273v-10h-55z" />
<glyph unicode="&#xda;" horiz-adv-x="1468" d="M215 602v807h74v-868q0 -217 26.5 -312.5t117.5 -135.5t302 -40t302 40t117 135.5t26 312.5v868h73v-807q0 -270 -31.5 -393t-138 -174t-348.5 -51t-349 51t-139 174t-32 393zM672 1536v10l219 273h94v-11l-258 -272h-55z" />
<glyph unicode="&#xdb;" horiz-adv-x="1468" d="M215 602v807h74v-868q0 -217 26.5 -312.5t117.5 -135.5t302 -40t302 40t117 135.5t26 312.5v868h73v-807q0 -270 -31.5 -393t-138 -174t-348.5 -51t-349 51t-139 174t-32 393zM469 1536v10l219 273h94l219 -273v-10h-55l-211 221l-211 -221h-55z" />
<glyph unicode="&#xdc;" horiz-adv-x="1468" d="M215 602v807h74v-868q0 -217 26.5 -312.5t117.5 -135.5t302 -40t302 40t117 135.5t26 312.5v868h73v-807q0 -270 -31.5 -393t-138 -174t-348.5 -51t-349 51t-139 174t-32 393zM506 1577v125h88v-125h-88zM875 1577v125h88v-125h-88z" />
<glyph unicode="&#xdd;" horiz-adv-x="1226" d="M41 1409h86l479 -756h15l481 756h84l-537 -834v-575h-74v575zM578 1536v10l219 273h94v-11l-258 -272h-55z" />
<glyph unicode="&#xde;" horiz-adv-x="1341" d="M236 0v1409h73v-268h516q172 0 256 -56.5t105.5 -142.5t21.5 -225q0 -137 -22.5 -224t-106.5 -143.5t-254 -56.5h-516v-293h-73zM309 362h512q139 0 207 41t87.5 114t19.5 200q0 129 -17.5 200.5t-85 112.5t-211.5 41h-512v-709z" />
<glyph unicode="&#xdf;" horiz-adv-x="1255" d="M205 0v1079q0 162 43 260.5t142 147.5t274 49q164 0 255 -39t127.5 -115.5t36.5 -199.5t-57 -188.5t-180 -86.5v-8q131 -20 193.5 -112.5t62.5 -288.5q0 -201 -30 -304.5t-115 -148.5t-257 -45h-190v66h149q176 0 249 25.5t97.5 107.5t24.5 280q0 152 -31.5 235 t-107.5 116.5t-215 33.5h-84v66h84q180 0 258 60.5t78 201.5q0 106 -32 165.5t-109.5 86t-223.5 26.5q-135 0 -215 -31.5t-119 -118.5t-39 -251v-1069h-69z" />
<glyph unicode="&#xe0;" horiz-adv-x="1175" d="M133 283q0 117 27.5 180t93 90t188.5 27q61 0 457 -11v95q0 158 -26.5 224t-97 86.5t-236.5 20.5q-72 0 -172.5 -8t-159.5 -18v67q141 25 360 25q174 0 258 -31t115 -110.5t31 -243.5v-676h-58l-6 170h-8q-39 -113 -142.5 -149.5t-246.5 -36.5q-137 0 -217 23.5t-120 88 t-40 187.5zM205 283q0 -98 24.5 -147.5t88 -68t190.5 -18.5q137 0 222 22.5t120 100.5q27 59 38 119.5t11 138.5v84h-436q-111 0 -163 -16.5t-73.5 -64.5t-21.5 -150zM369 1511v11h94l219 -273v-10h-55z" />
<glyph unicode="&#xe1;" horiz-adv-x="1175" d="M133 283q0 117 27.5 180t93 90t188.5 27q61 0 457 -11v95q0 158 -26.5 224t-97 86.5t-236.5 20.5q-72 0 -172.5 -8t-159.5 -18v67q141 25 360 25q174 0 258 -31t115 -110.5t31 -243.5v-676h-58l-6 170h-8q-39 -113 -142.5 -149.5t-246.5 -36.5q-137 0 -217 23.5t-120 88 t-40 187.5zM205 283q0 -98 24.5 -147.5t88 -68t190.5 -18.5q137 0 222 22.5t120 100.5q27 59 38 119.5t11 138.5v84h-436q-111 0 -163 -16.5t-73.5 -64.5t-21.5 -150zM520 1239v10l219 273h94v-11l-258 -272h-55z" />
<glyph unicode="&#xe2;" horiz-adv-x="1175" d="M133 283q0 117 27.5 180t93 90t188.5 27q61 0 457 -11v95q0 158 -26.5 224t-97 86.5t-236.5 20.5q-72 0 -172.5 -8t-159.5 -18v67q141 25 360 25q174 0 258 -31t115 -110.5t31 -243.5v-676h-58l-6 170h-8q-39 -113 -142.5 -149.5t-246.5 -36.5q-137 0 -217 23.5t-120 88 t-40 187.5zM205 283q0 -98 24.5 -147.5t88 -68t190.5 -18.5q137 0 222 22.5t120 100.5q27 59 38 119.5t11 138.5v84h-436q-111 0 -163 -16.5t-73.5 -64.5t-21.5 -150zM328 1239v10l219 273h94l219 -273v-10h-55l-211 221l-211 -221h-55z" />
<glyph unicode="&#xe3;" horiz-adv-x="1175" d="M133 283q0 117 27.5 180t93 90t188.5 27q61 0 457 -11v95q0 158 -26.5 224t-97 86.5t-236.5 20.5q-72 0 -172.5 -8t-159.5 -18v67q141 25 360 25q174 0 258 -31t115 -110.5t31 -243.5v-676h-58l-6 170h-8q-39 -113 -142.5 -149.5t-246.5 -36.5q-137 0 -217 23.5t-120 88 t-40 187.5zM205 283q0 -98 24.5 -147.5t88 -68t190.5 -18.5q137 0 222 22.5t120 100.5q27 59 38 119.5t11 138.5v84h-436q-111 0 -163 -16.5t-73.5 -64.5t-21.5 -150zM236 1305q0 113 24.5 153.5t102.5 40.5q55 0 106.5 -13t139.5 -44q68 -23 113.5 -35t88.5 -12 q45 0 58.5 26.5t13.5 100.5h55q0 -113 -24.5 -154t-102.5 -41q-55 0 -106 13.5t-139 43.5q-68 23 -114 35.5t-89 12.5q-45 0 -58.5 -27t-13.5 -100h-55z" />
<glyph unicode="&#xe4;" horiz-adv-x="1175" d="M133 283q0 117 27.5 180t93 90t188.5 27q61 0 457 -11v95q0 158 -26.5 224t-97 86.5t-236.5 20.5q-72 0 -172.5 -8t-159.5 -18v67q141 25 360 25q174 0 258 -31t115 -110.5t31 -243.5v-676h-58l-6 170h-8q-39 -113 -142.5 -149.5t-246.5 -36.5q-137 0 -217 23.5t-120 88 t-40 187.5zM205 283q0 -98 24.5 -147.5t88 -68t190.5 -18.5q137 0 222 22.5t120 100.5q27 59 38 119.5t11 138.5v84h-436q-111 0 -163 -16.5t-73.5 -64.5t-21.5 -150zM367 1372v125h88v-125h-88zM736 1372v125h88v-125h-88z" />
<glyph unicode="&#xe5;" horiz-adv-x="1175" d="M133 283q0 117 27.5 180t93 90t188.5 27q61 0 457 -11v95q0 158 -26.5 224t-97 86.5t-236.5 20.5q-72 0 -172.5 -8t-159.5 -18v67q141 25 360 25q174 0 258 -31t115 -110.5t31 -243.5v-676h-58l-6 170h-8q-39 -113 -142.5 -149.5t-246.5 -36.5q-137 0 -217 23.5t-120 88 t-40 187.5zM205 283q0 -98 24.5 -147.5t88 -68t190.5 -18.5q137 0 222 22.5t120 100.5q27 59 38 119.5t11 138.5v84h-436q-111 0 -163 -16.5t-73.5 -64.5t-21.5 -150zM356 1444q0 82 13.5 120t61.5 55t155 17q109 0 157 -17t61 -55t13 -120t-13 -119t-61.5 -54.5 t-156.5 -17.5q-107 0 -155 17.5t-61.5 54.5t-13.5 119zM424 1444q0 -61 8 -86t41 -36t113 -11t113.5 11t42 35.5t8.5 86.5q0 61 -8.5 86.5t-42 37t-113.5 11.5t-113 -11.5t-41 -37t-8 -86.5z" />
<glyph unicode="&#xe6;" horiz-adv-x="1896" d="M133 283q0 113 27.5 174t93 87.5t188.5 26.5h457v93q0 158 -26.5 224t-97 86.5t-236.5 20.5q-72 0 -172.5 -8t-159.5 -18v67q141 25 360 25q174 0 259 -32t116 -116q41 80 133 114t273 34q186 0 268 -45t104.5 -149.5t22.5 -334.5v-26h-772q0 -199 24.5 -291t103.5 -129 t253 -37q82 0 180 8.5t170 20.5v-68q-59 -12 -159.5 -19t-201.5 -7q-133 0 -213.5 18t-127 63.5t-70.5 124.5q-49 -127 -154.5 -166.5t-265.5 -39.5q-137 0 -217 23.5t-120 88t-40 187.5zM205 283q0 -98 24.5 -147.5t88 -68t190.5 -18.5q137 0 222 23.5t122 105.5 q27 55 37 114.5t10 137.5v76h-436q-111 0 -163 -15.5t-73.5 -62.5t-21.5 -145zM971 571h700v35q0 176 -28.5 257t-95 106.5t-206.5 25.5q-174 0 -248.5 -29.5t-98 -113.5t-23.5 -281z" />
<glyph unicode="&#xe7;" horiz-adv-x="937" d="M154 520q0 223 32.5 337t116.5 159t252 45q66 0 140.5 -6t125.5 -17v-67q-53 10 -123.5 17t-128.5 7q-152 0 -223.5 -37.5t-96 -134t-24.5 -299.5q0 -211 24.5 -307t96.5 -132t229 -36q64 0 136.5 8.5t119.5 18.5v-68q-47 -10 -121.5 -17t-144.5 -7q-49 0 -69 2l-86 -375 h-82v10l110 369q-127 16 -187.5 74.5t-78.5 162t-18 293.5z" />
<glyph unicode="&#xe8;" horiz-adv-x="1150" d="M154 520q0 233 23.5 338t116.5 154t308 49q186 0 268 -46t104.5 -151.5t22.5 -339.5v-26h-772q0 -197 24.5 -286t103.5 -126t253 -37q82 0 180.5 8.5t169.5 20.5v-68q-59 -12 -159.5 -19t-200.5 -7q-197 0 -289 44t-122.5 153.5t-30.5 338.5zM225 563h701v43 q0 176 -29 257t-95.5 106.5t-205.5 25.5q-174 0 -249 -30.5t-98.5 -115.5t-23.5 -286zM330 1511v11h94l219 -273v-10h-55z" />
<glyph unicode="&#xe9;" horiz-adv-x="1150" d="M154 520q0 233 23.5 338t116.5 154t308 49q186 0 268 -46t104.5 -151.5t22.5 -339.5v-26h-772q0 -197 24.5 -286t103.5 -126t253 -37q82 0 180.5 8.5t169.5 20.5v-68q-59 -12 -159.5 -19t-200.5 -7q-197 0 -289 44t-122.5 153.5t-30.5 338.5zM225 563h701v43 q0 176 -29 257t-95.5 106.5t-205.5 25.5q-174 0 -249 -30.5t-98.5 -115.5t-23.5 -286zM528 1239v10l219 273h94v-11l-258 -272h-55z" />
<glyph unicode="&#xea;" horiz-adv-x="1150" d="M154 520q0 233 23.5 338t116.5 154t308 49q186 0 268 -46t104.5 -151.5t22.5 -339.5v-26h-772q0 -197 24.5 -286t103.5 -126t253 -37q82 0 180.5 8.5t169.5 20.5v-68q-59 -12 -159.5 -19t-200.5 -7q-197 0 -289 44t-122.5 153.5t-30.5 338.5zM225 563h701v43 q0 176 -29 257t-95.5 106.5t-205.5 25.5q-174 0 -249 -30.5t-98.5 -115.5t-23.5 -286zM309 1239v10l219 273h94l219 -273v-10h-55l-211 221l-211 -221h-55z" />
<glyph unicode="&#xeb;" horiz-adv-x="1150" d="M154 520q0 233 23.5 338t116.5 154t308 49q186 0 268 -46t104.5 -151.5t22.5 -339.5v-26h-772q0 -197 24.5 -286t103.5 -126t253 -37q82 0 180.5 8.5t169.5 20.5v-68q-59 -12 -159.5 -19t-200.5 -7q-197 0 -289 44t-122.5 153.5t-30.5 338.5zM225 563h701v43 q0 176 -29 257t-95.5 106.5t-205.5 25.5q-174 0 -249 -30.5t-98.5 -115.5t-23.5 -286zM346 1372v125h88v-125h-88zM715 1372v125h88v-125h-88z" />
<glyph unicode="&#xec;" horiz-adv-x="481" d="M-29 1511v11h94l219 -273v-10h-55zM205 0v1044h71v-1044h-71z" />
<glyph unicode="&#xed;" horiz-adv-x="481" d="M197 1239v10l219 273h94v-11l-258 -272h-55zM205 0v1044h71v-1044h-71z" />
<glyph unicode="&#xee;" horiz-adv-x="481" d="M-25 1239v10l219 273h94l219 -273v-10h-55l-211 221l-211 -221h-55zM205 0v1044h71v-1044h-71z" />
<glyph unicode="&#xef;" horiz-adv-x="481" d="M12 1372v125h88v-125h-88zM205 0v1044h71v-1044h-71zM381 1372v125h88v-125h-88z" />
<glyph unicode="&#xf0;" horiz-adv-x="1187" d="M154 520q0 246 24.5 351.5t114.5 147.5t301 42q203 0 305 -74l12 4q-59 184 -163 324l-250 -43v65l202 35q-74 84 -151 141v9h88q68 -45 141 -136l205 37v-65l-162 -29q66 -94 121 -226t74 -263q18 -127 18 -269q0 -279 -21.5 -389t-110.5 -154t-308 -44q-211 0 -301 41 t-114.5 145t-24.5 350zM225 520q0 -229 17.5 -316t90.5 -121t261 -34t261 34t90.5 121t17.5 316q0 195 -17.5 285t-95.5 140t-256 50q-186 0 -260 -34.5t-91.5 -122.5t-17.5 -318z" />
<glyph unicode="&#xf1;" d="M205 0v1044h57l6 -170h8q29 86 111 136.5t262 50.5q164 0 246 -39t109.5 -123t27.5 -244v-655h-71v645q0 158 -25 229.5t-91.5 96t-209.5 24.5q-168 0 -246 -57t-95.5 -146.5t-17.5 -250.5v-541h-71zM266 1305q0 113 24.5 153.5t102.5 40.5q55 0 106.5 -13t139.5 -44 q68 -23 113.5 -35t88.5 -12q45 0 58.5 26.5t13.5 100.5h55q0 -113 -24.5 -154t-102.5 -41q-55 0 -106 13.5t-139 43.5q-68 23 -114 35.5t-89 12.5q-45 0 -58.5 -27t-13.5 -100h-55z" />
<glyph unicode="&#xf2;" horiz-adv-x="1187" d="M154 520q0 246 24.5 351.5t114.5 147.5t301 42t301 -42t114.5 -147.5t24.5 -351.5t-24.5 -350t-114.5 -145t-301 -41t-301 41t-114.5 145t-24.5 350zM225 520q0 -229 17.5 -316t90.5 -121t261 -34t261 34t90.5 121t17.5 316t-17.5 317.5t-91.5 123t-260 34.5t-260 -34.5 t-91.5 -122.5t-17.5 -318zM352 1511v11h94l219 -273v-10h-55z" />
<glyph unicode="&#xf3;" horiz-adv-x="1187" d="M154 520q0 246 24.5 351.5t114.5 147.5t301 42t301 -42t114.5 -147.5t24.5 -351.5t-24.5 -350t-114.5 -145t-301 -41t-301 41t-114.5 145t-24.5 350zM225 520q0 -229 17.5 -316t90.5 -121t261 -34t261 34t90.5 121t17.5 316t-17.5 317.5t-91.5 123t-260 34.5t-260 -34.5 t-91.5 -122.5t-17.5 -318zM541 1239v10l219 273h94v-11l-258 -272h-55z" />
<glyph unicode="&#xf4;" horiz-adv-x="1187" d="M154 520q0 246 24.5 351.5t114.5 147.5t301 42t301 -42t114.5 -147.5t24.5 -351.5t-24.5 -350t-114.5 -145t-301 -41t-301 41t-114.5 145t-24.5 350zM225 520q0 -229 17.5 -316t90.5 -121t261 -34t261 34t90.5 121t17.5 316t-17.5 317.5t-91.5 123t-260 34.5t-260 -34.5 t-91.5 -122.5t-17.5 -318zM328 1239v10l219 273h94l219 -273v-10h-55l-211 221l-211 -221h-55z" />
<glyph unicode="&#xf5;" horiz-adv-x="1187" d="M154 520q0 246 24.5 351.5t114.5 147.5t301 42t301 -42t114.5 -147.5t24.5 -351.5t-24.5 -350t-114.5 -145t-301 -41t-301 41t-114.5 145t-24.5 350zM225 520q0 -229 17.5 -316t90.5 -121t261 -34t261 34t90.5 121t17.5 316t-17.5 317.5t-91.5 123t-260 34.5t-260 -34.5 t-91.5 -122.5t-17.5 -318zM242 1305q0 113 24.5 153.5t102.5 40.5q55 0 106.5 -13t139.5 -44q68 -23 113.5 -35t88.5 -12q45 0 58.5 26.5t13.5 100.5h55q0 -113 -24.5 -154t-102.5 -41q-55 0 -106 13.5t-139 43.5q-68 23 -114 35.5t-89 12.5q-45 0 -58.5 -27t-13.5 -100h-55 z" />
<glyph unicode="&#xf6;" horiz-adv-x="1187" d="M154 520q0 246 24.5 351.5t114.5 147.5t301 42t301 -42t114.5 -147.5t24.5 -351.5t-24.5 -350t-114.5 -145t-301 -41t-301 41t-114.5 145t-24.5 350zM225 520q0 -229 17.5 -316t90.5 -121t261 -34t261 34t90.5 121t17.5 316t-17.5 317.5t-91.5 123t-260 34.5t-260 -34.5 t-91.5 -122.5t-17.5 -318zM365 1372v125h88v-125h-88zM734 1372v125h88v-125h-88z" />
<glyph unicode="&#xf7;" horiz-adv-x="1105" d="M143 485v66h820v-66h-820zM508 66v124h90v-124h-90zM508 846v125h90v-125h-90z" />
<glyph unicode="&#xf8;" horiz-adv-x="1187" d="M154 520q0 246 24.5 351.5t114.5 147.5t301 42q195 0 278 -33l82 129h78l-100 -160q65 -49 83.5 -152.5t18.5 -324.5q0 -246 -24.5 -350t-114.5 -145t-301 -41q-197 0 -281 32l-82 -129h-75l100 160q-66 49 -84 150.5t-18 322.5zM225 520q0 -203 11.5 -285.5t58.5 -125.5 l541 860q-70 27 -242 26q-186 0 -260 -34.5t-91.5 -122.5t-17.5 -318zM350 76q72 -27 244 -27q188 0 261 34t90.5 121t17.5 316q0 203 -11.5 288t-58.5 128z" />
<glyph unicode="&#xf9;" d="M205 389v655h71v-645q0 -158 25 -229.5t91.5 -96t209.5 -24.5q168 0 246 57.5t95.5 146.5t17.5 251v540h71v-1044h-57l-6 170h-8q-29 -86 -111 -136t-262 -50q-164 0 -246 38.5t-109.5 122.5t-27.5 244zM363 1511v11h94l219 -273v-10h-55z" />
<glyph unicode="&#xfa;" d="M205 389v655h71v-645q0 -158 25 -229.5t91.5 -96t209.5 -24.5q168 0 246 57.5t95.5 146.5t17.5 251v540h71v-1044h-57l-6 170h-8q-29 -86 -111 -136t-262 -50q-164 0 -246 38.5t-109.5 122.5t-27.5 244zM578 1239v10l219 273h94v-11l-258 -272h-55z" />
<glyph unicode="&#xfb;" d="M205 389v655h71v-645q0 -158 25 -229.5t91.5 -96t209.5 -24.5q168 0 246 57.5t95.5 146.5t17.5 251v540h71v-1044h-57l-6 170h-8q-29 -86 -111 -136t-262 -50q-164 0 -246 38.5t-109.5 122.5t-27.5 244zM352 1239v10l219 273h94l219 -273v-10h-55l-211 221l-211 -221h-55 z" />
<glyph unicode="&#xfc;" d="M205 389v655h71v-645q0 -158 25 -229.5t91.5 -96t209.5 -24.5q168 0 246 57.5t95.5 146.5t17.5 251v540h71v-1044h-57l-6 170h-8q-29 -86 -111 -136t-262 -50q-164 0 -246 38.5t-109.5 122.5t-27.5 244zM389 1372v125h88v-125h-88zM758 1372v125h88v-125h-88z" />
<glyph unicode="&#xfd;" d="M205 389v655h71v-645q0 -158 25 -229.5t91.5 -96t209.5 -24.5q168 0 246 57.5t95.5 146.5t17.5 251v540h71v-907q0 -221 -34.5 -337.5t-130 -169t-285.5 -52.5q-202 0 -349 14v68q176 -16 338 -16q174 0 257 46t108 138t25 270v56h-9q-59 -170 -364 -170 q-164 0 -246 38.5t-109.5 122.5t-27.5 244zM578 1239v10l219 273h94v-11l-258 -272h-55z" />
<glyph unicode="&#xfe;" horiz-adv-x="1220" d="M205 -389v1911h71v-629h9q37 90 126 129t244 39q178 0 264.5 -44t117 -154.5t30.5 -340.5q0 -229 -30.5 -339.5t-116.5 -154.5t-265 -44q-156 0 -244.5 38.5t-125.5 129.5h-9v-541h-71zM276 522q0 -111 4.5 -175t16.5 -103q37 -106 117 -150.5t221 -44.5q164 0 236.5 33 t98 128t25.5 312t-25.5 312.5t-98 128t-236.5 32.5q-139 0 -221 -41t-113 -137q-16 -51 -20.5 -114.5t-4.5 -180.5z" />
<glyph unicode="&#xff;" d="M205 389v655h71v-645q0 -158 25 -229.5t91.5 -96t209.5 -24.5q168 0 246 57.5t95.5 146.5t17.5 251v540h71v-907q0 -221 -34.5 -337.5t-130 -169t-285.5 -52.5q-202 0 -349 14v68q176 -16 338 -16q174 0 257 46t108 138t25 270v56h-9q-59 -170 -364 -170 q-164 0 -246 38.5t-109.5 122.5t-27.5 244zM395 1372v125h88v-125h-88zM764 1372v125h88v-125h-88z" />
<glyph unicode="&#x152;" horiz-adv-x="2197" d="M184 705q0 342 32 477t142.5 181t384.5 46h1338v-70h-778q-96 0 -150 9q63 -41 95 -114t42 -183.5t13 -302.5h682v-70h-682q-2 -201 -11.5 -314.5t-41 -188.5t-97.5 -114q53 8 150 9h778v-70h-1338q-274 0 -384.5 46t-142.5 181t-32 478zM258 705q0 -328 29.5 -451 t119 -153.5t336.5 -30.5q248 0 337 30.5t119 153.5t30 451t-30 450.5t-119 153t-337 30.5t-337 -30.5t-118.5 -153.5t-29.5 -450z" />
<glyph unicode="&#x153;" horiz-adv-x="1959" d="M154 520q0 246 24.5 351.5t114.5 147.5t301 42q190 0 281.5 -37t123.5 -135q37 92 130.5 132t281.5 40q186 0 268 -46t104.5 -151.5t22.5 -339.5v-26h-772q0 -197 24.5 -286t103.5 -126t253 -37q82 0 180.5 8.5t169.5 20.5v-68q-59 -12 -159.5 -19t-200.5 -7 q-180 0 -272.5 38.5t-131.5 139.5q-23 -72 -68.5 -110t-125.5 -53t-213 -15q-211 0 -301 41t-114.5 145t-24.5 350zM225 520q0 -229 17.5 -316t90.5 -121t261 -34t261 34t90.5 121t17.5 316t-17.5 317.5t-91.5 123t-260 34.5t-260 -34.5t-91.5 -122.5t-17.5 -318zM1034 563 h701v43q0 176 -29 257t-95.5 106.5t-205.5 25.5q-174 0 -249 -30.5t-98.5 -115.5t-23.5 -286z" />
<glyph unicode="&#x178;" horiz-adv-x="1226" d="M41 1409h86l479 -756h15l481 756h84l-537 -834v-575h-74v575zM389 1577v125h88v-125h-88zM758 1577v125h88v-125h-88z" />
<glyph unicode="&#x2c6;" horiz-adv-x="614" d="M41 1239v10l219 273h94l219 -273v-10h-55l-211 221l-211 -221h-55z" />
<glyph unicode="&#x2dc;" horiz-adv-x="784" d="M41 1305q0 113 24.5 153.5t102.5 40.5q55 0 106.5 -13t139.5 -44q68 -23 113.5 -35t88.5 -12q45 0 58.5 26.5t13.5 100.5h55q0 -113 -24.5 -154t-102.5 -41q-55 0 -106 13.5t-139 43.5q-68 23 -114 35.5t-89 12.5q-45 0 -58.5 -27t-13.5 -100h-55z" />
<glyph unicode="&#x2000;" horiz-adv-x="909" />
<glyph unicode="&#x2001;" horiz-adv-x="1819" />
<glyph unicode="&#x2002;" horiz-adv-x="909" />
<glyph unicode="&#x2003;" horiz-adv-x="1819" />
<glyph unicode="&#x2004;" horiz-adv-x="606" />
<glyph unicode="&#x2005;" horiz-adv-x="454" />
<glyph unicode="&#x2006;" horiz-adv-x="303" />
<glyph unicode="&#x2007;" horiz-adv-x="303" />
<glyph unicode="&#x2008;" horiz-adv-x="227" />
<glyph unicode="&#x2009;" horiz-adv-x="363" />
<glyph unicode="&#x200a;" horiz-adv-x="101" />
<glyph unicode="&#x2010;" horiz-adv-x="727" d="M133 549v74h461v-74h-461z" />
<glyph unicode="&#x2011;" horiz-adv-x="727" d="M133 549v74h461v-74h-461z" />
<glyph unicode="&#x2012;" horiz-adv-x="727" d="M133 549v74h461v-74h-461z" />
<glyph unicode="&#x2013;" horiz-adv-x="962" d="M133 588v69h696v-69h-696z" />
<glyph unicode="&#x2014;" horiz-adv-x="1783" d="M133 588v69h1518v-69h-1518z" />
<glyph unicode="&#x2018;" horiz-adv-x="360" d="M131 1069v154q0 76 13.5 114.5t47 55t99.5 16.5v-43q-47 0 -67.5 -11.5t-28 -37t-7.5 -80.5v-35h41v-133h-98z" />
<glyph unicode="&#x2019;" horiz-adv-x="360" d="M70 1069v43q47 0 67.5 11.5t27.5 37t7 80.5v35h-41v133h98v-154q0 -76 -13 -114.5t-47 -55t-99 -16.5z" />
<glyph unicode="&#x201a;" horiz-adv-x="360" d="M70 -164q47 0 67.5 11.5t27.5 37t7 80.5v35h-41v133h98v-153q0 -76 -13 -115t-47 -55.5t-99 -16.5v43z" />
<glyph unicode="&#x201c;" horiz-adv-x="618" d="M131 1069v154q0 76 13.5 114.5t47 55t99.5 16.5v-43q-47 0 -67.5 -11.5t-28 -37t-7.5 -80.5v-35h41v-133h-98zM389 1069v154q0 76 13.5 114.5t47 55t99.5 16.5v-43q-47 0 -67.5 -11.5t-28 -37t-7.5 -80.5v-35h41v-133h-98z" />
<glyph unicode="&#x201d;" horiz-adv-x="618" d="M70 1069v43q47 0 67.5 11.5t27.5 37t7 80.5v35h-41v133h98v-154q0 -76 -13 -114.5t-47 -55t-99 -16.5zM328 1069v43q47 0 67.5 11.5t27.5 37t7 80.5v35h-41v133h98v-154q0 -76 -13 -114.5t-47 -55t-99 -16.5z" />
<glyph unicode="&#x201e;" horiz-adv-x="618" d="M70 -164q47 0 67.5 11.5t27.5 37t7 80.5v35h-41v133h98v-153q0 -76 -13 -115t-47 -55.5t-99 -16.5v43zM328 -164q47 0 67.5 11.5t27.5 37t7 80.5v35h-41v133h98v-153q0 -76 -13 -115t-47 -55.5t-99 -16.5v43z" />
<glyph unicode="&#x2022;" horiz-adv-x="727" d="M154 700q0 102 11 142.5t52 55.5t143 15q106 0 148.5 -15t53.5 -55t11 -143q0 -98 -11 -138t-54 -54t-148 -14q-102 0 -143 14t-52 54t-11 138z" />
<glyph unicode="&#x2026;" horiz-adv-x="1081" d="M131 0v133h98v-133h-98zM492 0v133h98v-133h-98zM852 0v133h98v-133h-98z" />
<glyph unicode="&#x202f;" horiz-adv-x="363" />
<glyph unicode="&#x2039;" horiz-adv-x="620" d="M123 623l270 421h64l-244 -421l244 -420h-64z" />
<glyph unicode="&#x203a;" horiz-adv-x="620" d="M164 203l244 420l-244 421h63l271 -421l-271 -420h-63z" />
<glyph unicode="&#x205f;" horiz-adv-x="454" />
<glyph unicode="&#x20ac;" horiz-adv-x="1280" d="M84 516v70h197v243h-197v70h199q10 236 58 345.5t155.5 145t330.5 35.5q78 0 165 -7t147 -17v-66q-137 20 -291 21q-213 0 -308.5 -29t-135 -122t-48.5 -306h682v-70h-684v-243h684v-70h-682q8 -217 47 -311t134.5 -123t310.5 -29q162 0 299 21v-70q-139 -20 -320 -20 q-225 0 -332.5 34.5t-154.5 145t-57 352.5h-199z" />
<glyph unicode="&#x2122;" horiz-adv-x="1462" d="M80 1366v43h457v-43h-207v-578h-47v578h-203zM659 788v621h52l256 -543h8l252 543h51v-621h-47v508h-8l-238 -508h-35l-237 504h-8v-504h-46z" />
<glyph unicode="&#x25fc;" horiz-adv-x="1044" d="M0 0v1044h1044v-1044h-1044z" />
</font>
</defs>
</svg>
